<?xml version="1.0" encoding="utf-8"?>
<!-- Generator: Adobe Illustrator 19.0.0, SVG Export Plug-In . SVG Version: 6.00 Build 0)  -->
<svg version="1.1" id="Capa_1" xmlns="http://www.w3.org/2000/svg" xmlns:xlink="http://www.w3.org/1999/xlink" x="0px" y="0px"
	 viewBox="0 0 100 33" style="enable-background:new 0 0 100 33;" xml:space="preserve">
<style type="text/css">
	.st0{fill:#FEFEFE;}
	.st1{fill:#0165B3;}
	.st2{fill:#0266B3;}
	.st3{fill:#FDFEFE;}
	.st4{fill:#FBFCFD;}
	.st5{fill:#FDFDFD;}
	.st6{fill:#FCFDFD;}
</style>
<g>
	<path class="st0" d="M0,33.4C0,22.1,0,10.9,0-0.4c33.3,0,66.7,0,100,0c0,11.2,0,22.5,0,33.7C66.7,33.4,33.3,33.4,0,33.4z M10.2,8.6
		c0,0.3,0,0.6,0,0.8c0,0.2,0,0.2-0.2,0.3C6,12,3.7,15.3,3.4,19.9c-0.1,2.3,0.4,4.5,1.5,6.6c1.4,2.7,3.5,4.6,6.3,5.8
		c2.3,0.9,4.6,1.1,7,0.7c2.9-0.5,5.4-1.7,7.4-3.8c3.1-3.2,4.3-7.1,3.7-11.5c-0.5-3.4-2-6.3-4.5-8.7C21.9,6.2,18.4,5,14.5,5.2
		c-0.6,0-1.2,0.1-1.8,0.2c0-1.8,0-3.6,0-5.5c-0.8,0.3-1.5,0.7-2.3,1c-0.2,0.1-0.2,0.2-0.2,0.3c0,1.5,0,3.1,0,4.6
		c0,0.1,0,0.2-0.2,0.3C9.4,6.3,8.8,6.5,8.2,6.8c-2.9,1.6-5.1,3.7-6.6,6.7c-0.9,1.8-1.4,3.8-1.5,5.8c0,0.4,0,0.8,0,1.3
		c0.8,0,1.6,0,2.4,0c0-2.6,0.6-5,2-7.1C5.9,11.3,7.8,9.7,10.2,8.6z M34.3,10.8c0,4.9,0,9.8,0,14.7c0.1,0,0.2,0,0.3,0
		c4.1,0,8.1,0,12.2,0c0.5,0,1,0,1.6-0.1c1.3-0.2,2.1-0.9,2.5-2.2c0.3-1,0.3-2.1,0.1-3.2c-0.3-1.2-1.1-1.8-2.2-1.9
		c-0.1,0-0.3,0-0.4,0c0,0,0-0.1,0-0.1c0.1,0,0.2-0.1,0.3-0.1c0.9-0.1,1.4-0.6,1.7-1.5c0.3-1.1,0.3-2.2,0.1-3.4
		c-0.3-1.2-1.2-2.3-2.9-2.3c-4.3,0-8.5,0-12.8,0C34.6,10.8,34.5,10.8,34.3,10.8z M86.5,30.2c0.1,0,0.1,0,0.1,0c2.4,0,4.9,0,7.3,0
		c0.9,0,1.9,0,2.8-0.2c1.1-0.3,2-0.8,2.5-1.9c0.4-0.8,0.5-1.7,0.5-2.6c0-3.3,0-6.6,0-9.8c0-0.1,0-0.2,0-0.3c-1.2,0-2.4,0-3.6,0
		c0,0.1,0,0.2,0,0.3c0,1.4,0,2.9,0,4.3c0,0.3,0,0.6,0,0.9c-0.1,1.1-0.6,1.6-1.6,1.9c-1,0.2-2.1,0.2-3.2,0c-0.7-0.1-1.1-0.5-1.2-1.2
		c0-0.2,0-0.4,0-0.7c0-1.8,0-3.5,0-5.3c0-0.1,0-0.2,0-0.3c-1.2,0-2.5,0-3.7,0c0,0.1,0,0.2,0,0.3c0,1.8,0,3.6,0,5.4
		c0,0.4,0,0.9,0,1.3c0,0.7,0.2,1.3,0.6,1.9c0.6,0.9,1.4,1.3,2.4,1.5c1.6,0.4,3.2,0.2,4.8,0.2c0.6,0,1.2-0.1,1.8-0.1
		c0,0.9-0.4,1.4-1.3,1.6c-0.3,0.1-0.6,0.1-0.8,0.1c-2.4,0-4.9,0-7.3,0c-0.1,0-0.2,0-0.3,0C86.5,28.4,86.5,29.3,86.5,30.2z
		 M75.8,18.2c0.2-0.6,0.3-0.7,0.9-0.8c0.9-0.1,1.7-0.1,2.6-0.1c0.5,0,0.9,0.1,1.4,0.2c0.5,0.1,0.7,0.4,0.8,0.9c0,0.3,0,0.6,0,0.9
		c0,0.1-0.1,0.2-0.1,0.2c-0.1,0-0.2-0.1-0.2-0.1c-0.2-0.3-0.5-0.5-0.9-0.6c-0.3-0.1-0.6-0.1-0.9-0.1c-1.2,0-2.5-0.1-3.7-0.1
		c-0.5,0-1,0.1-1.5,0.2c-1.1,0.2-1.8,0.8-2.1,1.9c-0.3,1-0.2,1.9,0,2.9c0.2,0.9,0.9,1.5,1.8,1.7c0.6,0.1,1.1,0.2,1.7,0.2
		c3.1,0,6.2,0,9.3,0c0.1,0,0.2,0,0.3,0c0-0.1,0-0.2,0-0.3c0-2.3,0-4.5,0-6.8c0-0.2,0-0.5,0-0.7c-0.1-1.1-0.5-2-1.5-2.5
		c-0.5-0.3-1.1-0.4-1.6-0.4c-1.4-0.1-2.8-0.1-4.1-0.1c-1,0-2,0-3,0.3c-1.1,0.3-1.9,0.8-2.3,1.9c-0.2,0.4-0.2,0.9-0.2,1.3
		C73.4,18.2,74.6,18.2,75.8,18.2z M65.3,25.6c0-0.1,0-0.2,0-0.3c0-2.4,0-4.7,0-7.1c0-0.4,0-0.8-0.1-1.1c-0.3-1-0.8-1.7-1.9-2
		c-0.4-0.1-0.8-0.2-1.2-0.2c-1.4-0.1-2.7-0.1-4.1-0.1c-1,0-1.9,0.1-2.8,0.2c-1.1,0.2-1.9,0.7-2.4,1.7c-0.3,0.5-0.3,1.1-0.3,1.6
		c1.2,0,2.4,0,3.6,0c0-0.6,0.5-0.8,1-0.8c1.1,0,2.2,0,3.2,0c0.3,0,0.6,0.1,0.8,0.2c0.3,0.1,0.5,0.3,0.6,0.7c0,0.3,0,0.7,0,1.1
		c0,0.1-0.1,0.2-0.1,0.2c-0.1,0-0.2-0.1-0.2-0.1c-0.3-0.3-0.6-0.5-1-0.6c-0.3-0.1-0.6-0.1-0.9-0.1c-1.2,0-2.5-0.1-3.7-0.1
		c-0.5,0-1,0.1-1.5,0.2c-1.1,0.2-1.9,0.9-2.2,2c-0.2,0.9-0.2,1.8,0,2.6c0.2,1,0.9,1.7,1.9,1.9c0.5,0.1,1.1,0.2,1.7,0.2
		c3.1,0,6.2,0,9.3,0C65.1,25.6,65.1,25.6,65.3,25.6z M70.6,25.5c0-4.9,0-9.8,0-14.7c-1.2,0-2.3,0-3.5,0c0,4.9,0,9.8,0,14.7
		C68.3,25.5,69.4,25.5,70.6,25.5z"/>
	<path class="st1" d="M10.2,8.6c-2.4,1.1-4.3,2.6-5.7,4.8c-1.4,2.1-2,4.5-2,7.1c-0.8,0-1.6,0-2.4,0c0-0.4,0-0.9,0-1.3
		c0.1-2,0.6-4,1.5-5.8c1.5-2.9,3.7-5.1,6.6-6.7C8.8,6.5,9.4,6.3,10.1,6c0.1-0.1,0.2-0.1,0.2-0.3c0-1.5,0-3.1,0-4.6
		c0-0.2,0-0.3,0.2-0.3c0.8-0.3,1.5-0.6,2.3-1c0,1.9,0,3.7,0,5.5c0.6-0.1,1.2-0.1,1.8-0.2c3.9-0.1,7.4,1.1,10.3,3.8
		c2.5,2.4,4,5.3,4.5,8.7c0.6,4.4-0.6,8.3-3.7,11.5c-2,2.1-4.5,3.4-7.4,3.8c-2.4,0.4-4.8,0.2-7-0.7c-2.8-1.2-4.9-3.1-6.3-5.8
		c-1.1-2.1-1.6-4.3-1.5-6.6C3.7,15.3,6,12,10,9.8c0.2-0.1,0.2-0.2,0.2-0.3C10.2,9.2,10.2,8.9,10.2,8.6z M12.7,17.9
		c0,0.8,0,1.5,0,2.3c0,0.4,0,0.8,0.2,1.2c0.3,1.2,1,2,2.2,2.3c0.8,0.2,1.6,0.1,2.3-0.2c1.9-0.7,3-2.9,2.5-5
		c-0.6-2.6-2.9-4.2-5.5-3.9c-0.5,0.1-1.1,0.2-1.5,0.4c-0.1,0.1-0.2,0.1-0.2,0.3C12.7,16.2,12.7,17.1,12.7,17.9z M12.7,8.8
		c0.1,0,0.2,0,0.3,0c1.2-0.2,2.5-0.3,3.8-0.1c2.8,0.5,5,1.8,6.8,4c2,2.5,2.8,5.4,2.3,8.6c-0.5,3.4-2.5,5.9-5.6,7.5
		c-2.1,1-4.3,1.3-6.6,0.7C9.8,28.4,7,25,6.8,21c-0.2-3,1-5.4,3.3-7.3c0,0,0.1-0.1,0.1-0.1c0-0.3,0-0.7,0-1.1c-0.1,0-0.1,0-0.1,0
		c0,0-0.1,0-0.1,0.1c-2.6,1.9-4,4.4-4.1,7.6c0,1.4,0.3,2.8,0.8,4.1c1,2.3,2.5,4.1,4.8,5.2c1.8,0.9,3.8,1.1,5.8,0.9
		c2.4-0.3,4.5-1.3,6.2-3c2.6-2.7,3.8-5.9,3.2-9.6c-0.4-2.8-1.7-5.2-3.7-7.2c-2.3-2.2-5.2-3.2-8.4-3.1c-0.6,0-1.3,0.1-1.9,0.2
		C12.7,8.2,12.7,8.5,12.7,8.8z M10.2,17.4c-0.1,0.1-0.1,0.2-0.2,0.2c0,0.1-0.1,0.1-0.1,0.2c-0.6,1.1-0.7,2.2-0.6,3.4
		c0.4,3.5,3.3,5.6,6.1,5.9c2.3,0.2,4.4-0.6,6-2.4c1.4-1.6,2.1-3.5,2-5.6c-0.1-2.3-1-4.3-2.7-5.9c-1.5-1.4-3.3-2.1-5.4-2.2
		c-0.9,0-1.8,0.1-2.6,0.3c0,0.3,0,0.7,0,0.9c0.5-0.1,1-0.2,1.5-0.3c2.4-0.2,4.5,0.4,6.1,2.2c1.5,1.7,2.3,3.6,2.1,5.9
		c-0.3,3-2.7,5.6-5.7,6c-2.9,0.4-5.6-1.3-6.4-4.1c-0.2-0.5-0.2-1.1-0.2-1.6C10.2,19.5,10.2,18.5,10.2,17.4z"/>
	<path class="st2" d="M34.3,10.8c0.1,0,0.2,0,0.3,0c4.3,0,8.5,0,12.8,0c1.7,0,2.6,1,2.9,2.3c0.3,1.1,0.2,2.2-0.1,3.4
		c-0.2,0.9-0.8,1.4-1.7,1.5c-0.1,0-0.2,0-0.3,0.1c0,0,0,0.1,0,0.1c0.1,0,0.3,0,0.4,0c1.2,0.1,2,0.8,2.2,1.9c0.3,1.1,0.2,2.1-0.1,3.2
		c-0.3,1.3-1.2,1.9-2.5,2.2c-0.5,0.1-1,0.1-1.6,0.1c-4.1,0-8.1,0-12.2,0c-0.1,0-0.2,0-0.3,0C34.3,20.6,34.3,15.8,34.3,10.8z
		 M38.3,22c0.1,0,0.1,0,0.1,0c2.3,0,4.6,0,6.9,0c0.1,0,0.3,0,0.4,0c0.4-0.1,0.7-0.2,0.8-0.6c0.1-0.3,0.1-0.6,0-0.9
		c-0.1-0.5-0.5-0.8-1.1-0.8c-2.4,0-4.7,0-7.1,0c0,0-0.1,0-0.1,0C38.3,20.5,38.3,21.2,38.3,22z M38.3,16.5c0.1,0,0.1,0,0.2,0
		c2.3,0,4.6,0,6.9,0c0.1,0,0.2,0,0.3,0c0.5-0.1,0.8-0.3,0.8-0.8c0-0.2,0-0.5,0-0.7c-0.1-0.4-0.3-0.7-0.7-0.8
		c-0.3-0.1-0.6-0.1-0.8-0.1c-2.2,0-4.3,0-6.5,0c-0.1,0-0.2,0-0.3,0C38.3,15,38.3,15.8,38.3,16.5z"/>
	<path class="st1" d="M86.5,30.2c0-0.9,0-1.8,0-2.8c0.1,0,0.2,0,0.3,0c2.4,0,4.9,0,7.3,0c0.3,0,0.6,0,0.8-0.1
		c0.9-0.2,1.3-0.7,1.3-1.6c-0.6,0-1.2,0.1-1.8,0.1c-1.6,0-3.2,0.2-4.8-0.2c-1-0.2-1.8-0.6-2.4-1.5c-0.4-0.6-0.5-1.2-0.6-1.9
		c0-0.4,0-0.9,0-1.3c0-1.8,0-3.6,0-5.4c0-0.1,0-0.2,0-0.3c1.2,0,2.5,0,3.7,0c0,0.1,0,0.2,0,0.3c0,1.8,0,3.5,0,5.3c0,0.2,0,0.4,0,0.7
		c0.1,0.7,0.5,1.1,1.2,1.2c1,0.2,2.1,0.2,3.2,0c1-0.2,1.5-0.8,1.6-1.9c0-0.3,0-0.6,0-0.9c0-1.4,0-2.9,0-4.3c0-0.1,0-0.2,0-0.3
		c1.2,0,2.4,0,3.6,0c0,0.1,0,0.2,0,0.3c0,3.3,0,6.6,0,9.8c0,0.9-0.1,1.8-0.5,2.6c-0.5,1.1-1.4,1.6-2.5,1.9c-0.9,0.2-1.9,0.2-2.8,0.2
		c-2.4,0-4.9,0-7.3,0C86.6,30.2,86.6,30.2,86.5,30.2z"/>
	<path class="st1" d="M75.8,18.2c-1.2,0-2.4,0-3.5,0c0-0.5,0-0.9,0.2-1.3c0.4-1.1,1.2-1.7,2.3-1.9c1-0.2,2-0.3,3-0.3
		c1.4,0,2.8,0.1,4.1,0.1c0.6,0,1.1,0.1,1.6,0.4c1,0.5,1.4,1.5,1.5,2.5c0,0.2,0,0.5,0,0.7c0,2.3,0,4.5,0,6.8c0,0.1,0,0.2,0,0.3
		c-0.1,0-0.2,0-0.3,0c-3.1,0-6.2,0-9.3,0c-0.6,0-1.2-0.1-1.7-0.2c-0.9-0.2-1.6-0.8-1.8-1.7c-0.3-1-0.3-1.9,0-2.9
		c0.3-1.1,1.1-1.7,2.1-1.9c0.5-0.1,1-0.2,1.5-0.2c1.2,0,2.5,0,3.7,0.1c0.3,0,0.6,0.1,0.9,0.1c0.4,0.1,0.7,0.3,0.9,0.6
		c0,0.1,0.1,0.1,0.2,0.1c0-0.1,0.1-0.2,0.1-0.2c0-0.3,0-0.6,0-0.9c0-0.5-0.3-0.8-0.8-0.9c-0.4-0.1-0.9-0.2-1.4-0.2
		c-0.9,0-1.7,0-2.6,0.1C76.1,17.5,76,17.6,75.8,18.2z M78.5,23.2C78.5,23.2,78.5,23.2,78.5,23.2c0.2,0,0.4,0,0.6,0
		c0.6-0.1,1.1-0.1,1.7-0.2c0.5-0.1,0.7-0.5,0.7-1.1c0-0.4-0.3-0.7-0.8-0.8c-0.1,0-0.2-0.1-0.3-0.1c-1.1,0-2.1-0.1-3.2-0.1
		c-0.4,0-0.8,0.1-1.2,0.2c-0.6,0.2-0.9,1.2-0.5,1.7c0.1,0.1,0.2,0.1,0.3,0.2C76,23,76.1,23,76.3,23C77,23.1,77.8,23.1,78.5,23.2z"/>
	<path class="st1" d="M65.3,25.6c-0.1,0-0.2,0-0.3,0c-3.1,0-6.2,0-9.3,0c-0.6,0-1.1-0.1-1.7-0.2c-1-0.2-1.7-0.8-1.9-1.9
		c-0.2-0.9-0.2-1.8,0-2.6c0.3-1.2,1.1-1.8,2.2-2c0.5-0.1,1-0.1,1.5-0.2c1.2,0,2.5,0,3.7,0.1c0.3,0,0.6,0.1,0.9,0.1
		c0.4,0.1,0.7,0.3,1,0.6c0,0.1,0.1,0.1,0.2,0.1c0-0.1,0.1-0.2,0.1-0.2c0-0.4,0-0.7,0-1.1c0-0.3-0.2-0.6-0.6-0.7
		c-0.3-0.1-0.5-0.2-0.8-0.2c-1.1,0-2.2,0-3.2,0c-0.5,0-0.9,0.2-1,0.8c-1.2,0-2.4,0-3.6,0c0-0.6,0.1-1.1,0.3-1.6
		c0.5-1,1.4-1.5,2.4-1.7c0.9-0.1,1.9-0.2,2.8-0.2c1.4,0,2.7,0.1,4.1,0.1c0.4,0,0.8,0.1,1.2,0.2c1,0.3,1.6,1.1,1.9,2
		c0.1,0.4,0.1,0.8,0.1,1.1c0,2.4,0,4.7,0,7.1C65.3,25.4,65.3,25.4,65.3,25.6z M58.5,23.2C58.5,23.2,58.5,23.2,58.5,23.2
		c0.2,0,0.5,0,0.7,0c0.6-0.1,1.1-0.1,1.7-0.2c0.5-0.1,0.7-0.5,0.7-1.1c0-0.5-0.3-0.7-0.8-0.8c-0.1,0-0.2-0.1-0.3-0.1
		c-0.9,0-1.9-0.1-2.8-0.1c-0.5,0-1,0.1-1.5,0.2c-0.2,0-0.4,0.2-0.5,0.4c-0.4,0.7-0.1,1.5,0.8,1.6C57.1,23.1,57.8,23.1,58.5,23.2z"/>
	<path class="st2" d="M70.6,25.5c-1.2,0-2.3,0-3.5,0c0-4.9,0-9.8,0-14.7c1.2,0,2.3,0,3.5,0C70.6,15.7,70.6,20.6,70.6,25.5z"/>
	<path class="st3" d="M12.7,17.9c0-0.9,0-1.7,0-2.6c0-0.2,0.1-0.2,0.2-0.3c0.5-0.2,1-0.4,1.5-0.4c2.6-0.3,4.9,1.3,5.5,3.9
		c0.5,2.1-0.6,4.3-2.5,5c-0.8,0.3-1.5,0.4-2.3,0.2c-1.2-0.3-1.9-1.2-2.2-2.3c-0.1-0.4-0.1-0.8-0.2-1.2
		C12.7,19.5,12.7,18.7,12.7,17.9z"/>
	<path class="st4" d="M12.7,8.8c0-0.3,0-0.6,0-1c0.6-0.1,1.3-0.2,1.9-0.2c3.2-0.1,6,0.9,8.4,3.1c2.1,1.9,3.3,4.3,3.7,7.2
		c0.5,3.7-0.6,7-3.2,9.6c-1.7,1.7-3.8,2.7-6.2,3c-2,0.2-3.9,0-5.8-0.9c-2.2-1.1-3.8-2.9-4.8-5.2c-0.6-1.3-0.9-2.7-0.8-4.1
		c0.1-3.2,1.5-5.8,4.1-7.6c0,0,0.1,0,0.1-0.1c0,0,0,0,0.1,0c0,0.4,0,0.7,0,1.1c0,0-0.1,0.1-0.1,0.1c-2.3,1.9-3.4,4.3-3.3,7.3
		c0.2,3.9,3,7.4,6.8,8.4c2.3,0.6,4.5,0.3,6.6-0.7c3.1-1.5,5.1-4,5.6-7.5c0.5-3.2-0.3-6-2.3-8.6c-1.7-2.2-4-3.5-6.8-4
		c-1.3-0.2-2.5-0.2-3.8,0.1C12.9,8.8,12.8,8.8,12.7,8.8z"/>
	<path class="st4" d="M10.2,17.4c0,1.1,0,2.1,0,3.1c0,0.5,0.1,1.1,0.2,1.6c0.8,2.8,3.5,4.5,6.4,4.1c3-0.4,5.4-2.9,5.7-6
		c0.2-2.3-0.5-4.2-2.1-5.9c-1.7-1.8-3.8-2.4-6.1-2.2c-0.5,0.1-1,0.2-1.5,0.3c0-0.3,0-0.6,0-0.9c0.9-0.2,1.7-0.3,2.6-0.3
		c2,0.1,3.8,0.8,5.4,2.2c1.7,1.6,2.6,3.5,2.7,5.9c0.1,2.1-0.5,4-2,5.6c-1.6,1.7-3.6,2.5-6,2.4c-2.8-0.2-5.7-2.3-6.1-5.9
		c-0.1-1.2,0-2.4,0.6-3.4c0-0.1,0.1-0.1,0.1-0.2C10.1,17.6,10.1,17.6,10.2,17.4z"/>
	<path class="st0" d="M38.3,22c0-0.8,0-1.5,0-2.3c0,0,0.1,0,0.1,0c2.4,0,4.7,0,7.1,0c0.6,0,1,0.3,1.1,0.8c0.1,0.3,0,0.6,0,0.9
		c-0.1,0.4-0.4,0.5-0.8,0.6c-0.1,0-0.3,0-0.4,0c-2.3,0-4.6,0-6.9,0C38.4,22,38.4,22,38.3,22z"/>
	<path class="st0" d="M38.3,16.5c0-0.8,0-1.5,0-2.3c0.1,0,0.2,0,0.3,0c2.2,0,4.3,0,6.5,0c0.3,0,0.6,0,0.8,0.1
		c0.4,0.1,0.7,0.3,0.7,0.8c0,0.2,0,0.5,0,0.7c-0.1,0.5-0.3,0.7-0.8,0.8c-0.1,0-0.2,0-0.3,0c-2.3,0-4.6,0-6.9,0
		C38.4,16.6,38.4,16.5,38.3,16.5z"/>
	<path class="st5" d="M78.5,23.2c-0.7,0-1.5-0.1-2.2-0.1c-0.2,0-0.3-0.1-0.5-0.1c-0.1,0-0.2-0.1-0.3-0.2c-0.4-0.5-0.2-1.5,0.5-1.7
		c0.4-0.1,0.8-0.2,1.2-0.2c1.1,0,2.1,0,3.2,0.1c0.1,0,0.2,0,0.3,0.1c0.5,0.1,0.7,0.4,0.8,0.8c0,0.6-0.2,1-0.7,1.1
		c-0.6,0.1-1.1,0.2-1.7,0.2C78.9,23.2,78.7,23.1,78.5,23.2C78.5,23.2,78.5,23.2,78.5,23.2z"/>
	<path class="st6" d="M58.5,23.2c-0.7,0-1.4-0.1-2.1-0.1c-0.8-0.1-1.2-0.9-0.8-1.6c0.1-0.2,0.3-0.3,0.5-0.4c0.5-0.1,1-0.2,1.5-0.2
		c0.9,0,1.9,0,2.8,0.1c0.1,0,0.2,0,0.3,0.1c0.5,0.1,0.8,0.4,0.8,0.8c0,0.5-0.2,1-0.7,1.1c-0.6,0.1-1.1,0.2-1.7,0.2
		C58.9,23.2,58.7,23.1,58.5,23.2C58.5,23.2,58.5,23.2,58.5,23.2z"/>
</g>
</svg>
