<?xml version="1.0" encoding="utf-8"?>
<!-- Generator: Adobe Illustrator 19.0.0, SVG Export Plug-In . SVG Version: 6.00 Build 0)  -->
<svg version="1.1" id="Capa_1" xmlns="http://www.w3.org/2000/svg" xmlns:xlink="http://www.w3.org/1999/xlink" x="0px" y="0px"
	 viewBox="0 0 100 33" style="enable-background:new 0 0 100 33;" xml:space="preserve">
<style type="text/css">
	.st0{fill:#FEFEFE;}
	.st1{fill:#EB1C25;}
	.st2{fill:#727070;}
	.st3{fill:#3C3F45;}
	.st4{fill:#343132;}
	.st5{fill:#6C6A6A;}
	.st6{fill:#44494E;}
	.st7{fill:#585E63;}
	.st8{fill:#4F5256;}
	.st9{fill:#656C70;}
	.st10{fill:#FEFDFD;}
	.st11{fill:#F8F8F8;}
	.st12{fill:#E8EAEB;}
	.st13{fill:#DBDEE0;}
	.st14{fill:#42464A;}
	.st15{fill:#7F868B;}
	.st16{fill:#ADB2B6;}
	.st17{fill:#BAC0C3;}
	.st18{fill:#CDD1D4;}
	.st19{fill:#9BA2A6;}
	.st20{fill:#8D9599;}
	.st21{fill:#72797E;}
	.st22{fill:#FDFDFD;}
	.st23{fill:#2B2729;}
	.st24{fill:#FBFBFB;}
</style>
<g>
	<path class="st0" d="M0,28.3c0-7.9,0-15.8,0-23.7c33.3,0,66.7,0,100,0c0,7.9,0,15.8,0,23.7C66.7,28.3,33.3,28.3,0,28.3z M4.4,24.3
		c0.5,0.4,1,0.8,1.5,1.2c0,0,0.1,0.1,0.1,0.1c2.5,1.5,5.2,2,8.1,1.4c1.8-0.4,3.4-1.1,4.8-2.4c0,0,0,0,0.1-0.1
		c0.4-0.4,0.7-0.7,1.1-1.1l0,0c0.1-0.1,0.1-0.1,0.2-0.2c1.8-2.2,2.6-4.7,2.5-7.5c0,0,0,0,0,0c-0.1-0.3-0.1-0.6-0.2-0.8c0,0,0,0,0,0
		c0.2-0.2,0.1-0.7-0.2-0.9l0,0l0,0c0.3-0.1,0-0.3,0.1-0.4c-0.1-0.1-0.1-0.1-0.2-0.2c0,0,0.1,0,0.1-0.1c0,0-0.1-0.1-0.1-0.1
		c0,0-0.1,0-0.1-0.1c0,0,0.1,0,0.1-0.1c0,0-0.1-0.1-0.1-0.1c0,0,0-0.1-0.1-0.1l0,0c0.3,0,0.1-0.1,0.1-0.3c0-0.1-0.1-0.2-0.1-0.2
		c-0.1-0.2-0.1-0.3-0.2-0.5c-0.3-0.9-0.7-1.6-1.3-2.3c-0.6-0.8-1.3-1.5-2.1-2.1c-0.7-0.4-1.3-0.8-2-1.2c-1.4-0.7-2.9-1-4.5-1
		c-0.8,0.1-1.6,0.1-2.4,0.3c-5.2,1.1-8.9,6-8.6,11.2c0,1.3,0.3,2.5,0.8,3.7c0.4,0.8,0.9,1.5,1.3,2.3C3.5,23.3,4,23.8,4.4,24.3z
		 M33.7,9.2c0,4.7,0,9.5,0,14.2c0.1,0,0.1,0,0.2,0c2.4,0,4.8,0,7.2,0c1.1,0,2-0.4,2.9-1c2.2-1.7,1.9-5.3-0.9-6.3
		C43,16,43,16,42.9,16c1.9-1,2.2-2.6,1.7-4.2c-0.5-1.6-1.7-2.5-3.3-2.6C38.8,9.1,36.2,9.2,33.7,9.2z M91,23.4c0-1.9,0-3.7,0-5.6
		c1.5,0,2.9,0,4.3,0c0,1.9,0,3.7,0,5.6c1.3,0,2.5,0,3.7,0c0-4.8,0-9.5,0-14.3c-1.3,0-2.5,0-3.7,0c0,1.7,0,3.5,0,5.2
		c-1.4,0-2.9,0-4.3,0c0-1.7,0-3.5,0-5.2c-1.3,0-2.5,0-3.7,0c0,4.8,0,9.5,0,14.3C88.5,23.4,89.7,23.4,91,23.4z M53.1,8.8
		c-2.4,0-4.4,1.2-5.5,3.6c-1.2,2.6-1.2,5.2,0,7.8c1.1,2.4,3.1,3.6,5.8,3.6c2.7,0,4.6-1.3,5.7-3.7c1.1-2.4,1.1-4.8,0.2-7.3
		C58.2,10.3,56,8.8,53.1,8.8z M60.7,21.2c0,0.1,0.1,0.2,0.2,0.3c2.1,2.3,4.7,2.8,7.6,2c1.9-0.5,3.3-1.7,3.5-3.8
		c0.2-2-0.5-3.6-2.5-4.4c-0.6-0.2-1.3-0.4-1.9-0.6c-0.7-0.2-1.4-0.3-2-0.6c-0.4-0.2-0.7-0.5-0.7-1c0-0.5,0.2-0.9,0.7-1.1
		c0.4-0.1,0.9-0.2,1.4-0.2c1,0.1,1.8,0.6,2.5,1.3c0.7-0.7,1.4-1.5,2.2-2.2c-2.1-2.4-5.9-2.7-8.2-1.5c-2.7,1.4-3.1,5.1-0.8,7
		c0.8,0.6,1.7,0.9,2.6,1.2c0.8,0.2,1.6,0.4,2.3,0.6c0.5,0.2,0.7,0.5,0.7,1c0,0.7-0.5,1.2-1.3,1.4c-1,0.2-2,0-2.9-0.6
		c-0.5-0.3-0.9-0.7-1.4-1.1C62.2,19.6,61.5,20.4,60.7,21.2z M82.8,18.7c-0.1,0.1-0.2,0.3-0.3,0.4c-1.1,1.7-3.3,1.5-4.4,0.4
		c-1.5-1.5-1.5-4.7-0.1-6.3c1.3-1.4,3.4-1.3,4.5,0.3c0.1,0.1,0.1,0.2,0.2,0.3c1-0.6,1.9-1.3,2.9-1.9c-1.4-2.2-3.3-3.2-5.9-3.1
		c-2.3,0.1-4.1,1.1-5.2,3.1c-1.1,2-1.3,4.2-0.8,6.4c1.1,4.6,5,6.3,9,5c1.4-0.5,2.2-1.5,3-2.7C84.7,20,83.7,19.3,82.8,18.7z"/>
	<path class="st1" d="M33.7,9.2c2.6,0,5.1-0.1,7.6,0c1.6,0.1,2.8,0.9,3.3,2.6c0.4,1.6,0.2,3.2-1.7,4.2c0.1,0,0.1,0.1,0.2,0.1
		c2.8,1,3.1,4.6,0.9,6.3c-0.8,0.7-1.8,1-2.9,1c-2.4,0-4.8,0-7.2,0c-0.1,0-0.1,0-0.2,0C33.7,18.6,33.7,13.9,33.7,9.2z M37.2,20.4
		c0.3,0,0.6,0,0.9,0c0.8,0,1.6,0,2.4-0.1c0.6-0.1,1-0.5,1.1-1c0.1-0.8-0.3-1.5-1.1-1.6c-0.8-0.1-1.6-0.1-2.4-0.1c-0.3,0-0.6,0-0.9,0
		C37.2,18.6,37.2,19.5,37.2,20.4z M37.2,12.1c0,0.9,0,1.8,0,2.6c0.9,0,1.8,0,2.7,0c0.7,0,1.2-0.6,1.2-1.3c0-0.7-0.5-1.3-1.3-1.3
		C39,12.1,38.1,12.1,37.2,12.1z"/>
	<path class="st1" d="M91,23.4c-1.3,0-2.5,0-3.7,0c0-4.8,0-9.5,0-14.3c1.2,0,2.4,0,3.7,0c0,1.7,0,3.5,0,5.2c1.5,0,2.9,0,4.3,0
		c0-1.7,0-3.5,0-5.2c1.3,0,2.5,0,3.7,0c0,4.7,0,9.5,0,14.3c-1.2,0-2.5,0-3.7,0c0-1.9,0-3.7,0-5.6c-1.4,0-2.9,0-4.3,0
		C91,19.7,91,21.5,91,23.4z"/>
	<path class="st1" d="M53.1,8.8c3,0,5.2,1.5,6.1,4.1c0.9,2.4,0.9,4.9-0.2,7.3c-1.1,2.4-3,3.6-5.7,3.7c-2.7,0-4.7-1.2-5.8-3.6
		c-1.2-2.6-1.2-5.2,0-7.8C48.6,10,50.6,8.8,53.1,8.8z M56.3,16.3c0-1-0.2-1.9-0.6-2.7c-1.1-1.9-3.8-1.9-4.8,0
		c-0.9,1.8-0.9,3.6,0,5.3c1,1.8,3.6,1.8,4.7,0C56.2,18.2,56.3,17.2,56.3,16.3z"/>
	<path class="st1" d="M60.7,21.2c0.7-0.8,1.5-1.6,2.1-2.3c0.5,0.4,0.9,0.8,1.4,1.1c0.9,0.6,1.9,0.8,2.9,0.6c0.8-0.1,1.3-0.7,1.3-1.4
		c0-0.5-0.3-0.9-0.7-1c-0.8-0.2-1.5-0.4-2.3-0.6c-0.9-0.2-1.8-0.5-2.6-1.2c-2.3-1.8-1.9-5.5,0.8-7c2.3-1.2,6.1-1,8.2,1.5
		c-0.7,0.7-1.4,1.5-2.2,2.2c-0.7-0.7-1.5-1.2-2.5-1.3c-0.5,0-1,0.1-1.4,0.2c-0.5,0.2-0.7,0.6-0.7,1.1c0,0.5,0.3,0.8,0.7,1
		c0.7,0.2,1.3,0.4,2,0.6c0.6,0.2,1.3,0.3,1.9,0.6c2,0.8,2.7,2.3,2.5,4.4c-0.2,2.1-1.6,3.3-3.5,3.8c-2.9,0.7-5.5,0.3-7.6-2
		C60.9,21.3,60.8,21.2,60.7,21.2z"/>
	<path class="st1" d="M82.8,18.7c1,0.6,1.9,1.3,2.9,1.9c-0.8,1.2-1.7,2.2-3,2.7c-3.9,1.3-7.9-0.4-9-5c-0.5-2.2-0.3-4.4,0.8-6.4
		c1.1-2,2.9-3,5.2-3.1c2.6-0.1,4.5,0.9,5.9,3.1c-1,0.6-1.9,1.3-2.9,1.9c-0.1-0.1-0.1-0.2-0.2-0.3c-1.1-1.6-3.2-1.8-4.5-0.3
		c-1.4,1.5-1.4,4.8,0.1,6.3c1.1,1.2,3.3,1.4,4.4-0.4C82.6,18.9,82.7,18.8,82.8,18.7z"/>
	<path class="st2" d="M0.9,16.9C0.7,11.6,4.4,6.7,9.5,5.6c0.8-0.2,1.6-0.2,2.4-0.3c0,0.1,0,0.2,0,0.3c-0.6,0.1-1.3,0.1-1.9,0.2
		c-5.3,1-9,5.7-8.8,11.1c0,0,0,0.1,0,0.1C1.1,17,1,16.9,0.9,16.9z"/>
	<path class="st3" d="M19,24.5C19,24.6,18.9,24.6,19,24.5c-0.2,0.1-0.3,0.1-0.4,0.2c-0.7,0.4-1.3,0.9-2.1,1.3
		c-0.7,0.3-1.6,0.5-2.4,0.8c0-0.1-0.1-0.2-0.1-0.3c4.7-1,7.5-4.6,8.2-8.8c0.1,0,0.2,0,0.3,0c0,0.3,0,0.6-0.1,0.9
		c-0.4,1.5-1,2.9-1.9,4.2c-0.2,0.2-0.3,0.5-0.4,0.7c0,0,0,0,0,0C19.7,23.8,19.4,24.2,19,24.5z"/>
	<path class="st4" d="M14.1,26.8c0.8-0.3,1.6-0.4,2.4-0.8c0.7-0.3,1.4-0.8,2.1-1.3c0.1-0.1,0.2-0.1,0.3-0.1c-1.4,1.2-3,2-4.8,2.4
		c-2.9,0.6-5.6,0.1-8.1-1.4c0,0-0.1-0.1-0.1-0.1c0,0,0.1-0.1,0.1-0.1c0,0,0,0,0.1,0c0.4,0.2,0.8,0.5,1.3,0.7
		c0.4,0.2,0.9,0.4,1.3,0.5c0.8,0.2,1.6,0.3,2.3,0.5c0.5,0,1.1,0,1.6,0C13.1,27,13.6,26.9,14.1,26.8z"/>
	<path class="st5" d="M12,5.6c0-0.1,0-0.2,0-0.3c1.6,0,3.1,0.3,4.5,1c0,0.1,0,0.2,0,0.3c0,0-0.1,0-0.1,0c-0.3-0.1-0.6-0.3-0.9-0.4
		c-0.3-0.1-0.6-0.2-0.9-0.3c-0.2,0-0.5-0.1-0.7-0.1c-0.3,0-0.7-0.1-1-0.1C12.5,5.7,12.2,5.6,12,5.6z"/>
	<path class="st4" d="M20.1,23.4c0.1-0.2,0.2-0.5,0.4-0.7c1-1.2,1.6-2.6,1.9-4.2c0.1-0.3,0.1-0.6,0.1-0.9c0-0.2,0.1-0.3,0.1-0.5
		c0.1-0.5,0.1-1,0.2-1.4c0.2,2.8-0.7,5.3-2.5,7.5C20.2,23.3,20.1,23.4,20.1,23.4z"/>
	<path class="st5" d="M0.9,16.9C1,16.9,1.1,17,1.2,17c0,0.3,0.1,0.5,0.1,0.8c0.1,0.4,0.1,0.7,0.2,1.1c0.1,0.4,0.2,0.8,0.3,1.2
		C2,20.2,2,20.4,2.1,20.5c-0.1,0-0.2,0-0.3,0C1.2,19.4,1,18.1,0.9,16.9z"/>
	<path class="st6" d="M22.7,15.8c0,0.5-0.1,1-0.2,1.4c0,0.2,0,0.3-0.1,0.5c-0.1,0-0.2,0-0.3,0c0-1,0-2,0-3c0.1,0,0.2,0,0.3,0
		c0,0.1,0,0.2,0.1,0.2c0,0,0,0,0,0C22.6,15.2,22.7,15.5,22.7,15.8L22.7,15.8z"/>
	<path class="st6" d="M18.4,7.5c0.8,0.6,1.5,1.3,2.1,2.1c0,0-0.1,0.1-0.1,0.1c-0.2-0.2-0.4-0.4-0.5-0.6c-0.4-0.3-0.7-0.7-1.1-1
		c-0.2-0.2-0.3-0.3-0.5-0.5C18.3,7.6,18.3,7.6,18.4,7.5z"/>
	<path class="st7" d="M1.8,20.5c0.1,0,0.2,0,0.3,0c0.1,0.2,0.2,0.4,0.3,0.6c0.2,0.4,0.4,0.7,0.7,1.1c0.1,0.2,0.2,0.3,0.3,0.5
		c-0.1,0-0.1,0.1-0.2,0.1C2.7,22,2.2,21.3,1.8,20.5z"/>
	<path class="st7" d="M22.5,14.7c-0.1,0-0.2,0-0.3,0c-0.2-0.6-0.3-1.2-0.5-1.8c0.1,0,0.2,0,0.3,0c0,0,0,0.1,0.1,0.1
		c0,0.1,0,0.1,0,0.2c0,0,0.1,0,0.1,0.1c0,0.1,0,0.1,0,0.2c0.1,0.1,0.1,0.1,0.2,0.2c0,0.1,0,0.3-0.1,0.4l0,0c0,0,0,0,0,0
		C22.4,14.2,22.5,14.4,22.5,14.7z"/>
	<path class="st8" d="M18.4,7.5c0,0.1-0.1,0.2-0.1,0.2c-0.3-0.2-0.5-0.3-0.8-0.5c-0.4-0.2-0.7-0.4-1.1-0.6c0-0.1,0-0.2,0-0.3
		C17.1,6.7,17.7,7.1,18.4,7.5z"/>
	<path class="st9" d="M22,12.9c-0.1,0-0.2,0-0.3,0c-0.2-0.4-0.4-0.8-0.5-1.2c0.1-0.1,0.2-0.1,0.3-0.2c0.1,0.2,0.2,0.3,0.3,0.5
		c0.1,0.2,0.2,0.3,0.3,0.5c0,0.1,0.1,0.2,0.1,0.2C22.1,12.7,22.1,12.8,22,12.9L22,12.9z"/>
	<path class="st3" d="M21.7,11.9c-0.1-0.2-0.2-0.3-0.3-0.5c-0.2-0.4-0.4-0.7-0.6-1.1c-0.1-0.2-0.3-0.4-0.4-0.6c0,0,0.1-0.1,0.1-0.1
		c0.6,0.7,1,1.5,1.3,2.3C21.8,11.9,21.7,11.9,21.7,11.9z"/>
	<path class="st6" d="M3.1,22.8c0.1,0,0.1-0.1,0.2-0.1c0.2,0.2,0.4,0.5,0.6,0.7c0.2,0.2,0.4,0.5,0.6,0.7c0,0.1-0.1,0.1-0.1,0.2
		C4,23.8,3.5,23.3,3.1,22.8z"/>
	<path class="st3" d="M4.4,24.3c0-0.1,0.1-0.1,0.1-0.2c0.2,0.1,0.4,0.3,0.5,0.4C5.4,24.8,5.7,25,6,25.3c0,0-0.1,0.1-0.1,0.1
		C5.4,25,4.9,24.7,4.4,24.3z"/>
	<path class="st4" d="M19,24.5c0.4-0.4,0.7-0.7,1.1-1.1C19.7,23.8,19.4,24.2,19,24.5z"/>
	<path class="st4" d="M22.7,15.8c-0.1-0.3-0.1-0.6-0.2-0.8C22.6,15.2,22.7,15.5,22.7,15.8z"/>
	<path class="st4" d="M22.5,14.7c0-0.2-0.1-0.4-0.1-0.6c0.2,0.1,0.3,0.6,0.2,0.9C22.5,14.8,22.5,14.7,22.5,14.7z"/>
	<path class="st4" d="M21.7,11.9c0,0,0.1,0,0.1,0c0.1,0.2,0.1,0.3,0.2,0.5C21.9,12.2,21.8,12.1,21.7,11.9z"/>
	<path class="st4" d="M22.4,14c0-0.1,0-0.3,0.1-0.4C22.4,13.7,22.7,13.9,22.4,14z"/>
	<path class="st4" d="M22,12.9c0-0.1,0.1-0.2,0.1-0.3C22.2,12.7,22.3,12.9,22,12.9z"/>
	<path class="st4" d="M22.1,13.1c0-0.1,0-0.1,0-0.2c0,0,0.1,0.1,0.1,0.1C22.2,13.1,22.2,13.1,22.1,13.1z"/>
	<path class="st4" d="M22.2,13.4c0-0.1,0-0.1,0-0.2c0,0,0.1,0.1,0.1,0.1C22.3,13.3,22.2,13.4,22.2,13.4z"/>
	<path class="st10" d="M37.2,20.4c0-0.9,0-1.8,0-2.8c0.3,0,0.6,0,0.9,0c0.8,0,1.6,0,2.4,0.1c0.8,0.1,1.2,0.8,1.1,1.6
		c-0.1,0.6-0.5,1-1.1,1c-0.8,0.1-1.6,0.1-2.4,0.1C37.8,20.4,37.5,20.4,37.2,20.4z"/>
	<path class="st10" d="M37.2,12.1c0.9,0,1.8,0,2.7,0c0.8,0,1.3,0.6,1.3,1.3c0,0.7-0.5,1.3-1.2,1.3c-0.9,0-1.8,0-2.7,0
		C37.2,13.9,37.2,13,37.2,12.1z"/>
	<path class="st10" d="M56.3,16.3c0,0.9-0.2,1.9-0.7,2.7c-1.1,1.8-3.7,1.8-4.7,0c-1-1.7-1-3.6,0-5.3c1-1.9,3.7-1.9,4.8,0
		C56.2,14.4,56.3,15.3,56.3,16.3z"/>
	<path class="st11" d="M12,5.6c0.3,0,0.5,0.1,0.8,0.1c0,0.1,0,0.3,0,0.4c-0.8-0.1-1.7-0.2-2.5,0C8.3,6.4,6.6,7.2,5.1,8.5
		c-1.8,1.6-3,3.6-3.4,6c-0.1,0.5-0.2,1-0.2,1.5c0,0.3,0.1,0.7,0.1,1c-0.1,0-0.3,0-0.4,0C1,11.5,4.7,6.8,10,5.8
		C10.7,5.7,11.3,5.7,12,5.6z"/>
	<path class="st12" d="M1.3,16.9c0.1,0,0.3,0,0.4,0c0,0.2,0,0.4,0,0.6c0,0.1-0.2,0.2-0.3,0.3C1.3,17.5,1.3,17.3,1.3,16.9
		C1.2,17,1.3,17,1.3,16.9z"/>
	<path class="st13" d="M1.3,17.8c0.1-0.1,0.3-0.2,0.3-0.3c0-0.2,0-0.4,0-0.6c-0.1-0.3-0.2-0.7-0.1-1c0-0.5,0.1-1,0.2-1.5
		c0.4-2.4,1.6-4.4,3.4-6c1.5-1.3,3.2-2.1,5.1-2.4c0.8-0.1,1.7-0.1,2.5,0c0.2,0,0.4,0,0.6,0.1c0.3,0,0.4,0,0.4-0.3
		c0.2,0,0.5,0.1,0.7,0.1c0.1,0.1,0.1,0.4,0.2,0.4c0.2,0.1,0.5,0.1,0.7,0.2c0.3,0.1,0.6,0.3,0.9,0.4c0.4,0.2,0.8,0.4,1.2,0.6
		c0.4,0.3,0.8,0.6,1.2,0.9c0.3,0.3,0.7,0.7,1,1c0.3,0.3,0.6,0.7,0.8,1c0.2,0.4,0.5,0.8,0.7,1.2c0.2,0.4,0.4,0.8,0.5,1.2
		c0.2,0.6,0.3,1.2,0.5,1.8c0,1,0,2,0,3c-0.6,4.2-3.4,7.7-8.2,8.8c-1.1,0.2-2.1,0.3-3.2,0.2c-0.7-0.1-1.4-0.3-2.1-0.4
		c-0.4-0.2-0.9-0.4-1.3-0.5c-0.4-0.2-0.8-0.5-1.2-0.7c-0.3-0.3-0.7-0.5-1-0.8c-0.3-0.3-0.6-0.6-0.9-0.9c-0.3-0.4-0.6-0.8-0.9-1.2
		c-0.2-0.3-0.4-0.6-0.6-0.9c-0.2-0.4-0.3-0.7-0.5-1.1c-0.1-0.3-0.2-0.5-0.3-0.8c-0.1-0.2-0.2-0.3-0.4-0.3
		C1.5,18.5,1.4,18.2,1.3,17.8z M21.7,15.4c-0.2-0.6-0.2-0.6-0.8-0.6c0,0,0,0,0,0c0-0.2-0.1-0.4-0.1-0.6c0.1,0,0.1,0,0.2,0
		c0.5-0.1,0.5-0.1,0.4-0.6c-0.1-0.3-0.2-0.6-0.3-0.8c-0.2-0.3-0.3-0.7-0.5-1c-0.2-0.3-0.4-0.6-0.6-0.9c-0.2-0.3-0.4-0.5-0.6-0.8
		c-0.3-0.3-0.6-0.6-0.9-0.9c-0.3-0.3-0.6-0.5-0.9-0.8c-0.4-0.2-0.7-0.4-1.1-0.7c-0.4-0.2-0.8-0.4-1.2-0.6C14.6,7,14,6.8,13.4,6.7
		c-0.2,0-0.4,0-0.5-0.1c0,0-0.1,0-0.1,0c-0.2,0-0.5,0-0.7-0.1c-0.6,0.1-1.3,0.1-1.9,0.2C9.8,6.9,9.3,7,8.8,7.1c0,0,0,0,0,0
		C8.4,7.3,8,7.4,7.6,7.6C4.8,9,3,11.3,2.4,14.4c-0.2,1-0.3,2-0.1,3c0.2,0.7,0.3,1.4,0.5,2.1c0.1,0.3,0.3,0.6,0.4,0.9
		c0.1,0.3,0.3,0.5,0.4,0.8c0.3,0.5,0.7,1,1,1.5c0.3,0.3,0.6,0.6,0.9,0.9c0.3,0.3,0.7,0.5,1,0.8c0.4,0.2,0.8,0.5,1.2,0.7
		c0.4,0.2,0.7,0.3,1.1,0.5c0.2,0.1,0.3,0.1,0.5,0.2c0.3,0.2,0.5,0.1,0.5-0.3c0-0.1,0-0.2,0-0.3c0.3,0.1,0.6,0.2,0.9,0.2
		c0,0.8,0,0.8,0.7,0.8c0.7,0,1.3-0.1,2-0.2c2-0.2,3.7-1.1,5.1-2.4c2.2-2,3.2-4.5,3.2-7.4C21.7,15.9,21.7,15.7,21.7,15.4z"/>
	<path class="st14" d="M10.9,26.6c1.1,0.1,2.1,0,3.2-0.2c0,0.1,0.1,0.2,0.1,0.3c-0.5,0.1-1,0.2-1.5,0.2c-0.5,0-1.1,0-1.6,0
		C11,26.9,10.9,26.8,10.9,26.6z"/>
	<path class="st8" d="M10.9,26.6c0,0.1,0.1,0.2,0.1,0.4c-0.8-0.2-1.6-0.3-2.3-0.5c0-0.1,0.1-0.2,0.1-0.3
		C9.5,26.4,10.2,26.5,10.9,26.6z"/>
	<path class="st2" d="M6.2,24.9c0.4,0.2,0.8,0.5,1.2,0.7c0,0.1-0.1,0.2-0.1,0.3c-0.4-0.2-0.8-0.5-1.3-0.7
		C6.1,25.2,6.1,25.1,6.2,24.9z"/>
	<path class="st7" d="M7.3,26c0-0.1,0.1-0.2,0.1-0.3c0.4,0.2,0.9,0.4,1.3,0.5c0,0.1-0.1,0.2-0.1,0.3C8.2,26.4,7.8,26.2,7.3,26z"/>
	<path class="st15" d="M6.2,24.9c0,0.1-0.1,0.2-0.1,0.4c0,0,0,0-0.1,0c-0.3-0.3-0.6-0.5-0.9-0.8c0-0.1,0.1-0.2,0.1-0.4
		C5.5,24.4,5.8,24.7,6.2,24.9z"/>
	<path class="st16" d="M17.4,7.6c-0.4-0.2-0.8-0.4-1.2-0.6c0-0.1,0-0.2,0.1-0.3c0,0,0.1,0,0.1,0c0.4,0.2,0.7,0.4,1.1,0.6
		C17.5,7.3,17.4,7.4,17.4,7.6z"/>
	<path class="st12" d="M13.8,5.8c0,0.3-0.1,0.4-0.4,0.3c-0.2,0-0.4,0-0.6-0.1c0-0.1,0-0.3,0-0.4C13.1,5.7,13.4,5.8,13.8,5.8z"/>
	<path class="st17" d="M16.3,6.6c0,0.1,0,0.2-0.1,0.3c-0.3-0.1-0.6-0.3-0.9-0.4c0-0.1,0.1-0.2,0.1-0.3C15.7,6.4,16,6.5,16.3,6.6z"/>
	<path class="st18" d="M15.4,6.2c0,0.1-0.1,0.2-0.1,0.3c-0.2-0.1-0.5-0.1-0.7-0.2c-0.1-0.1-0.1-0.3-0.2-0.4
		C14.8,6,15.1,6.1,15.4,6.2z"/>
	<path class="st17" d="M2.3,20c0.2,0.4,0.3,0.7,0.5,1.1c-0.1,0-0.2,0-0.4,0.1c-0.1-0.2-0.2-0.4-0.3-0.6C2,20.4,2,20.2,1.9,20
		C2,20,2.1,20,2.3,20z"/>
	<path class="st18" d="M2.3,20C2.1,20,2,20,1.9,20c-0.1-0.4-0.2-0.8-0.3-1.2c0.2,0,0.4,0,0.4,0.3C2.1,19.4,2.2,19.7,2.3,20z"/>
	<path class="st19" d="M17.4,7.6c0-0.1,0.1-0.2,0.1-0.3c0.3,0.2,0.5,0.3,0.8,0.5c0.2,0.2,0.3,0.3,0.5,0.5c-0.1,0.1-0.1,0.2-0.2,0.3
		C18.2,8.1,17.8,7.8,17.4,7.6z"/>
	<path class="st15" d="M20.5,10.5c-0.3-0.3-0.6-0.7-0.8-1c0.1-0.1,0.2-0.2,0.2-0.2c0.2,0.2,0.4,0.4,0.5,0.6c0.1,0.2,0.3,0.4,0.4,0.6
		C20.7,10.4,20.6,10.4,20.5,10.5z"/>
	<path class="st20" d="M19.9,9.2c-0.1,0.1-0.2,0.2-0.2,0.2c-0.3-0.3-0.7-0.7-1-1c0.1-0.1,0.1-0.2,0.2-0.3
		C19.1,8.5,19.5,8.8,19.9,9.2z"/>
	<path class="st19" d="M3.3,22c0.3,0.4,0.6,0.8,0.9,1.2c-0.1,0.1-0.2,0.1-0.3,0.2c-0.2-0.2-0.4-0.5-0.6-0.7
		c-0.1-0.2-0.2-0.3-0.3-0.5C3.1,22.1,3.2,22.1,3.3,22z"/>
	<path class="st16" d="M3.3,22c-0.1,0.1-0.2,0.1-0.2,0.2c-0.2-0.4-0.4-0.7-0.7-1.1c0.1,0,0.2,0,0.4-0.1C2.9,21.4,3.1,21.7,3.3,22z"
		/>
	<path class="st21" d="M20.5,10.5c0.1,0,0.2-0.1,0.3-0.1c0.2,0.4,0.4,0.7,0.6,1.1c-0.1,0.1-0.2,0.1-0.3,0.2
		C20.9,11.2,20.7,10.8,20.5,10.5z"/>
	<path class="st20" d="M3.9,23.4c0.1-0.1,0.2-0.1,0.3-0.2c0.3,0.3,0.6,0.6,0.9,0.9c0,0.1-0.1,0.2-0.1,0.4c-0.2-0.1-0.4-0.3-0.5-0.4
		C4.3,23.9,4.1,23.6,3.9,23.4z"/>
	<path class="st22" d="M10.7,25.4c-0.3-0.1-0.6-0.2-0.9-0.2c-0.3-0.1-0.6-0.2-0.9-0.2c-0.3-0.1-0.6-0.3-0.9-0.4
		c-0.4-0.2-0.7-0.4-1.1-0.6c-0.3-0.3-0.7-0.5-1-0.8c-0.3-0.3-0.5-0.5-0.8-0.8c-0.3-0.5-0.7-0.9-1-1.4c-0.1-0.3-0.3-0.5-0.4-0.8
		c-0.1-0.3-0.2-0.5-0.3-0.8c-0.2-0.7-0.3-1.3-0.5-2c0-1,0.1-2,0.1-3c0-0.1,0.1-0.1,0.1-0.2c0.6-2.3,1.8-4,3.7-5.4
		c1-0.7,2.2-1.2,3.4-1.4c0.7,0,1.3-0.1,2-0.1c0.3,0,0.6,0,0.9,0.1c0.6,0.2,1.3,0.3,1.9,0.5c0.4,0.2,0.7,0.3,1.1,0.5
		c0.3,0.2,0.7,0.4,1,0.6c0.3,0.2,0.6,0.4,0.8,0.7c0.3,0.3,0.5,0.5,0.8,0.8c0.2,0.3,0.4,0.6,0.6,0.9c0.2,0.3,0.3,0.6,0.5,0.9
		c0.1,0.3,0.3,0.6,0.4,0.9c0.1,0.4,0.3,0.8,0.4,1.2c0,0.2,0.1,0.4,0.1,0.6c0,0.2,0.1,0.4,0.1,0.6c0,0.2,0.1,0.4,0.1,0.7
		c0.2,0,0.4,0,0.7,0c0,2.9-1,5.4-3.2,7.4c-1.4,1.3-3.2,2.2-5.1,2.4c-0.7,0.1-1.3,0.1-2,0.2c0-0.1,0-0.2,0-0.3c0-0.4-0.1-0.5-0.5-0.5
		C10.9,25.4,10.8,25.4,10.7,25.4z M16.6,22.8L16.6,22.8c0.1-0.1,0.3-0.2,0.4-0.3c0.1-0.1,0.2-0.1,0.2-0.2c0.1-0.1,0.2-0.2,0.3-0.3
		c0,0,0,0,0.1-0.1c0.1-0.2,0.3-0.3,0.4-0.5c0,0,0,0,0,0c0.2-0.3,0.4-0.5,0.6-0.8c0,0,0,0,0,0c1-1.5,1.3-3.2,1.2-4.9
		c0-0.1-0.1-0.2-0.1-0.3c0,0,0-0.1,0.1-0.1c0-0.2,0-0.4-0.1-0.6c0,0-0.1-0.1-0.2-0.1c0-0.1,0-0.1,0-0.2c0,0,0.1,0,0.1-0.1
		c0,0-0.1-0.1-0.1-0.1c0,0-0.1,0-0.1-0.1c0,0,0.1,0,0.1-0.1c0,0-0.1-0.1-0.1-0.1c0,0,0-0.1-0.1-0.1l0,0c0-0.1,0.1-0.2,0.1-0.2
		c-0.4-1.2-1-2.2-1.8-3.1c-0.5-0.4-0.9-0.8-1.4-1.2c-0.2-0.2-0.4-0.3-0.7-0.2C15.1,9.3,15,9.5,15,9.8c0,1,0,2,0,3.1
		c-2.1,0-4.1,0-6.2,0c0,0-0.1,0-0.1,0c0-0.9,0-1.9,0-2.8c0-0.1,0-0.3-0.1-0.4C8.5,9.5,8.8,9.3,8.5,9.3C8.3,9,8.1,9.1,7.9,9.2
		c-0.6,0.4-1.2,0.8-1.7,1.3c-1.6,1.7-2.3,3.7-2.3,6c0.1,1,0.2,1.9,0.6,2.8c0.3,0.9,0.9,1.7,1.5,2.4c0.1,0.1,0.2,0.2,0.2,0.3
		c0,0,0.1,0.1,0.1,0.1c0.3,0.3,0.6,0.5,1,0.8C7.5,23,7.5,23,7.6,23c0.1,0.1,0.2,0.1,0.2,0.2c0.2,0.2,0.4,0.3,0.7,0.1
		c0.3-0.1,0.2-0.4,0.2-0.6c0-1.1,0-2.1,0-3.2c2.1,0,4.2,0,6.3,0c0,1.1,0,2.1,0,3.2c0,0.2,0.1,0.4,0.3,0.4c0.2,0,0.3,0.1,0.5,0.1
		c0.1-0.1,0.3-0.2,0.4-0.2c0,0,0,0,0.1,0C16.4,22.9,16.5,22.9,16.6,22.8z"/>
	<path class="st3" d="M10.3,7.4C9.1,7.6,7.9,8.1,6.9,8.8c-1.9,1.3-3.2,3.1-3.7,5.4c0,0.1,0,0.1-0.1,0.2c-0.1,0.1-0.3,0.1-0.4,0.2
		c-0.1,0-0.2-0.1-0.3-0.1C3,11.3,4.8,9,7.6,7.6C8,7.4,8.4,7.3,8.8,7.1c0,0,0,0,0.1,0c0,0,0,0-0.1,0C9.3,7,9.8,6.9,10.2,6.8
		C10.3,7,10.3,7.2,10.3,7.4z"/>
	<path class="st6" d="M2.4,14.4c0.1,0,0.2,0.1,0.3,0.1c0.1-0.1,0.3-0.1,0.4-0.2c0,1-0.1,2-0.1,3c-0.2,0-0.5,0-0.7,0
		C2.1,16.4,2.1,15.4,2.4,14.4z M2.6,15.8C2.6,15.8,2.7,15.8,2.6,15.8C2.7,15.8,2.7,15.8,2.6,15.8C2.7,15.8,2.7,15.8,2.6,15.8
		C2.6,15.8,2.6,15.8,2.6,15.8z"/>
	<path class="st7" d="M2.2,17.4c0.2,0,0.5,0,0.7,0c0.2,0.7,0.3,1.3,0.5,2c-0.2,0.1-0.5,0.1-0.7,0.2C2.5,18.8,2.4,18.1,2.2,17.4z"/>
	<path class="st7" d="M15.1,7.8c-0.6-0.2-1.3-0.3-1.9-0.5c0.3-0.1,0.3-0.4,0.3-0.6C14,6.8,14.6,7,15.2,7.1
		C15.2,7.4,15.1,7.6,15.1,7.8z"/>
	<path class="st14" d="M10.3,7.4c0-0.2-0.1-0.4-0.1-0.6c0.6-0.1,1.3-0.1,1.9-0.2c0.1,0.2,0.1,0.5,0.2,0.7C11.6,7.3,11,7.3,10.3,7.4z
		"/>
	<path class="st15" d="M4.1,20.9c0.3,0.5,0.7,0.9,1,1.4c-0.2,0.1-0.4,0.3-0.6,0.4c-0.3-0.5-0.7-1-1-1.5C3.7,21.1,3.9,21,4.1,20.9z"
		/>
	<path class="st16" d="M6.9,23.9c0.4,0.2,0.7,0.4,1.1,0.6c-0.1,0.2-0.2,0.4-0.3,0.6c-0.4-0.2-0.8-0.5-1.2-0.7
		C6.6,24.3,6.7,24.1,6.9,23.9z"/>
	<path class="st18" d="M20.8,14.2c-0.1-0.4-0.3-0.8-0.4-1.2c0.2-0.1,0.4-0.2,0.6-0.2c0.1,0.3,0.2,0.5,0.3,0.8
		c0.1,0.5,0.1,0.5-0.4,0.6C20.9,14.2,20.8,14.2,20.8,14.2z"/>
	<path class="st20" d="M18.8,10.4c-0.3-0.3-0.5-0.5-0.8-0.8c0.1-0.2,0.3-0.3,0.4-0.4c0.3,0.3,0.6,0.6,0.9,0.9
		C19.2,10.2,19,10.3,18.8,10.4z"/>
	<path class="st9" d="M15.1,7.8c0.1-0.2,0.1-0.4,0.2-0.7c0.4,0.2,0.8,0.4,1.2,0.6c-0.1,0.2-0.2,0.4-0.3,0.6
		C15.8,8.1,15.4,8,15.1,7.8z"/>
	<path class="st20" d="M4.5,22.7c0.2-0.1,0.4-0.3,0.6-0.4c0.3,0.3,0.5,0.5,0.8,0.8c-0.1,0.2-0.3,0.4-0.4,0.5
		C5.2,23.3,4.8,23,4.5,22.7z"/>
	<path class="st19" d="M5.5,23.6c0.1-0.2,0.3-0.4,0.4-0.5c0.3,0.3,0.7,0.5,1,0.8c-0.1,0.2-0.3,0.4-0.4,0.5
		C6.1,24.2,5.8,23.9,5.5,23.6z"/>
	<path class="st21" d="M16.1,8.3c0.1-0.2,0.2-0.4,0.3-0.6c0.4,0.2,0.7,0.4,1.1,0.7c-0.1,0.2-0.3,0.4-0.4,0.5
		C16.8,8.7,16.5,8.5,16.1,8.3z"/>
	<path class="st8" d="M12.3,7.2c-0.1-0.2-0.1-0.5-0.2-0.7c0.2,0,0.5,0,0.7,0.1c0,0,0,0.1,0,0.1c0,0,0-0.1,0-0.1c0.2,0,0.4,0,0.5,0.1
		c0,0.3,0,0.5-0.3,0.6C12.8,7.3,12.6,7.3,12.3,7.2z"/>
	<path class="st17" d="M7.7,25.1c0.1-0.2,0.2-0.4,0.3-0.6c0.3,0.1,0.6,0.3,0.9,0.4c-0.1,0.2-0.1,0.5-0.2,0.7
		C8.4,25.4,8,25.3,7.7,25.1z"/>
	<path class="st16" d="M19.9,12.1c-0.2-0.3-0.3-0.6-0.5-0.9c0.2-0.1,0.4-0.3,0.5-0.4c0.2,0.3,0.4,0.6,0.6,0.9
		C20.3,11.9,20.1,12,19.9,12.1z"/>
	<path class="st17" d="M19.9,12.1c0.2-0.1,0.4-0.2,0.6-0.3c0.2,0.3,0.3,0.7,0.5,1c-0.2,0.1-0.4,0.2-0.6,0.2
		C20.2,12.7,20.1,12.4,19.9,12.1z"/>
	<path class="st15" d="M17.2,8.9c0.1-0.2,0.3-0.4,0.4-0.5c0.3,0.3,0.6,0.5,0.9,0.8c-0.1,0.1-0.3,0.3-0.4,0.4
		C17.7,9.3,17.5,9.1,17.2,8.9z"/>
	<path class="st19" d="M20,10.8c-0.2,0.1-0.4,0.3-0.5,0.4c-0.2-0.3-0.4-0.6-0.6-0.9c0.2-0.1,0.4-0.2,0.6-0.3
		C19.6,10.3,19.8,10.6,20,10.8z"/>
	<path class="st9" d="M2.7,19.5c0.2-0.1,0.5-0.1,0.7-0.2c0.1,0.3,0.2,0.5,0.3,0.8c-0.2,0.1-0.4,0.2-0.6,0.3
		C2.9,20.1,2.8,19.8,2.7,19.5z"/>
	<path class="st18" d="M8.7,25.6c0.1-0.2,0.1-0.5,0.2-0.7c0.3,0.1,0.6,0.2,0.9,0.2c0,0.1,0,0.2,0,0.3c0,0.4-0.2,0.4-0.5,0.3
		C9.1,25.7,8.9,25.7,8.7,25.6z"/>
	<path class="st21" d="M3.1,20.4c0.2-0.1,0.4-0.2,0.6-0.3c0.1,0.3,0.3,0.5,0.4,0.8c-0.2,0.1-0.4,0.2-0.6,0.3
		C3.3,21,3.2,20.7,3.1,20.4z"/>
	<path class="st12" d="M10.7,25.4c0.1,0,0.2,0,0.2,0c0.3,0,0.5,0.1,0.5,0.5c0,0.1,0,0.2,0,0.3C10.7,26.1,10.7,26.1,10.7,25.4z"/>
	<path class="st11" d="M21.7,16.1c-0.2,0-0.4,0-0.7,0c0-0.3-0.1-0.5-0.1-0.7c0.3,0,0.5,0,0.8,0C21.7,15.7,21.7,15.9,21.7,16.1z"/>
	<path class="st12" d="M21.7,15.4c-0.3,0-0.5,0-0.8,0c0-0.2-0.1-0.4-0.1-0.6c0,0,0,0,0,0C21.6,14.8,21.6,14.8,21.7,15.4z"/>
	<path class="st7" d="M12.9,6.6C12.9,6.6,12.9,6.7,12.9,6.6C12.8,6.7,12.8,6.6,12.9,6.6C12.8,6.6,12.9,6.6,12.9,6.6z"/>
	<path class="st14" d="M15,19.6c-2.1,0-4.2,0-6.3,0c-0.1,0.1-0.2,0.1-0.2,0.2c0,1,0,2,0.1,2.9c0,0.1-0.1,0.3-0.1,0.4c0,0,0,0,0-0.1
		c-0.1-0.2-0.2-0.4-0.3-0.6c0,0,0-0.1,0-0.1c0-0.8,0-1.7,0-2.5C8,19.2,8.3,19,9,19c1.8,0,3.5,0,5.3,0c0.5,0,0.9,0,1,0.6
		C15.2,19.6,15.1,19.6,15,19.6z"/>
	<path class="st3" d="M17.2,22.3c-0.1,0.1-0.2,0.1-0.2,0.2c-0.2,0-0.4,0.1-0.4,0.3c0,0,0,0,0,0c-0.1,0.1-0.2,0.1-0.3,0.2
		c0,0,0,0-0.1,0c-0.1,0-0.2,0-0.3,0c0-0.1-0.1-0.2-0.1-0.2c0-0.1,0-0.2,0-0.4c0.5-0.5,1.1-1,1.6-1.5c0.8-0.9,1.2-2,1.5-3.1
		c0.2,0,0.3,0,0.5,0c-0.2,0.7-0.4,1.4-0.7,2.1c-0.1,0.2-0.2,0.5-0.3,0.7c0,0,0,0,0,0c-0.2,0.3-0.4,0.5-0.6,0.8c0,0,0,0,0,0
		c-0.3,0-0.4,0.2-0.4,0.5c0,0,0,0-0.1,0.1C17.4,22,17.3,22.2,17.2,22.3z"/>
	<path class="st11" d="M8.5,9.3c0.4,0,0,0.3,0.1,0.4c0,0-0.1,0-0.1,0C8.4,9.8,8.2,9.9,8,10c-0.2,0.1-0.4,0.1-0.5,0.3
		C6,11.4,5.1,13,4.7,14.9c-0.1,0.4-0.4,1,0.1,1.4c0,0,0,0.1,0,0.2c0,0.2,0,0.3,0,0.5C4.7,17,4.5,17,4.3,17c0-0.2-0.1-0.3-0.1-0.5
		c0-0.3,0.1-0.5,0.1-0.8c0.2-2.4,1.3-4.4,3.2-5.8C7.8,9.7,8.1,9.5,8.5,9.3z"/>
	<path class="st2" d="M8.8,12.9c2,0,4.1,0,6.2,0c0-1,0-2,0-3.1c0.1,0,0.2,0,0.3,0c0,1,0,2,0,3c0,0.3-0.1,0.4-0.4,0.4
		c-2,0-4.1,0-6.1,0C8.8,13.1,8.8,13,8.8,12.9z"/>
	<path class="st2" d="M8.5,9.3c-0.3,0.2-0.7,0.4-1,0.6c-1.9,1.5-3,3.4-3.2,5.8c0,0.3,0,0.5-0.1,0.8c-0.1,0-0.2,0-0.3,0
		c0-2.3,0.7-4.3,2.3-6c0.5-0.5,1.1-0.9,1.7-1.3C8.1,9.1,8.3,9,8.5,9.3z"/>
	<path class="st14" d="M8.8,12.9c0,0.1,0,0.2,0,0.3c0,0,0,0-0.1,0c-0.1,0-0.2-0.1-0.2-0.1C8.4,13.1,8.2,13,8,13c0-1,0-2,0-3
		c0.2-0.1,0.3-0.2,0.5-0.3c0,0.9,0,1.9,0,2.8c0,0.1,0.1,0.2,0.2,0.4C8.7,12.9,8.8,12.9,8.8,12.9z"/>
	<path class="st6" d="M19.5,17.8c-0.2,0-0.3,0-0.5,0c0-0.8,0.1-1.5,0.1-2.3c0.2-0.1,0.3-0.2,0.5-0.2c0,0,0.1,0,0.1,0
		c0,0,0,0.1-0.1,0.1c0,0.3,0,0.7,0,1C19.6,16.9,19.5,17.3,19.5,17.8z"/>
	<path class="st5" d="M15,19.6c0.1,0,0.2,0,0.3,0c0,0,0,0.1,0,0.1c0,1.1,0,2.1,0,3.2c0,0.1,0,0.2,0,0.3C15,23.2,15,23,15,22.8
		C15,21.7,15,20.7,15,19.6z"/>
	<path class="st5" d="M3.9,16.5c0.1,0,0.2,0,0.3,0c0,0.2,0.1,0.3,0.1,0.5c0,0.2,0,0.4,0.1,0.6c0,0.2,0.1,0.4,0.1,0.5
		c0.1,0.2,0.1,0.5,0.2,0.7c0.1,0.2,0.1,0.4,0.2,0.5c-0.1,0-0.2,0-0.3,0C4.1,18.5,4,17.5,3.9,16.5z"/>
	<path class="st3" d="M17.5,10.5c0.8,0.9,1.4,2,1.8,3.1c0,0.1-0.1,0.2-0.1,0.2c-0.1-0.3-0.3-0.6-0.4-1c-0.2-0.3-0.4-0.7-0.6-1
		c-0.3-0.3-0.5-0.7-0.8-1c-0.1-0.1-0.1-0.2-0.2-0.2C17.4,10.6,17.4,10.6,17.5,10.5z"/>
	<path class="st4" d="M19.5,17.8c0.1-0.5,0.1-0.9,0.2-1.4c0-0.3,0-0.7,0-1c0,0.1,0.1,0.2,0.1,0.3c0.1,1.8-0.2,3.4-1.2,4.9
		c0.1-0.2,0.2-0.5,0.3-0.7C19,19.2,19.2,18.5,19.5,17.8z"/>
	<path class="st7" d="M19.5,15.3c-0.2,0.1-0.3,0.2-0.5,0.2c-0.1-0.4-0.2-0.8-0.3-1.2c0.1-0.1,0.3-0.3,0.4-0.4c0,0,0,0.1,0.1,0.1
		c0,0.1,0,0.1,0,0.2c0,0,0.1,0,0.1,0.1c0,0.1,0,0.1,0,0.2c0,0.1,0,0.1,0,0.2C19.5,14.8,19.5,15,19.5,15.3z"/>
	<path class="st7" d="M4.5,19.4c0.1,0,0.2,0,0.3,0c0,0.1,0.1,0.2,0.1,0.2c0.2,0.3,0.3,0.6,0.5,0.9c0.2,0.3,0.5,0.6,0.7,0.9
		c0.1,0.1,0.1,0.2,0.2,0.3c-0.1,0-0.1,0-0.2,0.1C5.4,21.1,4.9,20.3,4.5,19.4z"/>
	<path class="st20" d="M6.2,21.7c-0.1-0.1-0.1-0.2-0.2-0.3c0.1-0.1,0.2-0.2,0.3-0.4c0.3,0.3,0.5,0.5,0.8,0.8
		c-0.1,0.1-0.3,0.3-0.4,0.4c-0.1,0-0.2-0.1-0.3-0.1c0,0-0.1-0.1-0.1-0.1C6.3,21.9,6.3,21.8,6.2,21.7z"/>
	<path class="st23" d="M8.4,23.2c0-0.1,0.1-0.3,0.1-0.4c0-1,0-2-0.1-2.9c0-0.1,0.1-0.1,0.2-0.2c0,1.1,0,2.1,0,3.2
		c0,0.2,0,0.4-0.2,0.6c-0.3,0.1-0.5,0-0.7-0.1c-0.1-0.1-0.2-0.1-0.2-0.2c0,0,0,0,0,0c0.1,0,0.2,0,0.2,0C8,23.1,8.2,23.2,8.4,23.2
		C8.4,23.2,8.4,23.2,8.4,23.2L8.4,23.2z"/>
	<path class="st9" d="M19.2,13.9c-0.1,0.1-0.3,0.3-0.4,0.4c-0.1-0.4-0.3-0.7-0.4-1.1c0.1-0.1,0.3-0.2,0.4-0.3
		C19,13.3,19.1,13.6,19.2,13.9C19.2,13.9,19.2,13.9,19.2,13.9z"/>
	<path class="st23" d="M8.7,12.9c-0.1-0.1-0.2-0.2-0.2-0.4c0-0.9,0-1.9,0-2.8c0,0,0.1,0,0.1,0c0,0.1,0.1,0.3,0.1,0.4
		C8.7,11,8.7,11.9,8.7,12.9z"/>
	<path class="st8" d="M17.5,10.5c-0.1,0.1-0.1,0.1-0.2,0.2c-0.2-0.1-0.3-0.3-0.5-0.4c-0.2-0.2-0.4-0.3-0.5-0.5
		c-0.1-0.1-0.3-0.2-0.4-0.2c0,0,0,0,0-0.1C16,9.5,16,9.4,16.1,9.3C16.6,9.7,17,10.1,17.5,10.5z"/>
	<path class="st7" d="M16.1,9.3C16,9.4,16,9.5,15.9,9.5c-0.5-0.2-0.5-0.1-0.6,0.3c-0.1,0-0.2,0-0.3,0c0-0.3,0.1-0.5,0.4-0.6
		C15.7,9.1,15.9,9.1,16.1,9.3z"/>
	<path class="st21" d="M15.3,23.2c0-0.1,0-0.2,0-0.3c0.2,0,0.4-0.1,0.5-0.1c0,0.1,0.1,0.2,0.1,0.2c-0.1,0.1-0.1,0.2-0.2,0.2
		C15.6,23.2,15.5,23.2,15.3,23.2z"/>
	<path class="st14" d="M6.5,22.2c0.1,0,0.2,0.1,0.3,0.1c0.2,0.2,0.4,0.4,0.6,0.5c0,0.1,0,0.1,0,0.2C7.1,22.7,6.8,22.4,6.5,22.2z"/>
	<path class="st4" d="M18,21.4c0.2-0.3,0.4-0.5,0.6-0.8C18.3,20.9,18.2,21.1,18,21.4z"/>
	<path class="st4" d="M19.5,15.3c0-0.2-0.1-0.5-0.1-0.7c0.1,0,0.2,0.1,0.2,0.1c0,0.2,0.1,0.4,0.1,0.6C19.6,15.3,19.6,15.3,19.5,15.3
		z"/>
	<path class="st4" d="M17.6,21.9c0-0.3,0.1-0.4,0.4-0.5C17.9,21.6,17.7,21.7,17.6,21.9z"/>
	<path class="st4" d="M16.6,22.8c0-0.3,0.2-0.3,0.4-0.3C16.8,22.6,16.7,22.7,16.6,22.8z"/>
	<path class="st4" d="M17.2,22.3c0.1-0.1,0.2-0.2,0.3-0.3C17.4,22,17.3,22.2,17.2,22.3z"/>
	<path class="st4" d="M15.8,23.3c0.1-0.1,0.1-0.2,0.2-0.2c0.1,0,0.2,0,0.3,0C16.1,23.1,15.9,23.2,15.8,23.3z"/>
	<path class="st14" d="M6.2,21.7c0,0.1,0,0.2,0.1,0.3c-0.1-0.1-0.2-0.2-0.2-0.3C6.1,21.7,6.2,21.7,6.2,21.7z"/>
	<path class="st4" d="M16.3,23c0.1-0.1,0.2-0.1,0.3-0.2C16.5,22.9,16.4,22.9,16.3,23z"/>
	<path class="st23" d="M7.4,23c0-0.1,0-0.1,0-0.2c0.1,0.1,0.1,0.2,0.2,0.2c0,0,0,0,0,0C7.5,23,7.5,23,7.4,23z"/>
	<path class="st4" d="M19.4,14.4c0-0.1,0-0.1,0-0.2c0,0,0.1,0.1,0.1,0.1C19.5,14.4,19.4,14.4,19.4,14.4z"/>
	<path class="st4" d="M19.3,14.2c0-0.1,0-0.1,0-0.2c0,0,0.1,0.1,0.1,0.1C19.4,14.1,19.3,14.1,19.3,14.2z"/>
	<path class="st14" d="M8.8,7.1C8.8,7.1,8.8,7.2,8.8,7.1C8.8,7.2,8.8,7.2,8.8,7.1C8.8,7.1,8.8,7.1,8.8,7.1z"/>
	<path class="st7" d="M2.6,15.8C2.6,15.8,2.6,15.8,2.6,15.8C2.7,15.8,2.7,15.8,2.6,15.8C2.7,15.8,2.7,15.8,2.6,15.8
		C2.7,15.8,2.6,15.8,2.6,15.8z"/>
	<path class="st13" d="M18.4,13.2c0.1,0.4,0.3,0.7,0.4,1.1c0.1,0.4,0.2,0.8,0.3,1.2c0,0.8-0.1,1.5-0.1,2.3c-0.3,1.1-0.7,2.2-1.5,3.1
		c-0.5,0.5-1.1,1-1.6,1.5c0-0.8,0-1.5,0-2.3c0-0.6-0.1-0.6-0.5-0.5c0,0,0-0.1,0-0.1c-0.1-0.6-0.5-0.6-1-0.6c-1.8,0-3.5,0-5.3,0
		c-0.7,0-1,0.2-1,0.9c0,0.8,0,1.7,0,2.5c-0.3-0.2-0.6-0.4-0.8-0.6c-0.3-0.3-0.5-0.5-0.8-0.8c-0.2-0.3-0.4-0.5-0.6-0.8
		c-0.1-0.3-0.3-0.6-0.4-0.8c-0.1-0.3-0.2-0.5-0.3-0.8C5.1,18,5,18,4.5,18.1c0-0.2-0.1-0.4-0.1-0.5c0.6,0,0.6-0.1,0.5-0.6
		c0-0.2,0-0.3,0-0.5c0-0.1,0-0.2,0-0.2c-0.5-0.4-0.2-1-0.1-1.4C5.1,13,6,11.4,7.5,10.2C7.7,10.1,7.9,10.1,8,10c0,1,0,2,0,3
		c-0.2,0.3,0,0.5,0.2,0.7c0.1,0,0.3,0.1,0.4,0.1c0.2,0,0.3,0,0.5,0c0.2,0,0.4-0.2,0.6-0.2c1.8,0,3.7,0,5.5,0c0.6,0,0.9-0.3,0.9-0.9
		c0-0.8,0-1.6,0-2.4c0.1,0.1,0.2,0.2,0.4,0.2c0.2,0.2,0.5,0.5,0.7,0.7c0.3,0.3,0.5,0.6,0.8,1C18.1,12.6,18.3,12.9,18.4,13.2z
		 M6.6,20.2c0.3,0.3,0.6,0.7,0.9,1c0,0.1,0,0.1,0.1,0.2c0-0.7,0-1.2,0-1.8c0-2.2,0-4.3,0-6.5c0-0.3,0.1-0.6,0.1-0.9
		c0-0.2,0-0.4,0-0.7c-0.1-0.1-0.1-0.1-0.2,0c-1.5,1.6-2.1,3.5-1.8,5.7c0.1,0.6,0.3,1.1,0.4,1.7C6.1,19.4,6.3,19.8,6.6,20.2z
		 M18,14.5c0.1-0.1,0.2-0.2,0.2-0.3c-0.1-0.3-0.3-0.7-0.4-1c-0.3-0.7-0.7-1.4-1.3-1.8l0,0c0-0.1-0.1-0.1-0.1-0.2c0,0,0,0-0.1,0
		c0,0.1,0,0.1,0.1,0.2c0,0.4,0.1,0.7,0.1,1.1c0,2.8-0.1,5.6-0.1,8.5c0,0,0.1,0.1,0.1,0.1c0.1-0.1,0.3-0.2,0.4-0.3
		c1.2-1.4,1.7-3,1.6-4.8c0-0.2,0-0.4-0.3-0.4C18.2,15.2,18.1,14.9,18,14.5z M15.3,14.7c-0.1-0.1-0.2-0.2-0.3-0.4c-2.1,0-4.2,0-6.3,0
		c-0.3,0-0.4,0.2-0.4,0.4c0,1.1,0,2.2,0,3.3c0.2,0,0.4,0,0.5,0c0.1,0.1,0.2,0.2,0.3,0.2c2,0,4,0,6,0c0.3,0,0.4-0.1,0.4-0.4
		c0-1,0-1.9,0-2.9C15.5,14.9,15.4,14.8,15.3,14.7z"/>
	<path class="st15" d="M7.2,21.8c0.3,0.2,0.6,0.4,0.8,0.6c0,0,0,0.1,0,0.1C8,22.7,7.9,22.9,7.8,23c-0.1,0-0.2,0-0.2,0
		c-0.1-0.1-0.1-0.2-0.2-0.2c-0.2-0.2-0.4-0.4-0.6-0.5C6.9,22.1,7.1,22,7.2,21.8z"/>
	<path class="st2" d="M7.8,23c0.1-0.2,0.2-0.3,0.2-0.5c0.1,0.2,0.2,0.4,0.3,0.6c0,0,0,0,0,0c0,0,0,0.1,0,0.1C8.2,23.2,8,23.1,7.8,23
		z"/>
	<path class="st23" d="M8.4,23.2C8.4,23.2,8.4,23.1,8.4,23.2C8.4,23.1,8.4,23.2,8.4,23.2C8.4,23.2,8.4,23.2,8.4,23.2
		C8.4,23.2,8.4,23.2,8.4,23.2z"/>
	<path class="st11" d="M15.3,19.7c0.4-0.1,0.5-0.1,0.5,0.5c0,0.8,0,1.5,0,2.3c0,0.1,0,0.2,0,0.4c-0.2,0-0.4,0.1-0.5,0.1
		C15.3,21.8,15.3,20.7,15.3,19.7z"/>
	<path class="st12" d="M4.8,16.9c0.1,0.6,0.1,0.6-0.5,0.6c0-0.2,0-0.4-0.1-0.6C4.5,17,4.7,17,4.8,16.9z"/>
	<path class="st11" d="M16.1,10.5c0,0.8,0,1.6,0,2.4c0,0.6-0.3,0.9-0.9,0.9c-1.8,0-3.7,0-5.5,0c-0.2,0-0.4,0.1-0.6,0.2
		c-0.2,0-0.3,0-0.5,0c0-0.1,0-0.1,0-0.2c0-0.1,0-0.2,0.1-0.2c0-0.1,0-0.2,0-0.3c0,0,0,0,0.1,0c2,0,4.1,0,6.1,0
		c0.3,0,0.4-0.1,0.4-0.4c0-1,0-2,0-3c0.1-0.4,0.2-0.5,0.6-0.3c0,0,0,0,0,0.1C15.6,10,15.6,10,16.1,10.5C16,10.4,16.1,10.4,16.1,10.5
		z"/>
	<path class="st9" d="M8.3,13.7C8.1,13.5,7.9,13.3,8,13c0.2,0,0.3,0.1,0.5,0.1C8.4,13.3,8.4,13.5,8.3,13.7z"/>
	<path class="st20" d="M8.3,13.7c0.1-0.2,0.2-0.4,0.2-0.6c0.1,0,0.2,0.1,0.2,0.1c0,0.1,0,0.2,0,0.3c0,0.1,0,0.2-0.1,0.2
		c0,0.1,0,0.1,0,0.2C8.6,13.8,8.4,13.8,8.3,13.7z"/>
	<path class="st17" d="M5.2,18.6c0.1,0.3,0.2,0.5,0.3,0.8c-0.2,0.1-0.4,0.1-0.5,0.2c0-0.1-0.1-0.2-0.1-0.2c-0.1-0.2-0.1-0.4-0.2-0.5
		C4.8,18.8,5,18.7,5.2,18.6z"/>
	<path class="st18" d="M5.2,18.6c-0.2,0.1-0.4,0.1-0.5,0.2c-0.1-0.2-0.1-0.5-0.2-0.7C5,18,5.1,18,5.2,18.6z"/>
	<path class="st15" d="M18,12.3c-0.3-0.3-0.5-0.6-0.8-1c0.1-0.2,0.2-0.3,0.3-0.5c0.3,0.3,0.5,0.7,0.8,1C18.2,12.1,18.1,12.2,18,12.3
		z"/>
	<path class="st21" d="M18,12.3c0.1-0.1,0.2-0.3,0.3-0.4c0.2,0.3,0.4,0.7,0.6,1c-0.1,0.1-0.3,0.2-0.4,0.3
		C18.3,12.9,18.1,12.6,18,12.3z"/>
	<path class="st20" d="M17.5,10.9c-0.1,0.2-0.2,0.3-0.3,0.5c-0.2-0.2-0.5-0.5-0.7-0.7c0.1-0.1,0.3-0.3,0.4-0.4
		c0.2,0.1,0.3,0.3,0.5,0.4C17.4,10.8,17.4,10.8,17.5,10.9z"/>
	<path class="st16" d="M4.9,19.6c0.2-0.1,0.4-0.1,0.5-0.2c0.1,0.3,0.3,0.6,0.4,0.8c-0.2,0.1-0.3,0.2-0.5,0.2
		C5.2,20.2,5.1,19.9,4.9,19.6z"/>
	<path class="st19" d="M5.4,20.5c0.2-0.1,0.3-0.2,0.5-0.2c0.2,0.3,0.4,0.5,0.6,0.8c-0.1,0.1-0.2,0.2-0.3,0.4
		C5.9,21.1,5.6,20.8,5.4,20.5z"/>
	<path class="st14" d="M8.4,23.2C8.4,23.2,8.4,23.2,8.4,23.2C8.4,23.2,8.4,23.2,8.4,23.2C8.4,23.2,8.4,23.2,8.4,23.2z"/>
	<path class="st19" d="M16.9,10.3c-0.1,0.1-0.3,0.3-0.4,0.4c-0.1-0.1-0.2-0.2-0.4-0.2c0,0,0-0.1-0.1-0.1c0.1-0.2,0.2-0.4,0.3-0.5
		C16.5,10,16.7,10.1,16.9,10.3z"/>
	<path class="st16" d="M16.3,9.8c-0.1,0.2-0.2,0.4-0.3,0.5c-0.4-0.3-0.4-0.4-0.1-0.8C16.1,9.7,16.2,9.7,16.3,9.8z"/>
	<path class="st8" d="M8.8,18.1c-0.2,0-0.3,0-0.5,0c0-1.1,0-2.2,0-3.3c0-0.3,0.1-0.4,0.4-0.4c2.1,0,4.2,0,6.3,0
		c0.1,0.2,0.2,0.3,0.3,0.4c0,0,0,0,0,0.1c-0.1,0-0.2,0-0.3,0c0,0,0,0,0-0.1c-0.1-0.1-0.3-0.2-0.4-0.2c-1.9,0-3.8,0-5.7,0
		c-0.4,0-0.5,0.1-0.5,0.5c0,0.8,0,1.6,0,2.4c0,0.1,0.1,0.2,0.1,0.4c0.1,0,0.2,0,0.3,0C9,17.9,8.9,18,8.8,18.1
		C8.9,18.1,8.9,18.1,8.8,18.1z"/>
	<path class="st6" d="M16.4,21.1c0,0-0.1-0.1-0.1-0.1c0-2.8,0.1-5.6,0.1-8.5c0-0.4-0.1-0.7-0.1-1.1c0,0,0.1,0,0.1,0c0,0,0,0,0,0
		c0.1,0.2,0.2,0.4,0.3,0.6c-0.1,0.2-0.2,0.4,0.1,0.5c0,0.1,0,0.2,0,0.3c0,0.1-0.1,0.2-0.1,0.4c0,2.1,0,4.1,0,6.2
		c0,0.1,0,0.2,0.1,0.4c0,0,0,0.1,0,0.1c0,0,0,0.1,0,0.1c0,0.1-0.1,0.1-0.1,0.2l0,0c0,0.1,0,0.2,0,0.2c0,0.1,0,0.1,0,0.2
		C16.6,20.8,16.5,21,16.4,21.1z"/>
	<path class="st24" d="M15.3,14.8C15.3,14.8,15.3,14.8,15.3,14.8c0.1,0,0.2,0.1,0.2,0.2c0,1,0,1.9,0,2.9c0,0.3-0.1,0.4-0.4,0.4
		c-2,0-4,0-6,0c-0.1,0-0.2-0.1-0.3-0.2c0,0,0,0,0.1,0c2,0,4.1,0,6.1,0c0.2,0,0.3-0.1,0.3-0.3C15.3,16.8,15.3,15.8,15.3,14.8z"/>
	<path class="st24" d="M7.5,11.5c0,0.2,0,0.4,0,0.7c0,0.3-0.1,0.6-0.1,0.9c0,2.2,0,4.3,0,6.5c0,0.6,0.1,1.2,0,1.8
		c0-0.1,0-0.1-0.1-0.2c-0.1-0.3-0.1-0.6-0.2-0.8c0-2.8,0-5.5,0-8.3C7.3,11.9,7.4,11.7,7.5,11.5z"/>
	<path class="st14" d="M7.5,11.5c-0.1,0.2-0.2,0.4-0.3,0.6c-0.1,0.1-0.1,0.1-0.2,0.2c0,0.1,0,0.1-0.1,0.2c0,0,0,0,0,0
		c0,0-0.1,0.1-0.1,0.1c0,0,0,0,0,0c-0.3,0.4-0.6,0.9-0.8,1.3c-0.5,1.1-0.5,2.3-0.5,3.4c-0.1,0-0.1,0-0.2,0c-0.3-2.2,0.3-4.1,1.8-5.7
		C7.4,11.4,7.4,11.4,7.5,11.5z"/>
	<path class="st11" d="M16.4,21.1c0.1-0.2,0.2-0.4,0.3-0.5c1.1-1.3,1.6-2.8,1.5-4.5c0-0.2,0-0.4,0-0.5c0.3,0,0.3,0.3,0.3,0.4
		c0.1,1.8-0.5,3.4-1.6,4.8C16.8,21,16.6,21.1,16.4,21.1z"/>
	<path class="st19" d="M16.7,12.1c-0.1-0.2-0.2-0.4-0.3-0.6c0.6,0.5,1,1.1,1.3,1.8c-0.1,0-0.1,0.1-0.2,0.1
		C17.3,12.9,17,12.5,16.7,12.1L16.7,12.1z"/>
	<path class="st5" d="M18.2,15.6c0,0.2,0,0.4,0,0.5c-0.1,0-0.2,0-0.3,0c-0.1-0.5-0.2-1.1-0.3-1.6c0.1,0,0.2,0,0.3,0c0,0,0,0,0.1,0
		C18.1,14.9,18.2,15.2,18.2,15.6z"/>
	<path class="st7" d="M5.4,17.2c0.1,0,0.1,0,0.2,0c0.2,0.6,0.3,1.1,0.5,1.7c-0.1,0-0.1,0-0.2,0C5.7,18.4,5.6,17.8,5.4,17.2z"/>
	<path class="st15" d="M7.2,20.4c0.1,0.3,0.1,0.6,0.2,0.8c-0.3-0.3-0.6-0.7-0.9-1c0.1,0,0.1-0.1,0.2-0.1c0.1,0.1,0.2,0.2,0.3,0.2
		C7.1,20.4,7.1,20.4,7.2,20.4z"/>
	<path class="st21" d="M6.7,20.1c-0.1,0-0.1,0.1-0.2,0.1c-0.2-0.4-0.5-0.8-0.7-1.3c0.1,0,0.1,0,0.2,0c0.2,0.3,0.3,0.5,0.5,0.8
		C6.6,19.9,6.7,20,6.7,20.1z"/>
	<path class="st16" d="M18,14.5C18,14.5,18,14.5,18,14.5c-0.2-0.4-0.3-0.8-0.4-1.2c0.1,0,0.1-0.1,0.2-0.1c0.2,0.3,0.3,0.7,0.4,1
		C18.2,14.3,18.1,14.4,18,14.5z"/>
	<path class="st19" d="M16.4,11.4c0,0-0.1,0-0.1,0c0-0.1,0-0.1-0.1-0.2c0,0,0,0,0.1,0C16.3,11.3,16.4,11.4,16.4,11.4z"/>
	<path class="st13" d="M8.7,13.7c0-0.1,0-0.2,0.1-0.2C8.7,13.6,8.7,13.7,8.7,13.7z"/>
	<path class="st0" d="M9,17.8c-0.1,0-0.2,0-0.3,0c0-1,0-2,0-3c2.1,0,4.2,0,6.3,0c0,0,0,0.1,0,0.1c0,1,0,2,0,3c-0.2,0-0.4,0-0.5,0
		C12.6,17.8,10.8,17.8,9,17.8z"/>
	<path class="st5" d="M9,17.8c1.8,0,3.7,0,5.5,0c0.2,0,0.3,0,0.5,0c0-1,0-2,0-3c0.1,0,0.2,0,0.3,0c0,1,0,2,0,3
		c0,0.2-0.1,0.3-0.3,0.3c-2,0-4.1,0-6.1,0C8.9,18,9,17.9,9,17.8z"/>
	<path class="st23" d="M15,14.7c-2.1,0-4.2,0-6.3,0c0,1,0,2,0,3c0-0.1-0.1-0.2-0.1-0.4c0-0.8,0-1.6,0-2.4c0-0.3,0.1-0.5,0.5-0.5
		c1.9,0,3.8,0,5.7,0C14.7,14.6,14.9,14.7,15,14.7z"/>
	<path class="st24" d="M17.7,14.5c0.1,0.5,0.2,1.1,0.3,1.6c0,1.4-0.4,2.7-1.2,3.8c0,0,0-0.1,0-0.1c0-2.3,0-4.6,0-7
		c0-0.1,0-0.2,0-0.3l0,0C17.1,13.2,17.4,13.9,17.7,14.5z"/>
	<path class="st2" d="M16.8,20c0.8-1.1,1.1-2.4,1.2-3.8c0.1,0,0.2,0,0.3,0c0,1.7-0.4,3.2-1.5,4.5c0-0.1,0-0.1,0-0.2
		c0-0.1,0-0.2,0-0.2c0,0,0,0,0,0C16.7,20.2,16.8,20.1,16.8,20C16.8,20,16.8,20,16.8,20z"/>
	<path class="st23" d="M16.8,12.9c0,2.3,0,4.6,0,7c0-0.1-0.1-0.2-0.1-0.4c0-2.1,0-4.1,0-6.2C16.7,13.1,16.8,13,16.8,12.9z"/>
	<path class="st23" d="M16.8,12.6c-0.3-0.1-0.2-0.3-0.1-0.5c0,0,0,0,0,0C16.8,12.2,16.8,12.4,16.8,12.6L16.8,12.6z"/>
	<path class="st23" d="M16.7,20.2c0,0.1,0,0.2,0,0.2C16.7,20.4,16.7,20.3,16.7,20.2z"/>
	<path class="st23" d="M16.8,20c0,0.1-0.1,0.1-0.1,0.2C16.7,20.2,16.8,20.1,16.8,20z"/>
	<path class="st5" d="M7.2,20.4c0,0-0.1,0-0.1,0C7,20.2,6.9,20,6.9,19.8c0-2.4,0-4.7,0-7.1c0-0.1,0-0.2,0-0.2c0,0,0,0,0,0
		c0,0,0.1-0.1,0.1-0.1c0,0,0,0,0,0c0-0.1,0-0.1,0.1-0.2c0.1-0.1,0.1-0.1,0.2-0.2C7.2,14.9,7.2,17.6,7.2,20.4z"/>
	<path class="st4" d="M6.9,12.5c0,0.1,0,0.2,0,0.2c-0.7,0.9-1,1.9-1.1,3c-0.1,1.4,0.2,2.8,1,4c-0.1,0-0.1,0-0.2,0
		c-0.2-0.3-0.3-0.5-0.5-0.8c-0.2-0.6-0.3-1.1-0.5-1.7c0-1.2,0-2.3,0.5-3.4C6.3,13.3,6.6,12.9,6.9,12.5z"/>
	<path class="st4" d="M7,12.2c0,0.1,0,0.1-0.1,0.2C7,12.3,7,12.3,7,12.2z"/>
	<path class="st4" d="M7,12.4C6.9,12.4,6.9,12.5,7,12.4C6.9,12.5,6.9,12.4,7,12.4z"/>
	<path class="st8" d="M16.8,12.6c0-0.2-0.1-0.3-0.1-0.5c0.3,0.4,0.6,0.8,0.9,1.3c0.1,0.4,0.3,0.8,0.4,1.2c-0.1,0-0.2,0-0.3,0
		C17.4,13.9,17.1,13.2,16.8,12.6z"/>
	<path class="st14" d="M6.6,19.7c0.1,0,0.1,0,0.2,0c0,0,0.1,0,0.1,0.1C6.9,20,7,20.2,7,20.4c-0.1-0.1-0.2-0.2-0.3-0.2
		C6.7,20,6.6,19.9,6.6,19.7z"/>
	<path class="st22" d="M6.9,19.8C6.8,19.8,6.8,19.8,6.9,19.8c-0.8-1.3-1.2-2.6-1.1-4c0.1-1.1,0.4-2.1,1.1-3
		C6.9,15.1,6.9,17.4,6.9,19.8z"/>
</g>
</svg>
