<?xml version="1.0" encoding="utf-8"?>
<!-- Generator: Adobe Illustrator 19.0.0, SVG Export Plug-In . SVG Version: 6.00 Build 0)  -->
<svg version="1.1" id="Capa_1" xmlns="http://www.w3.org/2000/svg" xmlns:xlink="http://www.w3.org/1999/xlink" x="0px" y="0px"
	 viewBox="0 0 100 33" style="enable-background:new 0 0 100 33;" xml:space="preserve">
<style type="text/css">
	.st0{clip-path:url(#SVGID_2_);}
	.st1{fill:#FEFEFD;}
	.st2{fill:#090909;}
	.st3{fill:#0E0E0E;}
	.st4{fill:#131313;}
	.st5{fill:#F15913;}
	.st6{fill:#F05712;}
	.st7{fill:#F15611;}
	.st8{fill:#F9D4BB;}
	.st9{fill:#F15610;}
</style>
<g>
	<defs>
		<rect id="SVGID_1_" x="0" y="-8" width="100" height="49"/>
	</defs>
	<clipPath id="SVGID_2_">
		<use xlink:href="#SVGID_1_"  style="overflow:visible;"/>
	</clipPath>
	<g class="st0">
		<path class="st1" d="M-75.5,41.5c0-16.3,0-32.7,0-49c83.3,0,166.7,0,250,0c0,16.3,0,32.7,0,49C91.2,41.5,7.8,41.5-75.5,41.5z
			 M77.4,20.9C77.4,20.9,77.4,20.9,77.4,20.9c-0.3,0.3-0.7,0.6-1.1,0.9c0,0,0,0,0,0c-0.7,0.6-1.5,1-2,1.7c-1,1.2-1.4,2.4,0.2,3.5
			c0.3,0.1,0.7,0.2,1,0.3c0.4-0.1,0.7-0.2,1.1-0.3l0,0c1.6-1.3,3.2-2.7,4.8-4c1-0.7,1.9-1.5,2.9-2.2c1.9,1.9,3.8,3.9,5.8,5.7
			c1.1,1,2.5,1.5,3.6,0.2c1.2-1.3,0.4-2.6-0.7-3.6c-1.9-1.7-3.9-3.4-5.9-5.1c0-0.3,0-0.5,0.1-0.8c2-1.7,4-3.4,5.9-5
			c1.2-1,1.9-2.2,0.7-3.6c-1.1-1.3-2.5-0.9-3.6,0.1c-2,1.8-4,3.6-5.9,5.4c-0.3,0-0.7,0-1,0c-0.3-0.3-0.6-0.7-1-1
			c-0.3-0.3-0.7-0.6-1-0.9c-1.2-1.1-2.4-2.1-3.7-3.2c-1.2-1.1-2.6-1.8-3.8-0.4c-1.2,1.3-0.5,2.7,0.8,3.8c1.8,1.5,3.5,3.1,5.3,4.6
			c0.2,0.4,0.3,0.8,0.5,1.1c-0.5,0.5-1,0.9-1.4,1.4c-0.2,0.2-0.4,0.3-0.6,0.5C78.1,20.3,77.7,20.6,77.4,20.9z M54,14.6
			c1.1,0.9,1.5,1.3,1.9,1.7c3.3,3.1,6.5,6.2,9.9,9.1c0.8,0.7,2.2,0.8,3.3,0.8c0.3,0,0.9-1.1,0.9-1.7c0.1-5.1,0.1-10.1-0.1-15.2
			c0-0.7-1.3-1.8-2.1-2c-0.6-0.1-1.6,1-2,1.8c-0.4,0.7-0.1,1.8-0.1,2.7c0,2.5,0,4.9,0,7.8c-4.2-3.9-7.9-7.5-11.8-11
			c-0.8-0.7-2.3-1.5-2.9-1.1c-0.8,0.5-1.4,1.9-1.4,3c-0.2,4.3-0.1,8.7-0.1,13c0,1.6,0.1,3,2.3,3c2,0,2.1-1.4,2.1-2.9
			C54,20.8,54,18.1,54,14.6z M36.9,14.9c-2.1-2.3-4.1-4.5-6.2-6.7c-1-1.1-2.3-1.4-3.1-0.2c-0.5,0.7-0.3,2.1,0.1,3
			c0.4,1,1.4,1.8,2.2,2.6c3,2.9,5.5,5.9,4.6,10.6c-0.3,1.5,0.7,2.4,2.3,2.4c1.6,0,2.4-1,2.1-2.3c-0.9-4.6,1.5-7.7,4.5-10.6
			c0.8-0.7,1.4-1.6,2.1-2.4c1-1.1,1.5-2.3,0.2-3.4c-1.3-1.1-2.4-0.4-3.3,0.7C40.7,10.5,38.9,12.6,36.9,14.9z M12,26.2
			c5,0,9.7,0,14.3,0c1.6,0,3.3-0.1,3.3-2.3c-0.1-2-1.7-2.1-3.2-2.1c-3.2,0-6.5,0-9.8,0c0-1.7,0-3.1,0-4.5c0-2.6,0.2-5.2-0.1-7.8
			c-0.1-0.9-1.3-2-2.2-2.3c-0.5-0.2-2.1,1.1-2.2,1.8C11.9,14.8,12,20.4,12,26.2z"/>
		<path class="st2" d="M54,14.6c0,3.5,0,6.2,0,8.9c0,1.5-0.1,2.8-2.1,2.9c-2.1,0-2.3-1.4-2.3-3c0-4.3-0.1-8.7,0.1-13
			c0-1.1,0.6-2.5,1.4-3c0.6-0.3,2.1,0.5,2.9,1.1c3.9,3.5,7.6,7.1,11.8,11c0-2.9,0-5.4,0-7.8c0-0.9-0.2-1.9,0.1-2.7
			c0.4-0.8,1.5-1.9,2-1.8c0.8,0.2,2.1,1.3,2.1,2c0.2,5.1,0.1,10.1,0.1,15.2c0,0.6-0.6,1.7-0.9,1.7c-1.1-0.1-2.5-0.1-3.3-0.8
			c-3.4-2.9-6.6-6.1-9.9-9.1C55.5,15.9,55.1,15.6,54,14.6z"/>
		<path class="st3" d="M36.9,14.9c2-2.3,3.8-4.3,5.6-6.4c1-1.1,2-1.8,3.3-0.7c1.3,1.1,0.8,2.3-0.2,3.4c-0.7,0.8-1.4,1.6-2.1,2.4
			c-3,2.9-5.4,6-4.5,10.6c0.3,1.4-0.6,2.3-2.1,2.3c-1.7,0-2.6-0.9-2.3-2.4c0.9-4.7-1.6-7.7-4.6-10.6c-0.8-0.8-1.8-1.6-2.2-2.6
			c-0.4-0.9-0.6-2.3-0.1-3c0.8-1.2,2.1-0.8,3.1,0.2C32.7,10.3,34.7,12.5,36.9,14.9z"/>
		<path class="st4" d="M12,26.2c0-5.9-0.1-11.5,0.1-17.1c0-0.7,1.6-2,2.2-1.8c0.9,0.3,2.1,1.4,2.2,2.3c0.3,2.6,0.1,5.2,0.1,7.8
			c0,1.4,0,2.8,0,4.5c3.3,0,6.5,0,9.8,0c1.5,0,3.2,0,3.2,2.1c0.1,2.2-1.6,2.3-3.3,2.3C21.6,26.2,17,26.2,12,26.2z"/>
		<path class="st5" d="M84.4,14.1c2-1.8,3.9-3.6,5.9-5.4c1.2-1,2.5-1.4,3.6-0.1c1.2,1.4,0.4,2.6-0.7,3.6c-2,1.7-3.9,3.4-5.9,5
			C84.4,17.1,84.1,16.9,84.4,14.1z"/>
		<path class="st6" d="M87.2,18c2,1.7,4,3.3,5.9,5.1c1.1,1,1.9,2.2,0.7,3.6c-1.2,1.3-2.5,0.8-3.6-0.2c-2-1.9-3.9-3.8-5.8-5.7
			c0-0.5,0-0.9-0.1-1.4C85.3,18.9,86.3,18.4,87.2,18z"/>
		<path class="st7" d="M82.4,13c0.3,0.3,0.6,0.7,1,1c0.3,3-0.2,3.5-3.4,2.9c-1.8-1.5-3.5-3.1-5.3-4.6c-1.2-1.1-1.9-2.5-0.8-3.8
			c1.2-1.4,2.6-0.6,3.8,0.4c1.2,1.1,2.4,2.1,3.7,3.2C81.7,12.4,82,12.7,82.4,13z"/>
		<path class="st7" d="M81.4,22.9c-1.6,1.3-3.2,2.7-4.8,4c-0.7-0.5-1.5-2-2.2,0c-1.6-1.1-1.2-2.3-0.2-3.5c0.6-0.7,1.3-1.1,2-1.7
			c1.1,2.9,3.2,1.5,5,1.1L81.4,22.9z M75.4,24.6c0.1,0,0.1,0.1,0.2,0.1c0,0,0-0.1,0.1-0.2c-0.1,0-0.1-0.1-0.2-0.1
			C75.4,24.5,75.4,24.6,75.4,24.6z"/>
		<path class="st7" d="M84.3,19.3c0,0.5,0,0.9,0.1,1.4c-1,0.7-1.9,1.5-2.9,2.2c0,0-0.1-0.1-0.1-0.1c-0.8-1.1-0.5-3-2.3-3.4
			c0.5-0.5,1-0.9,1.4-1.4c0.8,0.2,1.6,0.4,2.4,0.7c-0.4,0.3-0.7,0.7-1.1,1c0.1,0.1,0.3,0.2,0.4,0.3c0.2-0.4,0.4-0.8,0.7-1.2
			C83.4,18.9,83.8,19.1,84.3,19.3z"/>
		<path class="st8" d="M84.3,19.3c-0.5-0.2-0.9-0.4-1.4-0.6c0,0,0,0,0,0c-0.8-0.2-1.6-0.4-2.4-0.7c-0.2-0.4-0.3-0.8-0.5-1.1
			c3.2,0.6,3.7,0.1,3.4-2.9c0.3,0,0.7,0,1,0c-0.2,2.8,0,3,2.9,3.1c0,0.3,0,0.5-0.1,0.8C86.3,18.4,85.3,18.9,84.3,19.3z"/>
		<path class="st9" d="M79,19.5c1.9,0.4,1.5,2.3,2.3,3.4c-1.8,0.5-3.9,1.9-5-1.1c0,0,0,0,0,0c0.4-0.3,0.7-0.6,1.1-0.9c0,0,0,0,0,0
			c0.3-0.3,0.7-0.6,1-0.9C78.6,19.8,78.8,19.6,79,19.5z"/>
		<path class="st9" d="M74.5,27c0.7-2,1.4-0.5,2.2,0c0,0,0,0,0,0c-0.4,0.1-0.7,0.2-1.1,0.3C75.1,27.2,74.8,27.1,74.5,27z"/>
		<path class="st7" d="M77.4,20.9c-0.4,0.3-0.7,0.6-1.1,0.9C76.7,21.5,77.1,21.2,77.4,20.9z"/>
		<path class="st7" d="M78.4,20c-0.3,0.3-0.7,0.6-1,0.9C77.7,20.6,78.1,20.3,78.4,20z"/>
		<path class="st8" d="M82.4,13c-0.3-0.3-0.7-0.6-1-0.9C81.7,12.4,82,12.7,82.4,13z"/>
		<path class="st7" d="M75.5,27.3c0.4-0.1,0.7-0.2,1.1-0.3C76.2,27,75.9,27.1,75.5,27.3z"/>
		<path class="st9" d="M75.4,24.6c0-0.1,0-0.2,0.1-0.2c0.1,0,0.1,0,0.2,0.1c0,0.1,0,0.2-0.1,0.2C75.5,24.7,75.4,24.7,75.4,24.6z"/>
		<path class="st9" d="M82.9,18.7c-0.2,0.4-0.4,0.8-0.7,1.2c-0.1-0.1-0.3-0.2-0.4-0.3C82.2,19.4,82.5,19,82.9,18.7
			C82.9,18.7,82.9,18.7,82.9,18.7z"/>
	</g>
</g>
</svg>
