<?xml version="1.0" encoding="utf-8"?>
<!-- Generator: Adobe Illustrator 19.0.0, SVG Export Plug-In . SVG Version: 6.00 Build 0)  -->
<svg version="1.1" id="Capa_1" xmlns="http://www.w3.org/2000/svg" xmlns:xlink="http://www.w3.org/1999/xlink" x="0px" y="0px"
	 viewBox="0 0 100 33" style="enable-background:new 0 0 100 33;" xml:space="preserve">
<style type="text/css">
	.st0{fill:#FCFDFD;}
	.st1{fill:#049A9A;}
	.st2{fill:#019999;}
	.st3{fill:#029999;}
</style>
<g>
	<path class="st0" d="M0,28.4c0-8,0-15.9,0-23.8c33.3,0,66.7,0,100,0c0,7.9,0,15.9,0,23.8C66.7,28.4,33.3,28.4,0,28.4z M39.5,14.5
		c0,0,0.1,0,0.1,0c0.1,0.2,0.1,0.3,0.2,0.5c1,2.4,2,4.7,2.9,7.1c0.7,1.7,0.7,1.7,2.5,1.7c0.5,0,0.7-0.1,0.9-0.6
		c1-2.5,2.1-4.9,3.2-7.4c0.2-0.4,0.4-0.8,0.6-1.2c0,0,0.1,0,0.1,0c0,3,0,6,0,9c1.4,0,2.6,0,3.9,0c0-4.8,0-9.5,0-14.2
		c-1.6,0-3.1,0-4.6,0c-0.2,0-0.4,0.2-0.5,0.4c-0.5,1.1-1,2.3-1.4,3.4c-0.7,1.6-1.4,3.2-2.1,4.9c-0.1-0.3-0.2-0.6-0.3-0.8
		c-1-2.4-2-4.9-3-7.3c-0.2-0.4-0.4-0.6-0.9-0.6c-0.8,0-1.7,0-2.6,0c-0.7,0-1.3,0-2,0c0,4.8,0,9.5,0,14.3c1,0,1.9,0,2.8,0
		C39.5,20.5,39.5,17.5,39.5,14.5z M79.7,18c0,0-0.1,0-0.1,0c-1.5-2.7-3-5.5-4.5-8.2c-0.1-0.2-0.3-0.5-0.5-0.5c-1.4,0-2.9,0-4.3,0
		c0,4.8,0,9.5,0,14.2c1,0,1.9,0,2.8,0c0-3,0-5.9,0-9c0.2,0.4,0.3,0.6,0.5,0.8c1.2,2.2,2.5,4.3,3.5,6.5c0.7,1.4,1.5,2.1,3.2,1.8
		c0.8-0.1,1.6,0,2.4,0c0-4.8,0-9.5,0-14.2c-1,0-1.9,0-2.8,0C79.7,12.3,79.7,15.1,79.7,18z M57.3,9.3c0,4.8,0,9.5,0,14.2
		c3.5,0,7,0,10.4,0c0-0.9,0-1.8,0-2.7c-2.1,0-4.2,0-6.3,0c0-1.1,0-2.2,0-3.3c1.8,0,3.6,0,5.4,0c0-0.8,0-1.6,0-2.4
		c-1.8,0-3.6,0-5.4,0c0-1.1,0-2.1,0-3.2c2.1,0,4.1,0,6.2,0c0-0.9,0-1.7,0-2.6C64.2,9.3,60.8,9.3,57.3,9.3z M23.8,9.3
		c0,4.8,0,9.5,0,14.2c3.5,0,7,0,10.4,0c0-0.9,0-1.8,0-2.7c-2.1,0-4.2,0-6.4,0c0-1.1,0-2.2,0-3.4c1.8,0,3.6,0,5.4,0
		c0-0.8,0-1.6,0-2.4c-1.8,0-3.6,0-5.4,0c0-1.1,0-2.1,0-3.2c2.1,0,4.2,0,6.2,0c0-0.9,0-1.8,0-2.6C30.6,9.3,27.2,9.3,23.8,9.3z
		 M95.3,12.2c0-0.9,0-1.7,0-2.7c-0.9-0.1-1.9-0.3-2.8-0.4c-1.6-0.2-3.2-0.1-4.7,0.6c-3.1,1.4-3.4,5.1-0.6,7c0.7,0.5,1.5,0.8,2.3,1.2
		c0.7,0.4,1.5,0.6,2.3,1c0.3,0.2,0.6,0.7,0.6,1c0,0.4-0.4,0.7-0.7,1c-0.2,0.2-0.5,0.2-0.8,0.2c-0.8,0-1.7,0-2.5-0.1
		c-0.9-0.1-1.8-0.4-2.7-0.6c0,1,0,1.9,0,2.8c2,0.5,4,0.7,6.1,0.5c1.1-0.1,2.2-0.5,3.1-1.2c2.1-1.6,2.2-4.6,0.1-6.2
		c-0.6-0.5-1.3-0.8-1.9-1.2c-1-0.5-2-0.9-2.9-1.5c-0.3-0.2-0.7-0.7-0.7-0.9c0-0.3,0.5-0.8,0.8-0.9c0.6-0.2,1.3-0.3,2-0.2
		C93.2,11.7,94.2,12,95.3,12.2z M3.5,23.3c2,0.5,4,0.8,6.1,0.4c1-0.2,2.1-0.5,2.9-1.1c2.4-1.6,2.4-4.8,0.1-6.5
		c-0.5-0.4-1.2-0.7-1.8-1.1c-1-0.5-2-0.9-2.9-1.5c-0.3-0.2-0.7-0.7-0.7-1c0-0.3,0.5-0.8,0.8-0.9c0.6-0.2,1.3-0.3,2-0.2
		c1.1,0.1,2.1,0.4,3.2,0.6c0-0.7,0-1.4,0-2.2c0-0.4-0.1-0.5-0.5-0.6c-0.8-0.1-1.6-0.3-2.4-0.3C8.7,8.9,7.1,9,5.6,9.7
		c-3,1.5-3.3,5.1-0.5,7c0.7,0.5,1.5,0.8,2.3,1.2c0.7,0.4,1.5,0.6,2.2,1c0.3,0.2,0.6,0.7,0.6,1c0,0.3-0.4,0.7-0.7,1
		c-0.2,0.2-0.5,0.2-0.8,0.2c-0.8,0-1.7,0-2.5-0.1c-0.9-0.1-1.8-0.4-2.7-0.6C3.5,21.4,3.5,22.3,3.5,23.3z M20.4,23.5
		c0-4.8,0-9.5,0-14.2c-1.4,0-2.8,0-4.2,0c0,4.8,0,9.5,0,14.2C17.7,23.5,19,23.5,20.4,23.5z"/>
	<path class="st1" d="M39.5,14.5c0,3,0,6,0,9c-1,0-1.9,0-2.8,0c0-4.7,0-9.4,0-14.3c0.7,0,1.3,0,2,0c0.9,0,1.7,0,2.6,0
		c0.5,0,0.7,0.2,0.9,0.6c1,2.5,2,4.9,3,7.3c0.1,0.2,0.2,0.4,0.3,0.8c0.7-1.7,1.4-3.3,2.1-4.9c0.5-1.1,0.9-2.3,1.4-3.4
		c0.1-0.2,0.3-0.4,0.5-0.4c1.5,0,3,0,4.6,0c0,4.8,0,9.5,0,14.2c-1.3,0-2.6,0-3.9,0c0-3,0-6,0-9c0,0-0.1,0-0.1,0
		c-0.2,0.4-0.4,0.8-0.6,1.2c-1.1,2.5-2.1,4.9-3.2,7.4c-0.2,0.5-0.4,0.6-0.9,0.6c-1.8,0-1.8,0-2.5-1.7c-1-2.4-2-4.7-2.9-7.1
		c-0.1-0.2-0.1-0.3-0.2-0.5C39.6,14.5,39.5,14.5,39.5,14.5z"/>
	<path class="st2" d="M79.7,18c0-2.9,0-5.8,0-8.7c1,0,1.9,0,2.8,0c0,4.7,0,9.4,0,14.2c-0.8,0-1.6-0.1-2.4,0
		c-1.6,0.3-2.5-0.4-3.2-1.8c-1-2.2-2.3-4.3-3.5-6.5c-0.1-0.2-0.2-0.4-0.5-0.8c0,3.1,0,6,0,9c-1,0-1.9,0-2.8,0c0-4.7,0-9.4,0-14.2
		c1.5,0,2.9,0,4.3,0c0.2,0,0.4,0.3,0.5,0.5c1.5,2.7,3,5.5,4.5,8.2C79.6,18,79.7,18,79.7,18z"/>
	<path class="st3" d="M57.3,9.3c3.5,0,6.9,0,10.3,0c0,0.9,0,1.7,0,2.6c-2.1,0-4.1,0-6.2,0c0,1.1,0,2.1,0,3.2c1.8,0,3.5,0,5.4,0
		c0,0.8,0,1.6,0,2.4c-1.8,0-3.6,0-5.4,0c0,1.1,0,2.2,0,3.3c2.1,0,4.2,0,6.3,0c0,0.9,0,1.8,0,2.7c-3.5,0-6.9,0-10.4,0
		C57.3,18.8,57.3,14.1,57.3,9.3z"/>
	<path class="st2" d="M23.8,9.3c3.5,0,6.9,0,10.3,0c0,0.8,0,1.7,0,2.6c-2.1,0-4.1,0-6.2,0c0,1.1,0,2.1,0,3.2c1.8,0,3.6,0,5.4,0
		c0,0.8,0,1.6,0,2.4c-1.8,0-3.6,0-5.4,0c0,1.1,0,2.2,0,3.4c2.1,0,4.2,0,6.4,0c0,0.9,0,1.8,0,2.7c-3.5,0-6.9,0-10.4,0
		C23.8,18.8,23.8,14.1,23.8,9.3z"/>
	<path class="st3" d="M95.3,12.2c-1.1-0.2-2.1-0.5-3.2-0.6c-0.6-0.1-1.3,0-2,0.2c-0.3,0.1-0.8,0.6-0.8,0.9c0,0.3,0.4,0.8,0.7,0.9
		c0.9,0.5,2,1,2.9,1.5c0.7,0.4,1.4,0.7,1.9,1.2c2.1,1.7,2,4.6-0.1,6.2c-0.9,0.7-2,1.1-3.1,1.2c-2,0.2-4.1,0.1-6.1-0.5
		c0-0.9,0-1.8,0-2.8c0.9,0.2,1.8,0.5,2.7,0.6c0.8,0.1,1.6,0.1,2.5,0.1c0.3,0,0.6,0,0.8-0.2c0.3-0.3,0.7-0.6,0.7-1
		c0-0.3-0.3-0.8-0.6-1c-0.7-0.4-1.5-0.7-2.3-1c-0.8-0.4-1.6-0.7-2.3-1.2c-2.8-1.9-2.5-5.6,0.6-7c1.5-0.7,3.1-0.7,4.7-0.6
		c0.9,0.1,1.8,0.3,2.8,0.4C95.3,10.4,95.3,11.3,95.3,12.2z"/>
	<path class="st3" d="M3.5,23.3c0-1,0-1.9,0-2.8c0.9,0.2,1.8,0.5,2.7,0.6c0.8,0.1,1.6,0.1,2.5,0.1c0.3,0,0.6-0.1,0.8-0.2
		c0.3-0.3,0.7-0.6,0.7-1c0-0.3-0.3-0.8-0.6-1c-0.7-0.4-1.5-0.7-2.2-1c-0.8-0.4-1.6-0.7-2.3-1.2c-2.7-1.9-2.4-5.5,0.5-7
		C7.1,9,8.7,8.9,10.3,9.1c0.8,0.1,1.6,0.3,2.4,0.3c0.4,0,0.5,0.2,0.5,0.6c0,0.7,0,1.5,0,2.2c-1.1-0.2-2.1-0.5-3.2-0.6
		c-0.6-0.1-1.3,0-2,0.2c-0.3,0.1-0.8,0.6-0.8,0.9c0,0.3,0.3,0.8,0.7,1c0.9,0.5,2,1,2.9,1.5c0.6,0.3,1.2,0.6,1.8,1.1
		c2.3,1.7,2.3,4.9-0.1,6.5c-0.8,0.6-1.9,0.9-2.9,1.1C7.6,24,5.5,23.8,3.5,23.3z"/>
	<path class="st1" d="M20.4,23.5c-1.4,0-2.8,0-4.2,0c0-4.7,0-9.5,0-14.2c1.4,0,2.8,0,4.2,0C20.4,14,20.4,18.8,20.4,23.5z"/>
</g>
</svg>
