<?xml version="1.0" encoding="utf-8"?>
<!-- Generator: Adobe Illustrator 19.0.0, SVG Export Plug-In . SVG Version: 6.00 Build 0)  -->
<svg version="1.1" id="Capa_1" xmlns="http://www.w3.org/2000/svg" xmlns:xlink="http://www.w3.org/1999/xlink" x="0px" y="0px"
	 viewBox="0 0 100 33" style="enable-background:new 0 0 100 33;" xml:space="preserve">
<style type="text/css">
	.st0{fill:#FFFFFF;}
	.st1{fill:#01CDFF;}
	.st2{fill:#019ACF;}
	.st3{fill:#010101;}
	.st4{fill:#FEFFFF;}
	.st5{fill:#FCFDFE;}
</style>
<g>
	<path class="st0" d="M1600.3,138.9c0-7.3,0-14.6,0-21.9c33.3,0,66.7,0,100,0c0,7.3,0,14.6,0,21.9
		C1667,138.9,1633.7,138.9,1600.3,138.9z M1612.1,117.6c0,0-0.1,0-0.1,0c-3.6,0-7.2,0-10.8,0c0,0-0.1,0-0.2,0c0,0.1,0,0.1,0,0.2
		c0,3.3,0,6.6,0,9.9c0,0.1,0,0.1,0,0.2c0,0.1,0,0.1,0,0.2c0,3.3,0,6.6,0,9.9c0,0.1,0,0.1,0,0.2c0,0,0.1,0,0.1,0
		c7.3-6.8,14.7-13.5,22-20.3c0.1-0.1,0.1-0.1,0.2-0.2c0,0,0,0,0,0c0,0,0,0,0,0c-0.1,0-0.1,0-0.2,0c-3.6,0-7.2,0-10.8,0
		C1612.2,117.6,1612.2,117.6,1612.1,117.6z M1620.3,133.7c0.1,0,0.2,0,0.2,0c2.9,0,5.9,0,8.8,0c0.4,0,0.7,0,1.1-0.1
		c1.4-0.2,2.7-0.8,3.9-1.7c1-0.9,1.7-1.9,2-3.2c0.2-0.8,0.2-1.6,0.1-2.4c-0.1-0.6-0.2-1.1-0.5-1.7c-0.5-1-1.4-1.7-2.5-2.1
		c-0.9-0.3-1.7-0.4-2.6-0.4c-2.4,0-4.9,0-7.3,0c0,0-0.1,0-0.2,0C1622.3,125.9,1621.3,129.8,1620.3,133.7z M1694.8,128.7
		C1694.8,128.7,1694.8,128.7,1694.8,128.7c-0.9-2.2-1.8-4.4-2.6-6.7c-1.8,0-3.5,0-5.3,0c-1,3.9-2,7.7-3,11.6c1.1,0,2.2,0,3.2,0
		c0.6-2.2,1.1-4.3,1.7-6.5c0,0,0,0,0,0c0.8,2.2,1.7,4.3,2.5,6.5c1.8,0,3.6,0,5.4,0c0.2-0.4,3-11.4,3-11.6c-1.1,0-2.1,0-3.2,0
		C1695.9,124.3,1695.4,126.5,1694.8,128.7z M1662.8,122.1c-1,3.9-2,7.7-3,11.6c1.6,0,3.3,0,4.9,0c0.3-1.3,0.7-2.6,1-3.9
		c0.1,0.1,0.1,0.2,0.2,0.2c0.8,1.2,1.7,2.3,2.5,3.5c0.1,0.1,0.1,0.2,0.3,0.1c1.8,0,3.5,0,5.3,0c0,0,0.1,0,0.1,0
		c-1.5-2-2.9-4.1-4.4-6.1c2.1-1.8,4.2-3.7,6.3-5.5c0,0,0,0,0,0c0,0-0.1,0-0.1,0c-1.5,0-3,0-4.5,0c-0.1,0-0.2,0-0.3,0.1
		c-1.4,1.2-2.8,2.4-4.2,3.6c0,0-0.1,0.1-0.2,0.1c0.3-1.3,0.7-2.6,1-3.8C1666.1,122.1,1664.5,122.1,1662.8,122.1z M1650.3,133.7
		c-0.7-3.9-1.5-7.7-2.2-11.6c-1.8,0-3.6,0-5.4,0c-2.2,3.8-4.3,7.6-6.5,11.5c0,0,0,0.1,0,0.1c0,0,0,0,0,0c0,0,0,0,0,0c0,0,0,0,0.1,0
		c0.8,0,1.6,0,2.5,0c0.1,0,0.2,0,0.2-0.1c0.3-0.5,0.6-1.1,0.9-1.6c0.1-0.1,0.1-0.2,0.3-0.2c1.6,0,3.2,0,4.8,0c0.1,0,0.1,0,0.2,0
		c0.1,0.6,0.2,1.2,0.4,1.9C1647.1,133.7,1648.7,133.7,1650.3,133.7z M1657,133.7c0.2-0.4,3-11.4,3-11.6c-1.6,0-3.2,0-4.9,0
		c-1,3.9-2,7.7-3,11.6C1653.7,133.7,1655.4,133.7,1657,133.7z M1679.1,122.1c-1,3.9-2,7.7-3,11.6c1.6,0,3.3,0,4.9,0
		c1-3.9,2-7.7,3-11.6C1682.4,122.1,1680.7,122.1,1679.1,122.1z"/>
	<path class="st1" d="M1612.1,117.6c0.1,0,0.1,0,0.2,0c3.6,0,7.2,0,10.8,0c0.1,0,0.1,0,0.2,0c0,0,0,0,0,0c0,0,0,0,0,0
		c-0.1,0.1-0.1,0.1-0.2,0.2c-7.3,6.8-14.7,13.5-22,20.3c0,0,0,0-0.1,0c0-0.1,0-0.1,0-0.2c0-3.3,0-6.6,0-9.9c0-0.1,0-0.1,0-0.2
		c0,0,0.1-0.1,0.1-0.1c1-0.9,2-1.8,2.9-2.7c1.7-1.6,3.4-3.2,5.2-4.8C1610.2,119.5,1611.1,118.6,1612.1,117.6z"/>
	<path class="st2" d="M1620.3,133.7c1-3.9,2-7.7,3-11.6c0.1,0,0.1,0,0.2,0c2.4,0,4.9,0,7.3,0c0.9,0,1.8,0.1,2.6,0.4
		c1.1,0.4,1.9,1.1,2.5,2.1c0.3,0.5,0.4,1.1,0.5,1.7c0.1,0.8,0.1,1.6-0.1,2.4c-0.3,1.3-1,2.4-2,3.2c-1.1,0.9-2.4,1.5-3.9,1.7
		c-0.4,0.1-0.7,0.1-1.1,0.1c-2.9,0-5.9,0-8.8,0C1620.4,133.7,1620.4,133.7,1620.3,133.7z M1625.8,131.4c0.1,0,0.1,0,0.2,0
		c0.4,0,0.8,0,1.2,0c0.5,0,1-0.1,1.5-0.2c0.8-0.2,1.5-0.6,2-1.3c0.8-1,1-2.2,0.8-3.4c-0.1-0.7-0.6-1.2-1.3-1.4
		c-0.3-0.1-0.5-0.1-0.8-0.1c-0.6,0-1.3,0-1.9,0c0,0,0,0-0.1,0C1626.9,127,1626.3,129.2,1625.8,131.4z"/>
	<path class="st2" d="M1694.8,128.7c0.6-2.2,1.1-4.4,1.7-6.6c1.1,0,2.1,0,3.2,0c0,0.1-2.8,11.2-3,11.6c-1.8,0-3.6,0-5.4,0
		c-0.8-2.2-1.7-4.3-2.5-6.5c0,0,0,0,0,0c-0.6,2.2-1.1,4.3-1.7,6.5c-1.1,0-2.1,0-3.2,0c1-3.9,2-7.7,3-11.6c1.8,0,3.5,0,5.3,0
		C1693,124.3,1693.9,126.5,1694.8,128.7C1694.8,128.7,1694.8,128.7,1694.8,128.7z"/>
	<path class="st2" d="M1662.8,122.1c1.6,0,3.3,0,4.9,0c-0.3,1.3-0.7,2.5-1,3.8c0.1-0.1,0.1-0.1,0.2-0.1c1.4-1.2,2.8-2.4,4.2-3.6
		c0.1-0.1,0.2-0.1,0.3-0.1c1.5,0,3,0,4.5,0c0,0,0.1,0,0.1,0c0,0,0,0,0,0c-2.1,1.8-4.2,3.6-6.3,5.5c1.5,2,2.9,4,4.4,6.1
		c-0.1,0-0.1,0-0.1,0c-1.8,0-3.5,0-5.3,0c-0.1,0-0.2-0.1-0.3-0.1c-0.8-1.2-1.7-2.3-2.5-3.5c0-0.1-0.1-0.1-0.2-0.2
		c-0.3,1.3-0.7,2.6-1,3.9c-1.6,0-3.3,0-4.9,0C1660.8,129.8,1661.8,126,1662.8,122.1z"/>
	<path class="st2" d="M1650.3,133.7c-1.6,0-3.3,0-4.9,0c-0.1-0.6-0.2-1.2-0.4-1.9c-0.1,0-0.1,0-0.2,0c-1.6,0-3.2,0-4.8,0
		c-0.1,0-0.2,0-0.3,0.2c-0.3,0.5-0.6,1.1-0.9,1.6c-0.1,0.1-0.1,0.1-0.2,0.1c-0.8,0-1.6,0-2.5,0c0,0,0,0-0.1,0c0,0,0,0,0,0
		c0,0,0,0,0,0c0,0,0-0.1,0-0.1c2.2-3.8,4.3-7.6,6.5-11.5c1.8,0,3.6,0,5.4,0C1648.9,126,1649.6,129.8,1650.3,133.7z M1643.8,125
		C1643.8,125,1643.8,125,1643.8,125c-0.8,1.3-1.5,2.5-2.2,3.8c1,0,1.9,0,2.9,0C1644.3,127.5,1644.1,126.3,1643.8,125z"/>
	<path class="st3" d="M1612.1,117.6c-1,0.9-1.9,1.8-2.9,2.7c-1.7,1.6-3.4,3.2-5.2,4.8c-1,0.9-2,1.8-2.9,2.7c0,0-0.1,0.1-0.1,0.1
		c0-0.1,0-0.1,0-0.2c0-3.3,0-6.6,0-9.9c0-0.1,0-0.1,0-0.2c0.1,0,0.1,0,0.2,0c3.6,0,7.2,0,10.8,0
		C1612,117.6,1612.1,117.6,1612.1,117.6z"/>
	<path class="st2" d="M1657,133.7c-1.6,0-3.2,0-4.9,0c1-3.9,2-7.7,3-11.6c1.6,0,3.3,0,4.9,0C1660,122.2,1657.1,133.2,1657,133.7z"/>
	<path class="st2" d="M1679.1,122.1c1.6,0,3.3,0,4.9,0c-1,3.9-2,7.7-3,11.6c-1.6,0-3.3,0-4.9,0
		C1677.1,129.8,1678.1,126,1679.1,122.1z"/>
	<path class="st4" d="M1625.8,131.4c0.6-2.2,1.1-4.3,1.7-6.5c0,0,0,0,0.1,0c0.6,0,1.3,0,1.9,0c0.3,0,0.5,0.1,0.8,0.1
		c0.7,0.2,1.2,0.7,1.3,1.4c0.2,1.2-0.1,2.4-0.8,3.4c-0.5,0.7-1.2,1.1-2,1.3c-0.5,0.1-1,0.2-1.5,0.2c-0.4,0-0.8,0-1.2,0
		C1625.9,131.4,1625.9,131.4,1625.8,131.4z"/>
	<path class="st5" d="M1643.8,125c0.2,1.3,0.5,2.5,0.7,3.8c-1,0-1.9,0-2.9,0C1642.3,127.5,1643.1,126.3,1643.8,125
		C1643.8,125,1643.8,125,1643.8,125z"/>
</g>
<g>
	<path class="st0" d="M0,27.4c0-7.3,0-14.6,0-21.9c33.3,0,66.7,0,100,0c0,7.3,0,14.6,0,21.9C66.7,27.4,33.3,27.4,0,27.4z M11.8,6.1
		c0,0-0.1,0-0.1,0c-3.6,0-7.2,0-10.8,0c0,0-0.1,0-0.2,0c0,0.1,0,0.1,0,0.2c0,3.3,0,6.6,0,9.9c0,0.1,0,0.1,0,0.2c0,0.1,0,0.1,0,0.2
		c0,3.3,0,6.6,0,9.9c0,0.1,0,0.1,0,0.2c0,0,0.1,0,0.1,0c7.3-6.8,14.7-13.5,22-20.3c0.1-0.1,0.1-0.1,0.2-0.2c0,0,0,0,0,0c0,0,0,0,0,0
		c-0.1,0-0.1,0-0.2,0c-3.6,0-7.2,0-10.8,0C11.9,6.1,11.8,6.1,11.8,6.1z M19.9,22.2c0.1,0,0.2,0,0.2,0c2.9,0,5.9,0,8.8,0
		c0.4,0,0.7,0,1.1-0.1c1.4-0.2,2.7-0.8,3.9-1.7c1-0.9,1.7-1.9,2-3.2c0.2-0.8,0.2-1.6,0.1-2.4c-0.1-0.6-0.2-1.1-0.5-1.7
		c-0.5-1-1.4-1.7-2.5-2.1c-0.9-0.3-1.7-0.4-2.6-0.4c-2.4,0-4.9,0-7.3,0c0,0-0.1,0-0.2,0C21.9,14.4,20.9,18.3,19.9,22.2z M94.5,17.2
		C94.5,17.2,94.4,17.2,94.5,17.2c-0.9-2.2-1.8-4.4-2.6-6.7c-1.8,0-3.5,0-5.3,0c-1,3.9-2,7.7-3,11.6c1.1,0,2.2,0,3.2,0
		c0.6-2.2,1.1-4.3,1.7-6.5c0,0,0,0,0,0c0.8,2.2,1.7,4.3,2.5,6.5c1.8,0,3.6,0,5.4,0c0.2-0.4,3-11.4,3-11.6c-1.1,0-2.1,0-3.2,0
		C95.6,12.8,95,15,94.5,17.2z M62.5,10.6c-1,3.9-2,7.7-3,11.6c1.6,0,3.3,0,4.9,0c0.3-1.3,0.7-2.6,1-3.9c0.1,0.1,0.1,0.2,0.2,0.2
		c0.8,1.2,1.7,2.3,2.5,3.5c0.1,0.1,0.1,0.2,0.3,0.1c1.8,0,3.5,0,5.3,0c0,0,0.1,0,0.1,0c-1.5-2-2.9-4.1-4.4-6.1
		c2.1-1.8,4.2-3.7,6.3-5.5c0,0,0,0,0,0c0,0-0.1,0-0.1,0c-1.5,0-3,0-4.5,0c-0.1,0-0.2,0-0.3,0.1c-1.4,1.2-2.8,2.4-4.2,3.6
		c0,0-0.1,0.1-0.2,0.1c0.3-1.3,0.7-2.6,1-3.8C65.7,10.6,64.1,10.6,62.5,10.6z M50,22.2c-0.7-3.9-1.5-7.7-2.2-11.6
		c-1.8,0-3.6,0-5.4,0c-2.2,3.8-4.3,7.6-6.5,11.5c0,0,0,0.1,0,0.1c0,0,0,0,0,0c0,0,0,0,0,0c0,0,0,0,0.1,0c0.8,0,1.6,0,2.5,0
		c0.1,0,0.2,0,0.2-0.1c0.3-0.5,0.6-1.1,0.9-1.6c0.1-0.1,0.1-0.2,0.3-0.2c1.6,0,3.2,0,4.8,0c0.1,0,0.1,0,0.2,0
		c0.1,0.6,0.2,1.2,0.4,1.9C46.7,22.2,48.4,22.2,50,22.2z M56.7,22.2c0.2-0.4,3-11.4,3-11.6c-1.6,0-3.2,0-4.9,0c-1,3.9-2,7.7-3,11.6
		C53.4,22.2,55,22.2,56.7,22.2z M78.8,10.6c-1,3.9-2,7.7-3,11.6c1.6,0,3.3,0,4.9,0c1-3.9,2-7.7,3-11.6C82,10.6,80.4,10.6,78.8,10.6z
		"/>
	<path class="st1" d="M11.8,6.1c0.1,0,0.1,0,0.2,0c3.6,0,7.2,0,10.8,0c0.1,0,0.1,0,0.2,0c0,0,0,0,0,0c0,0,0,0,0,0
		c-0.1,0.1-0.1,0.1-0.2,0.2C15.4,13.1,8,19.9,0.7,26.7c0,0,0,0-0.1,0c0-0.1,0-0.1,0-0.2c0-3.3,0-6.6,0-9.9c0-0.1,0-0.1,0-0.2
		c0,0,0.1-0.1,0.1-0.1c1-0.9,2-1.8,2.9-2.7c1.7-1.6,3.4-3.2,5.2-4.8C9.8,7.9,10.8,7,11.8,6.1z"/>
	<path class="st2" d="M19.9,22.2c1-3.9,2-7.7,3-11.6c0.1,0,0.1,0,0.2,0c2.4,0,4.9,0,7.3,0c0.9,0,1.8,0.1,2.6,0.4
		c1.1,0.4,1.9,1.1,2.5,2.1c0.3,0.5,0.4,1.1,0.5,1.7c0.1,0.8,0.1,1.6-0.1,2.4c-0.3,1.3-1,2.4-2,3.2c-1.1,0.9-2.4,1.5-3.9,1.7
		c-0.4,0.1-0.7,0.1-1.1,0.1c-2.9,0-5.9,0-8.8,0C20.1,22.2,20,22.2,19.9,22.2z M25.4,19.9c0.1,0,0.1,0,0.2,0c0.4,0,0.8,0,1.2,0
		c0.5,0,1-0.1,1.5-0.2c0.8-0.2,1.5-0.6,2-1.3c0.8-1,1-2.2,0.8-3.4c-0.1-0.7-0.6-1.2-1.3-1.4c-0.3-0.1-0.5-0.1-0.8-0.1
		c-0.6,0-1.3,0-1.9,0c0,0,0,0-0.1,0C26.6,15.5,26,17.7,25.4,19.9z"/>
	<path class="st2" d="M94.5,17.2c0.6-2.2,1.1-4.4,1.7-6.6c1.1,0,2.1,0,3.2,0c0,0.1-2.8,11.2-3,11.6c-1.8,0-3.6,0-5.4,0
		c-0.8-2.2-1.7-4.3-2.5-6.5c0,0,0,0,0,0c-0.6,2.2-1.1,4.3-1.7,6.5c-1.1,0-2.1,0-3.2,0c1-3.9,2-7.7,3-11.6c1.8,0,3.5,0,5.3,0
		C92.7,12.8,93.6,15,94.5,17.2C94.4,17.2,94.5,17.2,94.5,17.2z"/>
	<path class="st2" d="M62.5,10.6c1.6,0,3.3,0,4.9,0c-0.3,1.3-0.7,2.5-1,3.8c0.1-0.1,0.1-0.1,0.2-0.1c1.4-1.2,2.8-2.4,4.2-3.6
		c0.1-0.1,0.2-0.1,0.3-0.1c1.5,0,3,0,4.5,0c0,0,0.1,0,0.1,0c0,0,0,0,0,0c-2.1,1.8-4.2,3.6-6.3,5.5c1.5,2,2.9,4,4.4,6.1
		c-0.1,0-0.1,0-0.1,0c-1.8,0-3.5,0-5.3,0c-0.1,0-0.2-0.1-0.3-0.1c-0.8-1.2-1.7-2.3-2.5-3.5c0-0.1-0.1-0.1-0.2-0.2
		c-0.3,1.3-0.7,2.6-1,3.9c-1.6,0-3.3,0-4.9,0C60.5,18.3,61.5,14.5,62.5,10.6z"/>
	<path class="st2" d="M50,22.2c-1.6,0-3.3,0-4.9,0c-0.1-0.6-0.2-1.2-0.4-1.9c-0.1,0-0.1,0-0.2,0c-1.6,0-3.2,0-4.8,0
		c-0.1,0-0.2,0-0.3,0.2c-0.3,0.5-0.6,1.1-0.9,1.6c-0.1,0.1-0.1,0.1-0.2,0.1c-0.8,0-1.6,0-2.5,0c0,0,0,0-0.1,0c0,0,0,0,0,0
		c0,0,0,0,0,0c0,0,0-0.1,0-0.1c2.2-3.8,4.3-7.6,6.5-11.5c1.8,0,3.6,0,5.4,0C48.6,14.4,49.3,18.3,50,22.2z M43.5,13.5
		C43.5,13.5,43.5,13.5,43.5,13.5c-0.8,1.3-1.5,2.5-2.2,3.8c1,0,1.9,0,2.9,0C44,16,43.7,14.8,43.5,13.5z"/>
	<path class="st3" d="M11.8,6.1c-1,0.9-1.9,1.8-2.9,2.7c-1.7,1.6-3.4,3.2-5.2,4.8c-1,0.9-2,1.8-2.9,2.7c0,0-0.1,0.1-0.1,0.1
		c0-0.1,0-0.1,0-0.2c0-3.3,0-6.6,0-9.9c0-0.1,0-0.1,0-0.2c0.1,0,0.1,0,0.2,0c3.6,0,7.2,0,10.8,0C11.7,6.1,11.7,6.1,11.8,6.1z"/>
	<path class="st2" d="M56.7,22.2c-1.6,0-3.2,0-4.9,0c1-3.9,2-7.7,3-11.6c1.6,0,3.3,0,4.9,0C59.6,10.7,56.8,21.7,56.7,22.2z"/>
	<path class="st2" d="M78.8,10.6c1.6,0,3.3,0,4.9,0c-1,3.9-2,7.7-3,11.6c-1.6,0-3.3,0-4.9,0C76.8,18.3,77.8,14.5,78.8,10.6z"/>
	<path class="st4" d="M25.4,19.9c0.6-2.2,1.1-4.3,1.7-6.5c0,0,0,0,0.1,0c0.6,0,1.3,0,1.9,0c0.3,0,0.5,0.1,0.8,0.1
		c0.7,0.2,1.2,0.7,1.3,1.4c0.2,1.2-0.1,2.4-0.8,3.4c-0.5,0.7-1.2,1.1-2,1.3c-0.5,0.1-1,0.2-1.5,0.2c-0.4,0-0.8,0-1.2,0
		C25.6,19.9,25.5,19.9,25.4,19.9z"/>
	<path class="st5" d="M43.5,13.5c0.2,1.3,0.5,2.5,0.7,3.8c-1,0-1.9,0-2.9,0C42,16,42.7,14.8,43.5,13.5
		C43.5,13.5,43.5,13.5,43.5,13.5z"/>
</g>
</svg>
