<?xml version="1.0" encoding="utf-8"?>
<!-- Generator: Adobe Illustrator 19.0.0, SVG Export Plug-In . SVG Version: 6.00 Build 0)  -->
<svg version="1.1" id="Capa_1" xmlns="http://www.w3.org/2000/svg" xmlns:xlink="http://www.w3.org/1999/xlink" x="0px" y="0px"
	 viewBox="0 0 100 33" style="enable-background:new 0 0 100 33;" xml:space="preserve">
<style type="text/css">
	.st0{fill:#FFFFFE;}
	.st1{fill:#E62B2B;}
	.st2{fill:#E62A2B;}
	.st3{fill:#E6282A;}
	.st4{fill:#E62C2C;}
	.st5{fill:#E6292B;}
</style>
<path id="XMLID_45_" class="st0" d="M515.5,49.6c0,10.1,0,20.3,0,30.4c0,0.4-0.1,0.5-0.5,0.5c-22,0-44,0-66,0
	c0.4-0.1,0.8-0.3,1.3-0.4c2.6-1,4.7-2.5,5.3-5.5c0.2-0.8,0.3-1.7,0.3-2.5c0-6.8,0-13.6,0-20.4c0-0.8,0.4-1.4,1-1.9
	c0.1-0.1,0.3-0.1,0.3-0.2c-2.1,0-4.2,0-6.4,0c0.9,0.6,1.3,1.4,1.3,2.5c0,6.7,0,13.4,0,20.1c0,3.2-1,6.1-3.5,8.3
	c-10.9,0-21.8,0-32.7,0c-0.4,0-0.5-0.1-0.5-0.5c0-10.1,0-20.3,0-30.4c0.1,0,0.2,0,0.2,0.1c1,0.7,1.1,1.7,1.1,2.8
	c0,5.7,0,11.4,0,17.2c0,0.7-0.3,1.2-0.7,1.7c-0.1,0.1-0.3,0.1-0.3,0.3c2,0,4.1,0,6.2,0c-0.7-0.7-1.4-1.3-1.4-2.3c0-2.7,0-5.4,0-8.2
	c0-0.4,0.1-0.5,0.5-0.5c1.5,0,2.9,0,4.4,0c0.7,0,1.4,0.2,2,0.7c0-0.9,0-1.7,0-2.6c0-0.5-0.2-0.5-0.6-0.5c-1.9,0-3.9,0-5.8,0
	c-0.4,0-0.5-0.1-0.5-0.5c0-1.8,0-3.7,0-5.5c0-0.4,0.1-0.5,0.5-0.5c1.9,0,3.8,0,5.7,0c1,0,1.7,0.4,2.3,1.3c0-1.1,0-2.1,0-3.1
	c0-0.4-0.1-0.5-0.5-0.5c-2.8,0-5.6,0-8.4,0c-1.6,0-3.1,0-4.7,0c0-5.5,0-11,0-16.6c0-0.4,0.1-0.5,0.5-0.5c15,0,30,0,45,0
	c0,0-0.1,0.1-0.1,0.1c-1.4,0.3-2.5,1.1-3.4,2c-0.1,0.1-0.3,0.3-0.3,0.5c0,1.1,0,2.3,0,3.5c0.3-0.6,0.5-1,0.7-1.5
	c0.2-0.4,0.5-0.9,0.9-1.2c1.4-1.5,3.1-1.9,4.8-1.2c1.9,0.8,2.8,2.2,2.7,4.2c-0.1,2.6-2.6,4.5-5.1,3.9c-1.5-0.3-2.5-1.3-3.3-2.4
	c-0.3-0.4-0.7-0.9-1.1-1.3c-3-2.8-7.2-0.7-8.1,1.9c-0.7,2.2,0.1,4.7,2.1,6c1.9,1.3,4.5,1,6.2-0.6c0.1-0.1,0.3-0.2,0.3-0.4
	c0-0.9,0-1.7,0-2.7c-0.2,0.3-0.3,0.5-0.4,0.6c-0.9,1.3-2.1,2.2-3.9,2c-1.4-0.2-2.5-1.3-2.6-2.9c-0.1-1.4,0.9-2.8,2.1-3.1
	c1.5-0.4,2.7,0.1,3.6,1.3c0.4,0.5,0.8,1,1.2,1.5c2.3,2.6,5.5,2.8,8,1.4c2.1-1.2,3-3.1,3-5.5c-0.1-2.4-1.3-4.2-3.4-5.4
	c-0.6-0.3-1.3-0.5-1.9-0.7c17.4,0,34.7,0,52.1,0c0.4,0,0.5,0.1,0.5,0.5c0,5.5,0,11,0,16.5c-2.2,0-4.3,0-6.6,0
	c0.9,0.7,1.3,1.5,1.2,2.5c0,1.3,0,2.6,0,3.9c0,2.9,0,5.8,0,8.7c0,0.8-0.1,1.6-0.3,2.3c-1.1,3.2-3.8,3.3-5.7,2.1c-1.4-0.9-2-2.3-2-4
	c0-4.4,0-8.9,0-13.3c0-0.7,0.3-1.3,0.8-1.7c0.2-0.2,0.4-0.3,0.6-0.5c-2.2,0-4.3,0-6.5,0c1,0.7,1.2,1.6,1.2,2.7c0,4,0,8,0,11.9
	c0,0.6,0,1.2,0.1,1.8c0.2,1.3,0.5,2.5,1.5,3.5c2.1,2.2,4.7,2.9,7.7,2.6c3.2-0.3,6.7-2.5,6.7-7.2c0-4.4,0-8.8,0-13.2
	C514.1,50.7,514.6,50,515.5,49.6z M449,49.5c-2.3,0-4.4,0-6.5,0c0.7,0.6,1.2,1.3,1.2,2.2c0,4.5,0,9,0,13.5c0,0.4,0,0.8-0.1,1.1
	c-0.4,1.5-1,2.7-2.6,3.2c-1.8,0.6-3.9-0.4-4.7-2.2c-0.4-0.9-0.5-1.8-0.5-2.7c0-4.3,0-8.5,0-12.8c0-0.9,0.3-1.5,1-2.1
	c0.1-0.1,0.3-0.1,0.3-0.3c-2.1,0-4.2,0-6.5,0c0.9,0.7,1.2,1.5,1.2,2.5c0,4.4,0,8.7,0,13.1c0,1.7,0.5,3.3,1.9,4.6
	c2.3,2.1,4.9,2.7,7.9,2.2c3.4-0.5,6.2-3.1,6.1-7.3c-0.1-4.2,0-8.3,0-12.5C447.6,51,447.9,50.2,449,49.5z M481.9,67.8
	c0.3,1.2,0.7,2.3,1,3.5c0.1,0.4,0.3,0.6,0.7,0.7c1.5,0.3,3,0.3,4.5,0.4c2,0,3.9-0.6,5.6-1.6c0.9-0.5,1.5-1.3,1.9-2.2
	c1.2-2.6,0.9-4.7-1-6.6c-0.7-0.7-1.5-1.3-2.4-1.8c-1.4-0.8-2.9-1.4-4.3-2.2c-1.4-0.7-2-1.8-1.8-3.2c0.2-1.5,1.2-2.6,2.7-2.9
	c0.9-0.2,1.7-0.2,2.6-0.1c1.1,0.2,2.1,0.6,2.8,1.5c0.1-0.9,0-1.8,0.1-2.7c0-0.6-0.2-0.8-0.8-0.9c-1.9-0.3-3.8-0.5-5.7-0.2
	c-2,0.3-3.7,1.2-4.8,2.9c-1.5,2.2-1,5.4,0.9,7.4c0.9,1,2.1,1.5,3.2,2.1c1.4,0.7,2.7,1.4,4,2.2c1.4,0.9,1.7,2.2,0.8,3.6
	c-0.6,1-1.4,1.7-2.6,2c-2.6,0.7-4.9,0.1-7-1.5C482.3,67.9,482.2,67.7,481.9,67.8z M481,53.5c0.5-1.3,0.9-2.5,1.3-3.7
	c0.1-0.3-0.1-0.3-0.3-0.3c-1.1,0-2.3,0-3.4,0c-3.7,0-7.5,0-11.2,0c-0.3,0-0.5-0.1-0.6,0.3c-0.4,1.2-0.7,2.5-1.1,3.8
	c0.4-0.1,0.5-0.3,0.7-0.5c0.7-0.8,1.5-1.3,2.6-1.1c0.8,0.1,1.7,0.1,2.5,0c0.5,0,0.6,0.1,0.6,0.6c0,5.5,0,11,0,16.4
	c0,1.1-0.3,2-1.2,2.6c0,0,0,0.1,0,0.1c2.1,0,4.2,0,6.3,0c0-0.1-0.1-0.2-0.2-0.2c-0.7-0.6-1.1-1.3-1-2.3c0.1-1,0-2.1,0-3.1
	c0-4.5,0-9.1,0-13.6c0-0.4,0.1-0.6,0.6-0.6c0.7,0,1.5,0,2.2,0C480,51.9,480.5,52.2,481,53.5z M458.8,49.5c1,0.7,1.3,1.5,1.3,2.5
	c0,5.6,0,11.2,0,16.8c0,1.2-0.3,2.1-1.2,2.8c0,0,0,0.1,0,0.1c2.1,0,4.2,0,6.4,0c-1.2-0.7-1.4-1.9-1.3-3.1c0-5.6,0-11.2,0-16.8
	c0-0.8,0.3-1.4,0.9-1.9c0.2-0.1,0.3-0.3,0.6-0.5C463.2,49.5,461.1,49.5,458.8,49.5z"/>
<path id="XMLID_44_" class="st1" d="M515.5,49.6c-0.9,0.3-1.4,1.1-1.4,2c0,4.4,0,8.8,0,13.2c0,4.7-3.5,6.9-6.7,7.2
	c-3,0.3-5.6-0.4-7.7-2.6c-0.9-1-1.3-2.2-1.5-3.5c-0.1-0.6-0.1-1.2-0.1-1.8c0-4,0-8,0-11.9c0-1.1-0.2-2-1.2-2.7c2.2,0,4.4,0,6.5,0
	c-0.2,0.2-0.4,0.3-0.6,0.5c-0.5,0.5-0.8,1-0.8,1.7c0,4.4,0,8.9,0,13.3c0,1.6,0.5,3.1,2,4c1.9,1.2,4.6,1,5.7-2.1
	c0.3-0.8,0.3-1.5,0.3-2.3c-0.1-2.9,0-5.8,0-8.7c0-1.3-0.1-2.6,0-3.9c0-1-0.3-1.8-1.2-2.5c2.3,0,4.4,0,6.6,0
	C515.5,49.5,515.5,49.6,515.5,49.6z"/>
<path id="XMLID_43_" class="st2" d="M415.5,49.5c1.6,0,3.1,0,4.7,0c2.8,0,5.6,0,8.4,0c0.4,0,0.5,0.1,0.5,0.5c0,1,0,2,0,3.1
	c-0.6-0.9-1.3-1.3-2.3-1.3c-1.9,0-3.8,0-5.7,0c-0.4,0-0.5,0.1-0.5,0.5c0,1.8,0,3.7,0,5.5c0,0.4,0.1,0.5,0.5,0.5c1.9,0,3.9,0,5.8,0
	c0.4,0,0.6,0.1,0.6,0.5c0,0.8,0,1.7,0,2.6c-0.6-0.5-1.3-0.7-2-0.7c-1.5,0-2.9,0-4.4,0c-0.4,0-0.5,0.1-0.5,0.5c0,2.7,0,5.4,0,8.2
	c0,1,0.6,1.7,1.4,2.3c-2.1,0-4.1,0-6.2,0c0-0.2,0.2-0.2,0.3-0.3c0.5-0.5,0.7-1,0.7-1.7c0-5.7,0-11.4,0-17.2c0-1.1-0.1-2.1-1.1-2.8
	c-0.1-0.1-0.1-0.1-0.2-0.1C415.5,49.6,415.5,49.5,415.5,49.5z"/>
<path id="XMLID_42_" class="st3" d="M448.6,80.5c2.5-2.2,3.4-5.1,3.5-8.3c0-6.7,0-13.4,0-20.1c0-1-0.4-1.8-1.3-2.5
	c2.2,0,4.3,0,6.4,0c0,0.1-0.2,0.2-0.3,0.2c-0.7,0.5-1,1-1,1.9c0,6.8,0,13.6,0,20.4c0,0.8-0.1,1.7-0.3,2.5c-0.7,2.9-2.7,4.4-5.3,5.5
	c-0.4,0.2-0.8,0.3-1.3,0.4C448.9,80.5,448.7,80.5,448.6,80.5z"/>
<path id="XMLID_41_" class="st4" d="M462.9,32.5c0.6,0.2,1.3,0.4,1.9,0.7c2.1,1.2,3.3,3,3.4,5.4c0.1,2.4-0.9,4.4-3,5.5
	c-2.4,1.3-5.7,1.2-8-1.4c-0.4-0.5-0.8-1-1.2-1.5c-0.9-1.1-2.1-1.6-3.6-1.3c-1.3,0.3-2.3,1.8-2.1,3.1c0.1,1.6,1.1,2.8,2.6,2.9
	c1.7,0.2,2.9-0.6,3.9-2c0.1-0.2,0.2-0.3,0.4-0.6c0,1,0,1.9,0,2.7c0,0.2-0.2,0.3-0.3,0.4c-1.7,1.6-4.3,1.8-6.2,0.6
	c-1.9-1.3-2.8-3.8-2.1-6c0.9-2.6,5.1-4.7,8.1-1.9c0.4,0.4,0.8,0.8,1.1,1.3c0.9,1.1,1.9,2.1,3.3,2.4c2.5,0.5,5-1.4,5.1-3.9
	c0.1-2-0.8-3.4-2.7-4.2c-1.7-0.7-3.4-0.3-4.8,1.2c-0.3,0.4-0.6,0.8-0.9,1.2c-0.2,0.4-0.4,0.9-0.7,1.5c0-1.2,0-2.4,0-3.5
	c0-0.2,0.2-0.4,0.3-0.5c1-1,2-1.8,3.4-2c0,0,0.1-0.1,0.1-0.1C461.6,32.5,462.2,32.5,462.9,32.5z"/>
<path id="XMLID_40_" class="st3" d="M449,49.5c-1.1,0.6-1.4,1.5-1.4,2.6c0,4.2-0.1,8.3,0,12.5c0.1,4.2-2.7,6.8-6.1,7.3
	c-2.9,0.5-5.6-0.1-7.9-2.2c-1.4-1.3-1.9-2.9-1.9-4.6c-0.1-4.4-0.1-8.7,0-13.1c0-1-0.3-1.9-1.2-2.5c2.2,0,4.3,0,6.5,0
	c0,0.2-0.2,0.2-0.3,0.3c-0.7,0.5-1,1.2-1,2.1c0,4.3,0,8.5,0,12.8c0,0.9,0.1,1.8,0.5,2.7c0.8,1.8,2.9,2.8,4.7,2.2
	c1.6-0.5,2.2-1.8,2.6-3.2c0.1-0.4,0.1-0.7,0.1-1.1c0-4.5,0-9,0-13.5c0-0.9-0.4-1.6-1.2-2.2C444.6,49.5,446.7,49.5,449,49.5z"/>
<path id="XMLID_39_" class="st2" d="M481.9,67.8c0.3-0.1,0.4,0.1,0.5,0.3c2.1,1.6,4.4,2.2,7,1.5c1.1-0.3,2-1,2.6-2
	c0.9-1.4,0.6-2.7-0.8-3.6c-1.3-0.8-2.7-1.5-4-2.2c-1.1-0.6-2.3-1.1-3.2-2.1c-2-2.1-2.4-5.2-0.9-7.4c1.1-1.7,2.8-2.6,4.8-2.9
	c1.9-0.3,3.8-0.1,5.7,0.2c0.5,0.1,0.8,0.3,0.8,0.9c0,0.9,0,1.8-0.1,2.7c-0.8-0.9-1.7-1.3-2.8-1.5c-0.9-0.1-1.8-0.1-2.6,0.1
	c-1.5,0.3-2.5,1.5-2.7,2.9c-0.2,1.4,0.4,2.5,1.8,3.2c1.4,0.7,2.9,1.3,4.3,2.2c0.9,0.5,1.7,1.1,2.4,1.8c1.8,1.9,2.1,4.1,1,6.6
	c-0.4,0.9-1.1,1.7-1.9,2.2c-1.7,1.1-3.5,1.7-5.6,1.6c-1.5,0-3-0.1-4.5-0.4c-0.4-0.1-0.6-0.3-0.7-0.7
	C482.6,70.1,482.3,68.9,481.9,67.8z"/>
<path id="XMLID_38_" class="st5" d="M481,53.5c-0.5-1.3-0.9-1.6-2.3-1.6c-0.7,0-1.5,0-2.2,0c-0.4,0-0.6,0.2-0.6,0.6
	c0,4.5,0,9.1,0,13.6c0,1,0,2.1,0,3.1c0,1,0.3,1.7,1,2.3c0.1,0.1,0.2,0.1,0.2,0.2c-2.1,0-4.2,0-6.3,0c0-0.1,0-0.1,0-0.1
	c1-0.6,1.2-1.5,1.2-2.6c0-5.5,0-11,0-16.4c0-0.5-0.1-0.6-0.6-0.6c-0.8,0-1.7,0.1-2.5,0c-1.1-0.1-1.9,0.4-2.6,1.1
	c-0.2,0.2-0.3,0.4-0.7,0.5c0.4-1.3,0.8-2.6,1.1-3.8c0.1-0.4,0.4-0.3,0.6-0.3c3.7,0,7.5,0,11.2,0c1.1,0,2.3,0,3.4,0
	c0.2,0,0.4,0,0.3,0.3C481.8,51,481.5,52.2,481,53.5z"/>
<path id="XMLID_37_" class="st2" d="M458.8,49.5c2.2,0,4.3,0,6.6,0c-0.2,0.2-0.4,0.3-0.6,0.5c-0.6,0.5-0.9,1.1-0.9,1.9
	c0,5.6,0,11.2,0,16.8c0,1.3,0.1,2.4,1.3,3.1c-2.1,0-4.2,0-6.4,0c0-0.1,0-0.1,0-0.1c1-0.7,1.2-1.6,1.2-2.8c0-5.6,0-11.2,0-16.8
	C460.2,51,459.8,50.2,458.8,49.5z"/>
<path id="XMLID_115_" class="st0" d="M81.3,12.4c0,6.8,0,13.5,0,20.3c0,0.3,0,0.3-0.3,0.3c-13.2,0-26.4,0-39.6,0
	c0.3-0.1,0.5-0.2,0.8-0.3c1.6-0.7,2.8-1.7,3.2-3.6c0.1-0.5,0.2-1.1,0.2-1.7c0-4.5,0-9.1,0-13.6c0-0.6,0.2-1,0.6-1.3
	c0.1,0,0.2,0,0.2-0.1c-1.3,0-2.5,0-3.8,0c0.6,0.4,0.8,0.9,0.8,1.6c0,4.5,0,9,0,13.4c0,2.2-0.6,4.1-2.1,5.6c-6.5,0-13.1,0-19.6,0
	c-0.2,0-0.3-0.1-0.3-0.3c0-6.8,0-13.5,0-20.3c0.1,0,0.1,0,0.1,0.1c0.6,0.5,0.7,1.2,0.6,1.9c0,3.8,0,7.6,0,11.4
	c0,0.5-0.2,0.8-0.4,1.1c-0.1,0.1-0.2,0.1-0.2,0.2c1.2,0,2.4,0,3.7,0c-0.4-0.4-0.8-0.9-0.8-1.6c0-1.8,0-3.6,0-5.4
	c0-0.3,0.1-0.3,0.3-0.3c0.9,0,1.8,0,2.6,0c0.4,0,0.8,0.1,1.2,0.5c0-0.6,0-1.2,0-1.7c0-0.3-0.1-0.4-0.3-0.4c-1.2,0-2.3,0-3.5,0
	c-0.2,0-0.3,0-0.3-0.3c0-1.2,0-2.5,0-3.7c0-0.3,0.1-0.3,0.3-0.3c1.1,0,2.3,0,3.4,0c0.6,0,1,0.3,1.4,0.9c0-0.7,0-1.4,0-2.1
	c0-0.3-0.1-0.4-0.3-0.4c-1.7,0-3.4,0-5.1,0c-0.9,0-1.9,0-2.8,0c0-3.7,0-7.4,0-11c0-0.3,0-0.3,0.3-0.3c9,0,18,0,27,0
	c0,0,0,0.1-0.1,0.1c-0.8,0.2-1.5,0.7-2,1.4c-0.1,0.1-0.2,0.2-0.2,0.3c0,0.8,0,1.5,0,2.3c0.2-0.4,0.3-0.7,0.4-1
	c0.1-0.3,0.3-0.6,0.5-0.8c0.8-1,1.9-1.3,2.9-0.8c1.1,0.5,1.7,1.5,1.6,2.8c-0.1,1.7-1.6,3-3.1,2.6c-0.9-0.2-1.5-0.8-2-1.6
	c-0.2-0.3-0.4-0.6-0.7-0.8c-1.8-1.9-4.3-0.5-4.9,1.3c-0.4,1.5,0.1,3.2,1.2,4c1.2,0.8,2.7,0.7,3.7-0.4c0.1-0.1,0.2-0.1,0.2-0.3
	c0-0.6,0-1.2,0-1.8c-0.1,0.2-0.2,0.3-0.2,0.4c-0.6,0.9-1.3,1.5-2.3,1.3c-0.9-0.1-1.5-0.9-1.6-2c-0.1-0.9,0.5-1.9,1.3-2.1
	c0.9-0.2,1.6,0.1,2.2,0.8c0.3,0.3,0.5,0.7,0.7,1c1.4,1.8,3.3,1.8,4.8,0.9C52.4,8,53,6.7,52.9,5.1c0-1.6-0.8-2.8-2-3.6
	c-0.4-0.2-0.8-0.3-1.2-0.5C60.2,1,70.6,1,81,1c0.3,0,0.3,0.1,0.3,0.3C81.3,5,81.3,8.7,81.3,12.4c-1.3-0.1-2.6-0.1-4-0.1
	c0.6,0.5,0.8,1,0.7,1.7c0,0.9,0,1.7,0,2.6c0,1.9,0,3.9,0,5.8c0,0.5,0,1-0.2,1.6c-0.6,2.1-2.3,2.2-3.4,1.4c-0.9-0.6-1.2-1.6-1.2-2.6
	c0-3,0-5.9,0-8.9c0-0.5,0.2-0.8,0.5-1.2c0.1-0.1,0.2-0.2,0.3-0.3c-1.3,0-2.6,0-3.9,0c0.6,0.5,0.7,1.1,0.7,1.8c0,2.7,0,5.3,0,8
	c0,0.4,0,0.8,0.1,1.2c0.1,0.8,0.3,1.7,0.9,2.3c1.3,1.5,2.9,2,4.6,1.8c1.9-0.2,4-1.7,4-4.8c0-2.9,0-5.9,0-8.8
	C80.5,13.1,80.8,12.6,81.3,12.4z M41.4,12.4c-1.4,0-2.6,0-3.9,0c0.4,0.4,0.7,0.8,0.7,1.4c0,3,0,6,0,9c0,0.2,0,0.5-0.1,0.7
	c-0.2,1-0.6,1.8-1.5,2.1c-1.1,0.4-2.3-0.3-2.8-1.5c-0.2-0.6-0.3-1.2-0.3-1.8c0-2.8,0-5.7,0-8.5c0-0.6,0.2-1,0.6-1.4
	c0.1-0.1,0.2-0.1,0.2-0.2c-1.3,0-2.5,0-3.9,0c0.6,0.4,0.7,1,0.7,1.7c0,2.9,0,5.8,0,8.7c0,1.2,0.3,2.2,1.1,3.1c1.4,1.4,3,1.8,4.7,1.5
	c2-0.4,3.7-2,3.7-4.9c-0.1-2.8,0-5.6,0-8.3C40.6,13.4,40.8,12.8,41.4,12.4z M61.2,24.5c0.2,0.8,0.4,1.5,0.6,2.3
	c0.1,0.3,0.2,0.4,0.4,0.4c0.9,0.2,1.8,0.2,2.7,0.2c1.2,0,2.3-0.4,3.3-1.1c0.5-0.4,0.9-0.8,1.2-1.5c0.7-1.7,0.5-3.1-0.6-4.4
	c-0.4-0.5-0.9-0.9-1.4-1.2c-0.8-0.5-1.7-0.9-2.6-1.4c-0.8-0.5-1.2-1.2-1.1-2.2c0.1-1,0.7-1.7,1.6-1.9c0.5-0.1,1-0.1,1.6,0
	c0.7,0.1,1.2,0.4,1.7,1c0-0.6,0-1.2,0.1-1.8c0-0.4-0.1-0.5-0.5-0.6c-1.1-0.2-2.3-0.3-3.4-0.1c-1.2,0.2-2.2,0.8-2.9,2
	c-0.9,1.5-0.6,3.6,0.5,4.9c0.5,0.6,1.3,1,1.9,1.4c0.8,0.5,1.6,0.9,2.4,1.5c0.8,0.6,1,1.5,0.5,2.4c-0.4,0.6-0.9,1.1-1.5,1.3
	c-1.5,0.4-2.9,0.1-4.2-1C61.4,24.6,61.4,24.5,61.2,24.5z M60.6,15c0.3-0.9,0.5-1.7,0.8-2.5c0.1-0.2-0.1-0.2-0.2-0.2
	c-0.7,0-1.4,0-2,0c-2.2,0-4.5,0-6.7,0c-0.2,0-0.3,0-0.4,0.2c-0.2,0.8-0.4,1.7-0.7,2.5c0.2-0.1,0.3-0.2,0.4-0.4
	c0.4-0.5,0.9-0.8,1.6-0.8c0.5,0.1,1,0,1.5,0c0.3,0,0.4,0.1,0.4,0.4c0,3.7,0,7.3,0,11c0,0.8-0.2,1.3-0.7,1.8c0,0,0,0,0,0.1
	c1.3,0,2.5,0,3.8,0c0-0.1-0.1-0.1-0.1-0.2c-0.4-0.4-0.7-0.9-0.6-1.5c0-0.7,0-1.4,0-2.1c0-3,0-6.1,0-9.1c0-0.3,0.1-0.4,0.3-0.4
	c0.4,0,0.9,0,1.3,0C60.1,13.9,60.3,14.1,60.6,15z M47.3,12.3c0.6,0.4,0.8,1,0.8,1.7c0,3.7,0,7.5,0,11.2c0,0.8-0.2,1.4-0.7,1.9
	c0,0,0,0,0,0.1c1.3,0,2.5,0,3.8,0c-0.7-0.5-0.8-1.2-0.8-2.1c0-3.7,0-7.5,0-11.2c0-0.5,0.2-0.9,0.5-1.2c0.1-0.1,0.2-0.2,0.3-0.3
	C49.9,12.3,48.7,12.3,47.3,12.3z"/>
<path id="XMLID_114_" class="st1" d="M81.3,12.4c-0.5,0.2-0.8,0.7-0.8,1.4c0,2.9,0,5.9,0,8.8c0,3.1-2.1,4.6-4,4.8
	c-1.8,0.2-3.4-0.3-4.6-1.8c-0.6-0.7-0.8-1.5-0.9-2.3c-0.1-0.4-0.1-0.8-0.1-1.2c0-2.7,0-5.3,0-8c0-0.7-0.1-1.3-0.7-1.8
	c1.3,0,2.6,0,3.9,0c-0.1,0.1-0.2,0.2-0.3,0.3c-0.3,0.3-0.5,0.7-0.5,1.2c0,3,0,5.9,0,8.9c0,1.1,0.3,2,1.2,2.6
	c1.1,0.8,2.8,0.7,3.4-1.4c0.2-0.5,0.2-1,0.2-1.6c-0.1-1.9,0-3.9,0-5.8c0-0.9,0-1.7,0-2.6c0-0.7-0.2-1.2-0.7-1.7
	C78.7,12.3,80,12.3,81.3,12.4C81.3,12.4,81.3,12.4,81.3,12.4z"/>
<path id="XMLID_113_" class="st2" d="M21.3,12.3c0.9,0,1.9,0,2.8,0c1.7,0,3.4,0,5.1,0c0.3,0,0.3,0.1,0.3,0.4c0,0.7,0,1.4,0,2.1
	c-0.3-0.6-0.8-0.9-1.4-0.9c-1.1,0-2.3,0-3.4,0c-0.2,0-0.3,0.1-0.3,0.3c0,1.2,0,2.5,0,3.7c0,0.3,0.1,0.3,0.3,0.3c1.2,0,2.3,0,3.5,0
	c0.3,0,0.4,0,0.3,0.4c0,0.6,0,1.1,0,1.7c-0.4-0.4-0.8-0.5-1.2-0.5c-0.9,0-1.8,0-2.6,0c-0.2,0-0.3,0.1-0.3,0.3c0,1.8,0,3.6,0,5.4
	c0,0.7,0.4,1.1,0.8,1.6c-1.3,0-2.5,0-3.7,0c0-0.1,0.1-0.2,0.2-0.2c0.3-0.3,0.4-0.7,0.4-1.1c0-3.8,0-7.6,0-11.4
	c0-0.7-0.1-1.4-0.6-1.9C21.4,12.5,21.4,12.4,21.3,12.3C21.3,12.4,21.3,12.4,21.3,12.3z"/>
<path id="XMLID_112_" class="st3" d="M41.2,33c1.5-1.5,2.1-3.4,2.1-5.6c0-4.5,0-9,0-13.4c0-0.7-0.2-1.2-0.8-1.6c1.3,0,2.6,0,3.8,0
	c0,0.1-0.1,0.1-0.2,0.1c-0.4,0.3-0.6,0.7-0.6,1.3c0,4.5,0,9.1,0,13.6c0,0.6-0.1,1.1-0.2,1.7c-0.4,1.9-1.6,3-3.2,3.6
	c-0.2,0.1-0.5,0.2-0.8,0.3C41.4,33,41.3,33,41.2,33z"/>
<path id="XMLID_111_" class="st4" d="M49.8,1c0.4,0.2,0.8,0.3,1.2,0.5c1.3,0.8,2,2,2,3.6c0,1.6-0.5,2.9-1.8,3.7
	c-1.4,0.9-3.4,0.8-4.8-0.9c-0.3-0.3-0.5-0.7-0.7-1c-0.6-0.8-1.3-1.1-2.2-0.8c-0.8,0.2-1.4,1.2-1.3,2.1c0.1,1.1,0.7,1.8,1.6,2
	c1,0.2,1.8-0.4,2.3-1.3c0.1-0.1,0.1-0.2,0.2-0.4c0,0.7,0,1.2,0,1.8c0,0.1-0.1,0.2-0.2,0.3c-1,1.1-2.6,1.2-3.7,0.4
	c-1.2-0.8-1.7-2.5-1.2-4c0.5-1.7,3.1-3.1,4.9-1.3c0.2,0.3,0.5,0.5,0.7,0.8c0.5,0.8,1.1,1.4,2,1.6c1.5,0.4,3-0.9,3.1-2.6
	c0-1.3-0.5-2.3-1.6-2.8c-1-0.5-2.1-0.2-2.9,0.8c-0.2,0.2-0.4,0.5-0.5,0.8c-0.1,0.3-0.3,0.6-0.4,1c0-0.8,0-1.6,0-2.3
	c0-0.2,0.1-0.2,0.2-0.3c0.6-0.7,1.2-1.2,2-1.4c0,0,0,0,0.1-0.1C49,1,49.4,1,49.8,1z"/>
<path id="XMLID_110_" class="st3" d="M41.4,12.4c-0.7,0.4-0.9,1-0.9,1.7c0,2.8,0,5.6,0,8.3c0.1,2.8-1.6,4.5-3.7,4.9
	c-1.8,0.3-3.4-0.1-4.7-1.5c-0.8-0.8-1.1-1.9-1.1-3.1c0-2.9,0-5.8,0-8.7c0-0.7-0.2-1.2-0.7-1.7c1.3,0,2.6,0,3.9,0
	c0,0.1-0.1,0.1-0.2,0.2c-0.4,0.4-0.6,0.8-0.6,1.4c0,2.8,0,5.7,0,8.5c0,0.6,0.1,1.2,0.3,1.8c0.5,1.2,1.7,1.8,2.8,1.5
	c0.9-0.3,1.3-1.2,1.5-2.1c0.1-0.2,0.1-0.5,0.1-0.7c0-3,0-6,0-9c0-0.6-0.3-1-0.7-1.4C38.8,12.4,40.1,12.4,41.4,12.4z"/>
<path id="XMLID_109_" class="st2" d="M61.2,24.5c0.2-0.1,0.2,0.1,0.3,0.2c1.2,1.1,2.6,1.5,4.2,1c0.7-0.2,1.2-0.7,1.5-1.3
	c0.5-0.9,0.3-1.8-0.5-2.4c-0.8-0.6-1.6-1-2.4-1.5c-0.7-0.4-1.4-0.8-1.9-1.4c-1.2-1.4-1.4-3.5-0.5-4.9c0.7-1.1,1.7-1.8,2.9-2
	c1.1-0.2,2.3-0.1,3.4,0.1c0.3,0.1,0.5,0.2,0.5,0.6c0,0.6,0,1.2-0.1,1.8c-0.5-0.6-1-0.9-1.7-1c-0.5-0.1-1.1-0.1-1.6,0
	c-0.9,0.2-1.5,1-1.6,1.9c-0.1,0.9,0.3,1.7,1.1,2.2c0.9,0.5,1.8,0.9,2.6,1.4c0.5,0.3,1,0.7,1.4,1.2c1.1,1.3,1.3,2.7,0.6,4.4
	c-0.3,0.6-0.6,1.1-1.2,1.5c-1,0.7-2.1,1.1-3.3,1.1c-0.9,0-1.8,0-2.7-0.2c-0.2-0.1-0.4-0.2-0.4-0.4C61.6,26.1,61.4,25.3,61.2,24.5z"
	/>
<path id="XMLID_108_" class="st5" d="M60.6,15c-0.3-0.9-0.6-1.1-1.4-1.1c-0.4,0-0.9,0-1.3,0c-0.3,0-0.3,0.1-0.3,0.4c0,3,0,6.1,0,9.1
	c0,0.7,0,1.4,0,2.1c0,0.6,0.2,1.1,0.6,1.5c0,0,0.1,0.1,0.1,0.2c-1.3,0-2.5,0-3.8,0c0,0,0-0.1,0-0.1c0.6-0.4,0.7-1,0.7-1.8
	c0-3.7,0-7.3,0-11c0-0.3-0.1-0.4-0.4-0.4c-0.5,0-1,0.1-1.5,0c-0.7-0.1-1.1,0.2-1.6,0.8c-0.1,0.1-0.2,0.3-0.4,0.4
	c0.2-0.9,0.5-1.7,0.7-2.5c0.1-0.2,0.2-0.2,0.4-0.2c2.2,0,4.5,0,6.7,0c0.7,0,1.4,0,2,0c0.1,0,0.2,0,0.2,0.2
	C61.1,13.3,60.9,14.2,60.6,15z"/>
<path id="XMLID_107_" class="st2" d="M47.3,12.3c1.3,0,2.6,0,3.9,0c-0.1,0.1-0.2,0.2-0.3,0.3c-0.3,0.3-0.5,0.7-0.5,1.2
	c0,3.7,0,7.5,0,11.2c0,0.9,0.1,1.6,0.8,2.1c-1.3,0-2.5,0-3.8,0c0,0,0-0.1,0-0.1c0.6-0.5,0.7-1.1,0.7-1.9c0-3.7,0-7.5,0-11.2
	C48.1,13.3,47.9,12.8,47.3,12.3z"/>
</svg>
