<?xml version="1.0" encoding="utf-8"?>
<!-- Generator: Adobe Illustrator 19.0.0, SVG Export Plug-In . SVG Version: 6.00 Build 0)  -->
<svg version="1.1" id="Capa_1" xmlns="http://www.w3.org/2000/svg" xmlns:xlink="http://www.w3.org/1999/xlink" x="0px" y="0px"
	 viewBox="0 0 100 33" style="enable-background:new 0 0 100 33;" xml:space="preserve">
<style type="text/css">
	.st0{fill:#FFFEFE;}
	.st1{fill:#FDF1ED;}
	.st2{fill:#DF0229;}
	.st3{fill:#DF0129;}
	.st4{fill:#DF022A;}
	.st5{fill:#FFFDFC;}
</style>
<g>
	<path class="st0" d="M100,21.6c0,0.4,0,0.8,0,1.2c-33.3,0-66.7,0-100,0c0-4.2,0-8.4,0-12.6c33.3,0,66.7,0,100,0c0,3,0,6.1,0,9.1
		c0,0,0,0,0,0c-0.1,0-0.2,0-0.3,0c-2.4,0-4.7,0-7.1,0c-0.1,0-0.1,0-0.2,0c0-1.3,0-2.6,0-3.9c0-1.3,0-2.6,0-3.9c-0.9,0-1.7,0-2.6,0
		c0,0.2,0,10,0,10.1c0.1,0,0.1,0,0.2,0c3.2,0,6.5,0,9.7,0C99.8,21.6,99.9,21.6,100,21.6C100,21.6,100,21.6,100,21.6z M6.4,22.3
		c0.2,0,0.5,0,0.8-0.1c0.4,0,0.8-0.1,1.1-0.2c0.8-0.3,1.5-0.6,2.1-1.2c0.6-0.5,1.1-1.1,1.4-1.8c0.4-0.8,0.6-1.6,0.6-2.5
		c0-0.2,0-0.4-0.1-0.6c-0.1-0.6-0.2-1.1-0.5-1.7c-0.3-0.6-0.7-1.2-1.3-1.7c-0.6-0.5-1.2-0.9-1.9-1.2c-0.7-0.3-1.5-0.5-2.3-0.5
		c-0.5,0-0.9,0-1.4,0.1c-0.7,0.1-1.3,0.3-1.9,0.6c-1.2,0.6-2.1,1.5-2.7,2.6C0.2,15.1,0,16,0.1,17c0.1,0.8,0.3,1.5,0.7,2.1
		c0.5,0.8,1.1,1.5,1.9,2C3.8,21.9,5,22.3,6.4,22.3z M66,18.2c0.1,0,0.1,0,0.1,0c0.3,0,0.6,0,0.9,0c0.7,0,1.4,0,2.1,0
		c0.1,0,0.2,0,0.2,0.1c0.2,0.4,0.5,0.7,0.7,1c0.5,0.7,1,1.4,1.5,2.1c0.1,0.1,0.1,0.1,0.2,0.1c1,0,2.1,0,3.1,0c0,0,0.1,0,0.2,0
		c-1-1.2-1.9-2.4-2.9-3.6c0,0,0.1,0,0.1-0.1c0.3-0.1,0.5-0.2,0.8-0.4c0.5-0.3,0.9-0.7,1.1-1.3c0.3-0.7,0.3-1.4,0.2-2.2
		c-0.1-0.4-0.3-0.8-0.6-1.2c-0.4-0.5-1-0.9-1.6-1.1c-0.6-0.2-1.2-0.3-1.8-0.3c-2.3,0-4.6,0-6.8,0c0,0-0.1,0-0.1,0
		c0,3.4,0,6.7,0,10.1c0.9,0,1.7,0,2.6,0C66,20.4,66,19.3,66,18.2z M51.8,21.6c0.3,0,10,0,10.1,0c0-0.3,0-2.2,0-2.3c0,0,0,0,0,0
		c-2.5,0-5,0-7.5,0c0,0,0,0,0,0c0,0,0,0,0,0c0,0,0,0,0,0c0-0.5,0-0.9,0-1.4c0.4,0,0.9,0,1.3,0c0.4,0,0.9,0,1.3,0c0.4,0,0.9,0,1.3,0
		c0.4,0,0.9,0,1.3,0c0.4,0,0.9,0,1.3,0c0-0.4,0-2.2,0-2.3c-2.2,0-4.3,0-6.5,0c0-0.2,0-1.5,0-1.7c2.4,0,4.7,0,7.1,0
		c0-0.8,0-1.5,0-2.3c-3.2,0-6.5,0-9.7,0C51.8,14.9,51.8,18.2,51.8,21.6z M38,19.3c-2.5,0-5,0-7.6,0c0-0.5,0-1,0-1.5
		c2.2,0,4.3,0,6.5,0c0-0.8,0-1.6,0-2.3c-2.2,0-4.3,0-6.5,0c0-0.2,0-1.5,0-1.7c2.4,0,4.7,0,7.1,0c0-0.8,0-1.5,0-2.3
		c-3.2,0-6.5,0-9.7,0c0,3.4,0,6.7,0,10.1c3.4,0,6.7,0,10.1,0C38,20.8,38,20,38,19.3z M47.5,17.5c-0.1-0.1-0.1-0.1-0.2-0.2
		c-0.3-0.3-0.5-0.6-0.8-0.9c-0.4-0.4-0.7-0.8-1.1-1.2c-0.3-0.3-0.6-0.7-1-1c-0.3-0.3-0.5-0.6-0.8-0.9c-0.2-0.3-0.5-0.5-0.7-0.8
		c-0.3-0.3-0.6-0.6-0.8-0.9c-0.1-0.1-0.1-0.1-0.2-0.1c-0.7,0-1.5,0-2.2,0c0,0-0.1,0-0.1,0c0,3.3,0,6.6,0,10c0,0,0,0.1,0,0.1
		c0,0,0,0,0,0c0,0,0,0,0,0c0.8,0,1.6,0,2.5,0c0-0.2,0-0.4,0-0.7c0-0.2,0-0.4,0-0.7c0-0.2,0-0.4,0-0.7c0-0.2,0-0.4,0-0.7
		c0-0.2,0-0.4,0-0.7c0-0.2,0-0.4,0-0.7c0-0.2,0-0.4,0-0.7c0-0.2,0-0.4,0-0.7c0-0.2,0-0.4,0-0.6c0,0,0,0,0,0c1.8,2,3.6,3.9,5.4,5.9
		c0.8,0,1.7,0,2.5,0c0-0.2,0-10,0-10.1c-0.8,0-1.6,0-2.5,0C47.5,13.5,47.5,15.5,47.5,17.5z M26.2,11.5c-0.1,0-0.1,0-0.2,0
		c-1.8,0-3.6,0-5.4,0c-0.4,0-0.8,0-1.1,0c-0.3,0-0.6,0-0.9,0.1c-1.1,0.3-2.1,0.8-2.9,1.7c-0.4,0.5-0.8,1-1,1.7
		c-0.3,0.7-0.4,1.5-0.2,2.2c0.1,0.6,0.3,1.2,0.6,1.8c0.3,0.5,0.7,0.9,1.1,1.3c0.5,0.4,1.1,0.8,1.8,1c0.5,0.2,1.1,0.3,1.6,0.3
		c2.2,0,4.3,0,6.5,0c0,0,0.1,0,0.1,0c0-1.7,0-3.4,0-5.1c-0.8,0-1.7,0-2.5,0c0,0.3,0,0.6,0,0.9c0,0.3,0,0.6,0,0.9c0,0.3,0,0.6,0,0.9
		c-0.1,0-0.1,0-0.2,0c-0.3,0-0.6,0-0.8,0c-0.9,0-1.9,0-2.8,0c-0.1,0-0.3,0-0.4,0c-0.7-0.1-1.3-0.4-1.8-0.9c-0.6-0.6-0.8-1.3-0.7-2.1
		c0.1-0.6,0.4-1.1,0.8-1.5c0.3-0.3,0.7-0.6,1.2-0.7c0.4-0.1,0.8-0.1,1.2-0.1c2,0,4,0,5.9,0c0.1,0,0.1,0,0.2,0
		C26.2,13,26.2,12.2,26.2,11.5z M78.9,21.6c0-0.1,0-0.1,0-0.2c0-0.5,0-1,0-1.4c0-0.7,0-1.4,0-2.1c0-0.1,0-0.1,0-0.2
		c0-0.4,0-0.7,0-1.1c0.1-0.6,0.4-1.2,0.8-1.6c0.5-0.6,1.2-0.9,2-1.1c0.4-0.1,0.8-0.1,1.1-0.1c0.4,0.1,0.9,0.2,1.2,0.4
		c0.5,0.3,1,0.7,1.3,1.2c0.3,0.5,0.5,1,0.5,1.6c0,1.5,0,2.9,0,4.4c0,0.1,0,0.1,0,0.2c0.9,0,1.7,0,2.6,0c0-0.1,0-0.1,0-0.2
		c0-1.5,0-3.1,0-4.6c0-0.6-0.1-1.2-0.4-1.8c-0.2-0.6-0.6-1.1-1-1.5c-0.4-0.5-1-0.9-1.6-1.2c-1-0.5-2-0.8-3.1-0.8
		c-0.3,0-0.5,0-0.8,0.1c-0.7,0.1-1.4,0.2-2,0.5c-1,0.5-1.8,1.1-2.4,2c-0.6,0.8-0.8,1.8-0.9,2.8c0,1.5,0,3.1,0,4.6c0,0,0,0.1,0,0.1
		C77.2,21.6,78.1,21.6,78.9,21.6z M82.4,16.7c-0.6,0-1.1,0.3-1.5,0.8c-0.2,0.4-0.3,0.8-0.2,1.2c0.2,0.7,0.8,1.1,1.5,1.2
		c0.4,0,0.8-0.1,1.2-0.3c0.7-0.5,0.9-1.4,0.5-2.1C83.6,17,83.1,16.7,82.4,16.7z"/>
	<path class="st1" d="M100,19.3C100,19.3,100,19.3,100,19.3c0,0.8,0,1.5,0,2.3c0,0,0,0,0,0c0,0,0-0.1,0-0.1
		C100,20.7,100,20,100,19.3z"/>
	<path class="st2" d="M6.4,22.3c-1.5,0-2.7-0.4-3.8-1.1c-0.8-0.5-1.4-1.2-1.9-2c-0.4-0.7-0.6-1.4-0.7-2.1c-0.1-1,0.1-2,0.6-2.9
		c0.6-1.2,1.5-2,2.7-2.6c0.6-0.3,1.2-0.5,1.9-0.6c0.5-0.1,0.9-0.1,1.4-0.1c0.8,0,1.5,0.2,2.3,0.5c0.7,0.3,1.3,0.7,1.9,1.2
		c0.5,0.5,0.9,1,1.3,1.7c0.3,0.5,0.4,1.1,0.5,1.7c0,0.2,0.1,0.4,0.1,0.6c0,0.9-0.2,1.7-0.6,2.5c-0.4,0.7-0.8,1.3-1.4,1.8
		c-0.6,0.5-1.4,0.9-2.1,1.2c-0.4,0.1-0.7,0.2-1.1,0.2C6.9,22.2,6.6,22.3,6.4,22.3z M6.2,21.5c0-0.1,0.1-0.1,0.1-0.1
		c0.2-0.4,0.4-0.9,0.6-1.3c0.5-1.1,1-2.2,1.5-3.4c0.1-0.1,0.1-0.2,0.2-0.4c0.1-0.2,0-0.3-0.2-0.3c0,0-0.1,0-0.1,0
		c-0.8,0-1.6,0-2.5,0c-0.1,0-0.1,0-0.2,0c-0.1-0.1-0.1-0.2,0-0.3c0.1-0.1,0.2-0.1,0.3-0.1c0.4,0,0.7,0,1.1,0c0.1,0,0.2,0,0.4-0.1
		c0.2-0.1,0.4-0.2,0.5-0.5c0.2-0.7,0.3-1.4,0.5-2.1c0.1-0.4,0.2-0.8,0.3-1.2c0-0.1,0-0.2-0.1-0.3c-0.1-0.1-0.1-0.1-0.2-0.1
		c-0.5,0-1,0-1.5,0c-0.1,0-0.2,0-0.3,0.1c-0.3,0.1-0.5,0.3-0.7,0.7c-0.1,0.2-0.2,0.5-0.2,0.7c-0.3,0.9-0.5,1.9-0.8,2.8
		c-0.3,1-0.6,2-0.9,3.1c-0.1,0.2-0.1,0.5-0.2,0.7c-0.1,0.4,0.1,0.8,0.5,1.1c0.2,0.1,0.5,0.2,0.7,0.2c0.3,0,0.5,0,0.8,0
		c0.1,0,0.2,0,0.2,0.2C6,21.1,6,21.2,6.1,21.4C6.1,21.4,6.1,21.5,6.2,21.5z"/>
	<path class="st3" d="M66,18.2c0,1.1,0,2.3,0,3.4c-0.9,0-1.7,0-2.6,0c0-3.4,0-6.7,0-10.1c0,0,0.1,0,0.1,0c2.3,0,4.6,0,6.8,0
		c0.6,0,1.2,0.1,1.8,0.3c0.6,0.2,1.2,0.6,1.6,1.1c0.3,0.4,0.5,0.8,0.6,1.2c0.1,0.7,0.1,1.5-0.2,2.2c-0.2,0.6-0.6,1-1.1,1.3
		c-0.2,0.2-0.5,0.3-0.8,0.4c0,0,0,0-0.1,0.1c1,1.2,1.9,2.4,2.9,3.6c-0.1,0-0.1,0-0.2,0c-1,0-2.1,0-3.1,0c-0.1,0-0.2,0-0.2-0.1
		c-0.5-0.7-1-1.4-1.5-2.1c-0.2-0.3-0.5-0.7-0.7-1c-0.1-0.1-0.1-0.1-0.2-0.1c-0.7,0-1.4,0-2.1,0c-0.3,0-0.6,0-0.9,0
		C66.1,18.2,66.1,18.2,66,18.2z M66,15.8c0.1,0,0.1,0,0.2,0c1.4,0,2.7,0,4.1,0c0.2,0,0.3,0,0.5,0c0.2,0,0.4-0.1,0.5-0.1
		c0.2-0.1,0.4-0.2,0.5-0.4c0-0.1,0.1-0.2,0.1-0.4c0-0.4-0.2-0.8-0.6-0.9c-0.3-0.1-0.5-0.1-0.8-0.1c-1.4,0-2.8,0-4.3,0
		c-0.1,0-0.1,0-0.2,0C66,14.5,66,15.1,66,15.8z"/>
	<path class="st3" d="M51.8,21.6c0-3.4,0-6.7,0-10.1c3.2,0,6.5,0,9.7,0c0,0.8,0,1.5,0,2.3c-2.4,0-4.7,0-7.1,0c0,0.1,0,1.4,0,1.7
		c2.2,0,4.3,0,6.5,0c0,0.1,0.1,2,0,2.3c-0.4,0-0.9,0-1.3,0c-0.4,0-0.9,0-1.3,0c-0.4,0-0.9,0-1.3,0c-0.4,0-0.9,0-1.3,0
		c-0.4,0-0.9,0-1.3,0c0,0.5,0,1,0,1.4c0,0,0,0,0,0c0,0,0,0,0,0c0,0,0,0,0,0c2.5,0,5,0,7.5,0c0,0,0,0,0,0c0,0.1,0,2,0,2.3
		C61.8,21.6,52.1,21.6,51.8,21.6z"/>
	<path class="st3" d="M38,19.3c0,0.8,0,1.5,0,2.3c-3.4,0-6.7,0-10.1,0c0-3.4,0-6.7,0-10.1c3.2,0,6.5,0,9.7,0c0,0.8,0,1.5,0,2.3
		c-2.4,0-4.7,0-7.1,0c0,0.1,0,1.4,0,1.7c2.2,0,4.3,0,6.5,0c0,0.8,0,1.6,0,2.3c-2.2,0-4.3,0-6.5,0c0,0.5,0,1,0,1.5
		C32.9,19.3,35.4,19.3,38,19.3z"/>
	<path class="st3" d="M47.5,17.5c0-2,0-4,0-6c0.8,0,1.6,0,2.5,0c0,0.1,0,9.9,0,10.1c-0.8,0-1.6,0-2.5,0c-1.8-2-3.6-3.9-5.4-5.9
		c0,0,0,0,0,0c0,0.2,0,0.4,0,0.6c0,0.2,0,0.4,0,0.7c0,0.2,0,0.4,0,0.7c0,0.2,0,0.4,0,0.7c0,0.2,0,0.4,0,0.7c0,0.2,0,0.4,0,0.7
		c0,0.2,0,0.4,0,0.7c0,0.2,0,0.4,0,0.7c0,0.2,0,0.4,0,0.7c-0.8,0-1.6,0-2.5,0c0,0,0,0,0,0c0,0,0,0,0,0c0,0,0-0.1,0-0.1
		c0-3.3,0-6.6,0-10c0,0,0.1,0,0.1,0c0.7,0,1.5,0,2.2,0c0.1,0,0.2,0,0.2,0.1c0.3,0.3,0.6,0.6,0.8,0.9c0.2,0.3,0.5,0.5,0.7,0.8
		c0.3,0.3,0.5,0.6,0.8,0.9c0.3,0.3,0.6,0.7,1,1c0.4,0.4,0.7,0.8,1.1,1.2c0.3,0.3,0.5,0.6,0.8,0.9C47.4,17.3,47.5,17.4,47.5,17.5z"/>
	<path class="st3" d="M26.2,11.5c0,0.8,0,1.6,0,2.4c-0.1,0-0.1,0-0.2,0c-2,0-4,0-5.9,0c-0.4,0-0.8,0-1.2,0.1
		c-0.5,0.1-0.9,0.4-1.2,0.7c-0.4,0.4-0.7,0.9-0.8,1.5c-0.1,0.8,0.1,1.5,0.7,2.1c0.5,0.5,1.1,0.8,1.8,0.9c0.1,0,0.3,0,0.4,0
		c0.9,0,1.9,0,2.8,0c0.3,0,0.6,0,0.8,0c0.1,0,0.1,0,0.2,0c0-0.3,0-0.6,0-0.9c0-0.3,0-0.6,0-0.9c0-0.3,0-0.6,0-0.9c0.9,0,1.7,0,2.5,0
		c0,1.7,0,3.4,0,5.1c0,0-0.1,0-0.1,0c-2.2,0-4.3,0-6.5,0c-0.6,0-1.1-0.1-1.6-0.3c-0.7-0.2-1.3-0.6-1.8-1c-0.5-0.4-0.8-0.8-1.1-1.3
		c-0.3-0.6-0.5-1.2-0.6-1.8c-0.1-0.8,0-1.5,0.2-2.2c0.2-0.6,0.6-1.2,1-1.7c0.8-0.9,1.8-1.4,2.9-1.7c0.3-0.1,0.6-0.1,0.9-0.1
		c0.4,0,0.8,0,1.1,0c1.8,0,3.6,0,5.4,0C26.1,11.5,26.1,11.5,26.2,11.5z"/>
	<path class="st2" d="M78.9,21.6c-0.8,0-1.7,0-2.5,0c0,0,0-0.1,0-0.1c0-1.5,0-3.1,0-4.6c0-1,0.3-1.9,0.9-2.8c0.6-0.9,1.4-1.6,2.4-2
		c0.6-0.3,1.3-0.5,2-0.5c0.3,0,0.5-0.1,0.8-0.1c1.1,0,2.1,0.3,3.1,0.8c0.6,0.3,1.1,0.7,1.6,1.2c0.4,0.5,0.8,1,1,1.5
		c0.2,0.6,0.4,1.2,0.4,1.8c0,1.5,0,3.1,0,4.6c0,0.1,0,0.1,0,0.2c-0.9,0-1.7,0-2.6,0c0-0.1,0-0.1,0-0.2c0-1.5,0-2.9,0-4.4
		c0-0.6-0.2-1.1-0.5-1.6c-0.3-0.5-0.8-0.9-1.3-1.2c-0.4-0.2-0.8-0.3-1.2-0.4c-0.4,0-0.8,0-1.1,0.1c-0.8,0.2-1.4,0.5-2,1.1
		c-0.4,0.4-0.7,1-0.8,1.6c-0.1,0.4,0,0.7,0,1.1c0,0.1,0,0.1,0,0.2c0,0.7,0,1.4,0,2.1c0,0.5,0,1,0,1.4C78.9,21.5,78.9,21.5,78.9,21.6
		z"/>
	<path class="st4" d="M100,19.3c0,0.7,0,1.4,0,2.2c0,0,0,0.1,0,0.1c-0.1,0-0.1,0-0.2,0c-3.2,0-6.5,0-9.7,0c-0.1,0-0.1,0-0.2,0
		c0-0.1,0-9.9,0-10.1c0.8,0,1.7,0,2.6,0c0,1.3,0,2.6,0,3.9c0,1.3,0,2.6,0,3.9c0.1,0,0.1,0,0.2,0c2.4,0,4.7,0,7.1,0
		C99.8,19.3,99.9,19.3,100,19.3z"/>
	<path class="st4" d="M82.4,16.7c0.7,0,1.2,0.2,1.6,0.8c0.5,0.7,0.2,1.6-0.5,2.1c-0.4,0.2-0.8,0.3-1.2,0.3c-0.7-0.1-1.4-0.5-1.5-1.2
		c-0.1-0.4-0.1-0.9,0.2-1.2C81.3,17,81.8,16.7,82.4,16.7z"/>
	<path class="st0" d="M6.2,21.5c0-0.1-0.1-0.1-0.1-0.2C6,21.2,6,21.1,5.9,20.9c0-0.1-0.1-0.1-0.2-0.2c-0.3,0-0.5,0-0.8,0
		c-0.3,0-0.5-0.1-0.7-0.2c-0.4-0.2-0.6-0.6-0.5-1.1c0-0.2,0.1-0.5,0.2-0.7c0.3-1,0.6-2,0.9-3.1c0.3-0.9,0.5-1.9,0.8-2.8
		c0.1-0.2,0.1-0.5,0.2-0.7c0.1-0.3,0.4-0.5,0.7-0.7c0.1,0,0.2-0.1,0.3-0.1c0.5,0,1,0,1.5,0c0.1,0,0.2,0,0.2,0.1
		c0.1,0.1,0.1,0.2,0.1,0.3c-0.1,0.4-0.2,0.8-0.3,1.2c-0.2,0.7-0.4,1.4-0.5,2.1c-0.1,0.3-0.2,0.4-0.5,0.5c-0.1,0-0.2,0-0.4,0.1
		c-0.4,0-0.7,0-1.1,0c-0.1,0-0.2,0-0.3,0.1c-0.1,0.1-0.1,0.2,0,0.3c0.1,0,0.1,0,0.2,0c0.8,0,1.6,0,2.5,0c0,0,0.1,0,0.1,0
		c0.2,0,0.3,0.1,0.2,0.3c-0.1,0.1-0.1,0.2-0.2,0.4c-0.5,1.1-1,2.2-1.5,3.4c-0.2,0.4-0.4,0.9-0.6,1.3C6.2,21.5,6.2,21.5,6.2,21.5z"/>
	<path class="st5" d="M66,15.8c0-0.7,0-1.3,0-2c0.1,0,0.1,0,0.2,0c1.4,0,2.8,0,4.3,0c0.3,0,0.5,0,0.8,0.1c0.4,0.2,0.6,0.5,0.6,0.9
		c0,0.1,0,0.3-0.1,0.4c-0.1,0.2-0.3,0.4-0.5,0.4c-0.2,0.1-0.3,0.1-0.5,0.1c-0.2,0-0.3,0-0.5,0c-1.4,0-2.7,0-4.1,0
		C66.2,15.8,66.1,15.8,66,15.8z"/>
</g>
</svg>
