<?xml version="1.0" encoding="utf-8"?>
<!-- Generator: Adobe Illustrator 19.0.0, SVG Export Plug-In . SVG Version: 6.00 Build 0)  -->
<svg version="1.1" id="Capa_1" xmlns="http://www.w3.org/2000/svg" xmlns:xlink="http://www.w3.org/1999/xlink" x="0px" y="0px"
	 viewBox="0 0 100 33" style="enable-background:new 0 0 100 33;" xml:space="preserve">
<style type="text/css">
	.st0{fill:#FDFDFD;}
	.st1{fill:#ED363B;}
	.st2{fill:#ED353A;}
	.st3{fill:#3B393A;}
	.st4{fill:#393738;}
	.st5{fill:#3A3839;}
	.st6{fill:#3D3B3C;}
	.st7{fill:#3E3C3D;}
	.st8{fill:#424041;}
	.st9{fill:#FCFCFC;}
</style>
<g>
	<path class="st0" d="M0,31.4c0-9.9,0-19.9,0-29.8c33.3,0,66.7,0,100,0c0,9.9,0,19.9,0,29.8C66.7,31.4,33.3,31.4,0,31.4z M16.6,20.9
		c-0.1,0.1-0.3,0.2-0.4,0.2c-3.3,0-6.7,0-10,0c-0.3,0-0.5,0.1-0.7,0.4c-1.7,2.9-3.3,5.8-5,8.6c-0.1,0.2-0.2,0.3-0.3,0.5
		c0.2,0,0.4,0,0.6,0c3.3,0,6.6,0,9.9,0c0.4,0,0.6-0.1,0.7-0.4c1.6-2.9,3.3-5.7,5-8.5c0.1-0.2,0.3-0.3,0.4-0.4c0,0,0,0.1,0.1,0.1
		c1.7,3,3.5,6,5.2,9c0.1,0.2,0.4,0.3,0.6,0.3c3.4,0,6.8,0,10.2,0c0.1,0,0.2,0,0.4,0c0-0.1-0.1-0.1-0.1-0.2c-1.7-3-3.5-6-5.3-9
		c-0.1-0.2-0.4-0.3-0.5-0.3c-3.5,0-7,0-10.5,0c0,0,0-0.1,0-0.1c0-0.1,0.1-0.1,0.1-0.2c1.7-3,3.4-6,5.1-9c0.1-0.3,0.1-0.4,0-0.7
		c-1.3-2.2-2.5-4.4-3.8-6.7c-0.5-0.8-0.9-1.7-1.4-2.5c-0.1,0.1-0.1,0.2-0.2,0.2c-1.7,3-3.5,6-5.2,9.1c-0.1,0.2-0.1,0.5,0,0.6
		c0.6,1.1,1.2,2.1,1.8,3.2C14.4,17,15.5,19,16.6,20.9z M36.6,12.9c0,0,0.1,0,0.1,0c0.5,1.8,1,3.5,1.5,5.3c0.4,1.3,0.4,1.3,1.8,1.3
		c0.3,0,0.5-0.1,0.6-0.4c0.6-2,1.1-3.9,1.7-5.9c0-0.2,0.1-0.3,0.1-0.4c0,0,0.1,0,0.1,0c0,2.2,0,4.5,0,6.7c0.6,0,1.1,0,1.7,0
		c0-3.2,0-6.4,0-9.5c-0.9,0-1.8,0-2.8,0c-0.6,2.2-1.3,4.4-1.9,6.7c-0.1-0.2-0.1-0.3-0.1-0.4c-0.6-2-1.2-4-1.7-6
		c0-0.2-0.2-0.4-0.3-0.4c-0.8,0-1.7,0-2.5,0c0,3.2,0,6.4,0,9.6c0.6,0,1.1,0,1.7,0C36.6,17.2,36.6,15,36.6,12.9z M76.4,14.4
		c0.6-0.4,1-0.9,1.2-1.6C78,11.4,77,10,75.4,9.9c-1.5-0.1-3,0-4.5,0c-0.1,0-0.2,0-0.3,0c0,3.2,0,6.3,0,9.5c1.8,0,3.6,0.1,5.4,0
		c1.2-0.1,2.1-1.1,2.2-2.3C78.1,15.8,77.6,14.9,76.4,14.4z M78.4,26.1c0.1-0.1,0.1-0.1,0.1-0.1c1-0.7,1.4-1.9,1.1-3.2
		C79.2,21.7,78.3,21,77,21c-1.4,0-2.8,0-4.2,0c-0.2,0-0.3,0-0.5,0c0,3.3,0,6.4,0,9.6c0.6,0,1.3,0,2,0c0-1.2,0-2.5,0-3.8
		c0.7,0,1.3,0,1.9,0c0.9,0,1.3,0.4,1.4,1.3c0.1,0.4,0.1,0.7,0.1,1.1c0.1,0.5,0.1,0.9,0.2,1.4c0.7,0,1.3,0,1.9,0
		c-0.1-0.9-0.2-1.8-0.3-2.6C79.4,27.2,79.2,26.5,78.4,26.1z M56,21.1c-2.2,0-4.4,0-6.6,0c0,3.2,0,6.4,0,9.6c2.2,0,4.5,0,6.7,0
		c0-0.6,0-1.2,0-1.8c-1.6,0-3.2,0-4.7,0c0-0.8,0-1.5,0-2.3c1.4,0,2.8,0,4.2,0c0-0.6,0-1.1,0-1.7c-1.4,0-2.8,0-4.3,0c0-0.7,0-1.3,0-2
		c1.6,0,3.1,0,4.6,0C56,22.2,56,21.7,56,21.1z M34.8,30.7c2.3,0,4.5,0,6.7,0c0-0.6,0-1.2,0-1.8c-1.6,0-3.1,0-4.7,0
		c0-0.8,0-1.5,0-2.3c1.4,0,2.8,0,4.2,0c0-0.6,0-1.1,0-1.7c-1.4,0-2.8,0-4.2,0c0-0.7,0-1.3,0-2c1.6,0,3.1,0,4.6,0c0-0.6,0-1.2,0-1.8
		c-2.2,0-4.4,0-6.6,0C34.8,24.3,34.8,27.5,34.8,30.7z M55.8,16.5c-0.6,0-1.2,0-1.9,0c0.1,0.4,0.2,0.9,0.3,1.2c0.4,1,1.2,1.4,2.1,1.7
		c1.3,0.4,2.6,0.2,3.8-0.4c1.2-0.6,1.7-1.6,1.5-2.9c-0.1-1.2-1-1.8-2-2.1c-0.9-0.3-1.9-0.5-2.8-0.8c-0.4-0.1-0.7-0.4-0.7-0.9
		c0-0.5,0.3-0.8,0.7-1c1-0.4,2.5-0.3,2.8,1.2c0.3,0,0.6,0,0.8,0c0.3,0,0.6,0,0.9,0c0-1.2-0.6-2.1-1.7-2.6c-1.4-0.6-2.8-0.6-4.1,0.1
		c-1.7,0.9-1.9,3.2-0.5,4.4c0.4,0.4,1.1,0.5,1.6,0.7c0.8,0.2,1.6,0.4,2.3,0.6c0.8,0.3,0.9,1.2,0.3,1.7
		C58.2,18.7,56.2,18.1,55.8,16.5z M96.6,19.4c0-3.2,0-6.3,0-9.5c-0.6,0-1.2,0-1.9,0c0,1.2,0,2.4,0,3.6c-1.3,0-2.5,0-3.8,0
		c0-1.2,0-2.4,0-3.6c-0.7,0-1.3,0-1.9,0c0,3.2,0,6.3,0,9.5c0.6,0,1.2,0,1.9,0c0-1.4,0-2.8,0-4.2c1.3,0,2.5,0,3.8,0
		c0,1.4,0,2.8,0,4.2C95.4,19.4,96,19.4,96.6,19.4z M80.9,16.5c0,0.8,0.3,1.5,0.8,2.1c1.5,1.5,4.6,1.5,6.1,0c1.1-1.1,1.2-3.6-0.9-4.3
		c-0.3-0.1-0.5-0.2-0.8-0.2c-0.8-0.2-1.6-0.4-2.4-0.6c-0.5-0.1-0.8-0.4-0.8-0.9c0-0.5,0.3-0.9,0.8-1c1.3-0.4,2.2,0,2.7,1.2
		c0.6,0,1.2,0,1.7,0c0-1.1-0.5-1.9-1.4-2.4c-1.3-0.7-2.7-0.7-4-0.2c-1.1,0.4-1.8,1.5-1.8,2.6c0.1,1.2,0.7,2,2,2.4
		c0.9,0.3,1.9,0.5,2.8,0.8c0.5,0.1,0.8,0.4,0.8,0.9c0,0.5-0.3,0.9-0.8,1.1c-1.4,0.6-2.7,0.1-3.2-1.4C82.1,16.5,81.5,16.5,80.9,16.5z
		 M91.2,24.3c0-0.2,0-0.3-0.1-0.5c-0.3-1.5-1.3-2.6-2.8-2.9c-1.7-0.4-3.2,0-4.2,1.5c-1.4,2-1.5,4.2-0.4,6.4c0.6,1.2,1.6,1.8,2.9,2
		c2.5,0.5,4.7-1.5,4.6-3.9c-0.3,0-0.6,0-0.9,0c-0.3,0-0.6,0-0.9,0c0,0.2-0.1,0.3-0.1,0.4c-0.3,1.1-0.9,1.7-1.7,1.7
		c-1,0.1-1.9-0.4-2.3-1.4c-0.5-1.2-0.4-2.5,0.1-3.7c0.3-0.6,0.7-1.1,1.4-1.3c1.2-0.3,2.1,0.2,2.6,1.6C90,24.3,90.6,24.3,91.2,24.3z
		 M62.2,9.9c0,0.2,0,0.3,0,0.5c0,2.1,0,4.3,0,6.4c0,1.3,0.8,2.2,2,2.6c1,0.3,2,0.3,3,0.1c1.7-0.3,2.6-1.5,2.6-3.2c0-1.4,0-2.7,0-4.1
		c0-0.8,0-1.5,0-2.3c-0.7,0-1.3,0-1.9,0c0,0.2,0,0.3,0,0.5c0,1.9,0,3.9,0,5.8c0,0.6-0.1,1.1-0.6,1.5c-0.8,0.5-1.6,0.5-2.4,0.2
		c-0.7-0.3-0.8-1-0.8-1.7c0-1.9,0-3.8,0-5.7c0-0.2,0-0.4,0-0.6C63.4,9.9,62.8,9.9,62.2,9.9z M62.5,27c-0.1,0.2-0.1,0.4-0.1,0.5
		c-0.3,0.9-0.8,1.5-1.6,1.6c-0.9,0.1-1.8-0.3-2.2-1.2c-0.7-1.4-0.7-2.8,0.1-4.2c0.5-1,1.6-1.3,2.6-0.9c0.7,0.3,1,0.8,1.2,1.5
		c0.6,0,1.3,0,1.9,0c0-0.2-0.1-0.4-0.1-0.6c-0.4-1.6-1.5-2.6-3.1-2.8c-1.7-0.2-3.2,0.3-4.1,1.8c-1.1,1.9-1.2,3.9-0.3,5.9
		c0.9,1.9,2.8,2.7,4.8,2.2c1.7-0.4,3-2.3,2.8-3.8C63.8,27,63.2,27,62.5,27z M67,22.9c0,2.6,0,5.2,0,7.8c0.7,0,1.3,0,2,0
		c0-2.6,0-5.2,0-7.8c0.9,0,1.8,0,2.6,0c0-0.6,0-1.2,0-1.8c-2.4,0-4.8,0-7.2,0c0,0.6,0,1.2,0,1.8C65.2,22.9,66,22.9,67,22.9z
		 M44.3,28.9c0-2.6,0-5.2,0-7.8c-0.7,0-1.3,0-1.9,0c0,3.2,0,6.4,0,9.6c2.1,0,4.2,0,6.2,0c0-0.6,0-1.2,0-1.8
		C47.1,28.9,45.7,28.9,44.3,28.9z M49.8,11.6c0,2.7,0,5.3,0,7.9c0.7,0,1.3,0,1.9,0c0-2.6,0-5.2,0-7.9c0.8,0,1.5,0,2.3,0
		c0-0.6,0-1.1,0-1.7c-2.2,0-4.3,0-6.5,0c0,0.6,0,1.1,0,1.7C48.3,11.6,49,11.6,49.8,11.6z M82.3,30.7c0-3.2,0-6.4,0-9.6
		c-0.7,0-1.3,0-1.9,0c0,3.2,0,6.4,0,9.6C81.1,30.7,81.7,30.7,82.3,30.7z M99.4,19.4c0-3.2,0-6.4,0-9.5c-0.6,0-1.2,0-1.8,0
		c0,3.2,0,6.3,0,9.5C98.2,19.4,98.8,19.4,99.4,19.4z M46.9,19.4c0-3.2,0-6.4,0-9.5c-0.6,0-1.2,0-1.8,0c0,3.2,0,6.4,0,9.5
		C45.7,19.4,46.3,19.4,46.9,19.4z M78.5,9.9c0,3.2,0,6.3,0,9.5c0.6,0,1.2,0,1.8,0c0-3.2,0-6.3,0-9.5C79.7,9.9,79.1,9.9,78.5,9.9z"/>
	<path class="st1" d="M16.8,21c0,0,0,0.1,0,0.1c0,0,0,0.1,0,0.1c-0.1,0.1-0.3,0.3-0.4,0.4c-1.7,2.8-3.3,5.7-5,8.5
		c-0.2,0.3-0.4,0.4-0.7,0.4c-3.3,0-6.6,0-9.9,0c-0.2,0-0.3,0-0.6,0c0.1-0.2,0.2-0.4,0.3-0.5c1.7-2.9,3.4-5.7,5-8.6
		c0.2-0.3,0.4-0.4,0.7-0.4c3.3,0,6.7,0,10,0c0.1,0,0.3-0.1,0.4-0.2C16.7,20.9,16.7,21,16.8,21z"/>
	<path class="st2" d="M16.8,21.3c0,0,0-0.1,0-0.1c3.5,0,7,0,10.5,0c0.2,0,0.5,0.1,0.5,0.3c1.8,3,3.5,6,5.3,9c0,0,0,0.1,0.1,0.2
		c-0.1,0-0.3,0-0.4,0c-3.4,0-6.8,0-10.2,0c-0.2,0-0.5-0.1-0.6-0.3c-1.8-3-3.5-6-5.2-9C16.8,21.4,16.8,21.3,16.8,21.3z"/>
	<path class="st2" d="M16.8,21c-0.1,0-0.1-0.1-0.2-0.1c-1.1-1.9-2.2-3.9-3.3-5.8C12.7,14,12,13,11.4,11.9c-0.1-0.2-0.1-0.5,0-0.6
		c1.7-3,3.4-6,5.2-9.1c0-0.1,0.1-0.1,0.2-0.2c0.5,0.9,1,1.7,1.4,2.5c1.3,2.2,2.5,4.4,3.8,6.7c0.1,0.2,0.2,0.4,0,0.7
		c-1.7,3-3.4,6-5.1,9C16.9,20.9,16.8,20.9,16.8,21z"/>
	<path class="st3" d="M36.6,12.9c0,2.2,0,4.4,0,6.6c-0.6,0-1.2,0-1.7,0c0-3.2,0-6.3,0-9.6c0.8,0,1.7,0,2.5,0c0.1,0,0.3,0.2,0.3,0.4
		c0.6,2,1.2,4,1.7,6c0,0.1,0,0.1,0.1,0.4c0.7-2.3,1.3-4.5,1.9-6.7c0.9,0,1.8,0,2.8,0c0,3.2,0,6.4,0,9.5c-0.5,0-1.1,0-1.7,0
		c0-2.2,0-4.5,0-6.7c0,0-0.1,0-0.1,0c0,0.1-0.1,0.3-0.1,0.4c-0.6,2-1.1,3.9-1.7,5.9c-0.1,0.3-0.2,0.4-0.6,0.4c-1.4,0-1.4,0-1.8-1.3
		c-0.5-1.8-1-3.5-1.5-5.3C36.6,12.9,36.6,12.9,36.6,12.9z"/>
	<path class="st4" d="M76.4,14.4c1.2,0.5,1.7,1.5,1.6,2.7c-0.1,1.2-0.9,2.2-2.2,2.3c-1.8,0.1-3.6,0-5.4,0c0-3.1,0-6.3,0-9.5
		c0.1,0,0.2,0,0.3,0c1.5,0,3,0,4.5,0c1.6,0.1,2.6,1.4,2.2,2.9C77.4,13.5,77,14,76.4,14.4z M72.3,15.2c0,0.9,0,1.8,0,2.7
		c0.8,0,1.6,0,2.4,0c0.7,0,1.3-0.6,1.4-1.3c0-0.7-0.5-1.3-1.3-1.3C74,15.2,73.2,15.2,72.3,15.2z M72.3,13.7c0.8,0,1.6,0,2.3,0
		c0.7,0,1.2-0.5,1.2-1.1c0-0.6-0.4-1.1-1-1.2c-0.8-0.1-1.7,0-2.5,0C72.3,12.2,72.3,12.9,72.3,13.7z"/>
	<path class="st5" d="M78.4,26.1c0.8,0.4,1.1,1.1,1.1,1.9c0.1,0.9,0.2,1.7,0.3,2.6c-0.5,0-1.2,0-1.9,0c-0.1-0.5-0.1-0.9-0.2-1.4
		c0-0.4-0.1-0.7-0.1-1.1c-0.1-0.9-0.5-1.3-1.4-1.3c-0.6,0-1.2,0-1.9,0c0,1.3,0,2.5,0,3.8c-0.7,0-1.3,0-2,0c0-3.2,0-6.4,0-9.6
		c0.2,0,0.3,0,0.5,0c1.4,0,2.8,0,4.2,0c1.3,0,2.2,0.6,2.6,1.8c0.4,1.3,0,2.5-1.1,3.2C78.4,26,78.4,26.1,78.4,26.1z M74.3,25.4
		c0.8,0,1.6,0,2.3,0c0.7,0,1.1-0.5,1.1-1.3c0-0.8-0.3-1.3-1-1.3c-0.8-0.1-1.6,0-2.4,0C74.3,23.6,74.3,24.5,74.3,25.4z"/>
	<path class="st6" d="M56,21.1c0,0.6,0,1.1,0,1.8c-1.5,0-3.1,0-4.6,0c0,0.7,0,1.3,0,2c1.4,0,2.8,0,4.3,0c0,0.6,0,1.1,0,1.7
		c-1.4,0-2.8,0-4.2,0c0,0.8,0,1.5,0,2.3c1.6,0,3.1,0,4.7,0c0,0.6,0,1.2,0,1.8c-2.2,0-4.4,0-6.7,0c0-3.2,0-6.4,0-9.6
		C51.6,21.1,53.7,21.1,56,21.1z"/>
	<path class="st3" d="M34.8,30.7c0-3.2,0-6.4,0-9.6c2.2,0,4.4,0,6.6,0c0,0.6,0,1.1,0,1.8c-1.5,0-3.1,0-4.6,0c0,0.7,0,1.3,0,2
		c1.4,0,2.8,0,4.2,0c0,0.6,0,1.1,0,1.7c-1.4,0-2.8,0-4.2,0c0,0.8,0,1.5,0,2.3c1.6,0,3.1,0,4.7,0c0,0.6,0,1.2,0,1.8
		C39.3,30.7,37.1,30.7,34.8,30.7z"/>
	<path class="st4" d="M55.8,16.5c0.4,1.5,2.4,2.2,3.5,1.1c0.6-0.6,0.5-1.5-0.3-1.7c-0.8-0.3-1.5-0.4-2.3-0.6
		c-0.6-0.2-1.2-0.4-1.6-0.7c-1.5-1.2-1.2-3.5,0.5-4.4c1.3-0.7,2.7-0.7,4.1-0.1c1.1,0.5,1.7,1.4,1.7,2.6c-0.3,0-0.6,0-0.9,0
		c-0.3,0-0.6,0-0.8,0c-0.3-1.5-1.8-1.6-2.8-1.2c-0.4,0.2-0.7,0.5-0.7,1c0,0.5,0.3,0.7,0.7,0.9c0.9,0.3,1.9,0.5,2.8,0.8
		c1.1,0.3,1.9,0.9,2,2.1c0.1,1.3-0.4,2.3-1.5,2.9c-1.2,0.6-2.5,0.8-3.8,0.4c-0.9-0.3-1.7-0.8-2.1-1.7c-0.2-0.4-0.2-0.8-0.3-1.2
		C54.6,16.5,55.2,16.5,55.8,16.5z"/>
	<path class="st5" d="M96.6,19.4c-0.6,0-1.2,0-1.9,0c0-1.4,0-2.8,0-4.2c-1.3,0-2.5,0-3.8,0c0,1.4,0,2.8,0,4.2c-0.7,0-1.3,0-1.9,0
		c0-3.2,0-6.3,0-9.5c0.6,0,1.2,0,1.9,0c0,1.2,0,2.4,0,3.6c1.3,0,2.5,0,3.8,0c0-1.2,0-2.4,0-3.6c0.6,0,1.2,0,1.9,0
		C96.6,13.1,96.6,16.2,96.6,19.4z"/>
	<path class="st4" d="M80.9,16.5c0.6,0,1.2,0,1.8,0c0.5,1.4,1.8,2,3.2,1.4c0.5-0.2,0.8-0.7,0.8-1.1c0-0.5-0.3-0.8-0.8-0.9
		c-0.9-0.3-1.9-0.5-2.8-0.8c-1.2-0.4-1.9-1.3-2-2.4c-0.1-1.1,0.6-2.2,1.8-2.6c1.3-0.5,2.7-0.6,4,0.2c0.9,0.5,1.4,1.3,1.4,2.4
		c-0.6,0-1.2,0-1.7,0c-0.5-1.2-1.4-1.6-2.7-1.2c-0.5,0.2-0.8,0.6-0.8,1c0,0.5,0.3,0.8,0.8,0.9c0.8,0.2,1.6,0.4,2.4,0.6
		c0.3,0.1,0.5,0.2,0.8,0.2c2.1,0.7,2,3.2,0.9,4.3c-1.5,1.5-4.6,1.5-6.1,0C81.1,18,80.9,17.4,80.9,16.5z"/>
	<path class="st5" d="M91.2,24.3c-0.6,0-1.3,0-1.9,0c-0.5-1.3-1.4-1.9-2.6-1.6c-0.7,0.2-1.1,0.6-1.4,1.3c-0.5,1.2-0.5,2.5-0.1,3.7
		c0.4,1,1.2,1.5,2.3,1.4c0.9-0.1,1.5-0.7,1.7-1.7c0-0.1,0.1-0.3,0.1-0.4c0.3,0,0.6,0,0.9,0c0.3,0,0.6,0,0.9,0
		c0.1,2.5-2.2,4.4-4.6,3.9c-1.3-0.2-2.3-0.9-2.9-2c-1.1-2.2-1.1-4.4,0.4-6.4c1-1.4,2.5-1.8,4.2-1.5c1.6,0.3,2.5,1.4,2.8,2.9
		C91.2,24,91.2,24.1,91.2,24.3z"/>
	<path class="st4" d="M62.2,9.9c0.7,0,1.3,0,1.9,0c0,0.2,0,0.4,0,0.6c0,1.9,0,3.8,0,5.7c0,0.7,0.1,1.4,0.8,1.7
		c0.8,0.4,1.6,0.4,2.4-0.2c0.5-0.3,0.6-0.9,0.6-1.5c0-1.9,0-3.9,0-5.8c0-0.2,0-0.3,0-0.5c0.6,0,1.2,0,1.9,0c0,0.8,0,1.5,0,2.3
		c0,1.4,0,2.7,0,4.1c0,1.8-0.9,2.9-2.6,3.2c-1,0.2-2,0.2-3-0.1c-1.2-0.4-2-1.3-2-2.6c-0.1-2.1,0-4.3,0-6.4
		C62.2,10.3,62.2,10.1,62.2,9.9z"/>
	<path class="st5" d="M62.5,27c0.6,0,1.2,0,1.8,0c0.2,1.5-1.1,3.4-2.8,3.8c-2,0.5-3.9-0.4-4.8-2.2c-0.9-2-0.9-4,0.3-5.9
		c0.9-1.5,2.4-2.1,4.1-1.8c1.7,0.2,2.7,1.2,3.1,2.8c0.1,0.2,0.1,0.4,0.1,0.6c-0.6,0-1.2,0-1.9,0c-0.2-0.7-0.5-1.2-1.2-1.5
		c-1-0.4-2.1,0-2.6,0.9c-0.7,1.4-0.7,2.8-0.1,4.2c0.4,0.9,1.2,1.3,2.2,1.2c0.8-0.1,1.4-0.7,1.6-1.6C62.5,27.3,62.5,27.2,62.5,27z"/>
	<path class="st7" d="M67,22.9c-0.9,0-1.8,0-2.6,0c0-0.6,0-1.2,0-1.8c2.4,0,4.8,0,7.2,0c0,0.6,0,1.1,0,1.8c-0.9,0-1.7,0-2.6,0
		c0,2.6,0,5.2,0,7.8c-0.7,0-1.3,0-2,0C67,28.1,67,25.5,67,22.9z"/>
	<path class="st4" d="M44.3,28.9c1.5,0,2.8,0,4.3,0c0,0.6,0,1.2,0,1.8c-2.1,0-4.1,0-6.2,0c0-3.2,0-6.4,0-9.6c0.6,0,1.3,0,1.9,0
		C44.3,23.7,44.3,26.2,44.3,28.9z"/>
	<path class="st6" d="M49.8,11.6c-0.8,0-1.5,0-2.3,0c0-0.6,0-1.1,0-1.7c2.2,0,4.3,0,6.5,0c0,0.5,0,1.1,0,1.7c-0.8,0-1.5,0-2.3,0
		c0,2.7,0,5.2,0,7.9c-0.6,0-1.2,0-1.9,0C49.8,16.8,49.8,14.2,49.8,11.6z"/>
	<path class="st5" d="M82.3,30.7c-0.7,0-1.3,0-1.9,0c0-3.2,0-6.4,0-9.6c0.6,0,1.3,0,1.9,0C82.3,24.3,82.3,27.5,82.3,30.7z"/>
	<path class="st8" d="M99.4,19.4c-0.6,0-1.2,0-1.8,0c0-3.2,0-6.3,0-9.5c0.6,0,1.2,0,1.8,0C99.4,13.1,99.4,16.2,99.4,19.4z"/>
	<path class="st3" d="M46.9,19.4c-0.6,0-1.2,0-1.8,0c0-3.2,0-6.3,0-9.5c0.6,0,1.2,0,1.8,0C46.9,13.1,46.9,16.2,46.9,19.4z"/>
	<path class="st5" d="M78.5,9.9c0.6,0,1.2,0,1.8,0c0,3.2,0,6.3,0,9.5c-0.6,0-1.2,0-1.8,0C78.5,16.3,78.5,13.1,78.5,9.9z"/>
	<path class="st0" d="M72.3,15.2c0.8,0,1.6,0,2.5,0c0.7,0,1.3,0.7,1.3,1.3c0,0.7-0.6,1.3-1.4,1.3c-0.8,0-1.6,0-2.4,0
		C72.3,17,72.3,16.1,72.3,15.2z"/>
	<path class="st9" d="M72.3,13.7c0-0.8,0-1.5,0-2.3c0.8,0,1.7,0,2.5,0c0.7,0,1.1,0.6,1,1.2c0,0.6-0.5,1.1-1.2,1.1
		C73.9,13.7,73.1,13.7,72.3,13.7z"/>
	<path class="st9" d="M74.3,25.4c0-0.9,0-1.8,0-2.7c0.8,0,1.6,0,2.4,0c0.7,0.1,1,0.6,1,1.3c0,0.8-0.4,1.2-1.1,1.3
		C75.8,25.4,75.1,25.4,74.3,25.4z"/>
</g>
</svg>
