<?xml version="1.0" encoding="utf-8"?>
<!-- Generator: Adobe Illustrator 19.0.0, SVG Export Plug-In . SVG Version: 6.00 Build 0)  -->
<svg version="1.1" id="Capa_1" xmlns="http://www.w3.org/2000/svg" xmlns:xlink="http://www.w3.org/1999/xlink" x="0px" y="0px"
	 viewBox="0 0 100 33" style="enable-background:new 0 0 100 33;" xml:space="preserve">
<style type="text/css">
	.st0{fill:#FDFDFD;}
	.st1{fill:#FEFEFE;}
	.st2{fill:#E50214;}
	.st3{fill:#020202;}
	.st4{fill:#010101;}
	.st5{fill:#030303;}
	.st6{fill:#E50213;}
	.st7{fill:#070707;}
	.st8{fill:#060606;}
	.st9{fill:#040404;}
	.st10{fill:#050505;}
	.st11{fill:#0A0A0A;}
	.st12{fill:#0D0D0D;}
	.st13{fill:#F4F4F4;}
	.st14{fill:#F2F2F2;}
	.st15{fill:#EDEDED;}
	.st16{fill:#F8F8F8;}
</style>
<g>
	<g>
		<path class="st0" d="M608.4,42.7c30.1,0,60.1,0,90.2,0c0,5.9,0,11.9,0,17.8c-33.3,0-66.7,0-100,0c0-0.2,0-0.5,0-0.7
			c0.1,0,0.3,0,0.4,0c2,0,3.9,0,5.9,0c0.1,0,0.4-0.1,0.4-0.2c1-1.7,2.1-3.5,3.1-5.2c0,0,0-0.1,0-0.2c0-0.1,0-0.1,0-0.2
			c0,0,0,0,0.1,0c0,0,0,0.1,0,0.1c0,0,0.1-0.1,0.1-0.1c1.1-1.8,2.2-3.6,3.2-5.4c0.1-0.1,0-0.3,0-0.4c-1-1.7-2-3.4-3-5.2
			C608.6,42.9,608.5,42.8,608.4,42.7C608.4,42.7,608.4,42.7,608.4,42.7z M630.8,48.4c-0.9,0-1.9,0-2.8,0c-0.3,0-0.4,0.1-0.5,0.3
			c-0.3,0.7-0.7,1.4-1,2.1c-0.4-0.8-0.7-1.4-1-2.1c-0.1-0.1-0.2-0.3-0.2-0.3c-1,0-2,0-3.1,0c-0.3,2.3-0.6,4.5-0.9,6.8c1,0,2,0,3,0
			c0.1-0.9,0.2-1.7,0.3-2.6c0,0,0.1,0,0.1,0c0.6,0.8,1.2,1.7,1.9,2.6c0.7-1,1.3-1.8,1.9-2.7c0.1,1,0.2,1.9,0.3,2.8c1,0,2,0,3.1,0
			C631.4,53,631.1,50.7,630.8,48.4z M693.3,48.4c-1.1,0-2.2,0-3.3,0c0,0.8,0,1.6,0,2.5c-0.6,0-1.2,0-1.8,0c0-0.8,0-1.6,0-2.4
			c-1.1,0-2.2,0-3.3,0c0,2.3,0,4.5,0,6.8c1.1,0,2.2,0,3.3,0c0-0.8,0-1.6,0-2.4c0.6,0,1.2,0,1.8,0c0,0.8,0,1.6,0,2.4
			c1.1,0,2.2,0,3.3,0C693.3,53,693.3,50.7,693.3,48.4z M662.9,55.2c1.2,0,2.5,0,3.7,0c0.9,0,1.8,0,2.7-0.1c0.7-0.1,1.3-0.5,1.5-1.2
			c0.2-0.8,0-1.4-0.6-1.9c-0.1-0.1-0.2-0.2-0.3-0.3c0.1-0.1,0.1-0.1,0.1-0.2c0.5-0.6,0.7-1.2,0.4-1.9c-0.3-0.7-0.9-1.1-1.7-1.2
			c-1.3,0-2.5,0-3.8-0.1c-0.6,0-1.2,0-1.9,0C662.9,50.7,662.9,53,662.9,55.2z M653.3,48.4c0,0.1,0,0.1,0,0.1c0,1.4,0,2.9,0.1,4.3
			c0,0.5,0.2,0.9,0.5,1.2c0.4,0.3,0.9,0.7,1.3,0.9c1.2,0.5,2.4,0.5,3.6,0.3c2.7-0.6,2.9-1.5,2.9-3.4c0-1.1,0-2.3,0-3.4
			c-1.1,0-2.1,0-3.2,0c0,0.1,0,0.3,0,0.4c0,1.3,0,2.5,0,3.8c0,0.1,0,0.3-0.1,0.4c-0.3,0.4-0.8,0.7-1.3,0.6c-0.4-0.1-0.7-0.4-0.7-1
			c-0.1-1.2-0.1-2.5-0.1-3.7c0-0.1,0-0.3,0-0.4C655.4,48.4,654.4,48.4,653.3,48.4z M647.9,50.4c0-0.1,0-0.1,0-0.2
			c0.2,0,0.4-0.1,0.6-0.1c1.1-0.1,2.1,0.3,3,0.7c0.2,0.1,0.3,0.1,0.5,0.2c0-0.6,0-1.2,0-1.7c0-0.1-0.1-0.3-0.2-0.3
			c-1.5-0.6-3-0.8-4.5-0.7c-0.7,0.1-1.4,0.2-1.9,0.7c-1,0.8-1,2.2,0.1,2.9c0.4,0.2,0.8,0.4,1.2,0.6c0.6,0.2,1.3,0.3,1.9,0.5
			c0.1,0,0.2,0.1,0.3,0.2c-0.1,0.1-0.2,0.2-0.3,0.3c-0.1,0-0.2,0-0.3,0c-0.8-0.2-1.5-0.3-2.3-0.5c-0.3-0.1-0.6-0.2-1-0.4
			c0,0.6,0,1.2,0,1.8c0,0.1,0.1,0.2,0.2,0.3c1.7,0.7,3.4,0.9,5.2,0.5c0.3-0.1,0.6-0.2,0.9-0.3c1.4-0.7,1.4-2.4,0.1-3.3
			c-0.8-0.5-1.7-0.7-2.6-0.8C648.5,50.7,648.2,50.5,647.9,50.4z M683.6,51.1c0-0.6,0-1.2,0-1.7c0-0.1-0.1-0.3-0.2-0.3
			c-1.4-0.6-3-0.8-4.5-0.7c-0.7,0.1-1.4,0.2-1.9,0.6c-1,0.8-1,2.2,0,2.9c0.3,0.2,0.7,0.4,1.1,0.6c0.7,0.2,1.4,0.4,2,0.5
			c0.1,0,0.2,0.1,0.3,0.2c-0.1,0.1-0.2,0.3-0.3,0.3c-0.3,0-0.6,0.1-0.9,0c-0.8-0.2-1.5-0.5-2.3-0.7c-0.1,0-0.3-0.1-0.4-0.2
			c0,0.6,0,1.2,0,1.8c0,0.1,0.1,0.2,0.2,0.3c1.6,0.6,3.2,0.9,4.9,0.6c0.5-0.1,0.9-0.2,1.4-0.5c1.2-0.7,1.2-2.3,0.2-3.1
			c-0.3-0.2-0.7-0.4-1.1-0.6c-0.6-0.2-1.3-0.3-1.9-0.5c-0.2-0.1-0.4-0.2-0.6-0.3c0-0.1,0-0.1,0.1-0.2
			C681,49.8,682.3,50.5,683.6,51.1z M608.5,54.2c0,0.1,0.1,0.2,0.1,0.2c1,1.7,2,3.4,3,5.2c0.1,0.2,0.3,0.2,0.5,0.2c2,0,3.9,0,5.9,0
			c0.1,0,0.2,0,0.4,0c-0.1-0.1-0.1-0.2-0.1-0.3c-1-1.7-2-3.4-3-5.1c-0.1-0.2-0.3-0.2-0.4-0.2c-1.2,0-2.4,0-3.6,0
			C610.3,54.2,609.4,54.2,608.5,54.2z M641.9,50.3c0.7,0,1.3,0,1.9,0c0-0.6,0-1.3,0-1.9c-2.3,0-4.6,0-6.9,0c0,0.6,0,1.2,0,1.9
			c0.6,0,1.2,0,1.9,0c0,1.7,0,3.3,0,4.9c1.1,0,2.1,0,3.2,0C641.9,53.6,641.9,52,641.9,50.3z M671.8,48.4c0,2.3,0,4.6,0,6.8
			c1.1,0,2.2,0,3.2,0c0-2.3,0-4.6,0-6.8C673.9,48.4,672.9,48.4,671.8,48.4z M632.7,48.4c0,2.3,0,4.6,0,6.8c1.1,0,2.2,0,3.2,0
			c0-2.3,0-4.6,0-6.8C634.8,48.4,633.8,48.4,632.7,48.4z M697.8,55.2c0-2.3,0-4.6,0-6.8c-1.1,0-2.2,0-3.2,0c0,2.3,0,4.5,0,6.8
			C695.6,55.2,696.7,55.2,697.8,55.2z M648.7,57.8c-0.4-0.5-0.7-0.8-1-1.2c-0.1-0.1-0.2-0.2-0.3-0.2c-0.5,0-1.1,0-1.6,0
			c0,1.1,0,2.3,0,3.4c0.5,0,1,0,1.5,0c0-0.5,0.1-1,0.1-1.6c0.4,0.5,0.7,0.9,1,1.3c0.1,0.1,0.2,0.2,0.3,0.2c0.5,0,1.1,0,1.6,0
			c0-1.2,0-2.3,0-3.4c-0.5,0-1,0-1.5,0C648.8,56.9,648.8,57.3,648.7,57.8z M671.9,58.5c0.3-0.2,0.4-0.2,0.6-0.4
			c0.3-0.2,0.4-0.5,0.4-0.9c-0.1-0.4-0.3-0.7-0.7-0.8c-0.4,0-0.7-0.1-1.1-0.1c-0.8,0-1.5,0-2.3,0c0,1.1,0,2.2,0,3.4c0.5,0,1,0,1.6,0
			c0-0.3,0-0.6,0-1c0,0,0.1,0,0.1,0c0.3,0.3,0.5,0.6,0.8,0.8c0.1,0.1,0.2,0.2,0.3,0.2c0.5,0,1.1,0,1.6,0
			C672.7,59.3,672.3,59,671.9,58.5z M651,59.8c1-0.1,2-0.1,2.9-0.2c0.8-0.1,1.3-0.7,1.3-1.5c0-0.8-0.4-1.5-1.2-1.6
			c-1-0.1-2-0.2-3-0.2c0,0.2,0,0.2,0,0.3C651,57.7,651,58.7,651,59.8z M693.2,59.8c1-0.1,2-0.1,2.9-0.2c0.7-0.1,1.3-0.8,1.3-1.5
			c0-0.8-0.5-1.5-1.2-1.6c-1-0.1-2-0.1-3-0.2C693.2,57.5,693.2,58.6,693.2,59.8z M623.9,58.5c0,0.4,0,0.8,0,1.2c0.5,0,1,0,1.4,0
			c0-1.1,0-2.2,0-3.3c-0.5,0-1,0-1.4,0c0,0.4-0.1,0.8-0.1,1.1c-0.3,0-0.7,0-1,0c0-0.4-0.1-0.8-0.1-1.1c-0.5,0-1,0-1.4,0
			c0,1,0,2.1,0,3.1c0,0.1,0,0.2,0,0.2c0.5,0,0.9,0,1.4,0c0-0.4,0-0.8,0-1.2C623.2,58.5,623.5,58.5,623.9,58.5z M655.8,56.4
			c0,0.8,0,1.6,0,2.3c0,0.4,0.2,0.7,0.6,0.9c0.9,0.4,1.7,0.4,2.6,0c0.4-0.1,0.7-0.4,0.7-0.8c0.1-0.8,0.1-1.6,0.1-2.4
			c-0.5,0-1,0-1.5,0c0,0.1,0,0.1,0,0.2c0,0.6,0,1.2,0,1.8c0,0.4-0.2,0.6-0.5,0.6c-0.4,0-0.5-0.2-0.5-0.6c0-0.6,0-1.3,0-2
			C656.7,56.4,656.3,56.4,655.8,56.4z M662.7,58.8c0,0,0,0.1,0,0.1c-0.7,0.1-1.4,0-2.1-0.4c-0.1,0.9,0,1,0.8,1.2c0,0,0.1,0,0.1,0
			c0.8,0.2,1.5,0.2,2.2-0.2c0.7-0.4,0.8-1.2,0-1.6c-0.3-0.2-0.7-0.3-1.1-0.4c-0.2-0.1-0.4-0.2-0.6-0.3c0.7-0.3,1.3,0,1.9,0.1
			c0.2-0.6,0.1-0.8-0.2-0.9c-0.8-0.2-1.6-0.2-2.5-0.1c-0.5,0.1-0.8,0.4-0.8,0.8c0,0.4,0.2,0.8,0.6,1c0.3,0.1,0.7,0.2,1,0.3
			C662.3,58.6,662.5,58.7,662.7,58.8z M682.8,57.3c0-0.3,0.1-0.7-0.3-0.9c-0.9-0.3-1.8-0.3-2.6,0c-0.4,0.1-0.6,0.4-0.7,0.8
			c0,0.4,0.2,0.7,0.5,0.9c0.3,0.2,0.7,0.3,1.1,0.4c0.2,0.1,0.4,0.1,0.6,0.2c0,0,0,0.1,0,0.1c-0.7,0.3-1.4-0.2-2.1-0.4
			c0.1,0.4-0.1,0.8,0.3,0.9c1,0.4,2,0.5,2.9,0.1c0.4-0.2,0.5-0.5,0.5-0.9c0-0.4-0.2-0.7-0.6-0.8c-0.4-0.1-0.8-0.3-1.3-0.4
			c-0.1,0-0.2-0.1-0.4-0.2c0.2-0.1,0.3-0.1,0.4-0.1C681.6,57.2,682.2,57.2,682.8,57.3z M633.4,59.8c-0.4-1.1-0.8-2.2-1.2-3.2
			c0-0.1-0.2-0.2-0.3-0.2c-0.5,0-1,0-1.5,0c-0.4,1.2-0.8,2.3-1.2,3.4c0.4,0,0.7,0,1,0c0.2,0,0.4,0,0.5-0.3c0.2-0.3,1-0.2,1.2,0
			c0.1,0.1,0.3,0.2,0.4,0.3C632.7,59.8,633,59.8,633.4,59.8z M635.1,58.4c-0.2-0.5-0.3-0.9-0.5-1.3c-0.3-0.8-0.3-0.8-1.1-0.7
			c-0.5,0-0.6,0.1-0.4,0.5c0.3,0.9,0.6,1.8,1,2.7c0,0.1,0.2,0.2,0.3,0.2c0.5,0,0.9,0,1.4,0c0.1,0,0.3-0.1,0.3-0.1
			c0.4-1.1,0.8-2.1,1.2-3.2c-0.4,0-0.8,0-1.2,0c-0.1,0-0.3,0.1-0.3,0.2C635.5,57.2,635.3,57.8,635.1,58.4z M678.5,59.1
			c-0.5,0-1,0-1.4,0c0-0.3,0-0.5,0-0.8c0.3,0,0.5,0,0.8,0c0.2,0,0.4,0,0.4-0.3c0-0.3-0.2-0.3-0.4-0.3c-0.1,0-0.3,0-0.4,0
			c-0.2,0-0.4,0-0.4-0.3c0-0.3,0.2-0.3,0.4-0.3c0.4,0,0.7,0,1.1,0c0-0.3,0-0.5,0-0.7c-1,0-1.9,0-2.9,0c0,1.1,0,2.2,0,3.3
			c1,0,1.9,0,2.9,0C678.5,59.5,678.5,59.3,678.5,59.1z M627.5,58.3c0.3,0,0.6,0,0.9,0c0.2,0,0.4-0.1,0.4-0.3c0-0.3-0.1-0.4-0.3-0.4
			c-0.2,0-0.3,0-0.5,0c-0.2,0-0.4,0-0.4-0.2c0-0.3,0.2-0.3,0.4-0.3c0.4,0,0.7,0,1.1,0c0-0.3,0-0.5,0-0.7c-1,0-1.9,0-2.9,0
			c0,1.1,0,2.2,0,3.3c1,0,1.9,0,2.9,0c0-0.2,0-0.4,0-0.7c-0.5,0-1,0-1.4,0C627.5,58.8,627.5,58.6,627.5,58.3z M640.3,59.8
			c-0.3-1.4,0.8-2.3,1.3-3.3c-1-0.3-1.6,0-1.9,1c0,0-0.1,0.1-0.1,0.2c-0.2-0.4-0.4-0.7-0.6-1c-0.1-0.1-0.2-0.2-0.3-0.2
			c-0.4,0-0.8,0-1.2,0c0.6,1.2,1.6,2,1.3,3.4C639.2,59.8,639.7,59.8,640.3,59.8z M692.5,56.4c-1.2,0-2.3,0-3.5,0
			c0,0.2,0,0.5,0.1,0.6c0.3,0.1,0.6,0.2,0.9,0.2c0,0.8,0,1.7,0,2.5c0.5,0,1,0,1.6,0c0-0.9,0-1.7,0-2.5
			C692.6,57.1,692.6,57.1,692.5,56.4z M665.6,57.2c0,0.9,0,1.7,0,2.5c0.5,0,1,0,1.6,0c0-0.9,0-1.7,0-2.5c1-0.2,1-0.2,1-0.8
			c-1.1,0-2.3,0-3.4,0C664.6,57.1,664.6,57.1,665.6,57.2z M689.1,59c-0.4,0-0.9,0-1.3,0c0-0.9,0-1.7,0-2.6c-0.5,0-1,0-1.5,0
			c0,1.1,0,2.2,0,3.3c1,0,1.9,0,2.9,0C689.1,59.5,689.1,59.2,689.1,59z M645.3,59.8c0-1.1,0-2.2,0-3.4c-0.5,0-1,0-1.5,0
			c0,1.1,0,2.2,0,3.4C644.3,59.8,644.8,59.8,645.3,59.8z M673.5,56.4c0,1.1,0,2.2,0,3.3c0.5,0,1,0,1.4,0c0-1.1,0-2.2,0-3.3
			C674.4,56.4,674,56.4,673.5,56.4z M684.3,59.3c-0.7-0.2-1.1,0.1-1.3,1C683.8,60.4,684,60.2,684.3,59.3z M698.5,59.3
			c0-0.3-0.2-0.5-0.5-0.5c-0.3,0-0.5,0.2-0.5,0.5c0,0.3,0.2,0.6,0.5,0.6C698.3,59.9,698.5,59.6,698.5,59.3z"/>
		<path class="st1" d="M608.4,54c0,0.1,0,0.1,0,0.2c-1.9,0-3.9,0-5.8,0c-0.5,0-0.7,0.2-1,0.6c-1,1.7-2,3.3-3,5c0-5.7,0-11.3,0-17
			c3.3,0,6.6,0,9.8,0c0,0,0,0.1,0,0.1c-0.9,1.5-1.8,3-2.6,4.5c-0.2,0.4-0.6,0.8-0.6,1.1c0,0.4,0.4,0.8,0.6,1.2
			C606.7,51.1,607.5,52.5,608.4,54z"/>
		<path class="st2" d="M598.6,59.7c1-1.7,2-3.3,3-5c0.2-0.4,0.5-0.6,1-0.6c1.9,0,3.9,0,5.8,0c0,0.1,0.1,0.2,0,0.2
			c-1,1.8-2,3.5-3.1,5.2c-0.1,0.1-0.3,0.2-0.4,0.2c-2,0-3.9,0-5.9,0C598.8,59.8,598.7,59.8,598.6,59.7
			C598.6,59.8,598.6,59.7,598.6,59.7z"/>
		<path class="st3" d="M630.8,48.4c0.3,2.3,0.6,4.6,1,6.9c-1,0-2,0-3.1,0c-0.1-0.9-0.2-1.8-0.3-2.8c-0.7,0.9-1.3,1.8-1.9,2.7
			c-0.7-0.9-1.3-1.7-1.9-2.6c0,0-0.1,0-0.1,0c-0.1,0.9-0.2,1.7-0.3,2.6c-1,0-2,0-3,0c0.3-2.3,0.6-4.5,0.9-6.8c1,0,2.1,0,3.1,0
			c0.1,0,0.2,0.2,0.2,0.3c0.3,0.7,0.7,1.4,1,2.1c0.4-0.7,0.7-1.4,1-2.1c0.1-0.2,0.2-0.3,0.5-0.3C628.9,48.4,629.8,48.4,630.8,48.4z"
			/>
		<path class="st3" d="M693.3,48.4c0,2.3,0,4.5,0,6.8c-1.1,0-2.2,0-3.3,0c0-0.8,0-1.6,0-2.4c-0.6,0-1.2,0-1.8,0c0,0.8,0,1.6,0,2.4
			c-1.1,0-2.2,0-3.3,0c0-2.3,0-4.5,0-6.8c1.1,0,2.1,0,3.3,0c0,0.8,0,1.6,0,2.4c0.6,0,1.2,0,1.8,0c0-0.8,0-1.6,0-2.5
			C691.1,48.4,692.2,48.4,693.3,48.4z"/>
		<path class="st4" d="M662.9,55.2c0-2.3,0-4.5,0-6.8c0.6,0,1.3,0,1.9,0c1.3,0,2.5,0,3.8,0.1c0.8,0,1.4,0.4,1.7,1.2
			c0.3,0.7,0.1,1.3-0.4,1.9c0,0-0.1,0.1-0.1,0.2c0.1,0.1,0.2,0.2,0.3,0.3c0.6,0.5,0.8,1.2,0.6,1.9c-0.2,0.8-0.8,1.1-1.5,1.2
			c-0.9,0.1-1.8,0.1-2.7,0.1C665.4,55.2,664.1,55.2,662.9,55.2z M666.3,53.5c0.3,0,0.5,0,0.8,0c0.3,0,0.5-0.2,0.5-0.4
			c0-0.3-0.1-0.5-0.4-0.5c-0.3-0.1-0.6-0.1-0.9-0.1C666.3,52.8,666.3,53.1,666.3,53.5z M666.3,50.9c0.3,0,0.6,0,0.8,0
			c0.3,0,0.5-0.1,0.5-0.4c0-0.3-0.2-0.5-0.5-0.6c-0.3,0-0.5,0-0.8,0C666.3,50.2,666.3,50.5,666.3,50.9z"/>
		<path class="st5" d="M653.3,48.4c1,0,2.1,0,3.1,0c0,0.1,0,0.3,0,0.4c0,1.2,0,2.5,0.1,3.7c0,0.6,0.3,0.9,0.7,1
			c0.5,0.1,1-0.1,1.3-0.6c0.1-0.1,0.1-0.2,0.1-0.4c0-1.3,0-2.5,0-3.8c0-0.1,0-0.3,0-0.4c1.1,0,2.1,0,3.2,0c0,1.1,0,2.3,0,3.4
			c0,1.8-0.2,2.8-2.9,3.4c-1.2,0.3-2.4,0.2-3.6-0.3c-0.5-0.2-0.9-0.6-1.3-0.9c-0.4-0.3-0.5-0.7-0.5-1.2c0-1.4,0-2.9-0.1-4.3
			C653.3,48.5,653.3,48.5,653.3,48.4z"/>
		<path class="st3" d="M647.9,50.4c0.3,0.1,0.6,0.2,0.9,0.3c0.9,0.2,1.8,0.3,2.6,0.8c1.3,0.8,1.2,2.6-0.1,3.3
			c-0.3,0.1-0.6,0.3-0.9,0.3c-1.8,0.3-3.5,0.1-5.2-0.5c-0.1,0-0.2-0.2-0.2-0.3c0-0.6,0-1.2,0-1.8c0.4,0.1,0.7,0.3,1,0.4
			c0.8,0.2,1.5,0.4,2.3,0.5c0.1,0,0.2,0,0.3,0c0.1-0.1,0.2-0.2,0.3-0.3c-0.1-0.1-0.2-0.2-0.3-0.2c-0.6-0.2-1.3-0.3-1.9-0.5
			c-0.4-0.1-0.8-0.3-1.2-0.6c-1.1-0.7-1.1-2.1-0.1-2.9c0.6-0.4,1.2-0.6,1.9-0.7c1.6-0.1,3.1,0.1,4.5,0.7c0.1,0,0.2,0.2,0.2,0.3
			c0,0.6,0,1.1,0,1.7c-0.2-0.1-0.4-0.2-0.5-0.2c-1-0.4-1.9-0.8-3-0.7c-0.2,0-0.4,0.1-0.6,0.1C647.9,50.3,647.9,50.4,647.9,50.4z"/>
		<path class="st3" d="M683.6,51.1c-1.4-0.6-2.7-1.2-4.1-0.9c0,0.1,0,0.1-0.1,0.2c0.2,0.1,0.4,0.2,0.6,0.3c0.6,0.2,1.3,0.3,1.9,0.5
			c0.4,0.1,0.8,0.3,1.1,0.6c1.1,0.8,1,2.4-0.2,3.1c-0.4,0.2-0.9,0.4-1.4,0.5c-1.7,0.3-3.3,0-4.9-0.6c-0.1,0-0.2-0.2-0.2-0.3
			c0-0.6,0-1.2,0-1.8c0.2,0.1,0.3,0.1,0.4,0.2c0.8,0.2,1.5,0.5,2.3,0.7c0.3,0.1,0.6,0.1,0.9,0c0.1,0,0.2-0.2,0.3-0.3
			c-0.1-0.1-0.2-0.2-0.3-0.2c-0.7-0.2-1.4-0.3-2-0.5c-0.4-0.1-0.8-0.3-1.1-0.6c-1-0.7-1-2.1,0-2.9c0.6-0.4,1.2-0.6,1.9-0.6
			c1.6-0.1,3.1,0.1,4.5,0.7c0.1,0,0.2,0.2,0.2,0.3C683.6,49.9,683.6,50.4,683.6,51.1z"/>
		<path class="st6" d="M608.4,54c-0.9-1.5-1.7-2.9-2.6-4.4c-0.2-0.4-0.6-0.8-0.6-1.2c0-0.4,0.4-0.8,0.6-1.1c0.9-1.5,1.8-3,2.6-4.5
			c0.1,0.1,0.2,0.1,0.3,0.2c1,1.7,2,3.4,3,5.2c0.1,0.1,0.1,0.3,0,0.4c-1.1,1.8-2.1,3.6-3.2,5.4C608.5,54,608.5,54,608.4,54
			C608.4,54,608.4,54,608.4,54z"/>
		<path class="st2" d="M608.5,54.2c0.9,0,1.8,0,2.7,0c1.2,0,2.4,0,3.6,0c0.2,0,0.3,0,0.4,0.2c1,1.7,2,3.4,3,5.1
			c0,0.1,0.1,0.1,0.1,0.3c-0.2,0-0.3,0-0.4,0c-2,0-3.9,0-5.9,0c-0.2,0-0.4,0-0.5-0.2c-1-1.7-2-3.5-3-5.2
			C608.6,54.3,608.6,54.3,608.5,54.2z"/>
		<path class="st5" d="M641.9,50.3c0,1.7,0,3.3,0,4.9c-1.1,0-2.1,0-3.2,0c0-1.6,0-3.3,0-4.9c-0.6,0-1.2,0-1.9,0c0-0.7,0-1.3,0-1.9
			c2.3,0,4.6,0,6.9,0c0,0.6,0,1.2,0,1.9C643.2,50.3,642.6,50.3,641.9,50.3z"/>
		<path class="st4" d="M671.8,48.4c1.1,0,2.1,0,3.2,0c0,2.3,0,4.5,0,6.8c-1.1,0-2.1,0-3.2,0C671.8,53,671.8,50.7,671.8,48.4z"/>
		<path class="st5" d="M632.7,48.4c1.1,0,2.1,0,3.2,0c0,2.3,0,4.6,0,6.8c-1.1,0-2.1,0-3.2,0C632.7,53,632.7,50.7,632.7,48.4z"/>
		<path d="M697.8,55.2c-1.1,0-2.2,0-3.2,0c0-2.3,0-4.5,0-6.8c1.1,0,2.1,0,3.2,0C697.8,50.7,697.8,52.9,697.8,55.2z"/>
		<path class="st7" d="M648.7,57.8c0-0.5,0.1-1,0.1-1.4c0.5,0,1,0,1.5,0c0,1.1,0,2.2,0,3.4c-0.5,0-1,0-1.6,0c-0.1,0-0.2-0.1-0.3-0.2
			c-0.3-0.4-0.6-0.8-1-1.3c0,0.6-0.1,1.1-0.1,1.6c-0.5,0-1,0-1.5,0c0-1.1,0-2.2,0-3.4c0.5,0,1.1,0,1.6,0c0.1,0,0.2,0.1,0.3,0.2
			C648.1,57,648.4,57.4,648.7,57.8z"/>
		<path class="st8" d="M671.9,58.5c0.4,0.4,0.8,0.8,1.3,1.2c-0.6,0-1.1,0-1.6,0c-0.1,0-0.2-0.1-0.3-0.2c-0.3-0.3-0.5-0.6-0.8-0.8
			c0,0-0.1,0-0.1,0c0,0.3,0,0.6,0,1c-0.5,0-1,0-1.6,0c0-1.1,0-2.2,0-3.4c0.8,0,1.5,0,2.3,0c0.4,0,0.7,0.1,1.1,0.1
			c0.4,0.1,0.6,0.4,0.7,0.8c0.1,0.4-0.1,0.7-0.4,0.9C672.3,58.3,672.1,58.4,671.9,58.5z M670.3,57.4c0,0.2-0.1,0.4,0.3,0.4
			c0.4,0,0.7-0.2,0.7-0.4c0-0.3-0.3-0.4-0.6-0.4C670.4,57,670.3,57.1,670.3,57.4z"/>
		<path class="st9" d="M651,59.8c0-1.1,0-2.2,0-3.2c0-0.1,0-0.2,0-0.3c1,0.1,2,0.1,3,0.2c0.8,0.1,1.2,0.8,1.2,1.6
			c0,0.8-0.5,1.4-1.3,1.5C653,59.7,652.1,59.8,651,59.8z M652.5,58C652.5,58,652.5,58,652.5,58c0,0.2,0,0.4,0,0.5
			c0,0.1,0.1,0.2,0.2,0.2c0.3,0,0.7-0.2,0.8-0.6c0.1-0.3,0-0.7-0.3-0.9c-0.4-0.3-0.7-0.1-0.7,0.4C652.5,57.8,652.5,57.9,652.5,58z"
			/>
		<path class="st9" d="M693.2,59.8c0-1.2,0-2.3,0-3.5c1,0.1,2,0.1,3,0.2c0.7,0.1,1.3,0.8,1.2,1.6c0,0.8-0.5,1.5-1.3,1.5
			C695.2,59.7,694.2,59.8,693.2,59.8z M694.7,57.3c0,0.4,0,0.8,0,1.2c0,0.1,0.1,0.3,0.2,0.3c0.4,0.1,0.8-0.4,0.9-0.7
			c0-0.4-0.3-0.7-0.7-0.8C695,57.3,694.8,57.3,694.7,57.3z"/>
		<path class="st7" d="M623.9,58.5c-0.4,0-0.7,0-1.1,0c0,0.4,0,0.8,0,1.2c-0.5,0-1,0-1.4,0c0-0.1,0-0.2,0-0.2c0-1,0-2.1,0-3.1
			c0.5,0,0.9,0,1.4,0c0,0.4,0.1,0.7,0.1,1.1c0.3,0,0.6,0,1,0c0-0.4,0.1-0.7,0.1-1.1c0.5,0,0.9,0,1.4,0c0,1.1,0,2.2,0,3.3
			c-0.5,0-0.9,0-1.4,0C623.9,59.4,623.9,59,623.9,58.5z"/>
		<path class="st8" d="M655.8,56.4c0.4,0,0.9,0,1.5,0c0,0.7,0,1.3,0,2c0,0.4,0.1,0.6,0.5,0.6c0.3,0,0.5-0.2,0.5-0.6
			c0-0.6,0-1.2,0-1.8c0,0,0-0.1,0-0.2c0.5,0,0.9,0,1.5,0c0,0.8,0,1.6-0.1,2.4c0,0.4-0.3,0.7-0.7,0.8c-0.9,0.4-1.7,0.3-2.6,0
			c-0.4-0.2-0.6-0.5-0.6-0.9C655.8,58,655.8,57.2,655.8,56.4z"/>
		<path class="st10" d="M662.7,58.8c-0.2-0.1-0.4-0.2-0.6-0.2c-0.3-0.1-0.7-0.2-1-0.3c-0.5-0.2-0.7-0.6-0.6-1c0-0.4,0.3-0.7,0.8-0.8
			c0.8-0.2,1.7-0.1,2.5,0.1c0.3,0.1,0.4,0.3,0.2,0.9c-0.6-0.1-1.2-0.4-1.9-0.1c0.2,0.1,0.4,0.2,0.6,0.3c0.4,0.1,0.8,0.2,1.1,0.4
			c0.7,0.4,0.7,1.2,0,1.6c-0.7,0.4-1.5,0.4-2.2,0.2c0,0-0.1,0-0.1,0c-0.8-0.2-0.9-0.3-0.8-1.2c0.7,0.3,1.3,0.5,2.1,0.4
			C662.6,58.9,662.6,58.8,662.7,58.8z"/>
		<path class="st8" d="M682.8,57.3c-0.6-0.1-1.2-0.2-1.7-0.3c-0.1,0-0.2,0.1-0.4,0.1c0.2,0.1,0.3,0.2,0.4,0.2
			c0.4,0.1,0.8,0.3,1.3,0.4c0.4,0.1,0.5,0.4,0.6,0.8c0,0.4-0.2,0.7-0.5,0.9c-1,0.5-2,0.3-2.9-0.1c-0.4-0.2-0.2-0.6-0.3-0.9
			c0.7,0.2,1.4,0.6,2.1,0.4c0,0,0-0.1,0-0.1c-0.2-0.1-0.4-0.1-0.6-0.2c-0.4-0.1-0.7-0.2-1.1-0.4c-0.4-0.2-0.6-0.5-0.5-0.9
			c0-0.4,0.3-0.7,0.7-0.8c0.9-0.3,1.8-0.3,2.6,0C682.9,56.6,682.8,57,682.8,57.3z"/>
		<path class="st10" d="M633.4,59.8c-0.4,0-0.7,0-1.1,0c-0.2,0-0.3-0.1-0.4-0.3c-0.2-0.2-1-0.3-1.2,0c-0.1,0.2-0.3,0.3-0.5,0.3
			c-0.3,0-0.6,0-1,0c0.4-1.1,0.8-2.2,1.2-3.4c0.5,0,1,0,1.5,0c0.1,0,0.3,0.1,0.3,0.2C632.6,57.6,633,58.6,633.4,59.8z M631.6,58.7
			c-0.1-0.4-0.2-0.8-0.3-1.2c0,0-0.1,0-0.1,0c-0.1,0.4-0.2,0.7-0.3,1.2C631.2,58.7,631.4,58.7,631.6,58.7z"/>
		<path class="st8" d="M635.1,58.4c0.2-0.7,0.4-1.2,0.6-1.8c0-0.1,0.2-0.2,0.3-0.2c0.4,0,0.8,0,1.2,0c-0.4,1.1-0.8,2.1-1.2,3.2
			c0,0.1-0.2,0.1-0.3,0.1c-0.5,0-0.9,0-1.4,0c-0.1,0-0.3-0.1-0.3-0.2c-0.3-0.9-0.7-1.8-1-2.7c-0.2-0.4-0.1-0.5,0.4-0.5
			c0.8,0,0.8,0,1.1,0.7C634.7,57.5,634.9,57.9,635.1,58.4z"/>
		<path class="st11" d="M678.5,59.1c0,0.2,0,0.4,0,0.7c-1,0-1.9,0-2.9,0c0-1.1,0-2.2,0-3.3c1,0,1.9,0,2.9,0c0,0.2,0,0.4,0,0.7
			c-0.4,0-0.7,0-1.1,0c-0.2,0-0.4,0-0.4,0.3c0,0.3,0.2,0.3,0.4,0.3c0.1,0,0.3,0,0.4,0c0.2,0,0.4,0,0.4,0.3c0,0.3-0.2,0.4-0.4,0.3
			c-0.3,0-0.5,0-0.8,0c0,0.3,0,0.5,0,0.8C677.6,59.1,678,59.1,678.5,59.1z"/>
		<path class="st11" d="M627.5,58.3c0,0.3,0,0.5,0,0.8c0.5,0,0.9,0,1.4,0c0,0.2,0,0.4,0,0.7c-1,0-1.9,0-2.9,0c0-1.1,0-2.2,0-3.3
			c1,0,1.9,0,2.9,0c0,0.2,0,0.4,0,0.7c-0.3,0-0.7,0-1.1,0c-0.2,0-0.4,0-0.4,0.3c0,0.3,0.2,0.2,0.4,0.2c0.2,0,0.3,0,0.5,0
			c0.2,0,0.3,0.1,0.3,0.4c0,0.3-0.1,0.3-0.4,0.3C628.1,58.3,627.8,58.3,627.5,58.3z"/>
		<path class="st7" d="M640.3,59.8c-0.6,0-1.1,0-1.6,0c0.3-1.3-0.7-2.2-1.3-3.4c0.4,0,0.8,0,1.2,0c0.1,0,0.2,0.1,0.3,0.2
			c0.2,0.3,0.4,0.7,0.6,1c0-0.1,0.1-0.1,0.1-0.2c0.3-1,0.9-1.3,1.9-1C641,57.5,640,58.3,640.3,59.8z"/>
		<path class="st7" d="M692.5,56.4c0.1,0.7,0.1,0.7-0.9,0.8c0,0.8,0,1.7,0,2.5c-0.5,0-1,0-1.6,0c0-0.9,0-1.7,0-2.5
			c-0.3-0.1-0.7-0.1-0.9-0.2c-0.1-0.1-0.1-0.4-0.1-0.6C690.2,56.4,691.3,56.4,692.5,56.4z"/>
		<path class="st7" d="M665.6,57.2c-1-0.1-1-0.1-0.9-0.8c1.1,0,2.3,0,3.4,0c0,0.6,0,0.6-1,0.8c0,0.8,0,1.7,0,2.5c-0.5,0-1,0-1.6,0
			C665.6,58.9,665.6,58.1,665.6,57.2z"/>
		<path class="st8" d="M689.1,59c0,0.3,0,0.5,0,0.8c-1,0-1.9,0-2.9,0c0-1.1,0-2.2,0-3.3c0.5,0,1,0,1.5,0c0,0.9,0,1.7,0,2.6
			C688.3,59,688.7,59,689.1,59z"/>
		<path class="st10" d="M645.3,59.8c-0.5,0-1,0-1.5,0c0-1.1,0-2.2,0-3.4c0.5,0,1,0,1.5,0C645.3,57.5,645.3,58.6,645.3,59.8z"/>
		<path class="st7" d="M673.5,56.4c0.5,0,0.9,0,1.4,0c0,1.1,0,2.2,0,3.3c-0.5,0-0.9,0-1.4,0C673.5,58.6,673.5,57.5,673.5,56.4z"/>
		<path class="st12" d="M684.3,59.3c-0.3,0.9-0.5,1.1-1.3,1C683.2,59.3,683.6,59,684.3,59.3z"/>
		<path class="st8" d="M698.5,59.3c0,0.3-0.2,0.6-0.5,0.6c-0.3,0-0.5-0.2-0.5-0.6c0-0.3,0.2-0.5,0.5-0.5
			C698.3,58.8,698.5,59,698.5,59.3z"/>
		<path class="st2" d="M608.4,54c0,0,0.1,0,0.1,0C608.5,54,608.5,54.1,608.4,54C608.5,54.1,608.4,54,608.4,54z"/>
		<path class="st13" d="M666.3,53.5c0-0.4,0-0.7,0-1c0.3,0,0.6,0,0.9,0.1c0.2,0.1,0.4,0.2,0.4,0.5c0,0.3-0.2,0.4-0.5,0.4
			C666.8,53.5,666.6,53.5,666.3,53.5z"/>
		<path class="st14" d="M666.3,50.9c0-0.3,0-0.7,0-1c0.3,0,0.6,0,0.8,0c0.3,0,0.5,0.3,0.5,0.6c0,0.3-0.2,0.4-0.5,0.4
			C666.8,50.9,666.6,50.9,666.3,50.9z"/>
		<path class="st15" d="M670.3,57.4c0-0.3,0.1-0.4,0.4-0.4c0.3,0,0.5,0.1,0.6,0.4c0,0.2-0.3,0.4-0.7,0.4
			C670.3,57.9,670.3,57.6,670.3,57.4z"/>
		<path class="st16" d="M652.5,58c0-0.1,0-0.2,0-0.3c0-0.5,0.3-0.6,0.7-0.4c0.3,0.2,0.4,0.5,0.3,0.9c-0.1,0.3-0.5,0.6-0.8,0.6
			c-0.1,0-0.2-0.1-0.2-0.2C652.5,58.4,652.5,58.2,652.5,58C652.5,58,652.5,58,652.5,58z"/>
		<path class="st16" d="M694.7,57.3c0.1,0,0.3,0,0.4,0c0.4,0,0.7,0.4,0.7,0.8c0,0.4-0.5,0.8-0.9,0.7c-0.1,0-0.2-0.2-0.2-0.3
			C694.7,58.1,694.7,57.7,694.7,57.3z"/>
		<path class="st15" d="M631.6,58.7c-0.3,0-0.4,0-0.7,0c0.1-0.4,0.2-0.8,0.3-1.2c0,0,0.1,0,0.1,0C631.4,57.9,631.5,58.3,631.6,58.7z
			"/>
	</g>
</g>
<g>
	<g>
		<path class="st0" d="M9.9,7.7c30.1,0,60.1,0,90.2,0c0,5.9,0,11.9,0,17.8c-33.3,0-66.7,0-100,0c0-0.2,0-0.5,0-0.7
			c0.1,0,0.3,0,0.4,0c2,0,3.9,0,5.9,0c0.1,0,0.4-0.1,0.4-0.2c1-1.7,2.1-3.5,3.1-5.2c0,0,0-0.1,0-0.2c0-0.1,0-0.1,0-0.2
			c0,0,0,0,0.1,0c0,0,0,0.1,0,0.1c0,0,0.1-0.1,0.1-0.1c1.1-1.8,2.2-3.6,3.2-5.4c0.1-0.1,0-0.3,0-0.4c-1-1.7-2-3.4-3-5.2
			C10.1,7.9,10,7.9,9.9,7.7C9.9,7.8,9.9,7.7,9.9,7.7z M32.3,13.4c-0.9,0-1.9,0-2.8,0c-0.3,0-0.4,0.1-0.5,0.3c-0.3,0.7-0.7,1.4-1,2.1
			c-0.4-0.8-0.7-1.4-1-2.1c-0.1-0.1-0.2-0.3-0.2-0.3c-1,0-2,0-3.1,0c-0.3,2.3-0.6,4.5-0.9,6.8c1,0,2,0,3,0c0.1-0.9,0.2-1.7,0.3-2.6
			c0,0,0.1,0,0.1,0c0.6,0.8,1.2,1.7,1.9,2.6c0.7-1,1.3-1.8,1.9-2.7c0.1,1,0.2,1.9,0.3,2.8c1,0,2,0,3.1,0
			C32.9,18,32.6,15.7,32.3,13.4z M94.8,13.4c-1.1,0-2.2,0-3.3,0c0,0.8,0,1.6,0,2.5c-0.6,0-1.2,0-1.8,0c0-0.8,0-1.6,0-2.4
			c-1.1,0-2.2,0-3.3,0c0,2.3,0,4.5,0,6.8c1.1,0,2.2,0,3.3,0c0-0.8,0-1.6,0-2.4c0.6,0,1.2,0,1.8,0c0,0.8,0,1.6,0,2.4
			c1.1,0,2.2,0,3.3,0C94.8,18,94.8,15.7,94.8,13.4z M64.4,20.3c1.2,0,2.5,0,3.7,0c0.9,0,1.8,0,2.7-0.1c0.7-0.1,1.3-0.5,1.5-1.2
			c0.2-0.8,0-1.4-0.6-1.9c-0.1-0.1-0.2-0.2-0.3-0.3c0.1-0.1,0.1-0.1,0.1-0.2c0.5-0.6,0.7-1.2,0.4-1.9c-0.3-0.7-0.9-1.1-1.7-1.2
			c-1.3,0-2.5,0-3.8-0.1c-0.6,0-1.2,0-1.9,0C64.4,15.7,64.4,18,64.4,20.3z M54.8,13.4c0,0.1,0,0.1,0,0.1c0,1.4,0,2.9,0.1,4.3
			c0,0.5,0.2,0.9,0.5,1.2c0.4,0.3,0.9,0.7,1.3,0.9c1.2,0.5,2.4,0.5,3.6,0.3c2.7-0.6,2.9-1.5,2.9-3.4c0-1.1,0-2.3,0-3.4
			c-1.1,0-2.1,0-3.2,0c0,0.1,0,0.3,0,0.4c0,1.3,0,2.5,0,3.8c0,0.1,0,0.3-0.1,0.4c-0.3,0.4-0.8,0.7-1.3,0.6c-0.4-0.1-0.7-0.4-0.7-1
			C58,16.3,58,15.1,58,13.8c0-0.1,0-0.3,0-0.4C56.9,13.4,55.9,13.4,54.8,13.4z M49.4,15.5c0-0.1,0-0.1,0-0.2c0.2,0,0.4-0.1,0.6-0.1
			c1.1-0.1,2.1,0.3,3,0.7c0.2,0.1,0.3,0.1,0.5,0.2c0-0.6,0-1.2,0-1.7c0-0.1-0.1-0.3-0.2-0.3c-1.5-0.6-3-0.8-4.5-0.7
			c-0.7,0.1-1.4,0.2-1.9,0.7c-1,0.8-1,2.2,0.1,2.9c0.4,0.2,0.8,0.4,1.2,0.6c0.6,0.2,1.3,0.3,1.9,0.5c0.1,0,0.2,0.1,0.3,0.2
			c-0.1,0.1-0.2,0.2-0.3,0.3c-0.1,0-0.2,0-0.3,0c-0.8-0.2-1.5-0.3-2.3-0.5c-0.3-0.1-0.6-0.2-1-0.4c0,0.6,0,1.2,0,1.8
			c0,0.1,0.1,0.2,0.2,0.3c1.7,0.7,3.4,0.9,5.2,0.5c0.3-0.1,0.6-0.2,0.9-0.3c1.4-0.7,1.4-2.4,0.1-3.3c-0.8-0.5-1.7-0.7-2.6-0.8
			C50,15.7,49.7,15.6,49.4,15.5z M85.1,16.1c0-0.6,0-1.2,0-1.7c0-0.1-0.1-0.3-0.2-0.3c-1.4-0.6-3-0.8-4.5-0.7
			c-0.7,0.1-1.4,0.2-1.9,0.6c-1,0.8-1,2.2,0,2.9c0.3,0.2,0.7,0.4,1.1,0.6c0.7,0.2,1.4,0.4,2,0.5c0.1,0,0.2,0.1,0.3,0.2
			c-0.1,0.1-0.2,0.3-0.3,0.3c-0.3,0-0.6,0.1-0.9,0c-0.8-0.2-1.5-0.5-2.3-0.7c-0.1,0-0.3-0.1-0.4-0.2c0,0.6,0,1.2,0,1.8
			c0,0.1,0.1,0.2,0.2,0.3c1.6,0.6,3.2,0.9,4.9,0.6c0.5-0.1,0.9-0.2,1.4-0.5c1.2-0.7,1.2-2.3,0.2-3.1c-0.3-0.2-0.7-0.4-1.1-0.6
			c-0.6-0.2-1.3-0.3-1.9-0.5c-0.2-0.1-0.4-0.2-0.6-0.3c0-0.1,0-0.1,0.1-0.2C82.5,14.9,83.8,15.5,85.1,16.1z M10,19.2
			c0,0.1,0.1,0.2,0.1,0.2c1,1.7,2,3.4,3,5.2c0.1,0.2,0.3,0.2,0.5,0.2c2,0,3.9,0,5.9,0c0.1,0,0.2,0,0.4,0c-0.1-0.1-0.1-0.2-0.1-0.3
			c-1-1.7-2-3.4-3-5.1c-0.1-0.2-0.3-0.2-0.4-0.2c-1.2,0-2.4,0-3.6,0C11.8,19.2,10.9,19.2,10,19.2z M43.4,15.3c0.7,0,1.3,0,1.9,0
			c0-0.6,0-1.3,0-1.9c-2.3,0-4.6,0-6.9,0c0,0.6,0,1.2,0,1.9c0.6,0,1.2,0,1.9,0c0,1.7,0,3.3,0,4.9c1.1,0,2.1,0,3.2,0
			C43.4,18.6,43.4,17,43.4,15.3z M73.3,13.4c0,2.3,0,4.6,0,6.8c1.1,0,2.2,0,3.2,0c0-2.3,0-4.6,0-6.8C75.4,13.4,74.4,13.4,73.3,13.4z
			 M34.2,13.4c0,2.3,0,4.6,0,6.8c1.1,0,2.2,0,3.2,0c0-2.3,0-4.6,0-6.8C36.3,13.4,35.3,13.4,34.2,13.4z M99.3,20.3c0-2.3,0-4.6,0-6.8
			c-1.1,0-2.2,0-3.2,0c0,2.3,0,4.5,0,6.8C97.1,20.3,98.2,20.3,99.3,20.3z M50.2,22.8c-0.4-0.5-0.7-0.8-1-1.2
			c-0.1-0.1-0.2-0.2-0.3-0.2c-0.5,0-1.1,0-1.6,0c0,1.1,0,2.3,0,3.4c0.5,0,1,0,1.5,0c0-0.5,0.1-1,0.1-1.6c0.4,0.5,0.7,0.9,1,1.3
			c0.1,0.1,0.2,0.2,0.3,0.2c0.5,0,1.1,0,1.6,0c0-1.2,0-2.3,0-3.4c-0.5,0-1,0-1.5,0C50.3,21.9,50.3,22.3,50.2,22.8z M73.4,23.6
			c0.3-0.2,0.4-0.2,0.6-0.4c0.3-0.2,0.4-0.5,0.4-0.9c-0.1-0.4-0.3-0.7-0.7-0.8c-0.4,0-0.7-0.1-1.1-0.1c-0.8,0-1.5,0-2.3,0
			c0,1.1,0,2.2,0,3.4c0.5,0,1,0,1.6,0c0-0.3,0-0.6,0-1c0,0,0.1,0,0.1,0c0.3,0.3,0.5,0.6,0.8,0.8c0.1,0.1,0.2,0.2,0.3,0.2
			c0.5,0,1.1,0,1.6,0C74.2,24.4,73.8,24,73.4,23.6z M52.5,24.9c1-0.1,2-0.1,2.9-0.2c0.8-0.1,1.3-0.7,1.3-1.5c0-0.8-0.4-1.5-1.2-1.6
			c-1-0.1-2-0.2-3-0.2c0,0.2,0,0.2,0,0.3C52.5,22.7,52.5,23.7,52.5,24.9z M94.7,24.9c1-0.1,2-0.1,2.9-0.2c0.7-0.1,1.3-0.8,1.3-1.5
			c0-0.8-0.5-1.5-1.2-1.6c-1-0.1-2-0.1-3-0.2C94.7,22.5,94.7,23.6,94.7,24.9z M25.4,23.6c0,0.4,0,0.8,0,1.2c0.5,0,1,0,1.4,0
			c0-1.1,0-2.2,0-3.3c-0.5,0-1,0-1.4,0c0,0.4-0.1,0.8-0.1,1.1c-0.3,0-0.7,0-1,0c0-0.4-0.1-0.8-0.1-1.1c-0.5,0-1,0-1.4,0
			c0,1,0,2.1,0,3.1c0,0.1,0,0.2,0,0.2c0.5,0,0.9,0,1.4,0c0-0.4,0-0.8,0-1.2C24.7,23.6,25,23.6,25.4,23.6z M57.3,21.4
			c0,0.8,0,1.6,0,2.3c0,0.4,0.2,0.7,0.6,0.9c0.9,0.4,1.7,0.4,2.6,0c0.4-0.1,0.7-0.4,0.7-0.8c0.1-0.8,0.1-1.6,0.1-2.4
			c-0.5,0-1,0-1.5,0c0,0.1,0,0.1,0,0.2c0,0.6,0,1.2,0,1.8c0,0.4-0.2,0.6-0.5,0.6c-0.4,0-0.5-0.2-0.5-0.6c0-0.6,0-1.3,0-2
			C58.2,21.4,57.8,21.4,57.3,21.4z M64.2,23.8c0,0,0,0.1,0,0.1c-0.7,0.1-1.4,0-2.1-0.4c-0.1,0.9,0,1,0.8,1.2c0,0,0.1,0,0.1,0
			c0.8,0.2,1.5,0.2,2.2-0.2c0.7-0.4,0.8-1.2,0-1.6c-0.3-0.2-0.7-0.3-1.1-0.4c-0.2-0.1-0.4-0.2-0.6-0.3c0.7-0.3,1.3,0,1.9,0.1
			c0.2-0.6,0.1-0.8-0.2-0.9c-0.8-0.2-1.6-0.2-2.5-0.1c-0.5,0.1-0.8,0.4-0.8,0.8c0,0.4,0.2,0.8,0.6,1c0.3,0.1,0.7,0.2,1,0.3
			C63.8,23.6,64,23.7,64.2,23.8z M84.3,22.4c0-0.3,0.1-0.7-0.3-0.9c-0.9-0.3-1.8-0.3-2.6,0c-0.4,0.1-0.6,0.4-0.7,0.8
			c0,0.4,0.2,0.7,0.5,0.9c0.3,0.2,0.7,0.3,1.1,0.4c0.2,0.1,0.4,0.1,0.6,0.2c0,0,0,0.1,0,0.1c-0.7,0.3-1.4-0.2-2.1-0.4
			c0.1,0.4-0.1,0.8,0.3,0.9c1,0.4,2,0.5,2.9,0.1c0.4-0.2,0.5-0.5,0.5-0.9c0-0.4-0.2-0.7-0.6-0.8c-0.4-0.1-0.8-0.3-1.3-0.4
			c-0.1,0-0.2-0.1-0.4-0.2c0.2-0.1,0.3-0.1,0.4-0.1C83.1,22.2,83.7,22.3,84.3,22.4z M34.9,24.8c-0.4-1.1-0.8-2.2-1.2-3.2
			c0-0.1-0.2-0.2-0.3-0.2c-0.5,0-1,0-1.5,0c-0.4,1.2-0.8,2.3-1.2,3.4c0.4,0,0.7,0,1,0c0.2,0,0.4,0,0.5-0.3c0.2-0.3,1-0.2,1.2,0
			c0.1,0.1,0.3,0.2,0.4,0.3C34.2,24.8,34.5,24.8,34.9,24.8z M36.6,23.5c-0.2-0.5-0.3-0.9-0.5-1.3c-0.3-0.8-0.3-0.8-1.1-0.7
			c-0.5,0-0.6,0.1-0.4,0.5c0.3,0.9,0.6,1.8,1,2.7c0,0.1,0.2,0.2,0.3,0.2c0.5,0,0.9,0,1.4,0c0.1,0,0.3-0.1,0.3-0.1
			c0.4-1.1,0.8-2.1,1.2-3.2c-0.4,0-0.8,0-1.2,0c-0.1,0-0.3,0.1-0.3,0.2C37,22.2,36.8,22.8,36.6,23.5z M80,24.1c-0.5,0-1,0-1.4,0
			c0-0.3,0-0.5,0-0.8c0.3,0,0.5,0,0.8,0c0.2,0,0.4,0,0.4-0.3c0-0.3-0.2-0.3-0.4-0.3c-0.1,0-0.3,0-0.4,0c-0.2,0-0.4,0-0.4-0.3
			c0-0.3,0.2-0.3,0.4-0.3c0.4,0,0.7,0,1.1,0c0-0.3,0-0.5,0-0.7c-1,0-1.9,0-2.9,0c0,1.1,0,2.2,0,3.3c1,0,1.9,0,2.9,0
			C80,24.5,80,24.3,80,24.1z M29,23.3c0.3,0,0.6,0,0.9,0c0.2,0,0.4-0.1,0.4-0.3c0-0.3-0.1-0.4-0.3-0.4c-0.2,0-0.3,0-0.5,0
			c-0.2,0-0.4,0-0.4-0.2c0-0.3,0.2-0.3,0.4-0.3c0.4,0,0.7,0,1.1,0c0-0.3,0-0.5,0-0.7c-1,0-1.9,0-2.9,0c0,1.1,0,2.2,0,3.3
			c1,0,1.9,0,2.9,0c0-0.2,0-0.4,0-0.7c-0.5,0-1,0-1.4,0C29,23.9,29,23.6,29,23.3z M41.8,24.8c-0.3-1.4,0.8-2.3,1.3-3.3
			c-1-0.3-1.6,0-1.9,1c0,0-0.1,0.1-0.1,0.2c-0.2-0.4-0.4-0.7-0.6-1c-0.1-0.1-0.2-0.2-0.3-0.2c-0.4,0-0.8,0-1.2,0
			c0.6,1.2,1.6,2,1.3,3.4C40.7,24.8,41.2,24.8,41.8,24.8z M94,21.4c-1.2,0-2.3,0-3.5,0c0,0.2,0,0.5,0.1,0.6c0.3,0.1,0.6,0.2,0.9,0.2
			c0,0.8,0,1.7,0,2.5c0.5,0,1,0,1.6,0c0-0.9,0-1.7,0-2.5C94.1,22.1,94.1,22.1,94,21.4z M67.1,22.2c0,0.9,0,1.7,0,2.5
			c0.5,0,1,0,1.6,0c0-0.9,0-1.7,0-2.5c1-0.2,1-0.2,1-0.8c-1.1,0-2.3,0-3.4,0C66.1,22.1,66.1,22.1,67.1,22.2z M90.6,24
			c-0.4,0-0.9,0-1.3,0c0-0.9,0-1.7,0-2.6c-0.5,0-1,0-1.5,0c0,1.1,0,2.2,0,3.3c1,0,1.9,0,2.9,0C90.6,24.5,90.6,24.3,90.6,24z
			 M46.8,24.8c0-1.1,0-2.2,0-3.4c-0.5,0-1,0-1.5,0c0,1.1,0,2.2,0,3.4C45.8,24.8,46.3,24.8,46.8,24.8z M75,21.4c0,1.1,0,2.2,0,3.3
			c0.5,0,1,0,1.4,0c0-1.1,0-2.2,0-3.3C75.9,21.4,75.5,21.4,75,21.4z M85.8,24.3c-0.7-0.2-1.1,0.1-1.3,1
			C85.3,25.4,85.5,25.2,85.8,24.3z M100,24.3c0-0.3-0.2-0.5-0.5-0.5c-0.3,0-0.5,0.2-0.5,0.5c0,0.3,0.2,0.6,0.5,0.6
			C99.8,24.9,100,24.6,100,24.3z"/>
		<path class="st1" d="M9.9,19c0,0.1,0,0.1,0,0.2c-1.9,0-3.9,0-5.8,0c-0.5,0-0.7,0.2-1,0.6c-1,1.7-2,3.3-3,5c0-5.7,0-11.3,0-17
			c3.3,0,6.6,0,9.8,0c0,0,0,0.1,0,0.1c-0.9,1.5-1.8,3-2.6,4.5c-0.2,0.4-0.6,0.8-0.6,1.1c0,0.4,0.4,0.8,0.6,1.2
			C8.2,16.1,9,17.6,9.9,19z"/>
		<path class="st2" d="M0.1,24.7c1-1.7,2-3.3,3-5c0.2-0.4,0.5-0.6,1-0.6c1.9,0,3.9,0,5.8,0c0,0.1,0.1,0.2,0,0.2
			c-1,1.8-2,3.5-3.1,5.2c-0.1,0.1-0.3,0.2-0.4,0.2c-2,0-3.9,0-5.9,0C0.3,24.8,0.2,24.8,0.1,24.7C0.1,24.8,0.1,24.8,0.1,24.7z"/>
		<path class="st3" d="M32.3,13.4c0.3,2.3,0.6,4.6,1,6.9c-1,0-2,0-3.1,0c-0.1-0.9-0.2-1.8-0.3-2.8c-0.7,0.9-1.3,1.8-1.9,2.7
			c-0.7-0.9-1.3-1.7-1.9-2.6c0,0-0.1,0-0.1,0c-0.1,0.9-0.2,1.7-0.3,2.6c-1,0-2,0-3,0c0.3-2.3,0.6-4.5,0.9-6.8c1,0,2.1,0,3.1,0
			c0.1,0,0.2,0.2,0.2,0.3c0.3,0.7,0.7,1.4,1,2.1c0.4-0.7,0.7-1.4,1-2.1c0.1-0.2,0.2-0.3,0.5-0.3C30.4,13.4,31.3,13.4,32.3,13.4z"/>
		<path class="st3" d="M94.8,13.4c0,2.3,0,4.5,0,6.8c-1.1,0-2.2,0-3.3,0c0-0.8,0-1.6,0-2.4c-0.6,0-1.2,0-1.8,0c0,0.8,0,1.6,0,2.4
			c-1.1,0-2.2,0-3.3,0c0-2.3,0-4.5,0-6.8c1.1,0,2.1,0,3.3,0c0,0.8,0,1.6,0,2.4c0.6,0,1.2,0,1.8,0c0-0.8,0-1.6,0-2.5
			C92.6,13.4,93.7,13.4,94.8,13.4z"/>
		<path class="st4" d="M64.4,20.3c0-2.3,0-4.5,0-6.8c0.6,0,1.3,0,1.9,0c1.3,0,2.5,0,3.8,0.1c0.8,0,1.4,0.4,1.7,1.2
			c0.3,0.7,0.1,1.3-0.4,1.9c0,0-0.1,0.1-0.1,0.2c0.1,0.1,0.2,0.2,0.3,0.3c0.6,0.5,0.8,1.2,0.6,1.9c-0.2,0.8-0.8,1.1-1.5,1.2
			c-0.9,0.1-1.8,0.1-2.7,0.1C66.9,20.3,65.6,20.3,64.4,20.3z M67.8,18.5c0.3,0,0.5,0,0.8,0c0.3,0,0.5-0.2,0.5-0.4
			c0-0.3-0.1-0.5-0.4-0.5c-0.3-0.1-0.6-0.1-0.9-0.1C67.8,17.8,67.8,18.1,67.8,18.5z M67.8,15.9c0.3,0,0.6,0,0.8,0
			c0.3,0,0.5-0.1,0.5-0.4c0-0.3-0.2-0.5-0.5-0.6c-0.3,0-0.5,0-0.8,0C67.8,15.2,67.8,15.5,67.8,15.9z"/>
		<path class="st5" d="M54.8,13.4c1,0,2.1,0,3.1,0c0,0.1,0,0.3,0,0.4c0,1.2,0,2.5,0.1,3.7c0,0.6,0.3,0.9,0.7,1
			c0.5,0.1,1-0.1,1.3-0.6c0.1-0.1,0.1-0.2,0.1-0.4c0-1.3,0-2.5,0-3.8c0-0.1,0-0.3,0-0.4c1.1,0,2.1,0,3.2,0c0,1.1,0,2.3,0,3.4
			c0,1.8-0.2,2.8-2.9,3.4c-1.2,0.3-2.4,0.2-3.6-0.3c-0.5-0.2-0.9-0.6-1.3-0.9c-0.4-0.3-0.5-0.7-0.5-1.2c0-1.4,0-2.9-0.1-4.3
			C54.8,13.5,54.8,13.5,54.8,13.4z"/>
		<path class="st3" d="M49.4,15.5c0.3,0.1,0.6,0.2,0.9,0.3c0.9,0.2,1.8,0.3,2.6,0.8c1.3,0.8,1.2,2.6-0.1,3.3
			c-0.3,0.1-0.6,0.3-0.9,0.3c-1.8,0.3-3.5,0.1-5.2-0.5c-0.1,0-0.2-0.2-0.2-0.3c0-0.6,0-1.2,0-1.8c0.4,0.1,0.7,0.3,1,0.4
			c0.8,0.2,1.5,0.4,2.3,0.5c0.1,0,0.2,0,0.3,0c0.1-0.1,0.2-0.2,0.3-0.3c-0.1-0.1-0.2-0.2-0.3-0.2c-0.6-0.2-1.3-0.3-1.9-0.5
			c-0.4-0.1-0.8-0.3-1.2-0.6c-1.1-0.7-1.1-2.1-0.1-2.9c0.6-0.4,1.2-0.6,1.9-0.7c1.6-0.1,3.1,0.1,4.5,0.7c0.1,0,0.2,0.2,0.2,0.3
			c0,0.6,0,1.1,0,1.7c-0.2-0.1-0.4-0.2-0.5-0.2c-1-0.4-1.9-0.8-3-0.7c-0.2,0-0.4,0.1-0.6,0.1C49.4,15.3,49.4,15.4,49.4,15.5z"/>
		<path class="st3" d="M85.1,16.1c-1.4-0.6-2.7-1.2-4.1-0.9c0,0.1,0,0.1-0.1,0.2c0.2,0.1,0.4,0.2,0.6,0.3c0.6,0.2,1.3,0.3,1.9,0.5
			c0.4,0.1,0.8,0.3,1.1,0.6c1.1,0.8,1,2.4-0.2,3.1c-0.4,0.2-0.9,0.4-1.4,0.5c-1.7,0.3-3.3,0-4.9-0.6c-0.1,0-0.2-0.2-0.2-0.3
			c0-0.6,0-1.2,0-1.8c0.2,0.1,0.3,0.1,0.4,0.2c0.8,0.2,1.5,0.5,2.3,0.7c0.3,0.1,0.6,0.1,0.9,0c0.1,0,0.2-0.2,0.3-0.3
			c-0.1-0.1-0.2-0.2-0.3-0.2c-0.7-0.2-1.4-0.3-2-0.5c-0.4-0.1-0.8-0.3-1.1-0.6c-1-0.7-1-2.1,0-2.9c0.6-0.4,1.2-0.6,1.9-0.6
			c1.6-0.1,3.1,0.1,4.5,0.7c0.1,0,0.2,0.2,0.2,0.3C85.1,14.9,85.1,15.5,85.1,16.1z"/>
		<path class="st6" d="M9.9,19c-0.9-1.5-1.7-2.9-2.6-4.4c-0.2-0.4-0.6-0.8-0.6-1.2c0-0.4,0.4-0.8,0.6-1.1c0.9-1.5,1.8-3,2.6-4.5
			C10,7.9,10.1,7.9,10.2,8c1,1.7,2,3.4,3,5.2c0.1,0.1,0.1,0.3,0,0.4c-1.1,1.8-2.1,3.6-3.2,5.4C10,19,10,19,9.9,19
			C9.9,19,9.9,19,9.9,19z"/>
		<path class="st2" d="M10,19.2c0.9,0,1.8,0,2.7,0c1.2,0,2.4,0,3.6,0c0.2,0,0.3,0,0.4,0.2c1,1.7,2,3.4,3,5.1c0,0.1,0.1,0.1,0.1,0.3
			c-0.2,0-0.3,0-0.4,0c-2,0-3.9,0-5.9,0c-0.2,0-0.4,0-0.5-0.2c-1-1.7-2-3.5-3-5.2C10.1,19.3,10.1,19.3,10,19.2z"/>
		<path class="st5" d="M43.4,15.3c0,1.7,0,3.3,0,4.9c-1.1,0-2.1,0-3.2,0c0-1.6,0-3.3,0-4.9c-0.6,0-1.2,0-1.9,0c0-0.7,0-1.3,0-1.9
			c2.3,0,4.6,0,6.9,0c0,0.6,0,1.2,0,1.9C44.7,15.3,44.1,15.3,43.4,15.3z"/>
		<path class="st4" d="M73.3,13.4c1.1,0,2.1,0,3.2,0c0,2.3,0,4.5,0,6.8c-1.1,0-2.1,0-3.2,0C73.3,18,73.3,15.7,73.3,13.4z"/>
		<path class="st5" d="M34.2,13.4c1.1,0,2.1,0,3.2,0c0,2.3,0,4.6,0,6.8c-1.1,0-2.1,0-3.2,0C34.2,18,34.2,15.7,34.2,13.4z"/>
		<path d="M99.3,20.3c-1.1,0-2.2,0-3.2,0c0-2.3,0-4.5,0-6.8c1.1,0,2.1,0,3.2,0C99.3,15.7,99.3,18,99.3,20.3z"/>
		<path class="st7" d="M50.2,22.8c0-0.5,0.1-1,0.1-1.4c0.5,0,1,0,1.5,0c0,1.1,0,2.2,0,3.4c-0.5,0-1,0-1.6,0c-0.1,0-0.2-0.1-0.3-0.2
			c-0.3-0.4-0.6-0.8-1-1.3c0,0.6-0.1,1.1-0.1,1.6c-0.5,0-1,0-1.5,0c0-1.1,0-2.2,0-3.4c0.5,0,1.1,0,1.6,0c0.1,0,0.2,0.1,0.3,0.2
			C49.6,22,49.9,22.4,50.2,22.8z"/>
		<path class="st8" d="M73.4,23.6c0.4,0.4,0.8,0.8,1.3,1.2c-0.6,0-1.1,0-1.6,0c-0.1,0-0.2-0.1-0.3-0.2c-0.3-0.3-0.5-0.6-0.8-0.8
			c0,0-0.1,0-0.1,0c0,0.3,0,0.6,0,1c-0.5,0-1,0-1.6,0c0-1.1,0-2.2,0-3.4c0.8,0,1.5,0,2.3,0c0.4,0,0.7,0.1,1.1,0.1
			c0.4,0.1,0.6,0.4,0.7,0.8c0.1,0.4-0.1,0.7-0.4,0.9C73.8,23.3,73.6,23.4,73.4,23.6z M71.8,22.5c0,0.2-0.1,0.4,0.3,0.4
			c0.4,0,0.7-0.2,0.7-0.4c0-0.3-0.3-0.4-0.6-0.4C71.9,22.1,71.8,22.1,71.8,22.5z"/>
		<path class="st9" d="M52.5,24.9c0-1.1,0-2.2,0-3.2c0-0.1,0-0.2,0-0.3c1,0.1,2,0.1,3,0.2c0.8,0.1,1.2,0.8,1.2,1.6
			c0,0.8-0.5,1.4-1.3,1.5C54.5,24.8,53.6,24.8,52.5,24.9z M54,23.1C54,23.1,54,23.1,54,23.1c0,0.2,0,0.4,0,0.5
			c0,0.1,0.1,0.2,0.2,0.2c0.3,0,0.7-0.2,0.8-0.6c0.1-0.3,0-0.7-0.3-0.9c-0.4-0.3-0.7-0.1-0.7,0.4C54,22.9,54,23,54,23.1z"/>
		<path class="st9" d="M94.7,24.9c0-1.2,0-2.3,0-3.5c1,0.1,2,0.1,3,0.2c0.7,0.1,1.3,0.8,1.2,1.6c0,0.8-0.5,1.5-1.3,1.5
			C96.7,24.8,95.7,24.8,94.7,24.9z M96.2,22.3c0,0.4,0,0.8,0,1.2c0,0.1,0.1,0.3,0.2,0.3c0.4,0.1,0.8-0.4,0.9-0.7
			c0-0.4-0.3-0.7-0.7-0.8C96.5,22.3,96.3,22.3,96.2,22.3z"/>
		<path class="st7" d="M25.4,23.6c-0.4,0-0.7,0-1.1,0c0,0.4,0,0.8,0,1.2c-0.5,0-1,0-1.4,0c0-0.1,0-0.2,0-0.2c0-1,0-2.1,0-3.1
			c0.5,0,0.9,0,1.4,0c0,0.4,0.1,0.7,0.1,1.1c0.3,0,0.6,0,1,0c0-0.4,0.1-0.7,0.1-1.1c0.5,0,0.9,0,1.4,0c0,1.1,0,2.2,0,3.3
			c-0.5,0-0.9,0-1.4,0C25.4,24.4,25.4,24,25.4,23.6z"/>
		<path class="st8" d="M57.3,21.4c0.4,0,0.9,0,1.5,0c0,0.7,0,1.3,0,2c0,0.4,0.1,0.6,0.5,0.6c0.3,0,0.5-0.2,0.5-0.6
			c0-0.6,0-1.2,0-1.8c0-0.1,0-0.1,0-0.2c0.5,0,0.9,0,1.5,0c0,0.8,0,1.6-0.1,2.4c0,0.4-0.3,0.7-0.7,0.8c-0.9,0.4-1.7,0.3-2.6,0
			c-0.4-0.2-0.6-0.5-0.6-0.9C57.3,23,57.3,22.2,57.3,21.4z"/>
		<path class="st10" d="M64.2,23.8c-0.2-0.1-0.4-0.2-0.6-0.2c-0.3-0.1-0.7-0.2-1-0.3c-0.5-0.2-0.7-0.6-0.6-1c0-0.4,0.3-0.7,0.8-0.8
			c0.8-0.2,1.7-0.1,2.5,0.1c0.3,0.1,0.4,0.3,0.2,0.9c-0.6-0.1-1.2-0.4-1.9-0.1c0.2,0.1,0.4,0.2,0.6,0.3c0.4,0.1,0.8,0.2,1.1,0.4
			c0.7,0.4,0.7,1.2,0,1.6c-0.7,0.4-1.5,0.4-2.2,0.2c0,0-0.1,0-0.1,0c-0.8-0.2-0.9-0.3-0.8-1.2c0.7,0.3,1.3,0.5,2.1,0.4
			C64.1,23.9,64.1,23.9,64.2,23.8z"/>
		<path class="st8" d="M84.3,22.4c-0.6-0.1-1.2-0.2-1.7-0.3c-0.1,0-0.2,0.1-0.4,0.1c0.2,0.1,0.3,0.2,0.4,0.2
			c0.4,0.1,0.8,0.3,1.3,0.4c0.4,0.1,0.5,0.4,0.6,0.8c0,0.4-0.2,0.7-0.5,0.9c-1,0.5-2,0.3-2.9-0.1c-0.4-0.2-0.2-0.6-0.3-0.9
			c0.7,0.2,1.4,0.6,2.1,0.4c0,0,0-0.1,0-0.1c-0.2-0.1-0.4-0.1-0.6-0.2c-0.4-0.1-0.7-0.2-1.1-0.4c-0.4-0.2-0.6-0.5-0.5-0.9
			c0-0.4,0.3-0.7,0.7-0.8c0.9-0.3,1.8-0.3,2.6,0C84.4,21.6,84.3,22,84.3,22.4z"/>
		<path class="st10" d="M34.9,24.8c-0.4,0-0.7,0-1.1,0c-0.2,0-0.3-0.1-0.4-0.3c-0.2-0.2-1-0.3-1.2,0c-0.1,0.2-0.3,0.3-0.5,0.3
			c-0.3,0-0.6,0-1,0c0.4-1.1,0.8-2.2,1.2-3.4c0.5,0,1,0,1.5,0c0.1,0,0.3,0.1,0.3,0.2C34.1,22.6,34.5,23.7,34.9,24.8z M33.1,23.7
			c-0.1-0.4-0.2-0.8-0.3-1.2c0,0-0.1,0-0.1,0c-0.1,0.4-0.2,0.7-0.3,1.2C32.7,23.8,32.9,23.8,33.1,23.7z"/>
		<path class="st8" d="M36.6,23.5c0.2-0.7,0.4-1.2,0.6-1.8c0-0.1,0.2-0.2,0.3-0.2c0.4,0,0.8,0,1.2,0c-0.4,1.1-0.8,2.1-1.2,3.2
			c0,0.1-0.2,0.1-0.3,0.1c-0.5,0-0.9,0-1.4,0c-0.1,0-0.3-0.1-0.3-0.2c-0.3-0.9-0.7-1.8-1-2.7c-0.2-0.4-0.1-0.5,0.4-0.5
			c0.8,0,0.8,0,1.1,0.7C36.2,22.6,36.4,23,36.6,23.5z"/>
		<path class="st11" d="M80,24.1c0,0.2,0,0.4,0,0.7c-1,0-1.9,0-2.9,0c0-1.1,0-2.2,0-3.3c1,0,1.9,0,2.9,0c0,0.2,0,0.4,0,0.7
			c-0.4,0-0.7,0-1.1,0c-0.2,0-0.4,0-0.4,0.3c0,0.3,0.2,0.3,0.4,0.3c0.1,0,0.3,0,0.4,0c0.2,0,0.4,0,0.4,0.3c0,0.3-0.2,0.4-0.4,0.3
			c-0.3,0-0.5,0-0.8,0c0,0.3,0,0.5,0,0.8C79.1,24.1,79.5,24.1,80,24.1z"/>
		<path class="st11" d="M29,23.3c0,0.3,0,0.5,0,0.8c0.5,0,0.9,0,1.4,0c0,0.2,0,0.4,0,0.7c-1,0-1.9,0-2.9,0c0-1.1,0-2.2,0-3.3
			c1,0,1.9,0,2.9,0c0,0.2,0,0.4,0,0.7c-0.3,0-0.7,0-1.1,0c-0.2,0-0.4,0-0.4,0.3c0,0.3,0.2,0.2,0.4,0.2c0.2,0,0.3,0,0.5,0
			c0.2,0,0.3,0.1,0.3,0.4c0,0.3-0.1,0.3-0.4,0.3C29.6,23.3,29.3,23.3,29,23.3z"/>
		<path class="st7" d="M41.8,24.8c-0.6,0-1.1,0-1.6,0c0.3-1.3-0.7-2.2-1.3-3.4c0.4,0,0.8,0,1.2,0c0.1,0,0.2,0.1,0.3,0.2
			c0.2,0.3,0.4,0.7,0.6,1c0-0.1,0.1-0.1,0.1-0.2c0.3-1,0.9-1.3,1.9-1C42.5,22.5,41.5,23.4,41.8,24.8z"/>
		<path class="st7" d="M94,21.4c0.1,0.7,0.1,0.7-0.9,0.8c0,0.8,0,1.7,0,2.5c-0.5,0-1,0-1.6,0c0-0.9,0-1.7,0-2.5
			c-0.3-0.1-0.7-0.1-0.9-0.2c-0.1-0.1-0.1-0.4-0.1-0.6C91.7,21.4,92.8,21.4,94,21.4z"/>
		<path class="st7" d="M67.1,22.2c-1-0.1-1-0.1-0.9-0.8c1.1,0,2.3,0,3.4,0c0,0.6,0,0.6-1,0.8c0,0.8,0,1.7,0,2.5c-0.5,0-1,0-1.6,0
			C67.1,23.9,67.1,23.1,67.1,22.2z"/>
		<path class="st8" d="M90.6,24c0,0.3,0,0.5,0,0.8c-1,0-1.9,0-2.9,0c0-1.1,0-2.2,0-3.3c0.5,0,1,0,1.5,0c0,0.9,0,1.7,0,2.6
			C89.8,24,90.2,24,90.6,24z"/>
		<path class="st10" d="M46.8,24.8c-0.5,0-1,0-1.5,0c0-1.1,0-2.2,0-3.4c0.5,0,1,0,1.5,0C46.8,22.5,46.8,23.6,46.8,24.8z"/>
		<path class="st7" d="M75,21.4c0.5,0,0.9,0,1.4,0c0,1.1,0,2.2,0,3.3c-0.5,0-0.9,0-1.4,0C75,23.7,75,22.6,75,21.4z"/>
		<path class="st12" d="M85.8,24.3c-0.3,0.9-0.5,1.1-1.3,1C84.7,24.4,85.1,24.1,85.8,24.3z"/>
		<path class="st8" d="M100,24.3c0,0.3-0.2,0.6-0.5,0.6c-0.3,0-0.5-0.2-0.5-0.6c0-0.3,0.2-0.5,0.5-0.5C99.8,23.8,100,24,100,24.3z"
			/>
		<path class="st2" d="M9.9,19c0,0,0.1,0,0.1,0C10,19.1,10,19.1,9.9,19C10,19.1,9.9,19.1,9.9,19z"/>
		<path class="st13" d="M67.8,18.5c0-0.4,0-0.7,0-1c0.3,0,0.6,0,0.9,0.1c0.2,0.1,0.4,0.2,0.4,0.5c0,0.3-0.2,0.4-0.5,0.4
			C68.3,18.5,68.1,18.5,67.8,18.5z"/>
		<path class="st14" d="M67.8,15.9c0-0.3,0-0.7,0-1c0.3,0,0.6,0,0.8,0c0.3,0,0.5,0.3,0.5,0.6c0,0.3-0.2,0.4-0.5,0.4
			C68.3,15.9,68.1,15.9,67.8,15.9z"/>
		<path class="st15" d="M71.8,22.5c0-0.3,0.1-0.4,0.4-0.4c0.3,0,0.5,0.1,0.6,0.4c0,0.2-0.3,0.4-0.7,0.4
			C71.8,22.9,71.8,22.6,71.8,22.5z"/>
		<path class="st16" d="M54,23.1c0-0.1,0-0.2,0-0.3c0-0.5,0.3-0.6,0.7-0.4c0.3,0.2,0.4,0.5,0.3,0.9c-0.1,0.3-0.5,0.6-0.8,0.6
			c-0.1,0-0.2-0.1-0.2-0.2C54,23.4,54,23.2,54,23.1C54,23.1,54,23.1,54,23.1z"/>
		<path class="st16" d="M96.2,22.3c0.1,0,0.3,0,0.4,0c0.4,0,0.7,0.4,0.7,0.8c0,0.4-0.5,0.8-0.9,0.7c-0.1,0-0.2-0.2-0.2-0.3
			C96.2,23.2,96.2,22.8,96.2,22.3z"/>
		<path class="st15" d="M33.1,23.7c-0.3,0-0.4,0-0.7,0c0.1-0.4,0.2-0.8,0.3-1.2c0,0,0.1,0,0.1,0C32.9,22.9,33,23.3,33.1,23.7z"/>
	</g>
</g>
</svg>
