<?xml version="1.0" encoding="utf-8"?>
<!-- Generator: Adobe Illustrator 19.0.0, SVG Export Plug-In . SVG Version: 6.00 Build 0)  -->
<svg version="1.1" id="Capa_1" xmlns="http://www.w3.org/2000/svg" xmlns:xlink="http://www.w3.org/1999/xlink" x="0px" y="0px"
	 viewBox="0 0 100 33" style="enable-background:new 0 0 100 33;" xml:space="preserve">
<style type="text/css">
	.st0{fill:#FFFFFF;}
	.st1{fill:#283374;}
	.st2{fill:#F9FAFC;}
	.st3{fill:#283371;}
	.st4{fill:#FBFBFD;}
	.st5{fill:#FAFBFD;}
	.st6{fill:#283373;}
</style>
<g>
	<path class="st0" d="M840.1,93.1c-16.5,0-33.1,0-49.6,0c-0.3,0-0.4-0.1-0.4-0.4c0-16.9,0-33.9,0-50.8c0-0.3,0.1-0.4,0.4-0.4
		c33.1,0,66.2,0,99.3,0c0.3,0,0.4,0.1,0.4,0.4c0,16.9,0,33.9,0,50.8c0,0.3-0.1,0.4-0.4,0.4C873.2,93.1,856.7,93.1,840.1,93.1z
		 M840.4,82.3c1.9,0.1,4.1,0,6.4-0.2c2.4-0.2,4.8-0.4,7.2-0.8c3-0.5,6.1-1.1,9-1.9c3.5-1,7-2.3,10.2-4.2c2-1.2,3.8-2.6,5.1-4.5
		c1.8-2.6,1.8-5.5,0-8.2c-1.2-1.7-2.7-3-4.5-4.1c-2.8-1.8-5.8-3-9-4c-4.2-1.3-8.5-2.1-12.8-2.7c-3.1-0.4-6.3-0.6-9.4-0.7
		c-2.8,0-5.6,0-8.4,0.1c-2.7,0.2-5.3,0.4-8,0.8c-3.2,0.5-6.5,1.1-9.6,2c-3.6,1-7.1,2.4-10.2,4.4c-1.8,1.2-3.5,2.5-4.6,4.4
		c-1.5,2.3-1.6,4.7-0.3,7.1c0.7,1.3,1.7,2.3,2.8,3.3c2.3,2,5,3.3,7.9,4.4c5.3,2.1,10.9,3.2,16.5,3.9
		C832.5,82.1,836.3,82.3,840.4,82.3z"/>
	<path class="st1" d="M840.4,82.3c-4.1,0-7.9-0.2-11.7-0.6c-5.7-0.7-11.2-1.8-16.5-3.9c-2.8-1.1-5.5-2.5-7.9-4.4
		c-1.1-0.9-2.1-2-2.8-3.3c-1.3-2.4-1.2-4.8,0.3-7.1c1.2-1.8,2.8-3.2,4.6-4.4c3.2-2,6.6-3.3,10.2-4.4c3.2-0.9,6.4-1.6,9.6-2
		c2.6-0.4,5.3-0.6,8-0.8c2.8-0.2,5.6-0.2,8.4-0.1c3.1,0.1,6.3,0.3,9.4,0.7c4.3,0.6,8.6,1.4,12.8,2.7c3.1,1,6.2,2.2,9,4
		c1.7,1.1,3.3,2.4,4.5,4.1c1.8,2.6,1.8,5.5,0,8.2c-1.3,1.9-3.1,3.3-5.1,4.5c-3.2,1.9-6.6,3.2-10.2,4.2c-3,0.8-6,1.4-9,1.9
		c-2.4,0.4-4.8,0.6-7.2,0.8C844.5,82.2,842.3,82.3,840.4,82.3z M839.5,80.5c3.5,0,8.4-0.2,11.7-0.6c2.7-0.3,5.4-0.7,8-1.2
		c3-0.6,6-1.4,8.9-2.5c2-0.8,4-1.7,5.7-2.9c1.4-1,2.7-2.1,3.7-3.6c1.4-2.2,1.2-4.8-0.3-6.9c-1.1-1.6-2.7-2.8-4.3-3.7
		c-2.5-1.5-5.2-2.5-8-3.3c-4-1.2-8.1-1.9-12.2-2.4c-3-0.3-5.9-0.6-8.9-0.6c-3.9-0.1-7.8,0-11.7,0.3c-2.1,0.2-4.3,0.4-6.4,0.7
		c-2.8,0.4-5.5,0.9-8.2,1.6c-2.2,0.6-4.4,1.3-6.5,2.2c-2.8,1.2-5.4,2.6-7.4,4.9c-0.8,1-1.5,2.1-1.7,3.4c-0.4,2.2,0.5,3.9,1.9,5.5
		c1.5,1.7,3.4,2.8,5.4,3.8c2.9,1.4,5.9,2.3,8.9,3.1c3.8,0.9,7.6,1.5,11.5,1.8C832.9,80.4,836.2,80.5,839.5,80.5z"/>
	<path class="st2" d="M839.5,80.5c-3.3,0-6.6-0.1-9.9-0.4c-3.9-0.4-7.7-0.9-11.5-1.8c-3.1-0.7-6.1-1.7-8.9-3.1c-2-1-3.9-2.1-5.4-3.8
		c-1.4-1.6-2.2-3.3-1.9-5.5c0.2-1.3,0.8-2.4,1.7-3.4c2-2.3,4.6-3.7,7.4-4.9c2.1-0.9,4.3-1.6,6.5-2.2c2.7-0.7,5.4-1.2,8.2-1.6
		c2.1-0.3,4.3-0.5,6.4-0.7c3.9-0.3,7.8-0.4,11.7-0.3c3,0.1,5.9,0.3,8.9,0.6c4.1,0.5,8.2,1.2,12.2,2.4c2.8,0.8,5.5,1.8,8,3.3
		c1.7,1,3.2,2.2,4.3,3.7c1.5,2.1,1.7,4.6,0.3,6.9c-0.9,1.5-2.2,2.6-3.7,3.6c-1.8,1.2-3.7,2.1-5.7,2.9c-2.9,1.1-5.8,1.9-8.9,2.5
		c-2.7,0.5-5.3,0.9-8,1.2C847.9,80.3,843,80.6,839.5,80.5z M840.8,53.6c-2.7,0-5.2,0.1-7.7,0.2c-2.3,0.1-4.6,0.4-6.9,0.7
		c-2.4,0.3-4.9,0.7-7.3,1.3c-3.3,0.7-6.4,1.7-9.4,3.1c-1.9,0.9-3.7,2-5.2,3.6c-1.1,1.2-1.8,2.5-1.9,4.1c-0.1,1.7,0.7,3.2,1.8,4.4
		c1.3,1.4,2.9,2.4,4.6,3.3c2.8,1.4,5.7,2.3,8.8,3c1.9,0.5,3.9,0.8,5.8,1.1c1.8,0.3,3.7,0.5,5.6,0.7c2,0.2,4,0.3,6.1,0.4
		c2.4,0.1,4.9,0.1,7.3,0.1c2.8-0.1,5.5-0.2,8.3-0.5c2-0.2,4.1-0.4,6.1-0.8c2.9-0.5,5.7-1,8.5-1.9c2.7-0.8,5.4-1.8,7.8-3.3
		c1.6-1,3.1-2.1,4.1-3.7c1.2-2,1.2-4,0-6c-0.9-1.5-2.3-2.6-3.8-3.5c-2.4-1.5-5-2.5-7.6-3.3c-2.2-0.7-4.4-1.1-6.6-1.6
		c-3.4-0.6-6.8-1-10.2-1.3C846.1,53.6,843.4,53.5,840.8,53.6z"/>
	<path class="st3" d="M840.8,53.6c2.6,0,5.3,0.1,8,0.3c3.4,0.3,6.8,0.6,10.2,1.3c2.2,0.4,4.4,0.9,6.6,1.6c2.7,0.8,5.3,1.8,7.6,3.3
		c1.5,0.9,2.8,2,3.8,3.5c1.2,2,1.2,4,0,6c-1,1.6-2.5,2.8-4.1,3.7c-2.4,1.5-5.1,2.5-7.8,3.3c-2.8,0.8-5.6,1.4-8.5,1.9
		c-2,0.3-4.1,0.6-6.1,0.8c-2.7,0.3-5.5,0.4-8.3,0.5c-2.4,0.1-4.9,0-7.3-0.1c-2-0.1-4-0.2-6.1-0.4c-1.9-0.2-3.7-0.4-5.6-0.7
		c-2-0.3-3.9-0.7-5.8-1.1c-3-0.7-6-1.7-8.8-3c-1.7-0.8-3.3-1.8-4.6-3.3c-1.1-1.2-1.9-2.7-1.8-4.4c0.1-1.6,0.8-2.9,1.9-4.1
		c1.5-1.6,3.3-2.7,5.2-3.6c3-1.4,6.2-2.4,9.4-3.1c2.4-0.5,4.8-1,7.3-1.3c2.3-0.3,4.6-0.5,6.9-0.7C835.6,53.6,838.1,53.6,840.8,53.6z
		 M828,69.2c0,0.4-0.1,0.8-0.1,1.1c0,0.7,0.5,1.1,1.1,0.9c1.1-0.3,1.8-1.2,2.4-2.1c0-0.1,0.1-0.2,0-0.2c-0.1-0.1-0.2,0-0.2,0
		c-0.1,0.1-0.2,0.2-0.3,0.3c-0.2,0.3-0.4,0.5-0.7,0.7c-0.2,0.1-0.3,0.3-0.5,0.1c-0.2-0.1-0.2-0.4-0.1-0.6c0.6-1.8,1.2-3.6,1.8-5.4
		c0.3-0.8,0.2-0.8-0.6-0.9c-0.3,0-0.6,0-0.7,0.3c-0.1,0.3-0.3,0.3-0.5,0.1c-0.3-0.3-0.7-0.4-1.1-0.4c-0.4,0-0.9,0.1-1.2,0.3
		c-1.6,0.7-2.8,2-3.5,3.6c-0.4,0.9-0.6,1.9-0.3,2.9c0.3,1.2,1.3,1.7,2.4,1.1c0.6-0.3,1-0.7,1.5-1.2C827.6,69.7,827.8,69.4,828,69.2z
		 M822.2,59.8c-0.3,0-0.6,0-0.9,0c-2.1,0.4-4.1,1.2-5.6,2.7c-1.6,1.5-2.5,3.2-2.3,5.5c0.2,1.6,1.5,3,3.1,3.3
		c1.9,0.3,3.6-0.2,5.1-1.4c0.1-0.1,0.3-0.2,0.4-0.4c0-0.1,0.1-0.2,0-0.2c-0.1-0.1-0.2-0.1-0.3,0c-0.1,0-0.1,0.1-0.2,0.1
		c-0.8,0.5-1.7,1-2.7,1.2c-1.3,0.3-2.4-0.2-3-1.2c-0.6-1-0.6-2.1-0.3-3.1c0.5-1.9,1.5-3.6,3.2-4.7c1.1-0.8,2.4-1.3,3.8-1.1
		c0.5,0.1,0.6,0.1,0.4,0.7c-0.1,0.5,0.1,0.8,0.5,1c0.6,0.2,1.2,0,1.5-0.6c0.2-0.6,0-1.2-0.6-1.4C823.5,59.8,822.8,59.8,822.2,59.8z
		 M855.7,71.2c1.5,0,2.7-0.8,3.6-1.9c0.1-0.1,0.2-0.1,0.1-0.2c-0.1-0.1-0.2,0-0.3,0.1c-0.6,0.4-1.2,0.8-1.9,1
		c-1.2,0.3-2.2-0.3-2.3-1.5c-0.1-0.7-0.1-0.9,0.5-0.9c0.9-0.1,1.7-0.3,2.6-0.6c0.8-0.3,1.5-0.6,2.1-1.3c0.5-0.5,0.6-1.1,0.4-1.8
		c-0.2-0.7-0.8-1-1.5-1.1c-1.4-0.3-2.7,0.1-3.7,1c-1.5,1.3-2.3,3-2,5C853.3,70.4,854.2,71.3,855.7,71.2z M836.5,66.4
		c-0.1-0.2,0-0.3,0-0.5c0.1-0.7,0.4-1.3,0.3-2c0-0.7-0.3-0.9-1-0.7c-0.1,0-0.2,0.1-0.3,0.1c-0.9,0.5-1.4,1.2-2,2
		c-0.1,0.1-0.2,0.2-0.1,0.3c0.1,0.1,0.3,0,0.3-0.1c0.2-0.3,0.4-0.5,0.6-0.8c0.2-0.2,0.4-0.5,0.7-0.4c0.3,0.2,0.1,0.5,0,0.8
		c-0.5,1.7-1,3.3-1.5,5c-0.2,0.8-0.2,0.9,0.7,0.9c0.3,0,0.6-0.1,0.7-0.4c0.4-1.2,0.9-2.3,1.4-3.5c0.4-0.9,0.9-1.8,1.6-2.5
		c0.1-0.1,0.2-0.3,0.4-0.2c0.2,0.1,0.2,0.2,0.2,0.4c0.1,0.5,0.5,0.7,1,0.5c0.6-0.3,0.8-1,0.4-1.7c-0.2-0.4-0.8-0.5-1.3-0.2
		c-0.1,0.1-0.3,0.2-0.4,0.3c-0.7,0.6-1.1,1.3-1.5,2C836.9,65.9,836.8,66.2,836.5,66.4z M844.6,64c0-0.8-0.3-1-1-0.8
		c-0.1,0-0.1,0.1-0.2,0.1c-0.8,0.4-1.3,1.1-1.9,1.7c-0.1,0.2-0.4,0.4-0.2,0.6c0.2,0.2,0.3-0.2,0.5-0.4c0.3-0.3,0.4-0.6,0.8-0.8
		c0.1-0.1,0.2-0.2,0.4-0.1c0.2,0.1,0.1,0.3,0.1,0.4c0,0.1,0,0.2-0.1,0.2c-0.3,1.2-0.7,2.3-1,3.5c-0.2,0.7-0.4,1.3-0.6,2
		c-0.1,0.2,0,0.4,0.2,0.5c0.6,0.2,1.2,0,1.4-0.6c0.5-1.3,1-2.6,1.7-3.9c0.3-0.6,0.7-1.3,1.2-1.8c0.5-0.5,0.6-0.5,0.7,0.2
		c0.1,0.3,0.3,0.4,0.6,0.5c0.6,0.1,1.1-0.6,1.1-1.2c-0.1-0.9-0.7-1.2-1.5-0.8c-0.3,0.2-0.6,0.4-0.8,0.6c-0.6,0.7-1,1.4-1.4,2.2
		c-0.1,0.1-0.1,0.3-0.2,0.2c-0.1-0.1-0.1-0.2,0-0.3C844.4,65.3,844.6,64.7,844.6,64z M864.9,63.8c0.1-0.7-0.4-0.8-1-0.6
		c-0.6,0.2-1,0.6-1.4,1c-0.3,0.3-0.5,0.6-0.7,0.9c-0.1,0.1-0.1,0.2,0,0.3c0.2,0.1,0.2-0.1,0.3-0.1c0.2-0.3,0.4-0.5,0.6-0.8
		c0.2-0.2,0.4-0.5,0.6-0.3c0.3,0.1,0.1,0.5,0.1,0.7c-0.5,1.7-1,3.5-1.5,5.2c-0.2,0.6,0,0.7,0.6,0.7c0.3,0,0.7,0.1,0.9-0.4
		c0.3-0.9,0.6-1.7,1-2.5c0.6-1.2,1.1-2.5,2-3.5c0.1-0.1,0.2-0.3,0.4-0.2c0.2,0,0.2,0.2,0.2,0.4c0.1,0.5,0.5,0.7,1,0.5
		c0.4-0.2,0.5-0.5,0.6-0.9c0.1-1-0.5-1.5-1.4-1.1c-0.4,0.1-0.7,0.4-0.9,0.7c-0.6,0.6-0.9,1.4-1.4,2.1c-0.1,0.1-0.1,0.3-0.3,0.2
		c-0.2-0.1,0-0.2,0-0.4C864.7,65.2,865,64.5,864.9,63.8z M847.8,70.4c0,0.7,0.4,1,1,0.9c1.2-0.3,2-1,2.7-2c0.1-0.1,0.2-0.2,0.1-0.3
		c-0.1-0.1-0.2,0.1-0.3,0.1c-0.3,0.3-0.6,0.6-0.9,0.9c-0.2,0.2-0.4,0.3-0.6,0.2c-0.2-0.1-0.2-0.4-0.1-0.6c0.1-0.3,0.2-0.7,0.3-1
		c0.3-0.9,0.6-1.8,0.9-2.6c0.2-0.7,0.5-1.5,0.7-2.2c0.1-0.2,0.1-0.4-0.1-0.5c-0.4-0.1-0.8-0.1-1.2,0c-0.3,0.1-0.3,0.4-0.4,0.6
		c-0.5,1.6-1.1,3.2-1.6,4.8C848.1,69.1,847.9,69.7,847.8,70.4z M852.3,60.8c0-0.5-0.3-0.8-0.7-0.8c-0.5,0-1.1,0.6-1.1,1.2
		c0,0.5,0.3,0.9,0.7,0.9C851.8,62.1,852.3,61.5,852.3,60.8z"/>
	<path class="st4" d="M828,69.2c-0.2,0.2-0.5,0.5-0.7,0.7c-0.4,0.5-0.9,0.9-1.5,1.2c-1.1,0.5-2.1,0-2.4-1.1c-0.2-1-0.1-1.9,0.3-2.9
		c0.7-1.6,1.9-2.9,3.5-3.6c0.4-0.2,0.8-0.3,1.2-0.3c0.4,0,0.8,0.1,1.1,0.4c0.2,0.2,0.4,0.2,0.5-0.1c0.1-0.4,0.4-0.3,0.7-0.3
		c0.8,0,0.9,0.1,0.6,0.9c-0.6,1.8-1.2,3.6-1.8,5.4c-0.1,0.2-0.1,0.4,0.1,0.6c0.2,0.1,0.4,0,0.5-0.1c0.3-0.2,0.5-0.4,0.7-0.7
		c0.1-0.1,0.2-0.2,0.3-0.3c0.1-0.1,0.2-0.1,0.2,0c0.1,0.1,0,0.2,0,0.2c-0.6,0.9-1.3,1.7-2.4,2.1c-0.7,0.2-1.1-0.1-1.1-0.9
		C827.9,69.9,828,69.6,828,69.2z M825.2,68.8c0,0.1,0,0.1,0,0.2c0,0.9,0.7,1.3,1.5,0.8c0.2-0.1,0.5-0.3,0.6-0.5c1-1,1.5-2.4,2.1-3.7
		c0.2-0.3,0.2-0.7,0.3-1.1c0.1-0.6-0.3-1-0.9-1c-0.2,0-0.4,0.1-0.6,0.2c-0.7,0.4-1.2,1-1.6,1.6C825.8,66.5,825.3,67.5,825.2,68.8z"
		/>
	<path id="XMLID_23_" class="st4" d="M822.2,59.8c0.7,0,1.4,0,2,0.3c0.6,0.3,0.9,0.9,0.6,1.4c-0.2,0.6-0.8,0.9-1.5,0.6
		c-0.4-0.1-0.6-0.5-0.5-1c0.1-0.5,0.1-0.6-0.4-0.7c-1.4-0.2-2.6,0.3-3.8,1.1c-1.7,1.2-2.7,2.8-3.2,4.7c-0.3,1-0.3,2.1,0.3,3.1
		c0.6,1,1.7,1.4,3,1.2c1-0.2,1.8-0.7,2.7-1.2c0.1,0,0.1-0.1,0.2-0.1c0.1-0.1,0.2,0,0.3,0c0.1,0.1,0,0.2,0,0.2
		c-0.1,0.2-0.2,0.3-0.4,0.4c-1.5,1.1-3.2,1.7-5.1,1.4c-1.6-0.2-2.9-1.7-3.1-3.3c-0.2-2.3,0.8-4,2.3-5.5c1.6-1.5,3.5-2.3,5.6-2.7
		C821.6,59.8,821.9,59.8,822.2,59.8z"/>
	<path class="st4" d="M855.7,71.2c-1.4,0-2.3-0.9-2.5-2.2c-0.3-2.1,0.5-3.7,2-5c1.1-0.9,2.3-1.3,3.7-1c0.6,0.1,1.3,0.3,1.5,1.1
		c0.2,0.7,0,1.3-0.4,1.8c-0.6,0.7-1.3,1-2.1,1.3c-0.8,0.3-1.7,0.5-2.6,0.6c-0.5,0.1-0.5,0.3-0.5,0.9c0.1,1.2,1.1,1.8,2.3,1.5
		c0.7-0.2,1.3-0.6,1.9-1c0.1-0.1,0.1-0.2,0.3-0.1c0.1,0.1,0,0.2-0.1,0.2C858.3,70.5,857.2,71.2,855.7,71.2z M855.8,67.2
		c0.6,0,1.2-0.2,1.8-0.5c0.8-0.5,1.4-1.2,1.3-2.2c-0.1-0.9-0.8-1.3-1.5-0.9c-0.4,0.2-0.7,0.5-0.9,0.8c-0.5,0.7-0.8,1.5-1.1,2.3
		C855.1,67.1,855.1,67.2,855.8,67.2z"/>
	<path id="XMLID_20_" class="st5" d="M836.5,66.4c0.3-0.2,0.4-0.5,0.5-0.8c0.4-0.7,0.8-1.5,1.5-2c0.1-0.1,0.3-0.2,0.4-0.3
		c0.6-0.3,1.1-0.2,1.3,0.2c0.4,0.7,0.2,1.5-0.4,1.7c-0.5,0.2-0.9,0-1-0.5c0-0.2,0-0.3-0.2-0.4c-0.2-0.1-0.3,0.1-0.4,0.2
		c-0.7,0.7-1.1,1.6-1.6,2.5c-0.5,1.1-1,2.3-1.4,3.5c-0.1,0.3-0.4,0.4-0.7,0.4c-0.8,0-0.9-0.1-0.7-0.9c0.5-1.7,1-3.3,1.5-5
		c0.1-0.3,0.3-0.6,0-0.8c-0.3-0.2-0.5,0.2-0.7,0.4c-0.2,0.3-0.4,0.5-0.6,0.8c-0.1,0.1-0.2,0.2-0.3,0.1c-0.1-0.1,0-0.2,0.1-0.3
		c0.6-0.8,1.1-1.5,2-2c0.1,0,0.2-0.1,0.3-0.1c0.7-0.2,0.9,0,1,0.7c0,0.7-0.2,1.3-0.3,2C836.5,66.1,836.4,66.2,836.5,66.4z"/>
	<path id="XMLID_19_" class="st4" d="M844.6,64c0,0.7-0.2,1.3-0.4,2c0,0.1-0.1,0.3,0,0.3c0.1,0.1,0.2-0.1,0.2-0.2
		c0.4-0.8,0.8-1.5,1.4-2.2c0.2-0.3,0.5-0.5,0.8-0.6c0.8-0.4,1.4-0.1,1.5,0.8c0.1,0.6-0.5,1.3-1.1,1.2c-0.3-0.1-0.5-0.2-0.6-0.5
		c-0.2-0.6-0.3-0.6-0.7-0.2c-0.5,0.5-0.8,1.2-1.2,1.8c-0.6,1.3-1.2,2.5-1.7,3.9c-0.2,0.6-0.8,0.8-1.4,0.6c-0.2-0.1-0.2-0.3-0.2-0.5
		c0.2-0.7,0.4-1.4,0.6-2c0.3-1.2,0.7-2.3,1-3.5c0-0.1,0-0.2,0.1-0.2c0-0.1,0.1-0.3-0.1-0.4c-0.2-0.1-0.3,0-0.4,0.1
		c-0.3,0.2-0.5,0.6-0.8,0.8c-0.1,0.1-0.3,0.5-0.5,0.4c-0.2-0.2,0.1-0.4,0.2-0.6c0.5-0.7,1-1.4,1.9-1.7c0.1,0,0.1-0.1,0.2-0.1
		C844.3,63,844.6,63.3,844.6,64z"/>
	<path id="XMLID_18_" class="st4" d="M864.9,63.8c0,0.8-0.2,1.4-0.4,2.1c0,0.1-0.2,0.3,0,0.4c0.2,0.1,0.2-0.1,0.3-0.2
		c0.4-0.7,0.8-1.5,1.4-2.1c0.3-0.3,0.5-0.6,0.9-0.7c0.9-0.3,1.5,0.1,1.4,1.1c0,0.4-0.2,0.7-0.6,0.9c-0.5,0.2-0.9,0-1-0.5
		c0-0.2-0.1-0.3-0.2-0.4c-0.2-0.1-0.3,0.1-0.4,0.2c-0.9,1-1.5,2.3-2,3.5c-0.4,0.8-0.7,1.7-1,2.5c-0.1,0.4-0.5,0.3-0.9,0.4
		c-0.6,0-0.7-0.2-0.6-0.7c0.5-1.7,1-3.5,1.5-5.2c0.1-0.2,0.2-0.5-0.1-0.7c-0.3-0.1-0.5,0.1-0.6,0.3c-0.2,0.2-0.4,0.5-0.6,0.8
		c-0.1,0.1-0.1,0.3-0.3,0.1c-0.1-0.1-0.1-0.2,0-0.3c0.2-0.3,0.5-0.6,0.7-0.9c0.4-0.4,0.8-0.8,1.4-1C864.5,62.9,865,63.1,864.9,63.8z
		"/>
	<path id="XMLID_17_" class="st4" d="M847.8,70.4c0-0.7,0.3-1.3,0.5-1.9c0.5-1.6,1.1-3.2,1.6-4.8c0.1-0.2,0.1-0.5,0.4-0.6
		c0.4-0.1,0.8-0.1,1.2,0c0.2,0.1,0.2,0.3,0.1,0.5c-0.2,0.7-0.5,1.5-0.7,2.2c-0.3,0.9-0.6,1.8-0.9,2.6c-0.1,0.3-0.2,0.7-0.3,1
		c-0.1,0.2-0.1,0.5,0.1,0.6c0.2,0.1,0.4,0,0.6-0.2c0.3-0.3,0.6-0.6,0.9-0.9c0.1-0.1,0.2-0.2,0.3-0.1c0.2,0.1,0,0.3-0.1,0.3
		c-0.7,1-1.6,1.7-2.7,2C848.2,71.4,847.8,71,847.8,70.4z"/>
	<path id="XMLID_16_" class="st5" d="M852.3,60.8c0,0.7-0.5,1.3-1.1,1.3c-0.4,0-0.7-0.3-0.7-0.9c0-0.6,0.6-1.2,1.1-1.2
		C852,60,852.3,60.3,852.3,60.8z"/>
	<path id="XMLID_15_" class="st6" d="M825.2,68.8c0.1-1.2,0.6-2.3,1.3-3.3c0.4-0.6,1-1.2,1.6-1.6c0.2-0.1,0.4-0.2,0.6-0.2
		c0.6,0,1,0.3,0.9,1c0,0.4-0.1,0.7-0.3,1.1c-0.6,1.3-1.1,2.6-2.1,3.7c-0.2,0.2-0.4,0.4-0.6,0.5c-0.8,0.4-1.4,0-1.5-0.8
		C825.2,68.9,825.2,68.8,825.2,68.8z"/>
	<path id="XMLID_14_" class="st1" d="M855.8,67.2c-0.6,0-0.7,0-0.5-0.5c0.3-0.8,0.6-1.6,1.1-2.3c0.2-0.3,0.5-0.7,0.9-0.8
		c0.8-0.4,1.5,0,1.5,0.9c0.1,1-0.4,1.7-1.3,2.2C857,66.9,856.3,67.2,855.8,67.2z"/>
</g>
<g id="XMLID_107_">
	<path id="XMLID_138_" class="st0" d="M50,39.4c-14.7,0-29.4,0-44.1,0c-0.3,0-0.3-0.1-0.3-0.3c0-15.1,0-30.1,0-45.2
		c0-0.3,0.1-0.3,0.3-0.3c29.4,0,58.8,0,88.3,0c0.3,0,0.3,0.1,0.3,0.3c0,15.1,0,30.1,0,45.2c0,0.3-0.1,0.3-0.3,0.3
		C79.4,39.4,64.7,39.4,50,39.4z M50.3,29.8c1.7,0.1,3.7,0,5.6-0.2c2.2-0.1,4.3-0.4,6.4-0.7c2.7-0.4,5.4-0.9,8-1.7
		c3.2-0.9,6.2-2,9-3.7c1.7-1,3.3-2.3,4.5-4c1.6-2.3,1.6-4.9,0-7.3c-1-1.5-2.4-2.7-4-3.6c-2.5-1.6-5.2-2.7-8-3.6
		C68.3,4,64.5,3.2,60.6,2.7c-2.8-0.4-5.6-0.6-8.3-0.6c-2.5,0-5,0-7.5,0.1C42.4,2.4,40,2.6,37.7,3c-2.9,0.4-5.7,1-8.5,1.8
		C26,5.7,22.9,6.9,20,8.7c-1.6,1-3.1,2.2-4.1,3.9c-1.3,2.1-1.4,4.2-0.3,6.3c0.6,1.1,1.5,2.1,2.5,2.9c2.1,1.8,4.5,3,7,3.9
		c4.7,1.9,9.7,2.9,14.7,3.5C43.2,29.6,46.6,29.8,50.3,29.8z"/>
	<path id="XMLID_135_" class="st1" d="M50.3,29.8c-3.7,0-7.1-0.2-10.4-0.6c-5-0.6-10-1.6-14.7-3.5c-2.5-1-4.9-2.2-7-3.9
		c-1-0.8-1.8-1.8-2.5-2.9c-1.2-2.2-1-4.3,0.3-6.3c1-1.6,2.5-2.8,4.1-3.9c2.8-1.8,5.9-3,9.1-3.9C31.9,4,34.8,3.4,37.7,3
		c2.4-0.3,4.7-0.6,7.1-0.7c2.5-0.2,5-0.2,7.5-0.1c2.8,0,5.6,0.3,8.3,0.6C64.5,3.2,68.3,4,72,5.1c2.8,0.9,5.5,2,8,3.6
		c1.5,1,2.9,2.1,4,3.6c1.6,2.3,1.6,4.9,0,7.3c-1.2,1.7-2.8,2.9-4.5,4c-2.8,1.7-5.9,2.8-9,3.7c-2.6,0.7-5.3,1.3-8,1.7
		c-2.1,0.3-4.3,0.6-6.4,0.7C53.9,29.8,52,29.9,50.3,29.8z M49.5,28.2c3.1,0,7.5-0.2,10.4-0.5c2.4-0.3,4.8-0.6,7.2-1.1
		c2.7-0.5,5.3-1.2,7.9-2.2c1.8-0.7,3.5-1.5,5.1-2.6c1.3-0.9,2.4-1.9,3.3-3.2c1.2-2,1.1-4.2-0.3-6.1c-1-1.4-2.4-2.5-3.8-3.3
		c-2.2-1.3-4.6-2.2-7.1-3c-3.6-1.1-7.2-1.7-10.9-2.1c-2.6-0.3-5.3-0.5-7.9-0.6c-3.5-0.1-6.9,0-10.4,0.3C40.9,4,39,4.2,37.1,4.4
		c-2.4,0.4-4.9,0.8-7.3,1.5c-2,0.5-3.9,1.1-5.8,1.9c-2.5,1.1-4.8,2.3-6.6,4.4c-0.7,0.9-1.3,1.9-1.5,3c-0.3,1.9,0.4,3.5,1.7,4.9
		c1.3,1.5,3,2.5,4.8,3.4c2.5,1.2,5.2,2.1,8,2.7c3.4,0.8,6.8,1.3,10.2,1.6C43.6,28.1,46.5,28.2,49.5,28.2z"/>
	<path id="XMLID_132_" class="st2" d="M49.5,28.2c-2.9,0-5.9-0.1-8.8-0.4c-3.4-0.3-6.8-0.8-10.2-1.6c-2.7-0.7-5.4-1.5-8-2.7
		c-1.8-0.9-3.5-1.9-4.8-3.4c-1.3-1.4-2-3-1.7-4.9c0.2-1.1,0.7-2.1,1.5-3c1.8-2.1,4.1-3.3,6.6-4.4C26,7,27.9,6.4,29.8,5.9
		c2.4-0.6,4.8-1.1,7.3-1.5C39,4.2,40.9,4,42.8,3.8c3.5-0.3,6.9-0.3,10.4-0.3c2.6,0.1,5.3,0.3,7.9,0.6c3.7,0.4,7.3,1.1,10.9,2.1
		c2.5,0.7,4.9,1.6,7.1,3c1.5,0.9,2.8,1.9,3.8,3.3c1.3,1.9,1.5,4.1,0.3,6.1c-0.8,1.4-2,2.3-3.3,3.2c-1.6,1.1-3.3,1.9-5.1,2.6
		c-2.6,1-5.2,1.7-7.9,2.2c-2.4,0.5-4.7,0.8-7.2,1.1C56.9,28,52.6,28.3,49.5,28.2z M50.6,4.3c-2.4,0-4.6,0.1-6.9,0.2
		c-2,0.1-4.1,0.3-6.1,0.6c-2.2,0.3-4.3,0.7-6.5,1.1c-2.9,0.7-5.7,1.5-8.4,2.8c-1.7,0.8-3.3,1.8-4.6,3.2c-1,1-1.6,2.2-1.7,3.7
		c-0.1,1.5,0.6,2.8,1.6,3.9c1.2,1.3,2.6,2.2,4.1,2.9c2.5,1.2,5.1,2.1,7.8,2.7c1.7,0.4,3.4,0.7,5.2,1c1.6,0.3,3.3,0.5,4.9,0.6
		c1.8,0.2,3.6,0.3,5.4,0.3c2.2,0.1,4.3,0.1,6.5,0c2.4-0.1,4.9-0.2,7.3-0.4c1.8-0.2,3.6-0.4,5.4-0.7c2.5-0.4,5.1-0.9,7.5-1.7
		c2.4-0.7,4.8-1.6,7-2.9c1.4-0.9,2.7-1.9,3.6-3.3c1.1-1.8,1.1-3.6,0-5.3c-0.8-1.3-2-2.3-3.3-3.1C77.3,8.6,75,7.7,72.6,7
		c-1.9-0.6-3.9-1-5.9-1.4c-3-0.6-6-0.9-9-1.1C55.3,4.3,52.9,4.2,50.6,4.3z"/>
	<path id="XMLID_122_" class="st3" d="M50.6,4.3c2.3,0,4.7,0.1,7.1,0.2c3,0.2,6.1,0.6,9,1.1c2,0.4,3.9,0.8,5.9,1.4
		c2.4,0.7,4.7,1.6,6.8,2.9c1.3,0.8,2.5,1.8,3.3,3.1c1.1,1.8,1.1,3.6,0,5.3c-0.9,1.4-2.2,2.4-3.6,3.3c-2.2,1.3-4.5,2.2-7,2.9
		c-2.5,0.7-5,1.3-7.5,1.7c-1.8,0.3-3.6,0.5-5.4,0.7c-2.4,0.2-4.9,0.3-7.3,0.4c-2.2,0.1-4.3,0-6.5,0c-1.8-0.1-3.6-0.2-5.4-0.3
		c-1.7-0.2-3.3-0.4-4.9-0.6c-1.7-0.3-3.5-0.6-5.2-1c-2.7-0.6-5.3-1.5-7.8-2.7c-1.5-0.7-3-1.6-4.1-2.9c-1-1.1-1.7-2.4-1.6-3.9
		c0.1-1.4,0.7-2.6,1.7-3.7c1.3-1.4,2.9-2.4,4.6-3.2c2.7-1.3,5.5-2.1,8.4-2.8c2.1-0.5,4.3-0.9,6.5-1.1c2-0.3,4.1-0.5,6.1-0.6
		C46,4.3,48.2,4.3,50.6,4.3z M39.2,18.2c0,0.4-0.1,0.7-0.1,1c0,0.6,0.4,1,1,0.8c1-0.3,1.6-1,2.1-1.8c0-0.1,0.1-0.1,0-0.2
		c-0.1,0-0.1,0-0.2,0c-0.1,0.1-0.2,0.2-0.2,0.3c-0.2,0.2-0.3,0.5-0.6,0.6c-0.1,0.1-0.3,0.2-0.5,0.1c-0.2-0.1-0.1-0.3-0.1-0.5
		c0.5-1.6,1.1-3.2,1.6-4.8c0.2-0.7,0.2-0.7-0.6-0.8c-0.3,0-0.5,0-0.7,0.3c-0.1,0.3-0.3,0.2-0.4,0.1c-0.3-0.3-0.6-0.4-0.9-0.3
		c-0.4,0-0.8,0.1-1.1,0.3c-1.5,0.7-2.5,1.7-3.1,3.2c-0.3,0.8-0.5,1.7-0.3,2.5c0.2,1,1.1,1.5,2.1,1c0.5-0.2,0.9-0.6,1.3-1
		C38.8,18.6,39,18.4,39.2,18.2z M34,9.8c-0.3,0-0.5,0-0.8,0c-1.9,0.3-3.6,1.1-5,2.4c-1.4,1.3-2.3,2.9-2.1,4.9
		c0.1,1.4,1.3,2.7,2.7,2.9c1.7,0.2,3.2-0.2,4.6-1.2c0.1-0.1,0.3-0.2,0.3-0.4c0-0.1,0.1-0.1,0-0.2c-0.1-0.1-0.1-0.1-0.2,0
		c-0.1,0-0.1,0.1-0.2,0.1c-0.7,0.5-1.5,0.9-2.4,1.1c-1.2,0.2-2.1-0.1-2.7-1c-0.6-0.9-0.5-1.9-0.3-2.8c0.4-1.7,1.4-3.2,2.8-4.2
		c1-0.7,2.1-1.1,3.3-0.9c0.5,0.1,0.5,0.1,0.4,0.6c-0.1,0.4,0.1,0.7,0.4,0.9c0.6,0.2,1.1,0,1.3-0.6c0.2-0.5,0-1-0.6-1.3
		C35.2,9.8,34.6,9.8,34,9.8z M63.8,20c1.3,0,2.4-0.7,3.2-1.7c0-0.1,0.1-0.1,0.1-0.2c-0.1-0.1-0.2,0-0.2,0c-0.5,0.4-1.1,0.7-1.7,0.9
		c-1.1,0.3-1.9-0.2-2-1.3c0-0.6-0.1-0.8,0.4-0.8c0.8-0.1,1.5-0.3,2.3-0.5c0.7-0.2,1.4-0.5,1.9-1.1c0.4-0.5,0.6-1,0.4-1.6
		c-0.2-0.7-0.7-0.9-1.3-1c-1.2-0.2-2.4,0.1-3.3,0.9c-1.4,1.2-2,2.6-1.8,4.5C61.8,19.2,62.6,20,63.8,20z M46.8,15.7
		c-0.1-0.2,0-0.3,0-0.4c0.1-0.6,0.3-1.2,0.3-1.8c0-0.6-0.2-0.8-0.9-0.6c-0.1,0-0.2,0.1-0.3,0.1c-0.8,0.4-1.3,1.1-1.8,1.8
		c-0.1,0.1-0.2,0.2,0,0.3c0.1,0.1,0.2,0,0.3-0.1c0.2-0.2,0.4-0.5,0.6-0.7c0.2-0.2,0.4-0.5,0.6-0.3c0.3,0.2,0.1,0.5,0,0.7
		c-0.4,1.5-0.9,2.9-1.3,4.4c-0.2,0.7-0.1,0.8,0.6,0.8c0.3,0,0.5-0.1,0.6-0.4c0.4-1.1,0.8-2.1,1.3-3.1c0.4-0.8,0.8-1.6,1.4-2.2
		c0.1-0.1,0.2-0.3,0.4-0.2c0.2,0.1,0.2,0.2,0.2,0.4c0.1,0.5,0.5,0.6,0.9,0.4c0.5-0.2,0.7-0.9,0.4-1.5c-0.2-0.4-0.7-0.5-1.2-0.2
		c-0.1,0.1-0.2,0.2-0.4,0.2c-0.6,0.5-1,1.2-1.3,1.8C47.1,15.2,47,15.5,46.8,15.7z M54,13.6c0-0.7-0.3-0.9-0.9-0.7
		c-0.1,0-0.1,0.1-0.2,0.1c-0.7,0.3-1.2,1-1.7,1.6c-0.1,0.1-0.4,0.4-0.2,0.5c0.2,0.2,0.3-0.2,0.4-0.3c0.2-0.2,0.4-0.5,0.7-0.7
		c0.1-0.1,0.2-0.2,0.4-0.1c0.2,0.1,0.1,0.2,0.1,0.4c0,0.1,0,0.1,0,0.2c-0.3,1-0.6,2.1-0.9,3.1c-0.2,0.6-0.3,1.2-0.5,1.8
		c0,0.2,0,0.3,0.2,0.4c0.5,0.2,1,0,1.2-0.5c0.4-1.2,0.9-2.3,1.5-3.4c0.3-0.6,0.6-1.2,1-1.6c0.4-0.4,0.5-0.4,0.7,0.2
		c0.1,0.3,0.2,0.4,0.5,0.4c0.5,0.1,1-0.5,0.9-1.1c-0.1-0.8-0.7-1-1.4-0.7c-0.3,0.1-0.5,0.3-0.7,0.6c-0.5,0.6-0.9,1.3-1.2,1.9
		c0,0.1-0.1,0.2-0.2,0.2c-0.1,0-0.1-0.2,0-0.3C53.8,14.7,54,14.2,54,13.6z M72.1,13.3c0.1-0.6-0.4-0.7-0.9-0.6
		c-0.5,0.2-0.9,0.5-1.3,0.9c-0.2,0.2-0.4,0.5-0.6,0.8c-0.1,0.1-0.1,0.2,0,0.3c0.1,0.1,0.2,0,0.2-0.1c0.2-0.2,0.3-0.5,0.5-0.7
		c0.1-0.2,0.3-0.4,0.6-0.3c0.2,0.1,0.1,0.4,0.1,0.6c-0.5,1.5-0.9,3.1-1.4,4.6c-0.2,0.5,0,0.7,0.5,0.7c0.3,0,0.6,0.1,0.8-0.3
		c0.3-0.8,0.6-1.5,0.9-2.3c0.5-1.1,1-2.2,1.8-3.1c0.1-0.1,0.2-0.2,0.4-0.2c0.2,0,0.2,0.2,0.2,0.3c0.1,0.5,0.5,0.6,0.9,0.4
		c0.3-0.1,0.5-0.4,0.5-0.8c0.1-0.9-0.4-1.3-1.2-1c-0.3,0.1-0.6,0.4-0.8,0.6c-0.5,0.6-0.8,1.2-1.2,1.9c-0.1,0.1-0.1,0.3-0.2,0.2
		c-0.1-0.1,0-0.2,0-0.3C71.9,14.6,72.1,14,72.1,13.3z M56.9,19.2c0,0.6,0.3,0.9,0.9,0.8c1.1-0.3,1.8-0.9,2.4-1.8
		c0.1-0.1,0.2-0.2,0-0.3C60.1,17.8,60,17.9,60,18c-0.3,0.3-0.6,0.5-0.8,0.8c-0.2,0.1-0.3,0.3-0.5,0.2c-0.2-0.1-0.2-0.4-0.1-0.6
		c0.1-0.3,0.2-0.6,0.3-0.9c0.3-0.8,0.5-1.6,0.8-2.3c0.2-0.7,0.4-1.3,0.6-2c0-0.1,0.1-0.4-0.1-0.4c-0.3-0.1-0.7-0.1-1,0
		c-0.3,0.1-0.3,0.3-0.3,0.5c-0.5,1.4-1,2.8-1.4,4.2C57.1,18.1,56.9,18.6,56.9,19.2z M60.9,10.7c0-0.4-0.3-0.7-0.6-0.7
		c-0.5,0-1,0.6-1,1.1c0,0.5,0.2,0.8,0.6,0.8C60.4,11.8,60.9,11.3,60.9,10.7z"/>
	<path id="XMLID_119_" class="st4" d="M39.2,18.2c-0.2,0.2-0.4,0.4-0.6,0.7c-0.4,0.4-0.8,0.8-1.3,1c-1,0.5-1.9,0-2.1-1
		c-0.2-0.9,0-1.7,0.3-2.5c0.6-1.5,1.7-2.5,3.1-3.2c0.4-0.2,0.7-0.3,1.1-0.3c0.4,0,0.7,0.1,0.9,0.3c0.2,0.2,0.3,0.2,0.4-0.1
		c0.1-0.3,0.4-0.3,0.7-0.3c0.7,0,0.8,0,0.6,0.8c-0.5,1.6-1,3.2-1.6,4.8c-0.1,0.2-0.1,0.4,0.1,0.5c0.2,0.1,0.3,0,0.5-0.1
		c0.3-0.2,0.4-0.4,0.6-0.6c0.1-0.1,0.1-0.2,0.2-0.3c0.1,0,0.1-0.1,0.2,0c0.1,0.1,0,0.1,0,0.2c-0.5,0.8-1.2,1.5-2.1,1.8
		c-0.6,0.2-1-0.1-1-0.8C39.1,18.8,39.2,18.5,39.2,18.2z M36.7,17.8c0,0.1,0,0.1,0,0.2c0,0.8,0.6,1.1,1.3,0.8
		c0.2-0.1,0.4-0.3,0.6-0.4c0.9-0.9,1.4-2.1,1.9-3.3c0.1-0.3,0.2-0.6,0.3-0.9c0.1-0.5-0.3-0.9-0.8-0.9c-0.2,0-0.4,0.1-0.6,0.2
		c-0.6,0.4-1.1,0.9-1.5,1.4C37.2,15.7,36.8,16.7,36.7,17.8z"/>
	<path id="XMLID_118_" class="st4" d="M34,9.8c0.6,0,1.2,0,1.8,0.2c0.5,0.2,0.8,0.8,0.6,1.3c-0.2,0.5-0.7,0.8-1.3,0.6
		c-0.4-0.1-0.5-0.4-0.4-0.9c0.1-0.5,0.1-0.5-0.4-0.6c-1.3-0.2-2.3,0.3-3.3,0.9c-1.5,1-2.4,2.5-2.8,4.2c-0.2,0.9-0.3,1.9,0.3,2.8
		c0.6,0.9,1.5,1.3,2.7,1c0.9-0.2,1.6-0.6,2.4-1.1c0.1,0,0.1-0.1,0.2-0.1c0.1-0.1,0.2,0,0.2,0c0.1,0.1,0,0.1,0,0.2
		c-0.1,0.2-0.2,0.3-0.3,0.4c-1.4,1-2.9,1.5-4.6,1.2c-1.4-0.2-2.6-1.5-2.7-2.9c-0.2-2,0.7-3.6,2.1-4.9c1.4-1.3,3.1-2.1,5-2.4
		C33.5,9.8,33.8,9.8,34,9.8z"/>
	<path id="XMLID_115_" class="st4" d="M63.8,20c-1.3,0-2.1-0.8-2.2-1.9c-0.3-1.8,0.4-3.3,1.8-4.5c1-0.8,2.1-1.1,3.3-0.9
		c0.6,0.1,1.1,0.3,1.3,1c0.2,0.6,0,1.1-0.4,1.6c-0.5,0.6-1.1,0.9-1.9,1.1c-0.7,0.2-1.5,0.4-2.3,0.5c-0.5,0.1-0.5,0.2-0.4,0.8
		c0.1,1.1,0.9,1.6,2,1.3c0.6-0.2,1.2-0.5,1.7-0.9c0.1,0,0.1-0.2,0.2,0c0.1,0.1,0,0.2-0.1,0.2C66.2,19.3,65.2,20,63.8,20z M63.9,16.4
		c0.5,0,1.1-0.2,1.6-0.5c0.8-0.4,1.2-1,1.1-2c-0.1-0.8-0.7-1.1-1.4-0.8c-0.4,0.2-0.6,0.4-0.8,0.8c-0.4,0.6-0.7,1.3-1,2
		C63.3,16.3,63.3,16.4,63.9,16.4z"/>
	<path id="XMLID_114_" class="st5" d="M46.8,15.7c0.2-0.2,0.3-0.5,0.5-0.7c0.4-0.7,0.7-1.3,1.3-1.8c0.1-0.1,0.2-0.2,0.4-0.2
		c0.5-0.3,1-0.2,1.2,0.2c0.3,0.6,0.2,1.3-0.4,1.5c-0.4,0.2-0.8,0-0.9-0.4c0-0.1,0-0.3-0.2-0.4c-0.2-0.1-0.3,0.1-0.4,0.2
		c-0.6,0.6-1,1.4-1.4,2.2c-0.5,1-0.9,2-1.3,3.1c-0.1,0.3-0.3,0.4-0.6,0.4c-0.7,0-0.8-0.1-0.6-0.8c0.4-1.5,0.9-2.9,1.3-4.4
		c0.1-0.2,0.3-0.5,0-0.7c-0.3-0.2-0.5,0.1-0.6,0.3c-0.2,0.2-0.4,0.5-0.6,0.7c-0.1,0.1-0.2,0.2-0.3,0.1c-0.1-0.1,0-0.2,0-0.3
		c0.5-0.7,1-1.4,1.8-1.8c0.1,0,0.2-0.1,0.3-0.1c0.6-0.1,0.8,0,0.9,0.6c0,0.6-0.2,1.2-0.3,1.8C46.8,15.4,46.7,15.5,46.8,15.7z"/>
	<path id="XMLID_113_" class="st4" d="M54,13.6c0,0.6-0.2,1.2-0.3,1.8c0,0.1-0.1,0.2,0,0.3c0.1,0.1,0.2-0.1,0.2-0.2
		c0.4-0.7,0.7-1.4,1.2-1.9c0.2-0.2,0.4-0.4,0.7-0.6c0.7-0.4,1.2-0.1,1.4,0.7c0.1,0.6-0.4,1.2-0.9,1.1c-0.3,0-0.4-0.1-0.5-0.4
		c-0.1-0.6-0.2-0.6-0.7-0.2c-0.5,0.5-0.8,1.1-1,1.6c-0.6,1.1-1.1,2.3-1.5,3.4c-0.2,0.5-0.7,0.7-1.2,0.5c-0.2-0.1-0.2-0.3-0.2-0.4
		c0.2-0.6,0.3-1.2,0.5-1.8c0.3-1,0.6-2.1,0.9-3.1c0-0.1,0-0.1,0-0.2c0-0.1,0-0.3-0.1-0.4c-0.1-0.1-0.3,0-0.4,0.1
		c-0.3,0.2-0.4,0.5-0.7,0.7c-0.1,0.1-0.2,0.5-0.4,0.3c-0.2-0.1,0.1-0.4,0.2-0.5c0.5-0.6,0.9-1.2,1.7-1.6c0.1,0,0.1-0.1,0.2-0.1
		C53.7,12.6,54,12.9,54,13.6z"/>
	<path id="XMLID_112_" class="st4" d="M72.1,13.3c0,0.7-0.2,1.3-0.3,1.9c0,0.1-0.2,0.2,0,0.3c0.2,0.1,0.2-0.1,0.2-0.2
		c0.4-0.7,0.7-1.3,1.2-1.9c0.2-0.3,0.5-0.5,0.8-0.6c0.8-0.3,1.3,0.1,1.2,1c0,0.3-0.2,0.6-0.5,0.8c-0.4,0.2-0.8,0-0.9-0.4
		c0-0.1-0.1-0.3-0.2-0.3c-0.2,0-0.3,0.1-0.4,0.2c-0.8,0.9-1.3,2-1.8,3.1c-0.3,0.7-0.6,1.5-0.9,2.3c-0.1,0.4-0.5,0.3-0.8,0.3
		c-0.5,0-0.6-0.1-0.5-0.7c0.5-1.5,0.9-3.1,1.4-4.6c0.1-0.2,0.2-0.5-0.1-0.6c-0.2-0.1-0.4,0.1-0.6,0.3c-0.2,0.2-0.4,0.4-0.5,0.7
		c-0.1,0.1-0.1,0.2-0.2,0.1c-0.1-0.1-0.1-0.2,0-0.3c0.2-0.3,0.4-0.6,0.6-0.8c0.4-0.4,0.7-0.8,1.3-0.9C71.7,12.6,72.1,12.7,72.1,13.3
		z"/>
	<path id="XMLID_111_" class="st4" d="M56.9,19.2c0-0.6,0.3-1.1,0.5-1.7c0.5-1.4,0.9-2.8,1.4-4.2c0.1-0.2,0.1-0.5,0.3-0.5
		c0.3-0.1,0.7-0.1,1,0c0.2,0.1,0.1,0.3,0.1,0.4c-0.2,0.7-0.4,1.3-0.6,2c-0.3,0.8-0.5,1.6-0.8,2.3c-0.1,0.3-0.2,0.6-0.3,0.9
		c0,0.2-0.1,0.4,0.1,0.6c0.2,0.1,0.4,0,0.5-0.2c0.3-0.3,0.6-0.5,0.8-0.8c0.1-0.1,0.2-0.2,0.3-0.1c0.1,0.1,0,0.2,0,0.3
		c-0.6,0.9-1.4,1.5-2.4,1.8C57.2,20.1,56.8,19.8,56.9,19.2z"/>
	<path id="XMLID_110_" class="st5" d="M60.9,10.7c0,0.6-0.4,1.1-1,1.1c-0.4,0-0.6-0.3-0.6-0.8c0-0.5,0.5-1.1,1-1.1
		C60.6,10,60.9,10.3,60.9,10.7z"/>
	<path id="XMLID_109_" class="st6" d="M36.7,17.8c0.1-1.1,0.5-2.1,1.2-2.9c0.4-0.6,0.9-1.1,1.5-1.4c0.2-0.1,0.4-0.2,0.6-0.2
		c0.6,0,0.9,0.3,0.8,0.9c0,0.3-0.1,0.6-0.3,0.9c-0.5,1.1-1,2.3-1.9,3.3c-0.2,0.2-0.4,0.3-0.6,0.4c-0.7,0.4-1.3,0-1.3-0.8
		C36.7,17.9,36.7,17.9,36.7,17.8z"/>
	<path id="XMLID_108_" class="st1" d="M63.9,16.4c-0.6,0-0.6,0-0.4-0.5c0.3-0.7,0.5-1.4,1-2c0.2-0.3,0.4-0.6,0.8-0.8
		c0.7-0.3,1.3,0,1.4,0.8c0.1,0.9-0.4,1.5-1.1,2C65,16.2,64.4,16.4,63.9,16.4z"/>
</g>
</svg>
