<?xml version="1.0" encoding="utf-8"?>
<!-- Generator: Adobe Illustrator 19.0.0, SVG Export Plug-In . SVG Version: 6.00 Build 0)  -->
<svg version="1.1" id="Capa_1" xmlns="http://www.w3.org/2000/svg" xmlns:xlink="http://www.w3.org/1999/xlink" x="0px" y="0px"
	 viewBox="0 0 100 33" style="enable-background:new 0 0 100 33;" xml:space="preserve">
<style type="text/css">
	.st0{fill:#FFFFFF;}
	.st1{fill:#0F66B0;}
	.st2{fill:#1166B0;}
	.st3{fill:#FEFFFF;}
	.st4{fill:#FCFDFE;}
	.st5{fill:#FEFEFE;}
	.st6{fill:#FDFEFE;}
	.st7{fill:none;}
	.st8{fill:#FFFFFF;filter:url(#AI_Alfa_1);}
</style>
<filter  width="100%" height="100%" y="0%" x="0%" filterUnits="objectBoundingBox" id="AI_Alfa_1">
	<feTurbulence  type="turbulence" stitchTiles="noStitch" numOctaves="2" baseFrequency="0.05" result="turb"></feTurbulence>
	<feComposite  operator="in" in2="turb" in="SourceGraphic"></feComposite>
</filter>
<path id="XMLID_1_" class="st0" d="M711.9-24.5c16.5,0,33,0,49.5,0c0.2,0,0.2,0,0.2,0.2c0,10.8,0,21.5,0,32.3c0,0.2,0,0.2-0.2,0.2
	c-33,0-66,0-99,0c-0.2,0-0.2,0-0.2-0.2c0-10.8,0-21.5,0-32.3c0-0.2,0-0.2,0.2-0.2C678.9-24.5,695.4-24.5,711.9-24.5z M674.9-24.3
	c-0.1,0-0.1,0-0.1,0c-0.7,0.3-1.4,0.6-2.2,0.9c-0.2,0.1-0.2,0.1-0.2,0.3c0,1.5,0,3,0,4.5c0,0.1,0,0.2-0.1,0.2
	c-1.1,0.4-2.1,0.9-3,1.5c-4.5,2.9-6.8,7.1-6.9,12.4c0,0.2,0,0.2,0.2,0.2c0.7,0,1.3,0,2,0c0.2,0,0.2,0,0.2-0.2c0-0.8,0.1-1.6,0.3-2.5
	c0.6-3.2,2.4-5.7,5-7.6c0.7-0.5,1.4-0.9,2.2-1.2c0.1-0.1,0.2,0,0.2,0.1c0,0.2,0,0.4,0,0.6c0,0.2,0,0.2-0.2,0.3
	c-4,2.1-6.3,5.3-6.6,9.8c-0.1,2.3,0.4,4.4,1.5,6.4c1.5,2.7,3.6,4.7,6.6,5.7c2.2,0.8,4.4,0.9,6.6,0.5c2.9-0.5,5.5-1.7,7.5-3.9
	c3-3.2,4.1-7,3.4-11.3c-0.5-3.2-2-5.9-4.4-8.1c-3.3-3-7.3-4.1-11.7-3.5c-0.2,0-0.2,0-0.2-0.2c0-1.6,0-3.2,0-4.8
	C674.9-24.1,674.9-24.2,674.9-24.3z M710.3-6.6c0.1-0.1,0.1-0.1,0.3-0.1c0.9-0.1,1.5-0.6,1.7-1.4c0.3-1.1,0.3-2.2,0.1-3.3
	c-0.3-1.2-1.2-2.2-2.9-2.2c-4.2,0-8.5,0-12.7,0c-0.2,0-0.3,0.1-0.3,0.3c0,4.6,0,9.2,0,13.7c0,0.2,0.1,0.3,0.3,0.3c4,0,8.1,0,12.1,0
	c0.5,0,1,0,1.5-0.1c1.1-0.2,2-0.7,2.4-1.8c0.4-1.1,0.5-2.3,0.2-3.5c-0.3-1-0.9-1.6-2-1.8C710.7-6.6,710.5-6.5,710.3-6.6z M761.5-4.1
	c0-1.6,0-3.3,0-4.9c0-0.2-0.1-0.2-0.3-0.2c-1,0-2,0-3.1,0C758-9.3,758-9.2,758-9c0,1,0,2.1,0,3.1c0,0.7,0,1.4,0,2
	c-0.1,1-0.6,1.6-1.6,1.8c-1,0.2-2,0.2-3,0c-0.8-0.1-1.2-0.5-1.3-1.2c0-0.2,0-0.4,0-0.7c0-1.7,0-3.4,0-5.2c0-0.2,0-0.3-0.3-0.3
	c-1.1,0-2.1,0-3.2,0c-0.2,0-0.2,0.1-0.2,0.3c0,1.9,0,3.8,0,5.7c0,0.4,0,0.8,0.1,1.2c0.2,1.3,0.9,2.2,2.1,2.7c1,0.4,2,0.5,3,0.5
	c1.4,0,2.9,0,4.3-0.1c0.1,0,0.1,0,0.1,0.1c0,0.6-0.3,1.1-0.9,1.4c-0.4,0.1-0.8,0.2-1.2,0.2c-2.4,0-4.9,0-7.3,0c-0.2,0-0.2,0-0.2,0.2
	c0,0.7,0,1.5,0,2.2c0,0.2,0,0.2,0.2,0.2c2.4,0,4.8,0,7.2,0c0.9,0,1.8,0,2.6-0.2c1.6-0.3,2.7-1.2,3.1-2.8c0.1-0.6,0.2-1.1,0.2-1.7
	C761.5-1,761.5-2.6,761.5-4.1z M741.7,0.6c1.6,0,3.2,0,4.9,0c0.2,0,0.3-0.1,0.3-0.3c0-2.2,0-4.4,0-6.6c0-0.2,0-0.5,0-0.7
	c-0.1-1-0.5-1.9-1.5-2.4c-0.5-0.3-1.1-0.3-1.7-0.4c-1.4-0.2-2.7-0.2-4.1-0.1c-1,0-2,0-3,0.3c-1.6,0.4-2.5,1.5-2.5,3
	c0,0.1,0,0.2,0.2,0.2c1.1,0,2.2,0,3.3,0c0.1,0,0.2,0,0.2-0.1c0.1-0.4,0.4-0.6,0.8-0.6c0.9-0.1,1.8-0.1,2.7-0.1c0.5,0,0.9,0,1.3,0.2
	c0.5,0.1,0.7,0.4,0.8,0.9c0,0.3,0,0.5,0,0.8c0,0.1,0,0.2-0.1,0.3c-0.1,0-0.2-0.1-0.2-0.1c-0.2-0.3-0.5-0.4-0.8-0.5
	c-0.3-0.1-0.6-0.1-1-0.1c-1.2-0.1-2.4,0-3.7-0.1c-0.5,0-1,0-1.5,0.1c-1.1,0.2-1.8,0.8-2.1,1.9c-0.3,0.9-0.2,1.8,0,2.8
	c0.2,0.9,0.9,1.5,1.8,1.7c0.6,0.1,1.1,0.2,1.7,0.2C738.8,0.6,740.2,0.6,741.7,0.6z M721.8,0.6c1.7,0,3.4,0,5.1,0
	c0.2,0,0.3,0,0.3-0.3c0-2.3,0-4.6,0-6.9c0-0.4,0-0.7-0.2-1.1c-0.3-1-0.8-1.7-1.9-2c-0.4-0.1-0.8-0.2-1.2-0.2
	c-1.4-0.1-2.7-0.2-4.1-0.1c-1,0-2,0-3,0.3c-1.6,0.4-2.4,1.4-2.5,3c0,0.1,0,0.2,0.2,0.2c1.1,0,2.2,0,3.2,0c0.1,0,0.2,0,0.2-0.1
	c0.1-0.4,0.4-0.6,0.7-0.6c1.1-0.1,2.3-0.1,3.4,0c0.3,0,0.6,0.1,0.8,0.2c0.3,0.1,0.5,0.3,0.6,0.7c0.1,0.3,0,0.7,0,1
	c0,0.1,0,0.2-0.1,0.2c-0.1,0-0.2,0-0.2-0.1c-0.2-0.3-0.6-0.5-0.9-0.6c-0.3-0.1-0.6-0.1-0.9-0.1c-1.2-0.1-2.5,0-3.7-0.1
	c-0.5,0-1,0-1.4,0.1c-1.2,0.2-2,1-2.2,2.2c-0.1,0.7-0.1,1.5,0,2.2c0.2,1.1,0.9,1.8,2.1,2c0.5,0.1,1,0.1,1.5,0.1
	C718.9,0.6,720.4,0.6,721.8,0.6z M732.4-6.5c0-2.3,0-4.6,0-6.9c0-0.2,0-0.2-0.2-0.2c-1,0-2,0-3,0c-0.2,0-0.2,0-0.2,0.2
	c0,4.6,0,9.2,0,13.8c0,0.2,0.1,0.2,0.2,0.2c1,0,2,0,3,0c0.2,0,0.3,0,0.3-0.3C732.4-1.9,732.4-4.2,732.4-6.5z"/>
<path id="XMLID_9_" class="st1" d="M674.9-24.3c0,0.1,0,0.2,0,0.2c0,1.6,0,3.2,0,4.8c0,0.2,0,0.2,0.2,0.2c4.5-0.6,8.4,0.5,11.7,3.5
	c2.4,2.2,3.9,4.9,4.4,8.1c0.7,4.3-0.4,8.1-3.4,11.3c-2,2.2-4.5,3.4-7.5,3.9c-2.3,0.4-4.5,0.2-6.6-0.5c-3-1.1-5.1-3-6.6-5.7
	c-1.1-2-1.6-4.1-1.5-6.4c0.3-4.5,2.6-7.7,6.6-9.8c0.1-0.1,0.2-0.1,0.2-0.3c0-0.2,0-0.4,0-0.6c0-0.2,0-0.2-0.2-0.1
	c-0.8,0.3-1.5,0.7-2.2,1.2c-2.7,1.9-4.4,4.4-5,7.6c-0.2,0.8-0.2,1.6-0.3,2.5c0,0.2,0,0.2-0.2,0.2c-0.7,0-1.3,0-2,0
	c-0.2,0-0.2-0.1-0.2-0.2c0.1-5.3,2.4-9.4,6.9-12.4c0.9-0.6,1.9-1.1,3-1.5c0.1,0,0.1-0.1,0.1-0.2c0-1.5,0-3,0-4.5
	c0-0.2,0-0.2,0.2-0.3c0.7-0.3,1.4-0.6,2.2-0.9C674.8-24.3,674.8-24.3,674.9-24.3z M674.9-6.7c0,0.7,0,1.5,0,2.2c0,0.4,0,0.8,0.1,1.2
	c0.3,1,0.8,1.8,1.8,2.1c1.2,0.4,2.5,0.3,3.5-0.4c1.4-0.9,2-2.3,1.8-4c-0.2-2.2-2.2-4.6-5.6-4.3c-0.5,0.1-1,0.2-1.5,0.4
	c-0.1,0.1-0.2,0.1-0.2,0.3C674.9-8.4,674.9-7.6,674.9-6.7z M672.4-12c-0.1,0.1-0.2,0.1-0.2,0.1c-2.6,1.8-4,4.3-4.1,7.4
	c0,1.3,0.2,2.5,0.7,3.6c1.6,3.7,4.2,5.9,8.4,6.3c3.5,0.3,6.4-0.8,8.8-3.3c1.7-1.8,2.6-3.9,2.9-6.3c0.2-1.6-0.1-3.2-0.6-4.8
	c-1.9-5.3-7.1-8.6-13-7.7c-0.5,0.1-0.5,0.1-0.5,0.5c0,0.1,0,0.2,0,0.2c0,0.2,0.1,0.2,0.3,0.2c1.1-0.2,2.3-0.3,3.4-0.1
	c2.3,0.3,4.4,1.2,6,2.8c2.7,2.6,3.9,5.7,3.3,9.4c-0.4,2.7-1.8,4.9-4.1,6.4c-2.1,1.4-4.4,2-6.9,1.7c-2.3-0.3-4.1-1.3-5.6-3
	c-1.7-2-2.5-4.2-2.2-6.8c0.3-2.3,1.4-4.1,3.2-5.5c0.1-0.1,0.2-0.1,0.2-0.2C672.4-11.3,672.4-11.6,672.4-12z M674.9-12.1
	c0.1,0,0.1,0,0.1,0c1.2-0.3,2.5-0.4,3.7-0.2c2.5,0.5,4.2,1.9,5.2,4.2c0.9,2,1,4.1-0.1,6c-1.3,2.4-4,3.7-6.6,3.3
	c-2.7-0.4-4.8-2.8-4.8-5.4c0-0.9,0-1.9,0-2.8c0-0.1,0-0.1,0-0.3c-0.1,0.1-0.1,0.2-0.2,0.3c-0.1,0.1-0.2,0.3-0.3,0.4
	c-0.8,1.8-0.6,3.6,0.3,5.3c1.6,2.9,5.1,4.1,8.3,3c3.1-1.1,5.1-4.1,4.9-7.3c-0.1-2.2-0.9-4-2.5-5.5c-2.3-2.1-5-2.7-8-2
	c-0.1,0-0.1,0-0.1,0.1C674.9-12.6,674.9-12.4,674.9-12.1z"/>
<path id="XMLID_14_" class="st2" d="M710.3-6.6c0.2,0.1,0.4,0.1,0.6,0.1c1.1,0.1,1.8,0.7,2,1.8c0.3,1.2,0.3,2.4-0.2,3.5
	c-0.4,1.1-1.3,1.6-2.4,1.8c-0.5,0.1-1,0.1-1.5,0.1c-4,0-8.1,0-12.1,0c-0.2,0-0.3,0-0.3-0.3c0-4.6,0-9.2,0-13.7c0-0.2,0-0.3,0.3-0.3
	c4.2,0,8.5,0,12.7,0c1.7,0,2.6,1,2.9,2.2c0.3,1.1,0.2,2.2-0.1,3.3c-0.2,0.8-0.8,1.3-1.7,1.4C710.4-6.7,710.4-6.7,710.3-6.6z
	 M704-2.9c0.5,0,1,0,1.5,0c0.7,0,1.4,0,2.1,0c0.3,0,0.7-0.1,0.8-0.5c0.2-0.4,0.2-0.8,0-1.2c-0.2-0.5-0.6-0.6-1.1-0.6
	c-2.3,0-4.6,0-6.9,0c-0.2,0-0.2,0.1-0.2,0.2c0,0.6,0,1.2,0,1.8c0,0.2,0,0.2,0.2,0.2C701.7-2.9,702.9-2.9,704-2.9z M704-8.1
	c0.3,0,0.6,0,1,0c0.9,0,1.7,0,2.6,0c0.6,0,0.9-0.3,1-0.8c0-0.2,0-0.4,0-0.7c-0.1-0.4-0.3-0.6-0.7-0.7c-0.3-0.1-0.5-0.1-0.8-0.1
	c-2.2,0-4.4,0-6.5,0c-0.2,0-0.2,0-0.2,0.2c0,0.6,0,1.2,0,1.8c0,0.2,0.1,0.2,0.2,0.2C701.7-8.1,702.8-8.1,704-8.1z"/>
<path id="XMLID_18_" class="st1" d="M761.5-4.1c0,1.5,0,3.1,0,4.6c0,0.6-0.1,1.1-0.2,1.7c-0.4,1.6-1.5,2.5-3.1,2.8
	c-0.9,0.2-1.8,0.2-2.6,0.2c-2.4,0-4.8,0-7.2,0c-0.2,0-0.2-0.1-0.2-0.2c0-0.7,0-1.5,0-2.2c0-0.2,0.1-0.2,0.2-0.2c2.4,0,4.9,0,7.3,0
	c0.4,0,0.8,0,1.2-0.2c0.6-0.2,0.9-0.7,0.9-1.4c0-0.1-0.1-0.1-0.1-0.1C756.3,1,754.9,1,753.4,1c-1,0-2-0.1-3-0.5
	c-1.2-0.5-1.9-1.4-2.1-2.7c-0.1-0.4-0.1-0.8-0.1-1.2c0-1.9,0-3.8,0-5.7c0-0.2,0-0.3,0.2-0.3c1.1,0,2.1,0,3.2,0
	c0.2,0,0.3,0.1,0.3,0.3c0,1.7,0,3.4,0,5.2c0,0.2,0,0.4,0,0.7c0.1,0.7,0.5,1.1,1.3,1.2c1,0.2,2,0.2,3,0c1-0.2,1.5-0.8,1.6-1.8
	c0.1-0.7,0-1.4,0-2c0-1,0-2.1,0-3.1c0-0.2,0-0.2,0.2-0.2c1,0,2,0,3.1,0c0.2,0,0.3,0,0.3,0.2C761.5-7.4,761.5-5.7,761.5-4.1z"/>
<path id="XMLID_19_" class="st1" d="M741.7,0.6c-1.5,0-3,0-4.5,0c-0.6,0-1.1,0-1.7-0.2c-0.9-0.2-1.6-0.8-1.8-1.7
	c-0.2-0.9-0.3-1.8,0-2.8c0.3-1.1,1.1-1.6,2.1-1.9c0.5-0.1,1-0.2,1.5-0.1c1.2,0,2.4,0,3.7,0.1c0.3,0,0.7,0.1,1,0.1
	c0.3,0.1,0.6,0.2,0.8,0.5c0.1,0.1,0.1,0.2,0.2,0.1c0.1,0,0.1-0.2,0.1-0.3c0-0.3,0-0.5,0-0.8c-0.1-0.5-0.3-0.7-0.8-0.9
	c-0.4-0.1-0.9-0.2-1.3-0.2c-0.9,0-1.8-0.1-2.7,0.1c-0.4,0.1-0.7,0.2-0.8,0.6c0,0.1-0.1,0.1-0.2,0.1c-1.1,0-2.2,0-3.3,0
	c-0.2,0-0.2-0.1-0.2-0.2c0-1.5,1-2.6,2.5-3c1-0.2,2-0.3,3-0.3c1.4,0,2.7,0,4.1,0.1c0.6,0.1,1.1,0.1,1.7,0.4c1,0.5,1.4,1.4,1.5,2.4
	c0,0.2,0,0.5,0,0.7c0,2.2,0,4.4,0,6.6c0,0.2,0,0.3-0.3,0.3C745,0.6,743.3,0.6,741.7,0.6z M740.2-1.7c0.2,0,0.4,0,0.6,0
	c0.6,0,1.1,0,1.7-0.2c0.5-0.2,0.7-0.5,0.7-1.1c0-0.4-0.3-0.6-0.8-0.8c-0.1,0-0.2,0-0.3-0.1c-0.9-0.1-1.9-0.1-2.8-0.1
	c-0.5,0-1,0-1.5,0.2c-0.2,0.1-0.4,0.2-0.5,0.4c-0.4,0.7,0,1.5,0.8,1.6C738.8-1.7,739.5-1.7,740.2-1.7z"/>
<path id="XMLID_22_" class="st1" d="M721.8,0.6c-1.4,0-2.8,0-4.3,0c-0.5,0-1,0-1.5-0.1c-1.2-0.2-1.8-0.8-2.1-2
	c-0.2-0.7-0.2-1.5,0-2.2c0.2-1.2,1-1.9,2.2-2.2c0.5-0.1,1-0.1,1.4-0.1c1.2,0,2.5,0,3.7,0.1c0.3,0,0.6,0.1,0.9,0.1
	c0.4,0.1,0.7,0.3,0.9,0.6c0.1,0.1,0.1,0.1,0.2,0.1c0.1,0,0.1-0.1,0.1-0.2c0-0.3,0-0.7,0-1c-0.1-0.3-0.3-0.5-0.6-0.7
	c-0.3-0.1-0.5-0.2-0.8-0.2c-1.1-0.1-2.3-0.1-3.4,0c-0.4,0-0.7,0.2-0.7,0.6c0,0.1-0.1,0.1-0.2,0.1c-1.1,0-2.2,0-3.2,0
	c-0.2,0-0.2-0.1-0.2-0.2c0.1-1.5,1-2.6,2.5-3c1-0.2,2-0.3,3-0.3c1.4,0,2.7,0,4.1,0.1c0.4,0,0.8,0.1,1.2,0.2c1,0.3,1.6,1,1.9,2
	c0.1,0.4,0.2,0.7,0.2,1.1c0,2.3,0,4.6,0,6.9c0,0.2,0,0.3-0.3,0.3C725.1,0.6,723.5,0.6,721.8,0.6z M720.4-1.7c0.2,0,0.4,0,0.6,0
	c0.6,0,1.1,0,1.7-0.2c0.5-0.2,0.7-0.5,0.7-1.1c0-0.4-0.2-0.7-0.8-0.8c-0.1,0-0.2,0-0.3-0.1c-0.9-0.1-1.9-0.1-2.8-0.1
	c-0.5,0-1,0-1.5,0.2c-0.2,0.1-0.4,0.2-0.5,0.4c-0.4,0.7,0,1.5,0.8,1.6C719-1.7,719.7-1.7,720.4-1.7z"/>
<path id="XMLID_25_" class="st2" d="M732.4-6.5c0,2.3,0,4.6,0,6.9c0,0.2-0.1,0.3-0.3,0.3c-1,0-2,0-3,0c-0.2,0-0.2,0-0.2-0.2
	c0-4.6,0-9.2,0-13.8c0-0.2,0.1-0.2,0.2-0.2c1,0,2,0,3,0c0.2,0,0.2,0.1,0.2,0.2C732.4-11.1,732.4-8.8,732.4-6.5z"/>
<path id="XMLID_26_" class="st3" d="M674.9-6.7c0-0.8,0-1.7,0-2.5c0-0.1,0-0.2,0.2-0.3c0.5-0.2,1-0.4,1.5-0.4
	c3.4-0.3,5.4,2.1,5.6,4.3c0.1,1.6-0.4,3-1.8,4c-1.1,0.7-2.3,0.9-3.5,0.4c-1-0.4-1.5-1.2-1.8-2.1c-0.1-0.4-0.2-0.8-0.1-1.2
	C674.9-5.3,674.9-6,674.9-6.7z"/>
<path id="XMLID_27_" class="st4" d="M672.4-12c0,0.4,0,0.7,0,1c0,0.1-0.1,0.2-0.2,0.2c-1.8,1.4-2.9,3.3-3.2,5.5
	c-0.3,2.6,0.5,4.9,2.2,6.8c1.5,1.7,3.4,2.7,5.6,3c2.5,0.3,4.9-0.3,6.9-1.7c2.3-1.6,3.7-3.7,4.1-6.4c0.5-3.7-0.6-6.8-3.3-9.4
	c-1.7-1.6-3.7-2.5-6-2.8c-1.1-0.1-2.3-0.1-3.4,0.1c-0.2,0-0.3,0-0.3-0.2c0-0.1,0-0.2,0-0.2c0-0.5,0-0.5,0.5-0.5
	c5.9-0.9,11.1,2.4,13,7.7c0.6,1.5,0.8,3.1,0.6,4.8c-0.3,2.4-1.2,4.5-2.9,6.3c-2.4,2.5-5.4,3.6-8.8,3.3c-4.2-0.3-6.8-2.6-8.4-6.3
	c-0.5-1.2-0.7-2.4-0.7-3.6c0.1-3.1,1.5-5.6,4.1-7.4C672.2-11.9,672.3-11.9,672.4-12z"/>
<path id="XMLID_28_" class="st4" d="M674.9-12.1c0-0.3,0-0.6,0-0.8c0-0.1,0.1-0.1,0.1-0.1c3-0.7,5.7,0,8,2c1.6,1.5,2.4,3.4,2.5,5.5
	c0.2,3.2-1.8,6.2-4.9,7.3c-3.2,1.1-6.7-0.2-8.3-3c-0.9-1.7-1.1-3.5-0.3-5.3c0.1-0.2,0.2-0.3,0.3-0.4c0-0.1,0.1-0.1,0.2-0.3
	c0,0.1,0,0.2,0,0.3c0,0.9,0,1.9,0,2.8c0,2.6,2.2,5,4.8,5.4c2.7,0.4,5.3-1,6.6-3.3c1.1-2,1-4,0.1-6c-1-2.3-2.7-3.7-5.2-4.2
	c-1.3-0.2-2.5-0.2-3.7,0.2C675-12.1,674.9-12.1,674.9-12.1z"/>
<path id="XMLID_29_" class="st0" d="M704-2.9c-1.2,0-2.3,0-3.5,0c-0.2,0-0.2,0-0.2-0.2c0-0.6,0-1.2,0-1.8c0-0.1,0-0.2,0.2-0.2
	c2.3,0,4.6,0,6.9,0c0.4,0,0.9,0.1,1.1,0.6c0.2,0.4,0.1,0.8,0,1.2c-0.1,0.3-0.5,0.4-0.8,0.5c-0.7,0-1.4,0-2.1,0
	C705-2.8,704.5-2.9,704-2.9z"/>
<path id="XMLID_30_" class="st0" d="M704-8.1c-1.2,0-2.3,0-3.5,0c-0.2,0-0.2,0-0.2-0.2c0-0.6,0-1.2,0-1.8c0-0.2,0.1-0.2,0.2-0.2
	c2.2,0,4.4,0,6.5,0c0.3,0,0.5,0,0.8,0.1c0.4,0.1,0.7,0.3,0.7,0.7c0,0.2,0,0.4,0,0.7c-0.1,0.5-0.4,0.7-1,0.8c-0.9,0-1.7,0-2.6,0
	C704.6-8.1,704.3-8.1,704-8.1z"/>
<path id="XMLID_31_" class="st5" d="M740.2-1.7c-0.7,0-1.4,0-2.1-0.1c-0.8-0.1-1.2-0.9-0.8-1.6c0.1-0.2,0.3-0.3,0.5-0.4
	c0.5-0.2,1-0.2,1.5-0.2c0.9,0,1.9-0.1,2.8,0.1c0.1,0,0.2,0,0.3,0.1c0.5,0.1,0.7,0.4,0.8,0.8c0,0.6-0.2,0.9-0.7,1.1
	c-0.5,0.2-1.1,0.2-1.7,0.2C740.6-1.7,740.4-1.7,740.2-1.7z"/>
<path id="XMLID_32_" class="st6" d="M720.4-1.7c-0.7,0-1.4,0-2.1-0.1c-0.8-0.1-1.2-0.9-0.8-1.6c0.1-0.2,0.3-0.3,0.5-0.4
	c0.5-0.2,1-0.2,1.5-0.2c0.9,0,1.9-0.1,2.8,0.1c0.1,0,0.2,0,0.3,0.1c0.5,0.1,0.7,0.4,0.8,0.8c0,0.5-0.2,0.9-0.7,1.1
	c-0.5,0.2-1.1,0.2-1.7,0.2C720.8-1.7,720.6-1.7,720.4-1.7z"/>
<rect id="_x3C_Sector_x3E_" x="661.9" y="-24.8" class="st7" width="100" height="33"/>
<path id="XMLID_174_" class="st8" d="M50,0.3c16.5,0,33,0,49.5,0c0.2,0,0.2,0,0.2,0.2c0,10.8,0,21.5,0,32.3c0,0.2,0,0.2-0.2,0.2
	c-33,0-66,0-99,0c-0.2,0-0.2,0-0.2-0.2c0-10.8,0-21.5,0-32.3c0-0.2,0-0.2,0.2-0.2C17.1,0.3,33.6,0.3,50,0.3z M13,0.5
	c-0.1,0-0.1,0-0.1,0c-0.7,0.3-1.4,0.6-2.2,0.9c-0.2,0.1-0.2,0.1-0.2,0.3c0,1.5,0,3,0,4.5c0,0.1,0,0.2-0.1,0.2C9.3,6.8,8.3,7.3,7.3,8
	C2.8,10.9,0.5,15,0.4,20.3c0,0.2,0,0.2,0.2,0.2c0.7,0,1.3,0,2,0c0.2,0,0.2,0,0.2-0.2c0-0.8,0.1-1.6,0.3-2.5c0.6-3.2,2.4-5.7,5-7.6
	c0.7-0.5,1.4-0.9,2.2-1.2c0.1-0.1,0.2,0,0.2,0.1c0,0.2,0,0.4,0,0.6c0,0.2,0,0.2-0.2,0.3c-4,2.1-6.3,5.3-6.6,9.8
	c-0.1,2.3,0.4,4.4,1.5,6.4C6.7,29,8.9,31,11.8,32c2.2,0.8,4.4,0.9,6.6,0.5c2.9-0.5,5.5-1.7,7.5-3.9c3-3.2,4.1-7,3.4-11.3
	c-0.5-3.2-2-5.9-4.4-8.1c-3.3-3-7.3-4.1-11.7-3.5c-0.2,0-0.2,0-0.2-0.2c0-1.6,0-3.2,0-4.8C13,0.7,13,0.6,13,0.5z M48.4,18.2
	c0.1-0.1,0.1-0.1,0.3-0.1c0.9-0.1,1.5-0.6,1.7-1.4c0.3-1.1,0.3-2.2,0.1-3.3c-0.3-1.2-1.2-2.2-2.9-2.2c-4.2,0-8.5,0-12.7,0
	c-0.2,0-0.3,0.1-0.3,0.3c0,4.6,0,9.2,0,13.7c0,0.2,0.1,0.3,0.3,0.3c4,0,8.1,0,12.1,0c0.5,0,1,0,1.5-0.1c1.1-0.2,2-0.7,2.4-1.8
	c0.4-1.1,0.5-2.3,0.2-3.5c-0.3-1-0.9-1.6-2-1.8C48.8,18.2,48.6,18.3,48.4,18.2z M99.6,20.7c0-1.6,0-3.3,0-4.9c0-0.2-0.1-0.2-0.3-0.2
	c-1,0-2,0-3.1,0c-0.2,0-0.2,0.1-0.2,0.2c0,1,0,2.1,0,3.1c0,0.7,0,1.4,0,2c-0.1,1-0.6,1.6-1.6,1.8c-1,0.2-2,0.2-3,0
	c-0.8-0.1-1.2-0.5-1.3-1.2c0-0.2,0-0.4,0-0.7c0-1.7,0-3.4,0-5.2c0-0.2,0-0.3-0.3-0.3c-1.1,0-2.1,0-3.2,0c-0.2,0-0.2,0.1-0.2,0.3
	c0,1.9,0,3.8,0,5.7c0,0.4,0,0.8,0.1,1.2c0.2,1.3,0.9,2.2,2.1,2.7c1,0.4,2,0.5,3,0.5c1.4,0,2.9,0,4.3-0.1c0.1,0,0.1,0,0.1,0.1
	c0,0.6-0.3,1.1-0.9,1.4c-0.4,0.1-0.8,0.2-1.2,0.2c-2.4,0-4.9,0-7.3,0c-0.2,0-0.2,0-0.2,0.2c0,0.7,0,1.5,0,2.2c0,0.2,0,0.2,0.2,0.2
	c2.4,0,4.8,0,7.2,0c0.9,0,1.8,0,2.6-0.2c1.6-0.3,2.7-1.2,3.1-2.8c0.1-0.6,0.2-1.1,0.2-1.7C99.6,23.8,99.6,22.2,99.6,20.7z
	 M79.9,25.4c1.6,0,3.2,0,4.9,0c0.2,0,0.3-0.1,0.3-0.3c0-2.2,0-4.4,0-6.6c0-0.2,0-0.5,0-0.7c-0.1-1-0.5-1.9-1.5-2.4
	c-0.5-0.3-1.1-0.3-1.7-0.4c-1.4-0.2-2.7-0.2-4.1-0.1c-1,0-2,0-3,0.3c-1.6,0.4-2.5,1.5-2.5,3c0,0.1,0,0.2,0.2,0.2c1.1,0,2.2,0,3.3,0
	c0.1,0,0.2,0,0.2-0.1c0.1-0.4,0.4-0.6,0.8-0.6c0.9-0.1,1.8-0.1,2.7-0.1c0.5,0,0.9,0,1.3,0.2c0.5,0.1,0.7,0.4,0.8,0.9
	c0,0.3,0,0.5,0,0.8c0,0.1,0,0.2-0.1,0.3c-0.1,0-0.2-0.1-0.2-0.1c-0.2-0.3-0.5-0.4-0.8-0.5c-0.3-0.1-0.6-0.1-1-0.1
	c-1.2-0.1-2.4,0-3.7-0.1c-0.5,0-1,0-1.5,0.1c-1.1,0.2-1.8,0.8-2.1,1.9c-0.3,0.9-0.2,1.8,0,2.8c0.2,0.9,0.9,1.5,1.8,1.7
	c0.6,0.1,1.1,0.2,1.7,0.2C76.9,25.4,78.4,25.4,79.9,25.4z M59.9,25.4c1.7,0,3.4,0,5.1,0c0.2,0,0.3,0,0.3-0.3c0-2.3,0-4.6,0-6.9
	c0-0.4,0-0.7-0.2-1.1c-0.3-1-0.8-1.7-1.9-2c-0.4-0.1-0.8-0.2-1.2-0.2c-1.4-0.1-2.7-0.2-4.1-0.1c-1,0-2,0-3,0.3
	c-1.6,0.4-2.4,1.4-2.5,3c0,0.1,0,0.2,0.2,0.2c1.1,0,2.2,0,3.2,0c0.1,0,0.2,0,0.2-0.1c0.1-0.4,0.4-0.6,0.7-0.6c1.1-0.1,2.3-0.1,3.4,0
	c0.3,0,0.6,0.1,0.8,0.2c0.3,0.1,0.5,0.3,0.6,0.7c0.1,0.3,0,0.7,0,1c0,0.1,0,0.2-0.1,0.2c-0.1,0-0.2,0-0.2-0.1
	c-0.2-0.3-0.6-0.5-0.9-0.6c-0.3-0.1-0.6-0.1-0.9-0.1c-1.2-0.1-2.5,0-3.7-0.1c-0.5,0-1,0-1.4,0.1c-1.2,0.2-2,1-2.2,2.2
	c-0.1,0.7-0.1,1.5,0,2.2c0.2,1.1,0.9,1.8,2.1,2c0.5,0.1,1,0.1,1.5,0.1C57.1,25.4,58.5,25.4,59.9,25.4z M70.5,18.3c0-2.3,0-4.6,0-6.9
	c0-0.2,0-0.2-0.2-0.2c-1,0-2,0-3,0c-0.2,0-0.2,0-0.2,0.2c0,4.6,0,9.2,0,13.8c0,0.2,0.1,0.2,0.2,0.2c1,0,2,0,3,0c0.2,0,0.3,0,0.3-0.3
	C70.5,22.9,70.5,20.6,70.5,18.3z"/>
<path id="XMLID_169_" class="st1" d="M13,0.5c0,0.1,0,0.2,0,0.2c0,1.6,0,3.2,0,4.8c0,0.2,0,0.2,0.2,0.2c4.5-0.6,8.4,0.5,11.7,3.5
	c2.4,2.2,3.9,4.9,4.4,8.1c0.7,4.3-0.4,8.1-3.4,11.3c-2,2.2-4.5,3.4-7.5,3.9c-2.3,0.4-4.5,0.2-6.6-0.5c-3-1.1-5.1-3-6.6-5.7
	c-1.1-2-1.6-4.1-1.5-6.4c0.3-4.5,2.6-7.7,6.6-9.8c0.1-0.1,0.2-0.1,0.2-0.3c0-0.2,0-0.4,0-0.6c0-0.2,0-0.2-0.2-0.1
	c-0.8,0.3-1.5,0.7-2.2,1.2c-2.7,1.9-4.4,4.4-5,7.6c-0.2,0.8-0.2,1.6-0.3,2.5c0,0.2,0,0.2-0.2,0.2c-0.7,0-1.3,0-2,0
	c-0.2,0-0.2-0.1-0.2-0.2C0.5,15,2.8,10.9,7.3,8c0.9-0.6,1.9-1.1,3-1.5c0.1,0,0.1-0.1,0.1-0.2c0-1.5,0-3,0-4.5c0-0.2,0-0.2,0.2-0.3
	c0.7-0.3,1.4-0.6,2.2-0.9C12.9,0.5,12.9,0.5,13,0.5z M13,18.1c0,0.7,0,1.5,0,2.2c0,0.4,0,0.8,0.1,1.2c0.3,1,0.8,1.8,1.8,2.1
	c1.2,0.4,2.5,0.3,3.5-0.4c1.4-0.9,2-2.3,1.8-4c-0.2-2.2-2.2-4.6-5.6-4.3c-0.5,0.1-1,0.2-1.5,0.4C13,15.3,13,15.4,13,15.5
	C13,16.4,13,17.2,13,18.1z M10.5,12.8c-0.1,0.1-0.2,0.1-0.2,0.1c-2.6,1.8-4,4.3-4.1,7.4c0,1.3,0.2,2.5,0.7,3.6
	c1.6,3.7,4.2,5.9,8.4,6.3c3.5,0.3,6.4-0.8,8.8-3.3c1.7-1.8,2.6-3.9,2.9-6.3c0.2-1.6-0.1-3.2-0.6-4.8c-1.9-5.3-7.1-8.6-13-7.7
	C13,8.3,13,8.3,13,8.7c0,0.1,0,0.2,0,0.2c0,0.2,0.1,0.2,0.3,0.2c1.1-0.2,2.3-0.3,3.4-0.1c2.3,0.3,4.4,1.2,6,2.8
	c2.7,2.6,3.9,5.7,3.3,9.4c-0.4,2.7-1.8,4.9-4.1,6.4c-2.1,1.4-4.4,2-6.9,1.7c-2.3-0.3-4.1-1.3-5.6-3c-1.7-2-2.5-4.2-2.2-6.8
	c0.3-2.3,1.4-4.1,3.2-5.5c0.1-0.1,0.2-0.1,0.2-0.2C10.5,13.5,10.5,13.2,10.5,12.8z M13,12.7c0.1,0,0.1,0,0.1,0
	c1.2-0.3,2.5-0.4,3.7-0.2c2.5,0.5,4.2,1.9,5.2,4.2c0.9,2,1,4.1-0.1,6c-1.3,2.4-4,3.7-6.6,3.3c-2.7-0.4-4.8-2.8-4.8-5.4
	c0-0.9,0-1.9,0-2.8c0-0.1,0-0.1,0-0.3c-0.1,0.1-0.1,0.2-0.2,0.3c-0.1,0.1-0.2,0.3-0.3,0.4c-0.8,1.8-0.6,3.6,0.3,5.3
	c1.6,2.9,5.1,4.1,8.3,3c3.1-1.1,5.1-4.1,4.9-7.3c-0.1-2.2-0.9-4-2.5-5.5c-2.3-2.1-5-2.7-8-2c-0.1,0-0.1,0-0.1,0.1
	C13,12.2,13,12.4,13,12.7z"/>
<path id="XMLID_165_" class="st2" d="M48.4,18.2c0.2,0.1,0.4,0.1,0.6,0.1c1.1,0.1,1.8,0.7,2,1.8c0.3,1.2,0.3,2.4-0.2,3.5
	c-0.4,1.1-1.3,1.6-2.4,1.8c-0.5,0.1-1,0.1-1.5,0.1c-4,0-8.1,0-12.1,0c-0.2,0-0.3,0-0.3-0.3c0-4.6,0-9.2,0-13.7c0-0.2,0-0.3,0.3-0.3
	c4.2,0,8.5,0,12.7,0c1.7,0,2.6,1,2.9,2.2c0.3,1.1,0.2,2.2-0.1,3.3c-0.2,0.8-0.8,1.3-1.7,1.4C48.5,18.1,48.5,18.1,48.4,18.2z
	 M42.2,21.9c0.5,0,1,0,1.5,0c0.7,0,1.4,0,2.1,0c0.3,0,0.7-0.1,0.8-0.5c0.2-0.4,0.2-0.8,0-1.2c-0.2-0.5-0.6-0.6-1.1-0.6
	c-2.3,0-4.6,0-6.9,0c-0.2,0-0.2,0.1-0.2,0.2c0,0.6,0,1.2,0,1.8c0,0.2,0,0.2,0.2,0.2C39.8,21.9,41,21.9,42.2,21.9z M42.1,16.7
	c0.3,0,0.6,0,1,0c0.9,0,1.7,0,2.6,0c0.6,0,0.9-0.3,1-0.8c0-0.2,0-0.4,0-0.7c-0.1-0.4-0.3-0.6-0.7-0.7c-0.3-0.1-0.5-0.1-0.8-0.1
	c-2.2,0-4.4,0-6.5,0c-0.2,0-0.2,0-0.2,0.2c0,0.6,0,1.2,0,1.8c0,0.2,0.1,0.2,0.2,0.2C39.8,16.7,41,16.7,42.1,16.7z"/>
<path id="XMLID_164_" class="st1" d="M99.6,20.7c0,1.5,0,3.1,0,4.6c0,0.6-0.1,1.1-0.2,1.7c-0.4,1.6-1.5,2.5-3.1,2.8
	c-0.9,0.2-1.8,0.2-2.6,0.2c-2.4,0-4.8,0-7.2,0c-0.2,0-0.2-0.1-0.2-0.2c0-0.7,0-1.5,0-2.2c0-0.2,0.1-0.2,0.2-0.2c2.4,0,4.9,0,7.3,0
	c0.4,0,0.8,0,1.2-0.2c0.6-0.2,0.9-0.7,0.9-1.4c0-0.1-0.1-0.1-0.1-0.1c-1.4,0.2-2.9,0.1-4.3,0.1c-1,0-2-0.1-3-0.5
	c-1.2-0.5-1.9-1.4-2.1-2.7c-0.1-0.4-0.1-0.8-0.1-1.2c0-1.9,0-3.8,0-5.7c0-0.2,0-0.3,0.2-0.3c1.1,0,2.1,0,3.2,0
	c0.2,0,0.3,0.1,0.3,0.3c0,1.7,0,3.4,0,5.2c0,0.2,0,0.4,0,0.7c0.1,0.7,0.5,1.1,1.3,1.2c1,0.2,2,0.2,3,0c1-0.2,1.5-0.8,1.6-1.8
	c0.1-0.7,0-1.4,0-2c0-1,0-2.1,0-3.1c0-0.2,0-0.2,0.2-0.2c1,0,2,0,3.1,0c0.2,0,0.3,0,0.3,0.2C99.6,17.4,99.6,19.1,99.6,20.7z"/>
<path id="XMLID_161_" class="st1" d="M79.9,25.4c-1.5,0-3,0-4.5,0c-0.6,0-1.1,0-1.7-0.2c-0.9-0.2-1.6-0.8-1.8-1.7
	c-0.2-0.9-0.3-1.8,0-2.8c0.3-1.1,1.1-1.6,2.1-1.9c0.5-0.1,1-0.2,1.5-0.1c1.2,0,2.4,0,3.7,0.1c0.3,0,0.7,0.1,1,0.1
	c0.3,0.1,0.6,0.2,0.8,0.5c0.1,0.1,0.1,0.2,0.2,0.1c0.1,0,0.1-0.2,0.1-0.3c0-0.3,0-0.5,0-0.8c-0.1-0.5-0.3-0.7-0.8-0.9
	c-0.4-0.1-0.9-0.2-1.3-0.2c-0.9,0-1.8-0.1-2.7,0.1c-0.4,0.1-0.7,0.2-0.8,0.6c0,0.1-0.1,0.1-0.2,0.1c-1.1,0-2.2,0-3.3,0
	c-0.2,0-0.2-0.1-0.2-0.2c0-1.5,1-2.6,2.5-3c1-0.2,2-0.3,3-0.3c1.4,0,2.7,0,4.1,0.1c0.6,0.1,1.1,0.1,1.7,0.4c1,0.5,1.4,1.4,1.5,2.4
	c0,0.2,0,0.5,0,0.7c0,2.2,0,4.4,0,6.6c0,0.2,0,0.3-0.3,0.3C83.1,25.4,81.5,25.4,79.9,25.4z M78.3,23.1c0.2,0,0.4,0,0.6,0
	c0.6,0,1.1,0,1.7-0.2c0.5-0.2,0.7-0.5,0.7-1.1c0-0.4-0.3-0.6-0.8-0.8c-0.1,0-0.2,0-0.3-0.1c-0.9-0.1-1.9-0.1-2.8-0.1
	c-0.5,0-1,0-1.5,0.2c-0.2,0.1-0.4,0.2-0.5,0.4c-0.4,0.7,0,1.5,0.8,1.6C76.9,23.1,77.6,23.1,78.3,23.1z"/>
<path id="XMLID_158_" class="st1" d="M59.9,25.4c-1.4,0-2.8,0-4.3,0c-0.5,0-1,0-1.5-0.1c-1.2-0.2-1.8-0.8-2.1-2
	c-0.2-0.7-0.2-1.5,0-2.2c0.2-1.2,1-1.9,2.2-2.2c0.5-0.1,1-0.1,1.4-0.1c1.2,0,2.5,0,3.7,0.1c0.3,0,0.6,0.1,0.9,0.1
	c0.4,0.1,0.7,0.3,0.9,0.6c0.1,0.1,0.1,0.1,0.2,0.1c0.1,0,0.1-0.1,0.1-0.2c0-0.3,0-0.7,0-1c-0.1-0.3-0.3-0.5-0.6-0.7
	c-0.3-0.1-0.5-0.2-0.8-0.2c-1.1-0.1-2.3-0.1-3.4,0c-0.4,0-0.7,0.2-0.7,0.6c0,0.1-0.1,0.1-0.2,0.1c-1.1,0-2.2,0-3.2,0
	c-0.2,0-0.2-0.1-0.2-0.2c0.1-1.5,1-2.6,2.5-3c1-0.2,2-0.3,3-0.3c1.4,0,2.7,0,4.1,0.1c0.4,0,0.8,0.1,1.2,0.2c1,0.3,1.6,1,1.9,2
	c0.1,0.4,0.2,0.7,0.2,1.1c0,2.3,0,4.6,0,6.9c0,0.2,0,0.3-0.3,0.3C63.3,25.4,61.6,25.4,59.9,25.4z M58.5,23.1c0.2,0,0.4,0,0.6,0
	c0.6,0,1.1,0,1.7-0.2c0.5-0.2,0.7-0.5,0.7-1.1c0-0.4-0.2-0.7-0.8-0.8c-0.1,0-0.2,0-0.3-0.1c-0.9-0.1-1.9-0.1-2.8-0.1
	c-0.5,0-1,0-1.5,0.2c-0.2,0.1-0.4,0.2-0.5,0.4c-0.4,0.7,0,1.5,0.8,1.6C57.1,23.1,57.8,23.1,58.5,23.1z"/>
<path id="XMLID_157_" class="st2" d="M70.5,18.3c0,2.3,0,4.6,0,6.9c0,0.2-0.1,0.3-0.3,0.3c-1,0-2,0-3,0c-0.2,0-0.2,0-0.2-0.2
	c0-4.6,0-9.2,0-13.8c0-0.2,0.1-0.2,0.2-0.2c1,0,2,0,3,0c0.2,0,0.2,0.1,0.2,0.2C70.5,13.7,70.5,16,70.5,18.3z"/>
<path id="XMLID_156_" class="st3" d="M13,18.1c0-0.8,0-1.7,0-2.5c0-0.1,0-0.2,0.2-0.3c0.5-0.2,1-0.4,1.5-0.4
	c3.4-0.3,5.4,2.1,5.6,4.3c0.1,1.6-0.4,3-1.8,4c-1.1,0.7-2.3,0.9-3.5,0.4c-1-0.4-1.5-1.2-1.8-2.1C13,21,13,20.6,13,20.2
	C13,19.5,13,18.8,13,18.1z"/>
<path id="XMLID_155_" class="st4" d="M10.5,12.8c0,0.4,0,0.7,0,1c0,0.1-0.1,0.2-0.2,0.2c-1.8,1.4-2.9,3.3-3.2,5.5
	c-0.3,2.6,0.5,4.9,2.2,6.8c1.5,1.7,3.4,2.7,5.6,3c2.5,0.3,4.9-0.3,6.9-1.7c2.3-1.6,3.7-3.7,4.1-6.4c0.5-3.7-0.6-6.8-3.3-9.4
	c-1.7-1.6-3.7-2.5-6-2.8c-1.1-0.1-2.3-0.1-3.4,0.1c-0.2,0-0.3,0-0.3-0.2c0-0.1,0-0.2,0-0.2c0-0.5,0-0.5,0.5-0.5
	c5.9-0.9,11.1,2.4,13,7.7c0.6,1.5,0.8,3.1,0.6,4.8c-0.3,2.4-1.2,4.5-2.9,6.3c-2.4,2.5-5.4,3.6-8.8,3.3C11.2,30,8.5,27.7,6.9,24
	c-0.5-1.2-0.7-2.4-0.7-3.6c0.1-3.1,1.5-5.6,4.1-7.4C10.4,12.9,10.4,12.9,10.5,12.8z"/>
<path id="XMLID_154_" class="st4" d="M13,12.7c0-0.3,0-0.6,0-0.8c0-0.1,0.1-0.1,0.1-0.1c3-0.7,5.7,0,8,2c1.6,1.5,2.4,3.4,2.5,5.5
	c0.2,3.2-1.8,6.2-4.9,7.3c-3.2,1.1-6.7-0.2-8.3-3c-0.9-1.7-1.1-3.5-0.3-5.3c0.1-0.2,0.2-0.3,0.3-0.4c0-0.1,0.1-0.1,0.2-0.3
	c0,0.1,0,0.2,0,0.3c0,0.9,0,1.9,0,2.8c0,2.6,2.2,5,4.8,5.4c2.7,0.4,5.3-1,6.6-3.3c1.1-2,1-4,0.1-6c-1-2.3-2.7-3.7-5.2-4.2
	c-1.3-0.2-2.5-0.2-3.7,0.2C13.1,12.7,13.1,12.7,13,12.7z"/>
<path id="XMLID_153_" class="st0" d="M42.2,21.9c-1.2,0-2.3,0-3.5,0c-0.2,0-0.2,0-0.2-0.2c0-0.6,0-1.2,0-1.8c0-0.1,0-0.2,0.2-0.2
	c2.3,0,4.6,0,6.9,0c0.4,0,0.9,0.1,1.1,0.6c0.2,0.4,0.1,0.8,0,1.2c-0.1,0.3-0.5,0.4-0.8,0.5c-0.7,0-1.4,0-2.1,0
	C43.2,22,42.7,21.9,42.2,21.9z"/>
<path id="XMLID_152_" class="st0" d="M42.1,16.7c-1.2,0-2.3,0-3.5,0c-0.2,0-0.2,0-0.2-0.2c0-0.6,0-1.2,0-1.8c0-0.2,0.1-0.2,0.2-0.2
	c2.2,0,4.4,0,6.5,0c0.3,0,0.5,0,0.8,0.1c0.4,0.1,0.7,0.3,0.7,0.7c0,0.2,0,0.4,0,0.7c-0.1,0.5-0.4,0.7-1,0.8c-0.9,0-1.7,0-2.6,0
	C42.8,16.7,42.4,16.7,42.1,16.7z"/>
<path id="XMLID_151_" class="st5" d="M78.3,23.1c-0.7,0-1.4,0-2.1-0.1c-0.8-0.1-1.2-0.9-0.8-1.6c0.1-0.2,0.3-0.3,0.5-0.4
	c0.5-0.2,1-0.2,1.5-0.2c0.9,0,1.9-0.1,2.8,0.1c0.1,0,0.2,0,0.3,0.1c0.5,0.1,0.7,0.4,0.8,0.8c0,0.6-0.2,0.9-0.7,1.1
	c-0.5,0.2-1.1,0.2-1.7,0.2C78.7,23.1,78.5,23.1,78.3,23.1z"/>
<path id="XMLID_150_" class="st6" d="M58.5,23.1c-0.7,0-1.4,0-2.1-0.1c-0.8-0.1-1.2-0.9-0.8-1.6c0.1-0.2,0.3-0.3,0.5-0.4
	c0.5-0.2,1-0.2,1.5-0.2c0.9,0,1.9-0.1,2.8,0.1c0.1,0,0.2,0,0.3,0.1c0.5,0.1,0.7,0.4,0.8,0.8c0,0.5-0.2,0.9-0.7,1.1
	c-0.5,0.2-1.1,0.2-1.7,0.2C58.9,23.1,58.7,23.1,58.5,23.1z"/>
<rect id="_x3C_Sector_x3E__1_" x="0" y="0" class="st7" width="100" height="33"/>
</svg>
