<?xml version="1.0" encoding="utf-8"?>
<!-- Generator: Adobe Illustrator 19.0.0, SVG Export Plug-In . SVG Version: 6.00 Build 0)  -->
<svg version="1.1" id="Capa_1" xmlns="http://www.w3.org/2000/svg" xmlns:xlink="http://www.w3.org/1999/xlink" x="0px" y="0px"
	 viewBox="0 0 120.5 69.8" style="enable-background:new 0 0 120.5 69.8;" xml:space="preserve">
<style type="text/css">
	.st0{fill:none;stroke:#000000;stroke-miterlimit:10;}
</style>
<g id="XMLID_9_">
	<g id="XMLID_1_">
		<g id="XMLID_34_">
			<path id="XMLID_38_" d="M3.3,6.8c33.1,0,66.1,0,99.2,0c4.8,0,9.5,0,14.3,0c3.2,0,3.2-5,0-5c-33.1,0-66.1,0-99.2,0
				c-4.8,0-9.5,0-14.3,0C0.1,1.8,0.1,6.8,3.3,6.8L3.3,6.8z"/>
		</g>
	</g>
	<g id="XMLID_2_">
		<g id="XMLID_28_">
			<path id="XMLID_32_" d="M114.3,4.3c0,20.7,0,41.3,0,62c0,3.2,5,3.2,5,0c0-20.7,0-41.3,0-62C119.3,1.1,114.3,1.1,114.3,4.3
				L114.3,4.3z"/>
		</g>
	</g>
	<g id="XMLID_3_">
		<g id="XMLID_22_">
			<path id="XMLID_26_" d="M0.8,4.2c0,20.8,0,41.6,0,62.4c0,3.2,5,3.2,5,0c0-20.8,0-41.6,0-62.4C5.8,1,0.8,1,0.8,4.2L0.8,4.2z"/>
		</g>
	</g>
	<g id="XMLID_4_">
		<g id="XMLID_16_">
			<path id="XMLID_20_" d="M3.3,69.1c33.1,0,66.1,0,99.2,0c4.8,0,9.5,0,14.3,0c3.2,0,3.2-5,0-5c-33.1,0-66.1,0-99.2,0
				c-4.8,0-9.5,0-14.3,0C0.1,64.1,0.1,69.1,3.3,69.1L3.3,69.1z"/>
		</g>
	</g>
	<g id="XMLID_8_">
		<g id="XMLID_71_">
			<path id="XMLID_83_" d="M14.8,17c23.2,0,46.3,0,69.5,0c3.2,0,3.2-5,0-5c-23.2,0-46.3,0-69.5,0C11.6,12,11.6,17,14.8,17L14.8,17z"
				/>
		</g>
	</g>
	<g id="XMLID_7_">
		<g id="XMLID_63_">
			<path id="XMLID_67_" d="M81.8,14.5c0,13.9,0,27.8,0,41.7c0,3.2,5,3.2,5,0c0-13.9,0-27.8,0-41.7C86.8,11.3,81.8,11.3,81.8,14.5
				L81.8,14.5z"/>
		</g>
	</g>
	<g id="XMLID_6_">
		<g id="XMLID_57_">
			<path id="XMLID_61_" d="M12.3,14.5c0,14,0,28,0,42c0,3.2,5,3.2,5,0c0-14,0-28,0-42C17.3,11.2,12.3,11.2,12.3,14.5L12.3,14.5z"/>
		</g>
	</g>
	<g id="XMLID_5_">
		<g id="XMLID_54_">
			<path id="XMLID_69_" d="M14.8,58.9c23.2,0,46.3,0,69.5,0c3.2,0,3.2-5,0-5c-23.2,0-46.3,0-69.5,0C11.6,53.9,11.6,58.9,14.8,58.9
				L14.8,58.9z"/>
		</g>
	</g>
	<g id="XMLID_10_">
		<g id="XMLID_75_">
			<path id="XMLID_98_" d="M91.6,54c3.2,0,3.2-5,0-5C88.4,49,88.3,54,91.6,54L91.6,54z"/>
		</g>
	</g>
	<line id="XMLID_15_" class="st0" x1="97.3" y1="51.8" x2="104.7" y2="51.8"/>
	<g id="XMLID_27_">
		<g id="XMLID_74_">
			<path id="XMLID_79_" d="M91.6,46.7c3.2,0,3.2-5,0-5C88.4,41.7,88.3,46.7,91.6,46.7L91.6,46.7z"/>
		</g>
	</g>
	<line id="XMLID_21_" class="st0" x1="97.3" y1="44.4" x2="104.7" y2="44.4"/>
	<g id="XMLID_39_">
		<g id="XMLID_84_">
			<path id="XMLID_89_" d="M91.6,38.7c3.2,0,3.2-5,0-5C88.4,33.7,88.3,38.7,91.6,38.7L91.6,38.7z"/>
		</g>
	</g>
	<line id="XMLID_33_" class="st0" x1="97.3" y1="36.2" x2="104.7" y2="36.2"/>
</g>
</svg>
